%TF.GenerationSoftware,KiCad,Pcbnew,10.0.2*%
%TF.CreationDate,2026-08-03T09:00:46+02:00*%
%TF.ProjectId,pvboiler,7076626f-696c-4657-922e-6b696361645f,rev?*%
%TF.SameCoordinates,Original*%
%TF.FileFunction,Soldermask,Top*%
%TF.FilePolarity,Negative*%
%FSLAX46Y46*%
G04 Gerber Fmt 4.6, Leading zero omitted, Abs format (unit mm)*
G04 Created by KiCad (PCBNEW 10.0.2) date 2026-08-03 09:00:46*
%MOMM*%
%LPD*%
G01*
G04 APERTURE LIST*
G04 Aperture macros list*
%AMRoundRect*
0 Rectangle with rounded corners*
0 $1 Rounding radius*
0 $2 $3 $4 $5 $6 $7 $8 $9 X,Y pos of 4 corners*
0 Add a 4 corners polygon primitive as box body*
4,1,4,$2,$3,$4,$5,$6,$7,$8,$9,$2,$3,0*
0 Add four circle primitives for the rounded corners*
1,1,$1+$1,$2,$3*
1,1,$1+$1,$4,$5*
1,1,$1+$1,$6,$7*
1,1,$1+$1,$8,$9*
0 Add four rect primitives between the rounded corners*
20,1,$1+$1,$2,$3,$4,$5,0*
20,1,$1+$1,$4,$5,$6,$7,0*
20,1,$1+$1,$6,$7,$8,$9,0*
20,1,$1+$1,$8,$9,$2,$3,0*%
G04 Aperture macros list end*
%ADD10RoundRect,0.250000X0.312500X0.625000X-0.312500X0.625000X-0.312500X-0.625000X0.312500X-0.625000X0*%
%ADD11RoundRect,0.250000X0.650000X-0.412500X0.650000X0.412500X-0.650000X0.412500X-0.650000X-0.412500X0*%
%ADD12RoundRect,0.250000X0.625000X-0.312500X0.625000X0.312500X-0.625000X0.312500X-0.625000X-0.312500X0*%
%ADD13C,1.600000*%
%ADD14C,1.524000*%
%ADD15C,3.200000*%
%ADD16RoundRect,0.250000X-0.550000X-0.550000X0.550000X-0.550000X0.550000X0.550000X-0.550000X0.550000X0*%
%ADD17RoundRect,0.250000X0.412500X0.650000X-0.412500X0.650000X-0.412500X-0.650000X0.412500X-0.650000X0*%
%ADD18C,2.000000*%
%ADD19RoundRect,0.250000X-0.625000X0.312500X-0.625000X-0.312500X0.625000X-0.312500X0.625000X0.312500X0*%
%ADD20RoundRect,0.250000X-1.050000X1.050000X-1.050000X-1.050000X1.050000X-1.050000X1.050000X1.050000X0*%
%ADD21C,2.600000*%
%ADD22RoundRect,0.250000X0.550000X0.550000X-0.550000X0.550000X-0.550000X-0.550000X0.550000X-0.550000X0*%
%ADD23RoundRect,0.250000X-0.312500X-0.625000X0.312500X-0.625000X0.312500X0.625000X-0.312500X0.625000X0*%
%ADD24C,2.400000*%
%ADD25C,2.700000*%
%ADD26C,3.000000*%
%ADD27RoundRect,0.250000X-0.845000X0.620000X-0.845000X-0.620000X0.845000X-0.620000X0.845000X0.620000X0*%
%ADD28O,2.190000X1.740000*%
%ADD29RoundRect,0.250000X-0.650000X0.412500X-0.650000X-0.412500X0.650000X-0.412500X0.650000X0.412500X0*%
%ADD30R,2.000000X2.300000*%
%ADD31C,2.300000*%
%ADD32C,1.500000*%
G04 APERTURE END LIST*
D10*
%TO.C,R15*%
X131037500Y-66500000D03*
X133962500Y-66500000D03*
%TD*%
%TO.C,R14*%
X133962500Y-69500000D03*
X131037500Y-69500000D03*
%TD*%
%TO.C,R13*%
X133962500Y-60500000D03*
X131037500Y-60500000D03*
%TD*%
%TO.C,R12*%
X133962500Y-63500000D03*
X131037500Y-63500000D03*
%TD*%
D11*
%TO.C,C6*%
X127480000Y-76062500D03*
X127480000Y-72937500D03*
%TD*%
D12*
%TO.C,R4*%
X122500000Y-72500000D03*
X122500000Y-69575000D03*
%TD*%
D13*
%TO.C,R11*%
X61420000Y-41000000D03*
X71580000Y-41000000D03*
%TD*%
D11*
%TO.C,C2*%
X90500000Y-87062500D03*
X90500000Y-83937500D03*
%TD*%
D13*
%TO.C,R10*%
X49620000Y-57000000D03*
X39460000Y-57000000D03*
%TD*%
D14*
%TO.C,A1*%
X94570000Y-51220000D03*
X94570000Y-53760000D03*
X94570000Y-56300000D03*
X94570000Y-58840000D03*
X94570000Y-61380000D03*
X94570000Y-63920000D03*
X94570000Y-66460000D03*
X94570000Y-69000000D03*
X94570000Y-71540000D03*
X94570000Y-74080000D03*
X94570000Y-76620000D03*
X94570000Y-79160000D03*
X94570000Y-81700000D03*
X94570000Y-84240000D03*
X94570000Y-86780000D03*
X117430000Y-86780000D03*
X117430000Y-84240000D03*
X117430000Y-81700000D03*
X117430000Y-79160000D03*
X117430000Y-76620000D03*
X117430000Y-74080000D03*
X117430000Y-71540000D03*
X117430000Y-69000000D03*
X117430000Y-66460000D03*
X117430000Y-63920000D03*
X117430000Y-61380000D03*
X117430000Y-58840000D03*
X117430000Y-56300000D03*
X117430000Y-53760000D03*
X117430000Y-51220000D03*
%TD*%
D13*
%TO.C,R1*%
X61420000Y-48500000D03*
X71580000Y-48500000D03*
%TD*%
D15*
%TO.C,REF\u002A\u002A*%
X135000000Y-40000000D03*
%TD*%
D16*
%TO.C,U2*%
X81190000Y-42460000D03*
D13*
X81190000Y-45000000D03*
X81190000Y-47540000D03*
X88810000Y-47540000D03*
X88810000Y-45000000D03*
X88810000Y-42460000D03*
%TD*%
D17*
%TO.C,C9*%
X127562500Y-43000000D03*
X124437500Y-43000000D03*
%TD*%
D18*
%TO.C,C8*%
X76500000Y-41000000D03*
X76500000Y-48500000D03*
%TD*%
D19*
%TO.C,R8*%
X127500000Y-53537500D03*
X127500000Y-56462500D03*
%TD*%
D18*
%TO.C,TP3*%
X114500000Y-39000000D03*
%TD*%
D20*
%TO.C,J2*%
X23500000Y-65380000D03*
D21*
X23500000Y-70460000D03*
X23500000Y-75540000D03*
X23500000Y-80620000D03*
%TD*%
D11*
%TO.C,C7*%
X127500000Y-51562500D03*
X127500000Y-48437500D03*
%TD*%
D22*
%TO.C,U1*%
X73000000Y-87000000D03*
D13*
X73000000Y-84460000D03*
X73000000Y-81920000D03*
X65380000Y-81920000D03*
X65380000Y-84460000D03*
X65380000Y-87000000D03*
%TD*%
D19*
%TO.C,R9*%
X127480000Y-79575000D03*
X127480000Y-82500000D03*
%TD*%
D23*
%TO.C,R5*%
X76537500Y-87000000D03*
X79462500Y-87000000D03*
%TD*%
D24*
%TO.C,R3*%
X34340000Y-75500000D03*
X49580000Y-75500000D03*
%TD*%
D20*
%TO.C,J4*%
X23500000Y-48085000D03*
D21*
X23500000Y-53165000D03*
X23500000Y-58245000D03*
%TD*%
D15*
%TO.C,REF\u002A\u002A*%
X135000000Y-90000000D03*
%TD*%
D24*
%TO.C,C4*%
X49500000Y-65500000D03*
X34500000Y-65500000D03*
%TD*%
D25*
%TO.C,F1*%
X45750000Y-45000000D03*
D26*
X34500000Y-45000000D03*
X57000000Y-45000000D03*
%TD*%
D27*
%TO.C,J1*%
X132980000Y-73190000D03*
D28*
X132980000Y-75730000D03*
X132980000Y-78270000D03*
X132980000Y-80810000D03*
%TD*%
D29*
%TO.C,C5*%
X122500000Y-64437500D03*
X122500000Y-67562500D03*
%TD*%
D17*
%TO.C,C10*%
X121062500Y-43000000D03*
X117937500Y-43000000D03*
%TD*%
D18*
%TO.C,TP1*%
X127500000Y-39000000D03*
%TD*%
D15*
%TO.C,REF\u002A\u002A*%
X20000000Y-40000000D03*
%TD*%
%TO.C,REF\u002A\u002A*%
X20000000Y-90000000D03*
%TD*%
D30*
%TO.C,U3*%
X56535000Y-73330000D03*
D31*
X61615000Y-73330000D03*
X87015000Y-73330000D03*
X87015000Y-55550000D03*
X81935000Y-55550000D03*
%TD*%
D18*
%TO.C,TP4*%
X108000000Y-39000000D03*
%TD*%
D19*
%TO.C,R6*%
X122500000Y-56500000D03*
X122500000Y-59425000D03*
%TD*%
D12*
%TO.C,R7*%
X122500000Y-53962500D03*
X122500000Y-51037500D03*
%TD*%
D27*
%TO.C,J3*%
X133000000Y-49190000D03*
D28*
X133000000Y-51730000D03*
X133000000Y-54270000D03*
X133000000Y-56810000D03*
%TD*%
D18*
%TO.C,TP2*%
X121000000Y-39000000D03*
%TD*%
D13*
%TO.C,R2*%
X39880000Y-82500000D03*
X50040000Y-82500000D03*
%TD*%
D32*
X127500000Y-45500000D03*
X127000000Y-58500000D03*
X125500000Y-62000000D03*
X127500000Y-64000000D03*
X127500000Y-84500000D03*
M02*
