M48
; DRILL file KiCad 10.0.2 date 2026-08-06T14:38:03
; FORMAT={-:-/ absolute / metric / decimal}
; #@! TF.CreationDate,2026-08-06T14:38:03+02:00
; #@! TF.GenerationSoftware,Kicad,Pcbnew,10.0.2
; #@! TF.FileFunction,Plated,1,2,PTH
FMAT,2
METRIC
; #@! TA.AperFunction,Plated,PTH,ViaDrill
T1C0.750
; #@! TA.AperFunction,Plated,PTH,ComponentDrill
T2C0.760
; #@! TA.AperFunction,Plated,PTH,ComponentDrill
T3C0.800
; #@! TA.AperFunction,Plated,PTH,ComponentDrill
T4C1.000
; #@! TA.AperFunction,Plated,PTH,ComponentDrill
T5C1.016
; #@! TA.AperFunction,Plated,PTH,ComponentDrill
T6C1.190
; #@! TA.AperFunction,Plated,PTH,ComponentDrill
T7C1.200
; #@! TA.AperFunction,Plated,PTH,ComponentDrill
T8C1.300
%
G90
G05
T1
X125.5Y-62.0
X127.0Y-58.5
X127.5Y-45.5
X127.5Y-64.0
X127.5Y-84.5
T2
X81.935Y-55.55
X87.015Y-55.55
X87.015Y-73.33
T3
X39.46Y-57.0
X39.88Y-82.5
X49.62Y-57.0
X50.04Y-82.5
X56.535Y-73.33
X61.42Y-41.0
X61.42Y-48.5
X61.615Y-73.33
X65.38Y-81.92
X65.38Y-84.46
X65.38Y-87.0
X71.58Y-41.0
X71.58Y-48.5
X73.0Y-81.92
X73.0Y-84.46
X73.0Y-87.0
X81.19Y-42.46
X81.19Y-45.0
X81.19Y-47.54
X88.81Y-42.46
X88.81Y-45.0
X88.81Y-47.54
T4
X76.5Y-41.0
X76.5Y-48.5
X101.5Y-39.0
X108.0Y-39.0
X114.5Y-39.0
X121.0Y-39.0
X127.5Y-39.0
T5
X94.57Y-51.22
X94.57Y-53.76
X94.57Y-56.3
X94.57Y-58.84
X94.57Y-61.38
X94.57Y-63.92
X94.57Y-66.46
X94.57Y-69.0
X94.57Y-71.54
X94.57Y-74.08
X94.57Y-76.62
X94.57Y-79.16
X94.57Y-81.7
X94.57Y-84.24
X94.57Y-86.78
X117.43Y-51.22
X117.43Y-53.76
X117.43Y-56.3
X117.43Y-58.84
X117.43Y-61.38
X117.43Y-63.92
X117.43Y-66.46
X117.43Y-69.0
X117.43Y-71.54
X117.43Y-74.08
X117.43Y-76.62
X117.43Y-79.16
X117.43Y-81.7
X117.43Y-84.24
X117.43Y-86.78
T6
X132.98Y-73.19
X132.98Y-75.73
X132.98Y-78.27
X132.98Y-80.81
X133.0Y-49.19
X133.0Y-51.73
X133.0Y-54.27
X133.0Y-56.81
T7
X34.34Y-75.5
X34.5Y-65.5
X49.5Y-65.5
X49.58Y-75.5
T8
X23.5Y-48.085
X23.5Y-53.165
X23.5Y-58.245
X23.5Y-65.38
X23.5Y-70.46
X23.5Y-75.54
X23.5Y-80.62
X34.5Y-45.0
X57.0Y-45.0
M30
