%TF.GenerationSoftware,KiCad,Pcbnew,10.0.2*%
%TF.CreationDate,2026-06-16T10:17:07+02:00*%
%TF.ProjectId,pvboiler,7076626f-696c-4657-922e-6b696361645f,rev?*%
%TF.SameCoordinates,Original*%
%TF.FileFunction,Copper,L1,Top*%
%TF.FilePolarity,Positive*%
%FSLAX46Y46*%
G04 Gerber Fmt 4.6, Leading zero omitted, Abs format (unit mm)*
G04 Created by KiCad (PCBNEW 10.0.2) date 2026-06-16 10:17:07*
%MOMM*%
%LPD*%
G01*
G04 APERTURE LIST*
G04 Aperture macros list*
%AMRoundRect*
0 Rectangle with rounded corners*
0 $1 Rounding radius*
0 $2 $3 $4 $5 $6 $7 $8 $9 X,Y pos of 4 corners*
0 Add a 4 corners polygon primitive as box body*
4,1,4,$2,$3,$4,$5,$6,$7,$8,$9,$2,$3,0*
0 Add four circle primitives for the rounded corners*
1,1,$1+$1,$2,$3*
1,1,$1+$1,$4,$5*
1,1,$1+$1,$6,$7*
1,1,$1+$1,$8,$9*
0 Add four rect primitives between the rounded corners*
20,1,$1+$1,$2,$3,$4,$5,0*
20,1,$1+$1,$4,$5,$6,$7,0*
20,1,$1+$1,$6,$7,$8,$9,0*
20,1,$1+$1,$8,$9,$2,$3,0*%
G04 Aperture macros list end*
%TA.AperFunction,ComponentPad*%
%ADD10C,1.524000*%
%TD*%
%TA.AperFunction,SMDPad,CuDef*%
%ADD11RoundRect,0.250000X0.650000X-0.412500X0.650000X0.412500X-0.650000X0.412500X-0.650000X-0.412500X0*%
%TD*%
%TA.AperFunction,SMDPad,CuDef*%
%ADD12RoundRect,0.250000X0.625000X-0.312500X0.625000X0.312500X-0.625000X0.312500X-0.625000X-0.312500X0*%
%TD*%
%TA.AperFunction,ComponentPad*%
%ADD13C,1.600000*%
%TD*%
%TA.AperFunction,ComponentPad*%
%ADD14RoundRect,0.250000X-0.550000X-0.550000X0.550000X-0.550000X0.550000X0.550000X-0.550000X0.550000X0*%
%TD*%
%TA.AperFunction,SMDPad,CuDef*%
%ADD15RoundRect,0.250000X0.412500X0.650000X-0.412500X0.650000X-0.412500X-0.650000X0.412500X-0.650000X0*%
%TD*%
%TA.AperFunction,ComponentPad*%
%ADD16C,1.500000*%
%TD*%
%TA.AperFunction,SMDPad,CuDef*%
%ADD17RoundRect,0.250000X-0.625000X0.312500X-0.625000X-0.312500X0.625000X-0.312500X0.625000X0.312500X0*%
%TD*%
%TA.AperFunction,ComponentPad*%
%ADD18C,2.000000*%
%TD*%
%TA.AperFunction,ComponentPad*%
%ADD19RoundRect,0.250000X-1.050000X1.050000X-1.050000X-1.050000X1.050000X-1.050000X1.050000X1.050000X0*%
%TD*%
%TA.AperFunction,ComponentPad*%
%ADD20C,2.600000*%
%TD*%
%TA.AperFunction,ComponentPad*%
%ADD21RoundRect,0.250000X0.550000X0.550000X-0.550000X0.550000X-0.550000X-0.550000X0.550000X-0.550000X0*%
%TD*%
%TA.AperFunction,SMDPad,CuDef*%
%ADD22RoundRect,0.250000X-0.312500X-0.625000X0.312500X-0.625000X0.312500X0.625000X-0.312500X0.625000X0*%
%TD*%
%TA.AperFunction,ComponentPad*%
%ADD23C,2.400000*%
%TD*%
%TA.AperFunction,ComponentPad*%
%ADD24C,3.000000*%
%TD*%
%TA.AperFunction,ComponentPad*%
%ADD25RoundRect,0.250000X-0.845000X0.620000X-0.845000X-0.620000X0.845000X-0.620000X0.845000X0.620000X0*%
%TD*%
%TA.AperFunction,ComponentPad*%
%ADD26O,2.190000X1.740000*%
%TD*%
%TA.AperFunction,SMDPad,CuDef*%
%ADD27RoundRect,0.250000X-0.650000X0.412500X-0.650000X-0.412500X0.650000X-0.412500X0.650000X0.412500X0*%
%TD*%
%TA.AperFunction,ComponentPad*%
%ADD28R,2.000000X2.300000*%
%TD*%
%TA.AperFunction,ComponentPad*%
%ADD29C,2.300000*%
%TD*%
%TA.AperFunction,ViaPad*%
%ADD30C,1.500000*%
%TD*%
%TA.AperFunction,Conductor*%
%ADD31C,0.500000*%
%TD*%
G04 APERTURE END LIST*
D10*
%TO.P,A1,1,A0_1*%
%TO.N,unconnected-(A1-A0-Pad1)*%
X94570000Y-51220000D03*
%TO.P,A1,2,RSV_2*%
%TO.N,unconnected-(A1-RSV-Pad2)*%
X94570000Y-53760000D03*
%TO.P,A1,3,RSV_3*%
%TO.N,unconnected-(A1-RSV-Pad3)*%
X94570000Y-56300000D03*
%TO.P,A1,4,S3_4*%
%TO.N,unconnected-(A1-S3-Pad4)*%
X94570000Y-58840000D03*
%TO.P,A1,5,S2_5*%
%TO.N,unconnected-(A1-S2-Pad5)*%
X94570000Y-61380000D03*
%TO.P,A1,6,S1_6*%
%TO.N,unconnected-(A1-S1-Pad6)*%
X94570000Y-63920000D03*
%TO.P,A1,7,SC_7*%
%TO.N,unconnected-(A1-SC-Pad7)*%
X94570000Y-66460000D03*
%TO.P,A1,8,S0_8*%
%TO.N,unconnected-(A1-S0-Pad8)*%
X94570000Y-69000000D03*
%TO.P,A1,9,SK_9*%
%TO.N,unconnected-(A1-SK-Pad9)*%
X94570000Y-71540000D03*
%TO.P,A1,10,GND_10*%
%TO.N,GND*%
X94570000Y-74080000D03*
%TO.P,A1,11,3.3V_11*%
%TO.N,unconnected-(A1-3.3V-Pad11)*%
X94570000Y-76620000D03*
%TO.P,A1,12,EN_12*%
%TO.N,unconnected-(A1-EN-Pad12)*%
X94570000Y-79160000D03*
%TO.P,A1,13,RST_13*%
%TO.N,unconnected-(A1-RST-Pad13)*%
X94570000Y-81700000D03*
%TO.P,A1,14,GND_14*%
%TO.N,GND*%
X94570000Y-84240000D03*
%TO.P,A1,15,VIN_15*%
%TO.N,+5V*%
X94570000Y-86780000D03*
%TO.P,A1,16,3.3V_16*%
%TO.N,+3.3V_2*%
X117430000Y-86780000D03*
%TO.P,A1,17,GND_17*%
%TO.N,GND*%
X117430000Y-84240000D03*
%TO.P,A1,18,TX_18*%
%TO.N,unconnected-(A1-TX-Pad18)*%
X117430000Y-81700000D03*
%TO.P,A1,19,RX_19*%
%TO.N,unconnected-(A1-RX-Pad19)*%
X117430000Y-79160000D03*
%TO.P,A1,20,D8_20*%
%TO.N,unconnected-(A1-D8-Pad20)*%
X117430000Y-76620000D03*
%TO.P,A1,21,D7_21*%
%TO.N,/GATE_DRIVE*%
X117430000Y-74080000D03*
%TO.P,A1,22,D6_22*%
%TO.N,/AUX_GPIO*%
X117430000Y-71540000D03*
%TO.P,A1,23,D5_23*%
%TO.N,/ZERO_CROSS*%
X117430000Y-69000000D03*
%TO.P,A1,24,GND_24*%
%TO.N,GND*%
X117430000Y-66460000D03*
%TO.P,A1,25,3.3V_25*%
%TO.N,+3.3V_1*%
X117430000Y-63920000D03*
%TO.P,A1,26,D4_26*%
%TO.N,unconnected-(A1-D4-Pad26)*%
X117430000Y-61380000D03*
%TO.P,A1,27,D3_27*%
%TO.N,unconnected-(A1-D3-Pad27)*%
X117430000Y-58840000D03*
%TO.P,A1,28,D2_28*%
%TO.N,/I2C_SDA*%
X117430000Y-56300000D03*
%TO.P,A1,29,D1_29*%
%TO.N,/I2C_SCL*%
X117430000Y-53760000D03*
%TO.P,A1,30,D0_30*%
%TO.N,unconnected-(A1-D0-Pad30)*%
X117430000Y-51220000D03*
%TD*%
D11*
%TO.P,C6,1*%
%TO.N,Net-(J1-Pin_2)*%
X127500000Y-69062500D03*
%TO.P,C6,2*%
%TO.N,GND*%
X127500000Y-65937500D03*
%TD*%
D12*
%TO.P,R4,1*%
%TO.N,/ZERO_CROSS*%
X122500000Y-72500000D03*
%TO.P,R4,2*%
%TO.N,+3.3V_1*%
X122500000Y-69575000D03*
%TD*%
D13*
%TO.P,R11,1*%
%TO.N,Net-(U3-AC{slash}N)*%
X61995000Y-41500000D03*
%TO.P,R11,2*%
%TO.N,Net-(C8-Pad1)*%
X72155000Y-41500000D03*
%TD*%
D11*
%TO.P,C2,1*%
%TO.N,+5V*%
X90500000Y-87062500D03*
%TO.P,C2,2*%
%TO.N,GND*%
X90500000Y-83937500D03*
%TD*%
D13*
%TO.P,R10,1*%
%TO.N,/TRIAC_G*%
X49620000Y-57000000D03*
%TO.P,R10,2*%
%TO.N,/230VAC_L*%
X39460000Y-57000000D03*
%TD*%
%TO.P,R1,1*%
%TO.N,/230VAC_L*%
X61995000Y-48500000D03*
%TO.P,R1,2*%
%TO.N,Net-(C8-Pad2)*%
X72155000Y-48500000D03*
%TD*%
D14*
%TO.P,U2,1*%
%TO.N,Net-(C8-Pad1)*%
X81190000Y-42460000D03*
D13*
%TO.P,U2,2*%
%TO.N,Net-(C8-Pad2)*%
X81190000Y-45000000D03*
%TO.P,U2,3,NC_3*%
%TO.N,unconnected-(U2-NC-Pad3)*%
X81190000Y-47540000D03*
%TO.P,U2,4*%
%TO.N,GND*%
X88810000Y-47540000D03*
%TO.P,U2,5*%
%TO.N,/ZERO_CROSS*%
X88810000Y-45000000D03*
%TO.P,U2,6*%
%TO.N,unconnected-(U2-Pad6)*%
X88810000Y-42460000D03*
%TD*%
D15*
%TO.P,C9,1*%
%TO.N,+5V*%
X127562500Y-43000000D03*
%TO.P,C9,2*%
%TO.N,GND*%
X124437500Y-43000000D03*
%TD*%
D16*
%TO.P,C8,1*%
%TO.N,Net-(C8-Pad1)*%
X76995000Y-42500000D03*
%TO.P,C8,2*%
%TO.N,Net-(C8-Pad2)*%
X76995000Y-47500000D03*
%TD*%
D17*
%TO.P,R8,1*%
%TO.N,Net-(J3-Pin_2)*%
X127500000Y-53537500D03*
%TO.P,R8,2*%
%TO.N,+5V*%
X127500000Y-56462500D03*
%TD*%
D18*
%TO.P,TP3,1,1_1*%
%TO.N,GND*%
X114500000Y-39000000D03*
%TD*%
D19*
%TO.P,J2,1,Pin_1_1*%
%TO.N,/230VAC_L*%
X23500000Y-65380000D03*
D20*
%TO.P,J2,2,Pin_2_2*%
%TO.N,/TRIAC_G*%
X23500000Y-70460000D03*
%TO.P,J2,3,Pin_3_3*%
%TO.N,/LOAD_L*%
X23500000Y-75540000D03*
%TO.P,J2,4,Pin_4_4*%
X23500000Y-80620000D03*
%TD*%
D11*
%TO.P,C7,1*%
%TO.N,Net-(J3-Pin_2)*%
X127500000Y-51562500D03*
%TO.P,C7,2*%
%TO.N,GND*%
X127500000Y-48437500D03*
%TD*%
D21*
%TO.P,U1,1*%
%TO.N,Net-(R5-Pad1)*%
X73000000Y-87000000D03*
D13*
%TO.P,U1,2*%
%TO.N,GND*%
X73000000Y-84460000D03*
%TO.P,U1,3,NC_3*%
%TO.N,unconnected-(U1-NC-Pad3)*%
X73000000Y-81920000D03*
%TO.P,U1,4*%
%TO.N,/LOAD_L*%
X65380000Y-81920000D03*
%TO.P,U1,5,NC_5*%
%TO.N,unconnected-(U1-NC-Pad5)*%
X65380000Y-84460000D03*
%TO.P,U1,6*%
%TO.N,Net-(R2-Pad2)*%
X65380000Y-87000000D03*
%TD*%
D17*
%TO.P,R9,1*%
%TO.N,Net-(J1-Pin_2)*%
X127500000Y-72575000D03*
%TO.P,R9,2*%
%TO.N,+5V*%
X127500000Y-75500000D03*
%TD*%
D22*
%TO.P,R5,1*%
%TO.N,Net-(R5-Pad1)*%
X76537500Y-87000000D03*
%TO.P,R5,2*%
%TO.N,/GATE_DRIVE*%
X79462500Y-87000000D03*
%TD*%
D23*
%TO.P,R3,1*%
%TO.N,/LOAD_L*%
X34340000Y-75500000D03*
%TO.P,R3,2*%
%TO.N,Net-(C4-Pad1)*%
X49580000Y-75500000D03*
%TD*%
D19*
%TO.P,J4,1,Pin_1_1*%
%TO.N,/230VAC_N*%
X23500000Y-48085000D03*
D20*
%TO.P,J4,2,Pin_2_2*%
X23500000Y-53165000D03*
%TO.P,J4,3,Pin_3_3*%
%TO.N,/230VAC_L*%
X23500000Y-58245000D03*
%TD*%
D23*
%TO.P,C4,1*%
%TO.N,Net-(C4-Pad1)*%
X49500000Y-65500000D03*
%TO.P,C4,2*%
%TO.N,/230VAC_L*%
X34500000Y-65500000D03*
%TD*%
D24*
%TO.P,F1,1*%
%TO.N,/230VAC_N*%
X34500000Y-45000000D03*
%TO.P,F1,2*%
%TO.N,Net-(U3-AC{slash}N)*%
X57000000Y-45000000D03*
%TD*%
D25*
%TO.P,J1,1,Pin_1_1*%
%TO.N,GND*%
X133000000Y-66190000D03*
D26*
%TO.P,J1,2,Pin_2_2*%
%TO.N,Net-(J1-Pin_2)*%
X133000000Y-68730000D03*
%TO.P,J1,3,Pin_3_3*%
%TO.N,/I2C_SCL*%
X133000000Y-71270000D03*
%TO.P,J1,4,Pin_4_4*%
%TO.N,/I2C_SDA*%
X133000000Y-73810000D03*
%TD*%
D27*
%TO.P,C5,1*%
%TO.N,+3.3V_1*%
X122500000Y-64437500D03*
%TO.P,C5,2*%
%TO.N,GND*%
X122500000Y-67562500D03*
%TD*%
D15*
%TO.P,C10,1*%
%TO.N,+3.3V_1*%
X121062500Y-43000000D03*
%TO.P,C10,2*%
%TO.N,GND*%
X117937500Y-43000000D03*
%TD*%
D18*
%TO.P,TP1,1,1_1*%
%TO.N,+5V*%
X127500000Y-39000000D03*
%TD*%
D28*
%TO.P,U3,1,AC/L_1*%
%TO.N,/230VAC_L*%
X56535000Y-73330000D03*
D29*
%TO.P,U3,3,AC/N_3*%
%TO.N,Net-(U3-AC{slash}N)*%
X61615000Y-73330000D03*
%TO.P,U3,5,NC_5*%
%TO.N,unconnected-(U3-NC-Pad5)*%
X87015000Y-73330000D03*
%TO.P,U3,14,-Vo_14*%
%TO.N,GND*%
X87015000Y-55550000D03*
%TO.P,U3,16,+Vo_16*%
%TO.N,+5V*%
X81935000Y-55550000D03*
%TD*%
D18*
%TO.P,TP4,1,1_1*%
%TO.N,/AUX_GPIO*%
X108000000Y-39000000D03*
%TD*%
D17*
%TO.P,R6,1*%
%TO.N,/I2C_SDA*%
X122500000Y-56500000D03*
%TO.P,R6,2*%
%TO.N,+3.3V_1*%
X122500000Y-59425000D03*
%TD*%
D12*
%TO.P,R7,1*%
%TO.N,/I2C_SCL*%
X122500000Y-53962500D03*
%TO.P,R7,2*%
%TO.N,+3.3V_1*%
X122500000Y-51037500D03*
%TD*%
D25*
%TO.P,J3,1,Pin_1_1*%
%TO.N,GND*%
X133000000Y-49190000D03*
D26*
%TO.P,J3,2,Pin_2_2*%
%TO.N,Net-(J3-Pin_2)*%
X133000000Y-51730000D03*
%TO.P,J3,3,Pin_3_3*%
%TO.N,/I2C_SCL*%
X133000000Y-54270000D03*
%TO.P,J3,4,Pin_4_4*%
%TO.N,/I2C_SDA*%
X133000000Y-56810000D03*
%TD*%
D18*
%TO.P,TP2,1,1_1*%
%TO.N,+3.3V_1*%
X121000000Y-39000000D03*
%TD*%
D13*
%TO.P,R2,1*%
%TO.N,/TRIAC_G*%
X39880000Y-82500000D03*
%TO.P,R2,2*%
%TO.N,Net-(R2-Pad2)*%
X50040000Y-82500000D03*
%TD*%
D30*
%TO.N,+5V*%
X127500000Y-77500000D03*
%TD*%
%TO.N,Net-(J1-Pin_2)*%
D31*
X127500000Y-69062500D02*
X127500000Y-69042500D01*
X133000000Y-68730000D02*
X127812500Y-68730000D01*
X127500000Y-72575000D02*
X127500000Y-69062500D01*
X127500000Y-69042500D02*
X127812500Y-68730000D01*
%TO.N,GND*%
X88540000Y-84460000D02*
X73000000Y-84460000D01*
X87015000Y-55550000D02*
X87015000Y-60585000D01*
X94570000Y-84240000D02*
X94330000Y-84000000D01*
X87015000Y-55550000D02*
X88810000Y-53755000D01*
X87015000Y-60585000D02*
X92000000Y-65570000D01*
X88810000Y-53755000D02*
X88810000Y-47540000D01*
X89000000Y-84000000D02*
X88540000Y-84460000D01*
X127582500Y-66100000D02*
X127482500Y-66000000D01*
X127482500Y-49100000D02*
X127582500Y-49000000D01*
X92000000Y-65570000D02*
X92000000Y-71510000D01*
X94330000Y-84000000D02*
X89000000Y-84000000D01*
X92000000Y-71510000D02*
X94570000Y-74080000D01*
%TO.N,/ZERO_CROSS*%
X120930000Y-72500000D02*
X117430000Y-69000000D01*
X122500000Y-72500000D02*
X120930000Y-72500000D01*
%TO.N,+3.3V_1*%
X122500000Y-69575000D02*
X122925000Y-69575000D01*
X120000000Y-68500000D02*
X120000000Y-64437500D01*
X117947500Y-64437500D02*
X117430000Y-63920000D01*
X122925000Y-69575000D02*
X123000000Y-69500000D01*
X121062500Y-49600000D02*
X122500000Y-51037500D01*
X121000000Y-42937500D02*
X121062500Y-43000000D01*
X122500000Y-69575000D02*
X121075000Y-69575000D01*
X121062500Y-43000000D02*
X121062500Y-49600000D01*
X123537500Y-51037500D02*
X124500000Y-52000000D01*
X121000000Y-39000000D02*
X121000000Y-42937500D01*
X122500000Y-64437500D02*
X120000000Y-64437500D01*
X123575000Y-59425000D02*
X122500000Y-59425000D01*
X122500000Y-59425000D02*
X122500000Y-64437500D01*
X120000000Y-64437500D02*
X117947500Y-64437500D01*
X121075000Y-69575000D02*
X120000000Y-68500000D01*
X124500000Y-58500000D02*
X123575000Y-59425000D01*
X122500000Y-51037500D02*
X123537500Y-51037500D01*
X124500000Y-52000000D02*
X124500000Y-58500000D01*
%TO.N,+5V*%
X127500000Y-56462500D02*
X127500000Y-58000000D01*
X90720000Y-86780000D02*
X95000000Y-86780000D01*
X127500000Y-58000000D02*
X125000000Y-60500000D01*
X127500000Y-42937500D02*
X127562500Y-43000000D01*
X125500000Y-45000000D02*
X125500000Y-54462500D01*
X90500000Y-87062500D02*
X90500000Y-87000000D01*
X125000000Y-73000000D02*
X127500000Y-75500000D01*
X127500000Y-39000000D02*
X127500000Y-42937500D01*
X127500000Y-43000000D02*
X125500000Y-45000000D01*
X90500000Y-87000000D02*
X90720000Y-86780000D01*
X125000000Y-60500000D02*
X125000000Y-73000000D01*
X125500000Y-54462500D02*
X127500000Y-56462500D01*
X127500000Y-75500000D02*
X127500000Y-77500000D01*
X127562500Y-43000000D02*
X127500000Y-43000000D01*
%TO.N,/GATE_DRIVE*%
X101500000Y-89500000D02*
X116920000Y-74080000D01*
X116920000Y-74080000D02*
X117430000Y-74080000D01*
X85000000Y-87000000D02*
X87500000Y-89500000D01*
X87500000Y-89500000D02*
X101500000Y-89500000D01*
X79462500Y-87000000D02*
X85000000Y-87000000D01*
%TO.N,/AUX_GPIO*%
X117430000Y-71540000D02*
X108000000Y-62110000D01*
X108000000Y-62110000D02*
X108000000Y-39000000D01*
%TO.N,/I2C_SDA*%
X122500000Y-56500000D02*
X117340000Y-56500000D01*
%TO.N,/I2C_SCL*%
X122500000Y-53962500D02*
X121537500Y-53962500D01*
X121335000Y-53760000D02*
X117540000Y-53760000D01*
X135770000Y-54270000D02*
X137520000Y-56020000D01*
X137520000Y-70000000D02*
X136250000Y-71270000D01*
X136250000Y-71270000D02*
X133000000Y-71270000D01*
X121537500Y-53962500D02*
X121335000Y-53760000D01*
X133000000Y-54270000D02*
X135770000Y-54270000D01*
X137520000Y-56020000D02*
X137520000Y-70000000D01*
%TO.N,Net-(J3-Pin_2)*%
X127712500Y-51730000D02*
X127482500Y-51500000D01*
X133000000Y-51730000D02*
X127712500Y-51730000D01*
X127500000Y-53537500D02*
X127500000Y-51562500D01*
%TO.N,Net-(R5-Pad1)*%
X76537500Y-87000000D02*
X73000000Y-87000000D01*
%TD*%
%TA.AperFunction,Conductor*%
%TO.N,GND*%
G36*
X131684940Y-52399407D02*
G01*
X131706839Y-52421306D01*
X131805917Y-52557675D01*
X131947325Y-52699083D01*
X132109113Y-52816629D01*
X132287297Y-52907419D01*
X132287305Y-52907421D01*
X132287306Y-52907422D01*
X132290005Y-52908541D01*
X132290749Y-52909177D01*
X132290763Y-52909184D01*
X132290761Y-52909187D01*
X132336525Y-52948284D01*
X132350801Y-53007781D01*
X132327378Y-53064306D01*
X132290005Y-53091459D01*
X132287306Y-53092577D01*
X132287300Y-53092579D01*
X132287297Y-53092581D01*
X132228714Y-53122431D01*
X132109115Y-53183369D01*
X131947326Y-53300916D01*
X131805916Y-53442326D01*
X131688369Y-53604115D01*
X131597578Y-53782303D01*
X131535783Y-53972492D01*
X131504500Y-54170005D01*
X131504500Y-54369994D01*
X131535783Y-54567507D01*
X131597578Y-54757696D01*
X131597580Y-54757699D01*
X131597581Y-54757703D01*
X131615607Y-54793081D01*
X131683078Y-54925500D01*
X131688371Y-54935887D01*
X131805917Y-55097675D01*
X131947325Y-55239083D01*
X132109113Y-55356629D01*
X132287297Y-55447419D01*
X132287305Y-55447421D01*
X132287306Y-55447422D01*
X132290005Y-55448541D01*
X132290749Y-55449177D01*
X132290763Y-55449184D01*
X132290761Y-55449187D01*
X132336525Y-55488284D01*
X132350801Y-55547781D01*
X132327378Y-55604306D01*
X132290005Y-55631459D01*
X132287306Y-55632577D01*
X132287300Y-55632579D01*
X132287297Y-55632581D01*
X132220683Y-55666522D01*
X132109115Y-55723369D01*
X131947326Y-55840916D01*
X131805916Y-55982326D01*
X131688369Y-56144115D01*
X131597578Y-56322303D01*
X131535783Y-56512492D01*
X131504500Y-56710005D01*
X131504500Y-56909994D01*
X131535783Y-57107507D01*
X131597578Y-57297696D01*
X131597580Y-57297699D01*
X131597581Y-57297703D01*
X131637854Y-57376743D01*
X131681804Y-57463000D01*
X131688371Y-57475887D01*
X131805917Y-57637675D01*
X131947325Y-57779083D01*
X132109113Y-57896629D01*
X132287297Y-57987419D01*
X132477490Y-58049216D01*
X132556497Y-58061729D01*
X132675006Y-58080500D01*
X132675009Y-58080500D01*
X133324994Y-58080500D01*
X133428745Y-58064067D01*
X133522510Y-58049216D01*
X133712703Y-57987419D01*
X133890887Y-57896629D01*
X134052675Y-57779083D01*
X134194083Y-57637675D01*
X134311629Y-57475887D01*
X134402419Y-57297703D01*
X134464216Y-57107510D01*
X134495500Y-56909991D01*
X134495500Y-56710009D01*
X134495500Y-56710005D01*
X134473675Y-56572214D01*
X134464216Y-56512490D01*
X134402419Y-56322297D01*
X134311629Y-56144113D01*
X134194083Y-55982325D01*
X134052675Y-55840917D01*
X133890887Y-55723371D01*
X133890886Y-55723370D01*
X133890884Y-55723369D01*
X133826798Y-55690716D01*
X133712703Y-55632581D01*
X133712697Y-55632579D01*
X133712695Y-55632578D01*
X133709999Y-55631461D01*
X133709254Y-55630824D01*
X133709237Y-55630816D01*
X133709239Y-55630811D01*
X133663476Y-55591721D01*
X133649198Y-55532225D01*
X133672617Y-55475699D01*
X133709999Y-55448539D01*
X133712688Y-55447423D01*
X133712703Y-55447419D01*
X133890887Y-55356629D01*
X134052675Y-55239083D01*
X134194083Y-55097675D01*
X134293159Y-54961307D01*
X134342658Y-54925345D01*
X134373251Y-54920500D01*
X135459546Y-54920500D01*
X135517737Y-54939407D01*
X135529550Y-54949496D01*
X136840504Y-56260450D01*
X136868281Y-56314967D01*
X136869500Y-56330454D01*
X136869500Y-69689546D01*
X136850593Y-69747737D01*
X136840504Y-69759550D01*
X136009550Y-70590504D01*
X135955033Y-70618281D01*
X135939546Y-70619500D01*
X134373251Y-70619500D01*
X134315060Y-70600593D01*
X134293160Y-70578693D01*
X134194083Y-70442325D01*
X134052675Y-70300917D01*
X133890887Y-70183371D01*
X133890886Y-70183370D01*
X133890884Y-70183369D01*
X133828270Y-70151466D01*
X133712703Y-70092581D01*
X133712697Y-70092579D01*
X133712695Y-70092578D01*
X133709999Y-70091461D01*
X133709254Y-70090824D01*
X133709237Y-70090816D01*
X133709239Y-70090811D01*
X133663476Y-70051721D01*
X133649198Y-69992225D01*
X133672617Y-69935699D01*
X133709999Y-69908539D01*
X133712688Y-69907423D01*
X133712703Y-69907419D01*
X133890887Y-69816629D01*
X134052675Y-69699083D01*
X134194083Y-69557675D01*
X134311629Y-69395887D01*
X134402419Y-69217703D01*
X134464216Y-69027510D01*
X134483065Y-68908505D01*
X134495500Y-68829994D01*
X134495500Y-68630005D01*
X134464216Y-68432492D01*
X134464216Y-68432490D01*
X134402419Y-68242297D01*
X134311629Y-68064113D01*
X134194083Y-67902325D01*
X134052675Y-67760917D01*
X134052671Y-67760914D01*
X134052669Y-67760912D01*
X133991681Y-67716601D01*
X133955717Y-67667101D01*
X133955718Y-67605916D01*
X133991682Y-67556416D01*
X134018732Y-67542534D01*
X134164124Y-67494356D01*
X134313340Y-67402319D01*
X134437319Y-67278340D01*
X134529356Y-67129124D01*
X134584506Y-66962693D01*
X134595000Y-66859987D01*
X134595000Y-66440001D01*
X134594999Y-66440000D01*
X133542709Y-66440000D01*
X133554452Y-66419661D01*
X133595000Y-66268333D01*
X133595000Y-66111667D01*
X133554452Y-65960339D01*
X133542709Y-65940000D01*
X134594998Y-65940000D01*
X134594999Y-65939999D01*
X134594999Y-65520013D01*
X134584507Y-65417312D01*
X134584504Y-65417300D01*
X134529356Y-65250875D01*
X134437319Y-65101659D01*
X134313340Y-64977680D01*
X134164124Y-64885643D01*
X133997693Y-64830493D01*
X133894987Y-64820000D01*
X133250001Y-64820000D01*
X133250000Y-64820001D01*
X133250000Y-65647290D01*
X133229661Y-65635548D01*
X133078333Y-65595000D01*
X132921667Y-65595000D01*
X132770339Y-65635548D01*
X132750000Y-65647290D01*
X132750000Y-64820001D01*
X132749999Y-64820000D01*
X132105013Y-64820000D01*
X132002312Y-64830492D01*
X132002300Y-64830495D01*
X131835875Y-64885643D01*
X131686659Y-64977680D01*
X131562680Y-65101659D01*
X131470643Y-65250875D01*
X131415493Y-65417306D01*
X131405000Y-65520012D01*
X131405000Y-65939999D01*
X131405001Y-65940000D01*
X132457291Y-65940000D01*
X132445548Y-65960339D01*
X132405000Y-66111667D01*
X132405000Y-66268333D01*
X132445548Y-66419661D01*
X132457291Y-66440000D01*
X131405002Y-66440000D01*
X131405001Y-66440001D01*
X131405001Y-66859986D01*
X131415492Y-66962687D01*
X131415495Y-66962699D01*
X131470643Y-67129124D01*
X131562680Y-67278340D01*
X131686659Y-67402319D01*
X131835875Y-67494356D01*
X131981267Y-67542534D01*
X132030557Y-67578785D01*
X132049125Y-67637085D01*
X132029880Y-67695165D01*
X132008319Y-67716601D01*
X131947327Y-67760915D01*
X131947325Y-67760917D01*
X131805917Y-67902325D01*
X131706840Y-68038692D01*
X131657342Y-68074655D01*
X131626749Y-68079500D01*
X128490313Y-68079500D01*
X128439919Y-68065714D01*
X128410399Y-68048256D01*
X128264065Y-68005742D01*
X128252569Y-68002402D01*
X128252568Y-68002401D01*
X128252565Y-68002401D01*
X128229140Y-68000558D01*
X128215694Y-67999500D01*
X126784306Y-67999500D01*
X126771773Y-68000486D01*
X126747434Y-68002401D01*
X126747427Y-68002403D01*
X126589602Y-68048256D01*
X126448136Y-68131918D01*
X126331918Y-68248136D01*
X126248256Y-68389602D01*
X126202403Y-68547427D01*
X126202401Y-68547434D01*
X126199500Y-68584311D01*
X126199500Y-69540688D01*
X126202401Y-69577565D01*
X126202401Y-69577568D01*
X126202402Y-69577569D01*
X126248256Y-69735398D01*
X126331919Y-69876865D01*
X126448135Y-69993081D01*
X126589602Y-70076744D01*
X126747431Y-70122598D01*
X126758264Y-70123450D01*
X126814792Y-70146862D01*
X126846764Y-70199030D01*
X126849500Y-70222145D01*
X126849500Y-71518270D01*
X126830593Y-71576461D01*
X126781093Y-71612425D01*
X126777259Y-71613393D01*
X126777288Y-71613491D01*
X126614602Y-71660756D01*
X126473136Y-71744418D01*
X126356918Y-71860636D01*
X126273256Y-72002102D01*
X126227403Y-72159927D01*
X126227401Y-72159934D01*
X126224500Y-72196811D01*
X126224500Y-72953188D01*
X126227401Y-72990065D01*
X126227401Y-72990068D01*
X126227402Y-72990069D01*
X126231063Y-73002669D01*
X126249797Y-73067154D01*
X126247875Y-73128309D01*
X126210374Y-73176655D01*
X126151618Y-73193725D01*
X126094050Y-73172999D01*
X126084724Y-73164778D01*
X125679496Y-72759550D01*
X125651719Y-72705033D01*
X125650500Y-72689546D01*
X125650500Y-66187501D01*
X126100001Y-66187501D01*
X126100001Y-66399986D01*
X126110492Y-66502687D01*
X126110495Y-66502699D01*
X126165643Y-66669124D01*
X126257680Y-66818340D01*
X126381659Y-66942319D01*
X126530875Y-67034356D01*
X126697306Y-67089506D01*
X126800012Y-67099999D01*
X127249998Y-67099999D01*
X127250000Y-67099998D01*
X127250000Y-66187501D01*
X127750000Y-66187501D01*
X127750000Y-67099998D01*
X127750001Y-67099999D01*
X128199986Y-67099999D01*
X128302687Y-67089507D01*
X128302699Y-67089504D01*
X128469124Y-67034356D01*
X128618340Y-66942319D01*
X128742319Y-66818340D01*
X128834356Y-66669124D01*
X128889506Y-66502693D01*
X128900000Y-66399987D01*
X128900000Y-66187501D01*
X128899999Y-66187500D01*
X127750001Y-66187500D01*
X127750000Y-66187501D01*
X127250000Y-66187501D01*
X127249999Y-66187500D01*
X126100002Y-66187500D01*
X126100001Y-66187501D01*
X125650500Y-66187501D01*
X125650500Y-65475012D01*
X126100000Y-65475012D01*
X126100000Y-65687499D01*
X126100001Y-65687500D01*
X127249999Y-65687500D01*
X127250000Y-65687499D01*
X127250000Y-64775001D01*
X127750000Y-64775001D01*
X127750000Y-65687499D01*
X127750001Y-65687500D01*
X128899998Y-65687500D01*
X128899999Y-65687499D01*
X128899999Y-65475013D01*
X128889507Y-65372312D01*
X128889504Y-65372300D01*
X128834356Y-65205875D01*
X128742319Y-65056659D01*
X128618340Y-64932680D01*
X128469124Y-64840643D01*
X128302693Y-64785493D01*
X128199987Y-64775000D01*
X127750001Y-64775000D01*
X127750000Y-64775001D01*
X127250000Y-64775001D01*
X127249999Y-64775000D01*
X126800013Y-64775000D01*
X126697312Y-64785492D01*
X126697300Y-64785495D01*
X126530875Y-64840643D01*
X126381659Y-64932680D01*
X126257680Y-65056659D01*
X126165643Y-65205875D01*
X126110493Y-65372306D01*
X126100000Y-65475012D01*
X125650500Y-65475012D01*
X125650500Y-60810453D01*
X125669407Y-60752262D01*
X125679490Y-60740455D01*
X128005277Y-58414669D01*
X128076465Y-58308127D01*
X128125501Y-58189744D01*
X128136525Y-58134322D01*
X128150500Y-58064069D01*
X128150500Y-57519229D01*
X128169407Y-57461038D01*
X128218907Y-57425074D01*
X128222740Y-57424107D01*
X128222712Y-57424009D01*
X128227569Y-57422598D01*
X128385398Y-57376744D01*
X128526865Y-57293081D01*
X128643081Y-57176865D01*
X128726744Y-57035398D01*
X128772598Y-56877569D01*
X128775500Y-56840694D01*
X128775500Y-56084306D01*
X128772598Y-56047431D01*
X128726744Y-55889602D01*
X128643081Y-55748135D01*
X128526865Y-55631919D01*
X128385398Y-55548256D01*
X128227569Y-55502402D01*
X128227568Y-55502401D01*
X128227565Y-55502401D01*
X128204140Y-55500558D01*
X128190694Y-55499500D01*
X128190689Y-55499500D01*
X127497953Y-55499500D01*
X127439762Y-55480593D01*
X127427949Y-55470504D01*
X126597720Y-54640274D01*
X126569943Y-54585757D01*
X126579514Y-54525325D01*
X126622779Y-54482060D01*
X126683211Y-54472489D01*
X126695326Y-54475196D01*
X126772431Y-54497598D01*
X126809306Y-54500500D01*
X126809311Y-54500500D01*
X128190689Y-54500500D01*
X128190694Y-54500500D01*
X128227569Y-54497598D01*
X128385398Y-54451744D01*
X128526865Y-54368081D01*
X128643081Y-54251865D01*
X128726744Y-54110398D01*
X128772598Y-53952569D01*
X128775500Y-53915694D01*
X128775500Y-53159306D01*
X128772598Y-53122431D01*
X128726744Y-52964602D01*
X128643081Y-52823135D01*
X128526865Y-52706919D01*
X128502660Y-52692604D01*
X128462199Y-52646710D01*
X128456441Y-52585796D01*
X128487587Y-52533131D01*
X128489416Y-52531557D01*
X128495646Y-52526328D01*
X128551865Y-52493081D01*
X128638504Y-52406441D01*
X128641813Y-52403665D01*
X128666373Y-52393740D01*
X128689968Y-52381719D01*
X128697613Y-52381117D01*
X128698542Y-52380742D01*
X128699463Y-52380971D01*
X128705454Y-52380500D01*
X131626749Y-52380500D01*
X131684940Y-52399407D01*
G37*
%TD.AperFunction*%
%TA.AperFunction,Conductor*%
G36*
X139458691Y-35519407D02*
G01*
X139494655Y-35568907D01*
X139499500Y-35599500D01*
X139499500Y-94400500D01*
X139480593Y-94458691D01*
X139431093Y-94494655D01*
X139400500Y-94499500D01*
X87100349Y-94499500D01*
X87042158Y-94480593D01*
X87006194Y-94431093D01*
X87001349Y-94400505D01*
X87001349Y-94400500D01*
X87001153Y-90134245D01*
X87020057Y-90076059D01*
X87069555Y-90040093D01*
X87130740Y-90040090D01*
X87155153Y-90051930D01*
X87191873Y-90076465D01*
X87310256Y-90125501D01*
X87435931Y-90150500D01*
X87435932Y-90150500D01*
X101564068Y-90150500D01*
X101564069Y-90150500D01*
X101689744Y-90125501D01*
X101808127Y-90076465D01*
X101914669Y-90005277D01*
X102041236Y-89878710D01*
X133149500Y-89878710D01*
X133149500Y-90121289D01*
X133181161Y-90361781D01*
X133181161Y-90361786D01*
X133243944Y-90596092D01*
X133243948Y-90596105D01*
X133336772Y-90820204D01*
X133336774Y-90820208D01*
X133336776Y-90820212D01*
X133458064Y-91030289D01*
X133458066Y-91030292D01*
X133605729Y-91222731D01*
X133605731Y-91222733D01*
X133605735Y-91222738D01*
X133777262Y-91394265D01*
X133777266Y-91394268D01*
X133777268Y-91394270D01*
X133969707Y-91541933D01*
X133969711Y-91541936D01*
X134179788Y-91663224D01*
X134403900Y-91756054D01*
X134638211Y-91818838D01*
X134878712Y-91850500D01*
X134878713Y-91850500D01*
X135121287Y-91850500D01*
X135121288Y-91850500D01*
X135361789Y-91818838D01*
X135596100Y-91756054D01*
X135820212Y-91663224D01*
X136030289Y-91541936D01*
X136222738Y-91394265D01*
X136394265Y-91222738D01*
X136541936Y-91030289D01*
X136663224Y-90820212D01*
X136756054Y-90596100D01*
X136818838Y-90361789D01*
X136850500Y-90121288D01*
X136850500Y-89878712D01*
X136818838Y-89638211D01*
X136756054Y-89403900D01*
X136663224Y-89179788D01*
X136541936Y-88969711D01*
X136448760Y-88848281D01*
X136394270Y-88777268D01*
X136394268Y-88777266D01*
X136394265Y-88777262D01*
X136222738Y-88605735D01*
X136222733Y-88605731D01*
X136222731Y-88605729D01*
X136030292Y-88458066D01*
X136030289Y-88458064D01*
X135820212Y-88336776D01*
X135820208Y-88336774D01*
X135820204Y-88336772D01*
X135596105Y-88243948D01*
X135596104Y-88243947D01*
X135596100Y-88243946D01*
X135361789Y-88181162D01*
X135361786Y-88181161D01*
X135361784Y-88181161D01*
X135121289Y-88149500D01*
X135121288Y-88149500D01*
X134878712Y-88149500D01*
X134878710Y-88149500D01*
X134638218Y-88181161D01*
X134638213Y-88181161D01*
X134403907Y-88243944D01*
X134403894Y-88243948D01*
X134179795Y-88336772D01*
X133969707Y-88458066D01*
X133777268Y-88605729D01*
X133605729Y-88777268D01*
X133458066Y-88969707D01*
X133336772Y-89179795D01*
X133243948Y-89403894D01*
X133243944Y-89403907D01*
X133181161Y-89638213D01*
X133181161Y-89638218D01*
X133149500Y-89878710D01*
X102041236Y-89878710D01*
X107779271Y-84140674D01*
X116168000Y-84140674D01*
X116168000Y-84339325D01*
X116199073Y-84535514D01*
X116260459Y-84724440D01*
X116350637Y-84901425D01*
X116377729Y-84938714D01*
X116940504Y-84375938D01*
X116956619Y-84436081D01*
X117023498Y-84551920D01*
X117118080Y-84646502D01*
X117233919Y-84713381D01*
X117294057Y-84729495D01*
X116731283Y-85292270D01*
X116768564Y-85319357D01*
X116768568Y-85319359D01*
X116945561Y-85409541D01*
X117125954Y-85468154D01*
X117175454Y-85504118D01*
X117194362Y-85562309D01*
X117175455Y-85620499D01*
X117125956Y-85656463D01*
X116983758Y-85702667D01*
X116820717Y-85785740D01*
X116820713Y-85785742D01*
X116672687Y-85893289D01*
X116543289Y-86022687D01*
X116435742Y-86170713D01*
X116435740Y-86170717D01*
X116352669Y-86333754D01*
X116296122Y-86507785D01*
X116267500Y-86688505D01*
X116267500Y-86871494D01*
X116296122Y-87052214D01*
X116352669Y-87226245D01*
X116435740Y-87389282D01*
X116435742Y-87389286D01*
X116543289Y-87537312D01*
X116543291Y-87537314D01*
X116543294Y-87537318D01*
X116672682Y-87666706D01*
X116672685Y-87666708D01*
X116672687Y-87666710D01*
X116820713Y-87774257D01*
X116820717Y-87774259D01*
X116983755Y-87857331D01*
X117157781Y-87913876D01*
X117157782Y-87913876D01*
X117157785Y-87913877D01*
X117338506Y-87942500D01*
X117338509Y-87942500D01*
X117521494Y-87942500D01*
X117702214Y-87913877D01*
X117702215Y-87913876D01*
X117702219Y-87913876D01*
X117876245Y-87857331D01*
X118039283Y-87774259D01*
X118187318Y-87666706D01*
X118316706Y-87537318D01*
X118424259Y-87389283D01*
X118507331Y-87226245D01*
X118563876Y-87052219D01*
X118592500Y-86871491D01*
X118592500Y-86688509D01*
X118592500Y-86688505D01*
X118563877Y-86507785D01*
X118559633Y-86494723D01*
X118507331Y-86333755D01*
X118424259Y-86170717D01*
X118424257Y-86170713D01*
X118316710Y-86022687D01*
X118316708Y-86022685D01*
X118316706Y-86022682D01*
X118187318Y-85893294D01*
X118187314Y-85893291D01*
X118187312Y-85893289D01*
X118039286Y-85785742D01*
X118039282Y-85785740D01*
X117876241Y-85702667D01*
X117876238Y-85702665D01*
X117734044Y-85656463D01*
X117684544Y-85620499D01*
X117665637Y-85562308D01*
X117684545Y-85504118D01*
X117734045Y-85468154D01*
X117914438Y-85409541D01*
X118091434Y-85319357D01*
X118128715Y-85292270D01*
X117565940Y-84729495D01*
X117626081Y-84713381D01*
X117741920Y-84646502D01*
X117836502Y-84551920D01*
X117903381Y-84436081D01*
X117919495Y-84375940D01*
X118482270Y-84938715D01*
X118509357Y-84901434D01*
X118599540Y-84724440D01*
X118660926Y-84535514D01*
X118692000Y-84339325D01*
X118692000Y-84140674D01*
X118660926Y-83944485D01*
X118599540Y-83755559D01*
X118509359Y-83578568D01*
X118509357Y-83578564D01*
X118482270Y-83541283D01*
X117919495Y-84104057D01*
X117903381Y-84043919D01*
X117836502Y-83928080D01*
X117741920Y-83833498D01*
X117626081Y-83766619D01*
X117565938Y-83750504D01*
X118128714Y-83187729D01*
X118091425Y-83160637D01*
X117914440Y-83070459D01*
X117734044Y-83011845D01*
X117684544Y-82975881D01*
X117665637Y-82917690D01*
X117684544Y-82859499D01*
X117734043Y-82823535D01*
X117876245Y-82777331D01*
X118039283Y-82694259D01*
X118187318Y-82586706D01*
X118316706Y-82457318D01*
X118424259Y-82309283D01*
X118507331Y-82146245D01*
X118563876Y-81972219D01*
X118592500Y-81791491D01*
X118592500Y-81608509D01*
X118592500Y-81608505D01*
X118563877Y-81427785D01*
X118563876Y-81427781D01*
X118507331Y-81253755D01*
X118424259Y-81090717D01*
X118424257Y-81090713D01*
X118316710Y-80942687D01*
X118316708Y-80942685D01*
X118316706Y-80942682D01*
X118187318Y-80813294D01*
X118187314Y-80813291D01*
X118187312Y-80813289D01*
X118039286Y-80705742D01*
X118039282Y-80705740D01*
X117876245Y-80622669D01*
X117702214Y-80566122D01*
X117521494Y-80537500D01*
X117521491Y-80537500D01*
X117338509Y-80537500D01*
X117338506Y-80537500D01*
X117157785Y-80566122D01*
X116983754Y-80622669D01*
X116820717Y-80705740D01*
X116820713Y-80705742D01*
X116672687Y-80813289D01*
X116543289Y-80942687D01*
X116435742Y-81090713D01*
X116435740Y-81090717D01*
X116352669Y-81253754D01*
X116296122Y-81427785D01*
X116267500Y-81608505D01*
X116267500Y-81791494D01*
X116296122Y-81972214D01*
X116352669Y-82146245D01*
X116435740Y-82309282D01*
X116435742Y-82309286D01*
X116543289Y-82457312D01*
X116543291Y-82457314D01*
X116543294Y-82457318D01*
X116672682Y-82586706D01*
X116672685Y-82586708D01*
X116672687Y-82586710D01*
X116820713Y-82694257D01*
X116820717Y-82694259D01*
X116983755Y-82777331D01*
X116983757Y-82777331D01*
X116983758Y-82777332D01*
X116983761Y-82777334D01*
X117125955Y-82823536D01*
X117175455Y-82859500D01*
X117194362Y-82917690D01*
X117175454Y-82975881D01*
X117125955Y-83011845D01*
X116945559Y-83070459D01*
X116768567Y-83160641D01*
X116731283Y-83187728D01*
X117294059Y-83750504D01*
X117233919Y-83766619D01*
X117118080Y-83833498D01*
X117023498Y-83928080D01*
X116956619Y-84043919D01*
X116940504Y-84104059D01*
X116377728Y-83541283D01*
X116350641Y-83578567D01*
X116260459Y-83755559D01*
X116199073Y-83944485D01*
X116168000Y-84140674D01*
X107779271Y-84140674D01*
X112851439Y-79068505D01*
X116267500Y-79068505D01*
X116267500Y-79251494D01*
X116296122Y-79432214D01*
X116352669Y-79606245D01*
X116435740Y-79769282D01*
X116435742Y-79769286D01*
X116543289Y-79917312D01*
X116543291Y-79917314D01*
X116543294Y-79917318D01*
X116672682Y-80046706D01*
X116672685Y-80046708D01*
X116672687Y-80046710D01*
X116820713Y-80154257D01*
X116820717Y-80154259D01*
X116983755Y-80237331D01*
X117157781Y-80293876D01*
X117157782Y-80293876D01*
X117157785Y-80293877D01*
X117338506Y-80322500D01*
X117338509Y-80322500D01*
X117521494Y-80322500D01*
X117702214Y-80293877D01*
X117702215Y-80293876D01*
X117702219Y-80293876D01*
X117876245Y-80237331D01*
X118039283Y-80154259D01*
X118187318Y-80046706D01*
X118316706Y-79917318D01*
X118424259Y-79769283D01*
X118507331Y-79606245D01*
X118563876Y-79432219D01*
X118592500Y-79251491D01*
X118592500Y-79068509D01*
X118592500Y-79068505D01*
X118563877Y-78887785D01*
X118563876Y-78887781D01*
X118507331Y-78713755D01*
X118424259Y-78550717D01*
X118424257Y-78550713D01*
X118316710Y-78402687D01*
X118316708Y-78402685D01*
X118316706Y-78402682D01*
X118187318Y-78273294D01*
X118187314Y-78273291D01*
X118187312Y-78273289D01*
X118039286Y-78165742D01*
X118039282Y-78165740D01*
X117876245Y-78082669D01*
X117702214Y-78026122D01*
X117521494Y-77997500D01*
X117521491Y-77997500D01*
X117338509Y-77997500D01*
X117338506Y-77997500D01*
X117157785Y-78026122D01*
X116983754Y-78082669D01*
X116820717Y-78165740D01*
X116820713Y-78165742D01*
X116672687Y-78273289D01*
X116543289Y-78402687D01*
X116435742Y-78550713D01*
X116435740Y-78550717D01*
X116352669Y-78713754D01*
X116296122Y-78887785D01*
X116267500Y-79068505D01*
X112851439Y-79068505D01*
X115391438Y-76528505D01*
X116267500Y-76528505D01*
X116267500Y-76711494D01*
X116296122Y-76892214D01*
X116352669Y-77066245D01*
X116435740Y-77229282D01*
X116435742Y-77229286D01*
X116543289Y-77377312D01*
X116543291Y-77377314D01*
X116543294Y-77377318D01*
X116672682Y-77506706D01*
X116672685Y-77506708D01*
X116672687Y-77506710D01*
X116820713Y-77614257D01*
X116820717Y-77614259D01*
X116983755Y-77697331D01*
X117157781Y-77753876D01*
X117157782Y-77753876D01*
X117157785Y-77753877D01*
X117338506Y-77782500D01*
X117338509Y-77782500D01*
X117521494Y-77782500D01*
X117702214Y-77753877D01*
X117702215Y-77753876D01*
X117702219Y-77753876D01*
X117876245Y-77697331D01*
X118039283Y-77614259D01*
X118187318Y-77506706D01*
X118316706Y-77377318D01*
X118424259Y-77229283D01*
X118507331Y-77066245D01*
X118563876Y-76892219D01*
X118586322Y-76750499D01*
X118592500Y-76711494D01*
X118592500Y-76528505D01*
X118563877Y-76347785D01*
X118520525Y-76214363D01*
X118507331Y-76173755D01*
X118424259Y-76010717D01*
X118424257Y-76010713D01*
X118316710Y-75862687D01*
X118316708Y-75862685D01*
X118316706Y-75862682D01*
X118187318Y-75733294D01*
X118187314Y-75733291D01*
X118187312Y-75733289D01*
X118039286Y-75625742D01*
X118039282Y-75625740D01*
X117876245Y-75542669D01*
X117702214Y-75486122D01*
X117521494Y-75457500D01*
X117521491Y-75457500D01*
X117338509Y-75457500D01*
X117338506Y-75457500D01*
X117157785Y-75486122D01*
X116983754Y-75542669D01*
X116820717Y-75625740D01*
X116820713Y-75625742D01*
X116672687Y-75733289D01*
X116543289Y-75862687D01*
X116435742Y-76010713D01*
X116435740Y-76010717D01*
X116352669Y-76173754D01*
X116296122Y-76347785D01*
X116267500Y-76528505D01*
X115391438Y-76528505D01*
X116786398Y-75133545D01*
X116840913Y-75105770D01*
X116901344Y-75115340D01*
X116983755Y-75157331D01*
X117157781Y-75213876D01*
X117157782Y-75213876D01*
X117157785Y-75213877D01*
X117338506Y-75242500D01*
X117338509Y-75242500D01*
X117521494Y-75242500D01*
X117702214Y-75213877D01*
X117702215Y-75213876D01*
X117702219Y-75213876D01*
X117876245Y-75157331D01*
X118039283Y-75074259D01*
X118187318Y-74966706D01*
X118316706Y-74837318D01*
X118424259Y-74689283D01*
X118507331Y-74526245D01*
X118563876Y-74352219D01*
X118565798Y-74340083D01*
X118592500Y-74171494D01*
X118592500Y-73988505D01*
X118563877Y-73807785D01*
X118557856Y-73789255D01*
X118507331Y-73633755D01*
X118424259Y-73470717D01*
X118424257Y-73470713D01*
X118316710Y-73322687D01*
X118316708Y-73322685D01*
X118316706Y-73322682D01*
X118187318Y-73193294D01*
X118187314Y-73193291D01*
X118187312Y-73193289D01*
X118039286Y-73085742D01*
X118039282Y-73085740D01*
X117876245Y-73002669D01*
X117702214Y-72946122D01*
X117521494Y-72917500D01*
X117521491Y-72917500D01*
X117338509Y-72917500D01*
X117338506Y-72917500D01*
X117157785Y-72946122D01*
X116983754Y-73002669D01*
X116820717Y-73085740D01*
X116820713Y-73085742D01*
X116672687Y-73193289D01*
X116543289Y-73322687D01*
X116435742Y-73470713D01*
X116435740Y-73470717D01*
X116388809Y-73562826D01*
X116352669Y-73633755D01*
X116352668Y-73633757D01*
X116352668Y-73633758D01*
X116314948Y-73749845D01*
X116290798Y-73789255D01*
X101259550Y-88820504D01*
X101205033Y-88848281D01*
X101189546Y-88849500D01*
X87810454Y-88849500D01*
X87752263Y-88830593D01*
X87740450Y-88820504D01*
X87030053Y-88110107D01*
X87002276Y-88055590D01*
X87001057Y-88040115D01*
X87000990Y-86584311D01*
X89199500Y-86584311D01*
X89199500Y-87540688D01*
X89202401Y-87577565D01*
X89202401Y-87577568D01*
X89202402Y-87577569D01*
X89248256Y-87735398D01*
X89331919Y-87876865D01*
X89448135Y-87993081D01*
X89589602Y-88076744D01*
X89747431Y-88122598D01*
X89784306Y-88125500D01*
X89784311Y-88125500D01*
X91215689Y-88125500D01*
X91215694Y-88125500D01*
X91252569Y-88122598D01*
X91410398Y-88076744D01*
X91551865Y-87993081D01*
X91668081Y-87876865D01*
X91751744Y-87735398D01*
X91797598Y-87577569D01*
X91800500Y-87540694D01*
X91800500Y-87529500D01*
X91819407Y-87471309D01*
X91868907Y-87435345D01*
X91899500Y-87430500D01*
X93555244Y-87430500D01*
X93613435Y-87449407D01*
X93635337Y-87471310D01*
X93683289Y-87537312D01*
X93683291Y-87537314D01*
X93683294Y-87537318D01*
X93812682Y-87666706D01*
X93812685Y-87666708D01*
X93812687Y-87666710D01*
X93960713Y-87774257D01*
X93960717Y-87774259D01*
X94123755Y-87857331D01*
X94297781Y-87913876D01*
X94297782Y-87913876D01*
X94297785Y-87913877D01*
X94478506Y-87942500D01*
X94478509Y-87942500D01*
X94661494Y-87942500D01*
X94842214Y-87913877D01*
X94842215Y-87913876D01*
X94842219Y-87913876D01*
X95016245Y-87857331D01*
X95179283Y-87774259D01*
X95327318Y-87666706D01*
X95456706Y-87537318D01*
X95564259Y-87389283D01*
X95647331Y-87226245D01*
X95703876Y-87052219D01*
X95732500Y-86871491D01*
X95732500Y-86688509D01*
X95732500Y-86688505D01*
X95703877Y-86507785D01*
X95699633Y-86494723D01*
X95647331Y-86333755D01*
X95564259Y-86170717D01*
X95564257Y-86170713D01*
X95456710Y-86022687D01*
X95456708Y-86022685D01*
X95456706Y-86022682D01*
X95327318Y-85893294D01*
X95327314Y-85893291D01*
X95327312Y-85893289D01*
X95179286Y-85785742D01*
X95179282Y-85785740D01*
X95016241Y-85702667D01*
X95016238Y-85702665D01*
X94874044Y-85656463D01*
X94824544Y-85620499D01*
X94805637Y-85562308D01*
X94824545Y-85504118D01*
X94874045Y-85468154D01*
X95054438Y-85409541D01*
X95231434Y-85319357D01*
X95268715Y-85292270D01*
X94705940Y-84729495D01*
X94766081Y-84713381D01*
X94881920Y-84646502D01*
X94976502Y-84551920D01*
X95043381Y-84436081D01*
X95059495Y-84375940D01*
X95622270Y-84938715D01*
X95649357Y-84901434D01*
X95739540Y-84724440D01*
X95800926Y-84535514D01*
X95832000Y-84339325D01*
X95832000Y-84140674D01*
X95800926Y-83944485D01*
X95739540Y-83755559D01*
X95649359Y-83578568D01*
X95649357Y-83578564D01*
X95622270Y-83541283D01*
X95059495Y-84104057D01*
X95043381Y-84043919D01*
X94976502Y-83928080D01*
X94881920Y-83833498D01*
X94766081Y-83766619D01*
X94705938Y-83750504D01*
X95268714Y-83187729D01*
X95231425Y-83160637D01*
X95054440Y-83070459D01*
X94874044Y-83011845D01*
X94824544Y-82975881D01*
X94805637Y-82917690D01*
X94824544Y-82859499D01*
X94874043Y-82823535D01*
X95016245Y-82777331D01*
X95179283Y-82694259D01*
X95327318Y-82586706D01*
X95456706Y-82457318D01*
X95564259Y-82309283D01*
X95647331Y-82146245D01*
X95703876Y-81972219D01*
X95732500Y-81791491D01*
X95732500Y-81608509D01*
X95732500Y-81608505D01*
X95703877Y-81427785D01*
X95703876Y-81427781D01*
X95647331Y-81253755D01*
X95564259Y-81090717D01*
X95564257Y-81090713D01*
X95456710Y-80942687D01*
X95456708Y-80942685D01*
X95456706Y-80942682D01*
X95327318Y-80813294D01*
X95327314Y-80813291D01*
X95327312Y-80813289D01*
X95179286Y-80705742D01*
X95179282Y-80705740D01*
X95016245Y-80622669D01*
X94842214Y-80566122D01*
X94661494Y-80537500D01*
X94661491Y-80537500D01*
X94478509Y-80537500D01*
X94478506Y-80537500D01*
X94297785Y-80566122D01*
X94123754Y-80622669D01*
X93960717Y-80705740D01*
X93960713Y-80705742D01*
X93812687Y-80813289D01*
X93683289Y-80942687D01*
X93575742Y-81090713D01*
X93575740Y-81090717D01*
X93492669Y-81253754D01*
X93436122Y-81427785D01*
X93407500Y-81608505D01*
X93407500Y-81791494D01*
X93436122Y-81972214D01*
X93492669Y-82146245D01*
X93575740Y-82309282D01*
X93575742Y-82309286D01*
X93683289Y-82457312D01*
X93683291Y-82457314D01*
X93683294Y-82457318D01*
X93812682Y-82586706D01*
X93812685Y-82586708D01*
X93812687Y-82586710D01*
X93960713Y-82694257D01*
X93960717Y-82694259D01*
X94123755Y-82777331D01*
X94123757Y-82777331D01*
X94123758Y-82777332D01*
X94123761Y-82777334D01*
X94265955Y-82823536D01*
X94315455Y-82859500D01*
X94334362Y-82917690D01*
X94315454Y-82975881D01*
X94265955Y-83011845D01*
X94085559Y-83070459D01*
X93908567Y-83160641D01*
X93871283Y-83187728D01*
X94434059Y-83750504D01*
X94373919Y-83766619D01*
X94258080Y-83833498D01*
X94163498Y-83928080D01*
X94096619Y-84043919D01*
X94080504Y-84104059D01*
X93517728Y-83541283D01*
X93490641Y-83578567D01*
X93400459Y-83755559D01*
X93339073Y-83944485D01*
X93308000Y-84140674D01*
X93308000Y-84339325D01*
X93339073Y-84535514D01*
X93400459Y-84724440D01*
X93490637Y-84901425D01*
X93517729Y-84938714D01*
X94080504Y-84375938D01*
X94096619Y-84436081D01*
X94163498Y-84551920D01*
X94258080Y-84646502D01*
X94373919Y-84713381D01*
X94434057Y-84729495D01*
X93871283Y-85292270D01*
X93908564Y-85319357D01*
X93908568Y-85319359D01*
X94085561Y-85409541D01*
X94265954Y-85468154D01*
X94315454Y-85504118D01*
X94334362Y-85562309D01*
X94315455Y-85620499D01*
X94265956Y-85656463D01*
X94123758Y-85702667D01*
X93960717Y-85785740D01*
X93960713Y-85785742D01*
X93812687Y-85893289D01*
X93683289Y-86022687D01*
X93635337Y-86088690D01*
X93585838Y-86124654D01*
X93555244Y-86129500D01*
X91574859Y-86129500D01*
X91524464Y-86115714D01*
X91523852Y-86115352D01*
X91410398Y-86048256D01*
X91252569Y-86002402D01*
X91252568Y-86002401D01*
X91252565Y-86002401D01*
X91229140Y-86000558D01*
X91215694Y-85999500D01*
X89784306Y-85999500D01*
X89771773Y-86000486D01*
X89747434Y-86002401D01*
X89747427Y-86002403D01*
X89589602Y-86048256D01*
X89448136Y-86131918D01*
X89331918Y-86248136D01*
X89248256Y-86389602D01*
X89202403Y-86547427D01*
X89202401Y-86547434D01*
X89199500Y-86584311D01*
X87000990Y-86584311D01*
X87000881Y-84187501D01*
X89100001Y-84187501D01*
X89100001Y-84399986D01*
X89110492Y-84502687D01*
X89110495Y-84502699D01*
X89165643Y-84669124D01*
X89257680Y-84818340D01*
X89381659Y-84942319D01*
X89530875Y-85034356D01*
X89697306Y-85089506D01*
X89800012Y-85099999D01*
X90249998Y-85099999D01*
X90250000Y-85099998D01*
X90250000Y-84187501D01*
X90750000Y-84187501D01*
X90750000Y-85099998D01*
X90750001Y-85099999D01*
X91199986Y-85099999D01*
X91302687Y-85089507D01*
X91302699Y-85089504D01*
X91469124Y-85034356D01*
X91618340Y-84942319D01*
X91742319Y-84818340D01*
X91834356Y-84669124D01*
X91889506Y-84502693D01*
X91900000Y-84399987D01*
X91900000Y-84187501D01*
X91899999Y-84187500D01*
X90750001Y-84187500D01*
X90750000Y-84187501D01*
X90250000Y-84187501D01*
X90249999Y-84187500D01*
X89100002Y-84187500D01*
X89100001Y-84187501D01*
X87000881Y-84187501D01*
X87000848Y-83475012D01*
X89100000Y-83475012D01*
X89100000Y-83687499D01*
X89100001Y-83687500D01*
X90249999Y-83687500D01*
X90250000Y-83687499D01*
X90250000Y-82775001D01*
X90750000Y-82775001D01*
X90750000Y-83687499D01*
X90750001Y-83687500D01*
X91899998Y-83687500D01*
X91899999Y-83687499D01*
X91899999Y-83475013D01*
X91889507Y-83372312D01*
X91889504Y-83372300D01*
X91834356Y-83205875D01*
X91742319Y-83056659D01*
X91618340Y-82932680D01*
X91469124Y-82840643D01*
X91302693Y-82785493D01*
X91199987Y-82775000D01*
X90750001Y-82775000D01*
X90750000Y-82775001D01*
X90250000Y-82775001D01*
X90249999Y-82775000D01*
X89800013Y-82775000D01*
X89697312Y-82785492D01*
X89697300Y-82785495D01*
X89530875Y-82840643D01*
X89381659Y-82932680D01*
X89257680Y-83056659D01*
X89165643Y-83205875D01*
X89110493Y-83372306D01*
X89100000Y-83475012D01*
X87000848Y-83475012D01*
X87000646Y-79068505D01*
X93407500Y-79068505D01*
X93407500Y-79251494D01*
X93436122Y-79432214D01*
X93492669Y-79606245D01*
X93575740Y-79769282D01*
X93575742Y-79769286D01*
X93683289Y-79917312D01*
X93683291Y-79917314D01*
X93683294Y-79917318D01*
X93812682Y-80046706D01*
X93812685Y-80046708D01*
X93812687Y-80046710D01*
X93960713Y-80154257D01*
X93960717Y-80154259D01*
X94123755Y-80237331D01*
X94297781Y-80293876D01*
X94297782Y-80293876D01*
X94297785Y-80293877D01*
X94478506Y-80322500D01*
X94478509Y-80322500D01*
X94661494Y-80322500D01*
X94842214Y-80293877D01*
X94842215Y-80293876D01*
X94842219Y-80293876D01*
X95016245Y-80237331D01*
X95179283Y-80154259D01*
X95327318Y-80046706D01*
X95456706Y-79917318D01*
X95564259Y-79769283D01*
X95647331Y-79606245D01*
X95703876Y-79432219D01*
X95732500Y-79251491D01*
X95732500Y-79068509D01*
X95732500Y-79068505D01*
X95703877Y-78887785D01*
X95703876Y-78887781D01*
X95647331Y-78713755D01*
X95564259Y-78550717D01*
X95564257Y-78550713D01*
X95456710Y-78402687D01*
X95456708Y-78402685D01*
X95456706Y-78402682D01*
X95327318Y-78273294D01*
X95327314Y-78273291D01*
X95327312Y-78273289D01*
X95179286Y-78165742D01*
X95179282Y-78165740D01*
X95016245Y-78082669D01*
X94842214Y-78026122D01*
X94661494Y-77997500D01*
X94661491Y-77997500D01*
X94478509Y-77997500D01*
X94478506Y-77997500D01*
X94297785Y-78026122D01*
X94123754Y-78082669D01*
X93960717Y-78165740D01*
X93960713Y-78165742D01*
X93812687Y-78273289D01*
X93683289Y-78402687D01*
X93575742Y-78550713D01*
X93575740Y-78550717D01*
X93492669Y-78713754D01*
X93436122Y-78887785D01*
X93407500Y-79068505D01*
X87000646Y-79068505D01*
X87000623Y-78566211D01*
X87000530Y-76524624D01*
X87000459Y-74979505D01*
X87019364Y-74921313D01*
X87068862Y-74885347D01*
X87099459Y-74880500D01*
X87137030Y-74880500D01*
X87378071Y-74842322D01*
X87378072Y-74842321D01*
X87378076Y-74842321D01*
X87610185Y-74766904D01*
X87827639Y-74656106D01*
X88025083Y-74512655D01*
X88197655Y-74340083D01*
X88341106Y-74142639D01*
X88423631Y-73980674D01*
X93308000Y-73980674D01*
X93308000Y-74179325D01*
X93339073Y-74375514D01*
X93400459Y-74564440D01*
X93490637Y-74741425D01*
X93517729Y-74778714D01*
X94080504Y-74215938D01*
X94096619Y-74276081D01*
X94163498Y-74391920D01*
X94258080Y-74486502D01*
X94373919Y-74553381D01*
X94434057Y-74569495D01*
X93871283Y-75132270D01*
X93908564Y-75159357D01*
X93908568Y-75159359D01*
X94085561Y-75249541D01*
X94265954Y-75308154D01*
X94315454Y-75344118D01*
X94334362Y-75402309D01*
X94315455Y-75460499D01*
X94265956Y-75496463D01*
X94123758Y-75542667D01*
X93960717Y-75625740D01*
X93960713Y-75625742D01*
X93812687Y-75733289D01*
X93683289Y-75862687D01*
X93575742Y-76010713D01*
X93575740Y-76010717D01*
X93492669Y-76173754D01*
X93436122Y-76347785D01*
X93407500Y-76528505D01*
X93407500Y-76711494D01*
X93436122Y-76892214D01*
X93492669Y-77066245D01*
X93575740Y-77229282D01*
X93575742Y-77229286D01*
X93683289Y-77377312D01*
X93683291Y-77377314D01*
X93683294Y-77377318D01*
X93812682Y-77506706D01*
X93812685Y-77506708D01*
X93812687Y-77506710D01*
X93960713Y-77614257D01*
X93960717Y-77614259D01*
X94123755Y-77697331D01*
X94297781Y-77753876D01*
X94297782Y-77753876D01*
X94297785Y-77753877D01*
X94478506Y-77782500D01*
X94478509Y-77782500D01*
X94661494Y-77782500D01*
X94842214Y-77753877D01*
X94842215Y-77753876D01*
X94842219Y-77753876D01*
X95016245Y-77697331D01*
X95179283Y-77614259D01*
X95327318Y-77506706D01*
X95456706Y-77377318D01*
X95564259Y-77229283D01*
X95647331Y-77066245D01*
X95703876Y-76892219D01*
X95726322Y-76750499D01*
X95732500Y-76711494D01*
X95732500Y-76528505D01*
X95703877Y-76347785D01*
X95660525Y-76214363D01*
X95647331Y-76173755D01*
X95564259Y-76010717D01*
X95564257Y-76010713D01*
X95456710Y-75862687D01*
X95456708Y-75862685D01*
X95456706Y-75862682D01*
X95327318Y-75733294D01*
X95327314Y-75733291D01*
X95327312Y-75733289D01*
X95179286Y-75625742D01*
X95179282Y-75625740D01*
X95016241Y-75542667D01*
X95016238Y-75542665D01*
X94874044Y-75496463D01*
X94824544Y-75460499D01*
X94805637Y-75402308D01*
X94824545Y-75344118D01*
X94874045Y-75308154D01*
X95054438Y-75249541D01*
X95231434Y-75159357D01*
X95268715Y-75132270D01*
X94705940Y-74569495D01*
X94766081Y-74553381D01*
X94881920Y-74486502D01*
X94976502Y-74391920D01*
X95043381Y-74276081D01*
X95059495Y-74215940D01*
X95622270Y-74778715D01*
X95649357Y-74741434D01*
X95739540Y-74564440D01*
X95800926Y-74375514D01*
X95832000Y-74179325D01*
X95832000Y-73980674D01*
X95800926Y-73784485D01*
X95739540Y-73595559D01*
X95649359Y-73418568D01*
X95649357Y-73418564D01*
X95622270Y-73381283D01*
X95059495Y-73944057D01*
X95043381Y-73883919D01*
X94976502Y-73768080D01*
X94881920Y-73673498D01*
X94766081Y-73606619D01*
X94705938Y-73590504D01*
X95268714Y-73027729D01*
X95231425Y-73000637D01*
X95054440Y-72910459D01*
X94874044Y-72851845D01*
X94824544Y-72815881D01*
X94805637Y-72757690D01*
X94824544Y-72699499D01*
X94874043Y-72663535D01*
X95016245Y-72617331D01*
X95179283Y-72534259D01*
X95327318Y-72426706D01*
X95456706Y-72297318D01*
X95564259Y-72149283D01*
X95647331Y-71986245D01*
X95703876Y-71812219D01*
X95708086Y-71785637D01*
X95732500Y-71631494D01*
X95732500Y-71448505D01*
X95703877Y-71267785D01*
X95691277Y-71229006D01*
X95647331Y-71093755D01*
X95564259Y-70930717D01*
X95564257Y-70930713D01*
X95456710Y-70782687D01*
X95456708Y-70782685D01*
X95456706Y-70782682D01*
X95327318Y-70653294D01*
X95327314Y-70653291D01*
X95327312Y-70653289D01*
X95179286Y-70545742D01*
X95179282Y-70545740D01*
X95016245Y-70462669D01*
X94842214Y-70406122D01*
X94661494Y-70377500D01*
X94661491Y-70377500D01*
X94478509Y-70377500D01*
X94478506Y-70377500D01*
X94297785Y-70406122D01*
X94123754Y-70462669D01*
X93960717Y-70545740D01*
X93960713Y-70545742D01*
X93812687Y-70653289D01*
X93683289Y-70782687D01*
X93575742Y-70930713D01*
X93575740Y-70930717D01*
X93492669Y-71093754D01*
X93436122Y-71267785D01*
X93407500Y-71448505D01*
X93407500Y-71631494D01*
X93436122Y-71812214D01*
X93492669Y-71986245D01*
X93575740Y-72149282D01*
X93575742Y-72149286D01*
X93683289Y-72297312D01*
X93683291Y-72297314D01*
X93683294Y-72297318D01*
X93812682Y-72426706D01*
X93812685Y-72426708D01*
X93812687Y-72426710D01*
X93960713Y-72534257D01*
X93960717Y-72534259D01*
X94123755Y-72617331D01*
X94123757Y-72617331D01*
X94123758Y-72617332D01*
X94123761Y-72617334D01*
X94265955Y-72663536D01*
X94315455Y-72699500D01*
X94334362Y-72757690D01*
X94315454Y-72815881D01*
X94265955Y-72851845D01*
X94085559Y-72910459D01*
X93908567Y-73000641D01*
X93871283Y-73027728D01*
X94434059Y-73590504D01*
X94373919Y-73606619D01*
X94258080Y-73673498D01*
X94163498Y-73768080D01*
X94096619Y-73883919D01*
X94080504Y-73944059D01*
X93517728Y-73381283D01*
X93490641Y-73418567D01*
X93400459Y-73595559D01*
X93339073Y-73784485D01*
X93308000Y-73980674D01*
X88423631Y-73980674D01*
X88451904Y-73925185D01*
X88527321Y-73693076D01*
X88527322Y-73693071D01*
X88565500Y-73452030D01*
X88565500Y-73207969D01*
X88527322Y-72966928D01*
X88522858Y-72953188D01*
X88451904Y-72734815D01*
X88378994Y-72591721D01*
X88341107Y-72517362D01*
X88291568Y-72449177D01*
X88197655Y-72319917D01*
X88025083Y-72147345D01*
X87935623Y-72082348D01*
X87827637Y-72003892D01*
X87610185Y-71893096D01*
X87378071Y-71817677D01*
X87137030Y-71779500D01*
X87137027Y-71779500D01*
X87099307Y-71779500D01*
X87041116Y-71760593D01*
X87005152Y-71711093D01*
X87000307Y-71680505D01*
X87000180Y-68908505D01*
X93407500Y-68908505D01*
X93407500Y-69091494D01*
X93436122Y-69272214D01*
X93492669Y-69446245D01*
X93575740Y-69609282D01*
X93575742Y-69609286D01*
X93683289Y-69757312D01*
X93683291Y-69757314D01*
X93683294Y-69757318D01*
X93812682Y-69886706D01*
X93812685Y-69886708D01*
X93812687Y-69886710D01*
X93960713Y-69994257D01*
X93960717Y-69994259D01*
X94123755Y-70077331D01*
X94297781Y-70133876D01*
X94297782Y-70133876D01*
X94297785Y-70133877D01*
X94478506Y-70162500D01*
X94478509Y-70162500D01*
X94661494Y-70162500D01*
X94842214Y-70133877D01*
X94842215Y-70133876D01*
X94842219Y-70133876D01*
X95016245Y-70077331D01*
X95179283Y-69994259D01*
X95180905Y-69993081D01*
X95228628Y-69958408D01*
X95327318Y-69886706D01*
X95456706Y-69757318D01*
X95564259Y-69609283D01*
X95647331Y-69446245D01*
X95703876Y-69272219D01*
X95711846Y-69221899D01*
X95732500Y-69091494D01*
X95732500Y-68908505D01*
X95703877Y-68727785D01*
X95676447Y-68643365D01*
X95647331Y-68553755D01*
X95564259Y-68390717D01*
X95564257Y-68390713D01*
X95456710Y-68242687D01*
X95456708Y-68242685D01*
X95456706Y-68242682D01*
X95327318Y-68113294D01*
X95327314Y-68113291D01*
X95327312Y-68113289D01*
X95179286Y-68005742D01*
X95179282Y-68005740D01*
X95016245Y-67922669D01*
X94842214Y-67866122D01*
X94661494Y-67837500D01*
X94661491Y-67837500D01*
X94478509Y-67837500D01*
X94478506Y-67837500D01*
X94297785Y-67866122D01*
X94123754Y-67922669D01*
X93960717Y-68005740D01*
X93960713Y-68005742D01*
X93812687Y-68113289D01*
X93683289Y-68242687D01*
X93575742Y-68390713D01*
X93575740Y-68390717D01*
X93492669Y-68553754D01*
X93436122Y-68727785D01*
X93407500Y-68908505D01*
X87000180Y-68908505D01*
X87000063Y-66368505D01*
X93407500Y-66368505D01*
X93407500Y-66551494D01*
X93436122Y-66732214D01*
X93492669Y-66906245D01*
X93575740Y-67069282D01*
X93575742Y-67069286D01*
X93683289Y-67217312D01*
X93683291Y-67217314D01*
X93683294Y-67217318D01*
X93812682Y-67346706D01*
X93812685Y-67346708D01*
X93812687Y-67346710D01*
X93960713Y-67454257D01*
X93960717Y-67454259D01*
X94123755Y-67537331D01*
X94297781Y-67593876D01*
X94297782Y-67593876D01*
X94297785Y-67593877D01*
X94478506Y-67622500D01*
X94478509Y-67622500D01*
X94661494Y-67622500D01*
X94842214Y-67593877D01*
X94842215Y-67593876D01*
X94842219Y-67593876D01*
X95016245Y-67537331D01*
X95179283Y-67454259D01*
X95327318Y-67346706D01*
X95456706Y-67217318D01*
X95528408Y-67118628D01*
X95564257Y-67069286D01*
X95564259Y-67069283D01*
X95647331Y-66906245D01*
X95703876Y-66732219D01*
X95715935Y-66656081D01*
X95732500Y-66551494D01*
X95732500Y-66368505D01*
X95703877Y-66187785D01*
X95703785Y-66187501D01*
X95647331Y-66013755D01*
X95564259Y-65850717D01*
X95564257Y-65850713D01*
X95456710Y-65702687D01*
X95456708Y-65702685D01*
X95456706Y-65702682D01*
X95327318Y-65573294D01*
X95327314Y-65573291D01*
X95327312Y-65573289D01*
X95179286Y-65465742D01*
X95179282Y-65465740D01*
X95016245Y-65382669D01*
X94842214Y-65326122D01*
X94661494Y-65297500D01*
X94661491Y-65297500D01*
X94478509Y-65297500D01*
X94478506Y-65297500D01*
X94297785Y-65326122D01*
X94123754Y-65382669D01*
X93960717Y-65465740D01*
X93960713Y-65465742D01*
X93812687Y-65573289D01*
X93683289Y-65702687D01*
X93575742Y-65850713D01*
X93575740Y-65850717D01*
X93492669Y-66013754D01*
X93436122Y-66187785D01*
X93407500Y-66368505D01*
X87000063Y-66368505D01*
X86999947Y-63828505D01*
X93407500Y-63828505D01*
X93407500Y-64011494D01*
X93436122Y-64192214D01*
X93492669Y-64366245D01*
X93575740Y-64529282D01*
X93575742Y-64529286D01*
X93683289Y-64677312D01*
X93683291Y-64677314D01*
X93683294Y-64677318D01*
X93812682Y-64806706D01*
X93812685Y-64806708D01*
X93812687Y-64806710D01*
X93960713Y-64914257D01*
X93960717Y-64914259D01*
X94123755Y-64997331D01*
X94297781Y-65053876D01*
X94297782Y-65053876D01*
X94297785Y-65053877D01*
X94478506Y-65082500D01*
X94478509Y-65082500D01*
X94661494Y-65082500D01*
X94842214Y-65053877D01*
X94842215Y-65053876D01*
X94842219Y-65053876D01*
X95016245Y-64997331D01*
X95179283Y-64914259D01*
X95327318Y-64806706D01*
X95456706Y-64677318D01*
X95564259Y-64529283D01*
X95647331Y-64366245D01*
X95703876Y-64192219D01*
X95732500Y-64011491D01*
X95732500Y-63828509D01*
X95732500Y-63828505D01*
X95703877Y-63647785D01*
X95695868Y-63623135D01*
X95647331Y-63473755D01*
X95564259Y-63310717D01*
X95564257Y-63310713D01*
X95456710Y-63162687D01*
X95456708Y-63162685D01*
X95456706Y-63162682D01*
X95327318Y-63033294D01*
X95327314Y-63033291D01*
X95327312Y-63033289D01*
X95179286Y-62925742D01*
X95179282Y-62925740D01*
X95016245Y-62842669D01*
X94842214Y-62786122D01*
X94661494Y-62757500D01*
X94661491Y-62757500D01*
X94478509Y-62757500D01*
X94478506Y-62757500D01*
X94297785Y-62786122D01*
X94123754Y-62842669D01*
X93960717Y-62925740D01*
X93960713Y-62925742D01*
X93812687Y-63033289D01*
X93683289Y-63162687D01*
X93575742Y-63310713D01*
X93575740Y-63310717D01*
X93492669Y-63473754D01*
X93436122Y-63647785D01*
X93407500Y-63828505D01*
X86999947Y-63828505D01*
X86999830Y-61288505D01*
X93407500Y-61288505D01*
X93407500Y-61471494D01*
X93436122Y-61652214D01*
X93492669Y-61826245D01*
X93575740Y-61989282D01*
X93575742Y-61989286D01*
X93683289Y-62137312D01*
X93683291Y-62137314D01*
X93683294Y-62137318D01*
X93812682Y-62266706D01*
X93812685Y-62266708D01*
X93812687Y-62266710D01*
X93960713Y-62374257D01*
X93960717Y-62374259D01*
X94123755Y-62457331D01*
X94297781Y-62513876D01*
X94297782Y-62513876D01*
X94297785Y-62513877D01*
X94478506Y-62542500D01*
X94478509Y-62542500D01*
X94661494Y-62542500D01*
X94842214Y-62513877D01*
X94842215Y-62513876D01*
X94842219Y-62513876D01*
X95016245Y-62457331D01*
X95179283Y-62374259D01*
X95327318Y-62266706D01*
X95456706Y-62137318D01*
X95564259Y-61989283D01*
X95647331Y-61826245D01*
X95703876Y-61652219D01*
X95732500Y-61471491D01*
X95732500Y-61288509D01*
X95732500Y-61288505D01*
X95703877Y-61107785D01*
X95703876Y-61107781D01*
X95647331Y-60933755D01*
X95564259Y-60770717D01*
X95564257Y-60770713D01*
X95456710Y-60622687D01*
X95456708Y-60622685D01*
X95456706Y-60622682D01*
X95327318Y-60493294D01*
X95327314Y-60493291D01*
X95327312Y-60493289D01*
X95179286Y-60385742D01*
X95179282Y-60385740D01*
X95016245Y-60302669D01*
X94842214Y-60246122D01*
X94661494Y-60217500D01*
X94661491Y-60217500D01*
X94478509Y-60217500D01*
X94478506Y-60217500D01*
X94297785Y-60246122D01*
X94123754Y-60302669D01*
X93960717Y-60385740D01*
X93960713Y-60385742D01*
X93812687Y-60493289D01*
X93683289Y-60622687D01*
X93575742Y-60770713D01*
X93575740Y-60770717D01*
X93492669Y-60933754D01*
X93436122Y-61107785D01*
X93407500Y-61288505D01*
X86999830Y-61288505D01*
X86999714Y-58748505D01*
X93407500Y-58748505D01*
X93407500Y-58931494D01*
X93436122Y-59112214D01*
X93492669Y-59286245D01*
X93575740Y-59449282D01*
X93575742Y-59449286D01*
X93683289Y-59597312D01*
X93683291Y-59597314D01*
X93683294Y-59597318D01*
X93812682Y-59726706D01*
X93812685Y-59726708D01*
X93812687Y-59726710D01*
X93960713Y-59834257D01*
X93960717Y-59834259D01*
X94123755Y-59917331D01*
X94297781Y-59973876D01*
X94297782Y-59973876D01*
X94297785Y-59973877D01*
X94478506Y-60002500D01*
X94478509Y-60002500D01*
X94661494Y-60002500D01*
X94842214Y-59973877D01*
X94842215Y-59973876D01*
X94842219Y-59973876D01*
X95016245Y-59917331D01*
X95179283Y-59834259D01*
X95327318Y-59726706D01*
X95456706Y-59597318D01*
X95564259Y-59449283D01*
X95647331Y-59286245D01*
X95703876Y-59112219D01*
X95703877Y-59112214D01*
X95732500Y-58931494D01*
X95732500Y-58748505D01*
X95703877Y-58567785D01*
X95694851Y-58540006D01*
X95647331Y-58393755D01*
X95564259Y-58230717D01*
X95564257Y-58230713D01*
X95456710Y-58082687D01*
X95456708Y-58082685D01*
X95456706Y-58082682D01*
X95327318Y-57953294D01*
X95327314Y-57953291D01*
X95327312Y-57953289D01*
X95179286Y-57845742D01*
X95179282Y-57845740D01*
X95016245Y-57762669D01*
X94842214Y-57706122D01*
X94661494Y-57677500D01*
X94661491Y-57677500D01*
X94478509Y-57677500D01*
X94478506Y-57677500D01*
X94297785Y-57706122D01*
X94123754Y-57762669D01*
X93960717Y-57845740D01*
X93960713Y-57845742D01*
X93812687Y-57953289D01*
X93683289Y-58082687D01*
X93575742Y-58230713D01*
X93575740Y-58230717D01*
X93492669Y-58393754D01*
X93436122Y-58567785D01*
X93407500Y-58748505D01*
X86999714Y-58748505D01*
X86999691Y-58247737D01*
X86999648Y-57299005D01*
X87018553Y-57240813D01*
X87068051Y-57204847D01*
X87098648Y-57200000D01*
X87144861Y-57200000D01*
X87401373Y-57159371D01*
X87648373Y-57079117D01*
X87879785Y-56961207D01*
X87991492Y-56880046D01*
X87041446Y-55930000D01*
X87065028Y-55930000D01*
X87161675Y-55904104D01*
X87248325Y-55854076D01*
X87319076Y-55783325D01*
X87369104Y-55696675D01*
X87395000Y-55600028D01*
X87395000Y-55576446D01*
X88345046Y-56526492D01*
X88426207Y-56414785D01*
X88531312Y-56208505D01*
X93407500Y-56208505D01*
X93407500Y-56391494D01*
X93436122Y-56572214D01*
X93492669Y-56746245D01*
X93575740Y-56909282D01*
X93575742Y-56909286D01*
X93683289Y-57057312D01*
X93683291Y-57057314D01*
X93683294Y-57057318D01*
X93812682Y-57186706D01*
X93812685Y-57186708D01*
X93812687Y-57186710D01*
X93960713Y-57294257D01*
X93960717Y-57294259D01*
X94123755Y-57377331D01*
X94297781Y-57433876D01*
X94297782Y-57433876D01*
X94297785Y-57433877D01*
X94478506Y-57462500D01*
X94478509Y-57462500D01*
X94661494Y-57462500D01*
X94842214Y-57433877D01*
X94842215Y-57433876D01*
X94842219Y-57433876D01*
X95016245Y-57377331D01*
X95179283Y-57294259D01*
X95180905Y-57293081D01*
X95228628Y-57258408D01*
X95327318Y-57186706D01*
X95456706Y-57057318D01*
X95560055Y-56915069D01*
X95564257Y-56909286D01*
X95564259Y-56909283D01*
X95647331Y-56746245D01*
X95703876Y-56572219D01*
X95703877Y-56572214D01*
X95732500Y-56391494D01*
X95732500Y-56208505D01*
X95703877Y-56027785D01*
X95703876Y-56027781D01*
X95647331Y-55853755D01*
X95564259Y-55690717D01*
X95564257Y-55690713D01*
X95456710Y-55542687D01*
X95456708Y-55542685D01*
X95456706Y-55542682D01*
X95327318Y-55413294D01*
X95327314Y-55413291D01*
X95327312Y-55413289D01*
X95179286Y-55305742D01*
X95179282Y-55305740D01*
X95016245Y-55222669D01*
X94842214Y-55166122D01*
X94661494Y-55137500D01*
X94661491Y-55137500D01*
X94478509Y-55137500D01*
X94478506Y-55137500D01*
X94297785Y-55166122D01*
X94123754Y-55222669D01*
X93960717Y-55305740D01*
X93960713Y-55305742D01*
X93812687Y-55413289D01*
X93683289Y-55542687D01*
X93575742Y-55690713D01*
X93575740Y-55690717D01*
X93492669Y-55853754D01*
X93436122Y-56027785D01*
X93407500Y-56208505D01*
X88531312Y-56208505D01*
X88544117Y-56183373D01*
X88547154Y-56174027D01*
X88547154Y-56174026D01*
X88624372Y-55936371D01*
X88665000Y-55679861D01*
X88665000Y-55420138D01*
X88624371Y-55163626D01*
X88544117Y-54916626D01*
X88426206Y-54685212D01*
X88426204Y-54685208D01*
X88345047Y-54573505D01*
X87395000Y-55523552D01*
X87395000Y-55499972D01*
X87369104Y-55403325D01*
X87319076Y-55316675D01*
X87248325Y-55245924D01*
X87161675Y-55195896D01*
X87065028Y-55170000D01*
X87041444Y-55170000D01*
X87991493Y-54219951D01*
X87879791Y-54138795D01*
X87879787Y-54138793D01*
X87648373Y-54020882D01*
X87401373Y-53940628D01*
X87144861Y-53900000D01*
X87098487Y-53900000D01*
X87083576Y-53895155D01*
X87067898Y-53895156D01*
X87055211Y-53885939D01*
X87040296Y-53881093D01*
X87031079Y-53868407D01*
X87018397Y-53859194D01*
X87013550Y-53844281D01*
X87004332Y-53831593D01*
X86999487Y-53801004D01*
X86999485Y-53764720D01*
X86999481Y-53668505D01*
X93407500Y-53668505D01*
X93407500Y-53851494D01*
X93436122Y-54032214D01*
X93492669Y-54206245D01*
X93575740Y-54369282D01*
X93575742Y-54369286D01*
X93683289Y-54517312D01*
X93683291Y-54517314D01*
X93683294Y-54517318D01*
X93812682Y-54646706D01*
X93812685Y-54646708D01*
X93812687Y-54646710D01*
X93960713Y-54754257D01*
X93960717Y-54754259D01*
X94123755Y-54837331D01*
X94297781Y-54893876D01*
X94297782Y-54893876D01*
X94297785Y-54893877D01*
X94478506Y-54922500D01*
X94478509Y-54922500D01*
X94661494Y-54922500D01*
X94842214Y-54893877D01*
X94842215Y-54893876D01*
X94842219Y-54893876D01*
X95016245Y-54837331D01*
X95179283Y-54754259D01*
X95327318Y-54646706D01*
X95456706Y-54517318D01*
X95528408Y-54418628D01*
X95564257Y-54369286D01*
X95564259Y-54369283D01*
X95647331Y-54206245D01*
X95703876Y-54032219D01*
X95716492Y-53952565D01*
X95732500Y-53851494D01*
X95732500Y-53668505D01*
X95703877Y-53487785D01*
X95703876Y-53487781D01*
X95647331Y-53313755D01*
X95564259Y-53150717D01*
X95564257Y-53150713D01*
X95456710Y-53002687D01*
X95456708Y-53002685D01*
X95456706Y-53002682D01*
X95327318Y-52873294D01*
X95327314Y-52873291D01*
X95327312Y-52873289D01*
X95179286Y-52765742D01*
X95179282Y-52765740D01*
X95016245Y-52682669D01*
X94842214Y-52626122D01*
X94661494Y-52597500D01*
X94661491Y-52597500D01*
X94478509Y-52597500D01*
X94478506Y-52597500D01*
X94297785Y-52626122D01*
X94123754Y-52682669D01*
X93960717Y-52765740D01*
X93960713Y-52765742D01*
X93812687Y-52873289D01*
X93683289Y-53002687D01*
X93575742Y-53150713D01*
X93575740Y-53150717D01*
X93492669Y-53313754D01*
X93436122Y-53487785D01*
X93407500Y-53668505D01*
X86999481Y-53668505D01*
X86999365Y-51128505D01*
X93407500Y-51128505D01*
X93407500Y-51311494D01*
X93436122Y-51492214D01*
X93492669Y-51666245D01*
X93575740Y-51829282D01*
X93575742Y-51829286D01*
X93683289Y-51977312D01*
X93683291Y-51977314D01*
X93683294Y-51977318D01*
X93812682Y-52106706D01*
X93812685Y-52106708D01*
X93812687Y-52106710D01*
X93960713Y-52214257D01*
X93960717Y-52214259D01*
X94123755Y-52297331D01*
X94297781Y-52353876D01*
X94297782Y-52353876D01*
X94297785Y-52353877D01*
X94478506Y-52382500D01*
X94478509Y-52382500D01*
X94661494Y-52382500D01*
X94842214Y-52353877D01*
X94842215Y-52353876D01*
X94842219Y-52353876D01*
X95016245Y-52297331D01*
X95179283Y-52214259D01*
X95327318Y-52106706D01*
X95456706Y-51977318D01*
X95536071Y-51868081D01*
X95564257Y-51829286D01*
X95564259Y-51829283D01*
X95647331Y-51666245D01*
X95703876Y-51492219D01*
X95703877Y-51492214D01*
X95732500Y-51311494D01*
X95732500Y-51128505D01*
X95703877Y-50947785D01*
X95703876Y-50947781D01*
X95647331Y-50773755D01*
X95564259Y-50610717D01*
X95564257Y-50610713D01*
X95456710Y-50462687D01*
X95456708Y-50462685D01*
X95456706Y-50462682D01*
X95327318Y-50333294D01*
X95327314Y-50333291D01*
X95327312Y-50333289D01*
X95179286Y-50225742D01*
X95179282Y-50225740D01*
X95016245Y-50142669D01*
X94842214Y-50086122D01*
X94661494Y-50057500D01*
X94661491Y-50057500D01*
X94478509Y-50057500D01*
X94478506Y-50057500D01*
X94297785Y-50086122D01*
X94123754Y-50142669D01*
X93960717Y-50225740D01*
X93960713Y-50225742D01*
X93812687Y-50333289D01*
X93683289Y-50462687D01*
X93575742Y-50610713D01*
X93575740Y-50610717D01*
X93492669Y-50773754D01*
X93436122Y-50947785D01*
X93407500Y-51128505D01*
X86999365Y-51128505D01*
X86999196Y-47437684D01*
X87510000Y-47437684D01*
X87510000Y-47642315D01*
X87542008Y-47844412D01*
X87605243Y-48039027D01*
X87698139Y-48221348D01*
X87698143Y-48221353D01*
X87730523Y-48265920D01*
X87730524Y-48265920D01*
X88410000Y-47586444D01*
X88410000Y-47592661D01*
X88437259Y-47694394D01*
X88489920Y-47785606D01*
X88564394Y-47860080D01*
X88655606Y-47912741D01*
X88757339Y-47940000D01*
X88763553Y-47940000D01*
X88084078Y-48619475D01*
X88128647Y-48651858D01*
X88310972Y-48744756D01*
X88505587Y-48807991D01*
X88707685Y-48840000D01*
X88912315Y-48840000D01*
X89114412Y-48807991D01*
X89309027Y-48744756D01*
X89491342Y-48651863D01*
X89491350Y-48651858D01*
X89535920Y-48619475D01*
X88856445Y-47940000D01*
X88862661Y-47940000D01*
X88964394Y-47912741D01*
X89055606Y-47860080D01*
X89130080Y-47785606D01*
X89182741Y-47694394D01*
X89210000Y-47592661D01*
X89210000Y-47586445D01*
X89889475Y-48265920D01*
X89921858Y-48221350D01*
X89921863Y-48221342D01*
X90014756Y-48039027D01*
X90077991Y-47844412D01*
X90110000Y-47642315D01*
X90110000Y-47437684D01*
X90077991Y-47235587D01*
X90014756Y-47040972D01*
X89921858Y-46858647D01*
X89889475Y-46814078D01*
X89210000Y-47493553D01*
X89210000Y-47487339D01*
X89182741Y-47385606D01*
X89130080Y-47294394D01*
X89055606Y-47219920D01*
X88964394Y-47167259D01*
X88862661Y-47140000D01*
X88856445Y-47140000D01*
X89535920Y-46460524D01*
X89535920Y-46460523D01*
X89491353Y-46428143D01*
X89491348Y-46428139D01*
X89309023Y-46335241D01*
X89309020Y-46335239D01*
X89237014Y-46311843D01*
X89187514Y-46275879D01*
X89168607Y-46217688D01*
X89187515Y-46159498D01*
X89237012Y-46123535D01*
X89270832Y-46112547D01*
X89439199Y-46026760D01*
X89592073Y-45915690D01*
X89725690Y-45782073D01*
X89836760Y-45629199D01*
X89922547Y-45460832D01*
X89980940Y-45281118D01*
X89982789Y-45269445D01*
X90010500Y-45094484D01*
X90010500Y-44905515D01*
X89980941Y-44718886D01*
X89950190Y-44624244D01*
X89922547Y-44539168D01*
X89836760Y-44370801D01*
X89725690Y-44217927D01*
X89592073Y-44084310D01*
X89439199Y-43973240D01*
X89439198Y-43973239D01*
X89439196Y-43973238D01*
X89270832Y-43887453D01*
X89091113Y-43829058D01*
X89083046Y-43827781D01*
X89028529Y-43800004D01*
X89000751Y-43745488D01*
X89010322Y-43685056D01*
X89053586Y-43641791D01*
X89083046Y-43632219D01*
X89091113Y-43630941D01*
X89091114Y-43630940D01*
X89091118Y-43630940D01*
X89270832Y-43572547D01*
X89439199Y-43486760D01*
X89592073Y-43375690D01*
X89725690Y-43242073D01*
X89836760Y-43089199D01*
X89922547Y-42920832D01*
X89980940Y-42741118D01*
X90010500Y-42554481D01*
X90010500Y-42365519D01*
X90010500Y-42365515D01*
X89980941Y-42178886D01*
X89980940Y-42178882D01*
X89922547Y-41999168D01*
X89836760Y-41830801D01*
X89725690Y-41677927D01*
X89592073Y-41544310D01*
X89439199Y-41433240D01*
X89439198Y-41433239D01*
X89439196Y-41433238D01*
X89270832Y-41347453D01*
X89091113Y-41289058D01*
X88904484Y-41259500D01*
X88904481Y-41259500D01*
X88715519Y-41259500D01*
X88715516Y-41259500D01*
X88528886Y-41289058D01*
X88349167Y-41347453D01*
X88180803Y-41433238D01*
X88027928Y-41544309D01*
X87894309Y-41677928D01*
X87783238Y-41830803D01*
X87697453Y-41999167D01*
X87639058Y-42178886D01*
X87609500Y-42365515D01*
X87609500Y-42554484D01*
X87639058Y-42741113D01*
X87697453Y-42920832D01*
X87757940Y-43039546D01*
X87783240Y-43089199D01*
X87894310Y-43242073D01*
X88027927Y-43375690D01*
X88180801Y-43486760D01*
X88349168Y-43572547D01*
X88528882Y-43630940D01*
X88528883Y-43630940D01*
X88528886Y-43630941D01*
X88536954Y-43632219D01*
X88591471Y-43659996D01*
X88619248Y-43714513D01*
X88609677Y-43774945D01*
X88566412Y-43818210D01*
X88536954Y-43827781D01*
X88528886Y-43829058D01*
X88349167Y-43887453D01*
X88180803Y-43973238D01*
X88027928Y-44084309D01*
X87894309Y-44217928D01*
X87783238Y-44370803D01*
X87697453Y-44539167D01*
X87639058Y-44718886D01*
X87609500Y-44905515D01*
X87609500Y-45094484D01*
X87639058Y-45281113D01*
X87697453Y-45460832D01*
X87783240Y-45629199D01*
X87894310Y-45782073D01*
X88027927Y-45915690D01*
X88180801Y-46026760D01*
X88349168Y-46112547D01*
X88349171Y-46112548D01*
X88349169Y-46112548D01*
X88374352Y-46120730D01*
X88382983Y-46123534D01*
X88432484Y-46159497D01*
X88451392Y-46217687D01*
X88432486Y-46275878D01*
X88382986Y-46311843D01*
X88310976Y-46335241D01*
X88128651Y-46428139D01*
X88128647Y-46428141D01*
X88084078Y-46460523D01*
X88763555Y-47140000D01*
X88757339Y-47140000D01*
X88655606Y-47167259D01*
X88564394Y-47219920D01*
X88489920Y-47294394D01*
X88437259Y-47385606D01*
X88410000Y-47487339D01*
X88410000Y-47493555D01*
X87730523Y-46814078D01*
X87698141Y-46858647D01*
X87698139Y-46858651D01*
X87605243Y-47040972D01*
X87542008Y-47235587D01*
X87510000Y-47437684D01*
X86999196Y-47437684D01*
X86999063Y-44539167D01*
X86998963Y-42361634D01*
X86998804Y-38889774D01*
X106599500Y-38889774D01*
X106599500Y-39110225D01*
X106633984Y-39327948D01*
X106702102Y-39537599D01*
X106702104Y-39537602D01*
X106702105Y-39537606D01*
X106802185Y-39734022D01*
X106931758Y-39912365D01*
X107087635Y-40068242D01*
X107265978Y-40197815D01*
X107295445Y-40212829D01*
X107338708Y-40256090D01*
X107349500Y-40301038D01*
X107349500Y-62174067D01*
X107365318Y-62253588D01*
X107374499Y-62299743D01*
X107374499Y-62299745D01*
X107423533Y-62418124D01*
X107423534Y-62418126D01*
X107423535Y-62418127D01*
X107494723Y-62524669D01*
X111876299Y-66906245D01*
X116252486Y-71282432D01*
X116280263Y-71336949D01*
X116280263Y-71367923D01*
X116267500Y-71448505D01*
X116267500Y-71631494D01*
X116296122Y-71812214D01*
X116352669Y-71986245D01*
X116435740Y-72149282D01*
X116435742Y-72149286D01*
X116543289Y-72297312D01*
X116543291Y-72297314D01*
X116543294Y-72297318D01*
X116672682Y-72426706D01*
X116672685Y-72426708D01*
X116672687Y-72426710D01*
X116820713Y-72534257D01*
X116820717Y-72534259D01*
X116983755Y-72617331D01*
X117157781Y-72673876D01*
X117157782Y-72673876D01*
X117157785Y-72673877D01*
X117338506Y-72702500D01*
X117338509Y-72702500D01*
X117521494Y-72702500D01*
X117702214Y-72673877D01*
X117702215Y-72673876D01*
X117702219Y-72673876D01*
X117876245Y-72617331D01*
X118039283Y-72534259D01*
X118187318Y-72426706D01*
X118316706Y-72297318D01*
X118424259Y-72149283D01*
X118507331Y-71986245D01*
X118563876Y-71812219D01*
X118568086Y-71785637D01*
X118592500Y-71631494D01*
X118592500Y-71448505D01*
X118571275Y-71314497D01*
X118580846Y-71254065D01*
X118624111Y-71210800D01*
X118684543Y-71201229D01*
X118739060Y-71229006D01*
X120515330Y-73005276D01*
X120603321Y-73064069D01*
X120621873Y-73076465D01*
X120740256Y-73125501D01*
X120865931Y-73150500D01*
X121262681Y-73150500D01*
X121320872Y-73169407D01*
X121347895Y-73199106D01*
X121356919Y-73214365D01*
X121473135Y-73330581D01*
X121614602Y-73414244D01*
X121772431Y-73460098D01*
X121809306Y-73463000D01*
X121809311Y-73463000D01*
X123190689Y-73463000D01*
X123190694Y-73463000D01*
X123227569Y-73460098D01*
X123385398Y-73414244D01*
X123526865Y-73330581D01*
X123643081Y-73214365D01*
X123726744Y-73072898D01*
X123772598Y-72915069D01*
X123775500Y-72878194D01*
X123775500Y-72121806D01*
X123772598Y-72084931D01*
X123726744Y-71927102D01*
X123643081Y-71785635D01*
X123526865Y-71669419D01*
X123385398Y-71585756D01*
X123227569Y-71539902D01*
X123227568Y-71539901D01*
X123227565Y-71539901D01*
X123204140Y-71538058D01*
X123190694Y-71537000D01*
X121809306Y-71537000D01*
X121796773Y-71537986D01*
X121772434Y-71539901D01*
X121772427Y-71539903D01*
X121614602Y-71585756D01*
X121473136Y-71669418D01*
X121356917Y-71785637D01*
X121347895Y-71800894D01*
X121332746Y-71814249D01*
X121320872Y-71830593D01*
X121310319Y-71834021D01*
X121301999Y-71841357D01*
X121262681Y-71849500D01*
X121240454Y-71849500D01*
X121182263Y-71830593D01*
X121170450Y-71820504D01*
X118607513Y-69257567D01*
X118579736Y-69203050D01*
X118579736Y-69172075D01*
X118581661Y-69159927D01*
X118589428Y-69110880D01*
X118592500Y-69091492D01*
X118592500Y-68908505D01*
X118563877Y-68727785D01*
X118536447Y-68643365D01*
X118507331Y-68553755D01*
X118424259Y-68390717D01*
X118424257Y-68390713D01*
X118316710Y-68242687D01*
X118316708Y-68242685D01*
X118316706Y-68242682D01*
X118187318Y-68113294D01*
X118187314Y-68113291D01*
X118187312Y-68113289D01*
X118039286Y-68005742D01*
X118039282Y-68005740D01*
X117876241Y-67922667D01*
X117876238Y-67922665D01*
X117734044Y-67876463D01*
X117684544Y-67840499D01*
X117665637Y-67782308D01*
X117684545Y-67724118D01*
X117734045Y-67688154D01*
X117914438Y-67629541D01*
X118091434Y-67539357D01*
X118128715Y-67512270D01*
X117565940Y-66949495D01*
X117626081Y-66933381D01*
X117741920Y-66866502D01*
X117836502Y-66771920D01*
X117903381Y-66656081D01*
X117919495Y-66595940D01*
X118482270Y-67158715D01*
X118509357Y-67121434D01*
X118599540Y-66944440D01*
X118660926Y-66755514D01*
X118692000Y-66559325D01*
X118692000Y-66360674D01*
X118660926Y-66164485D01*
X118599540Y-65975559D01*
X118509359Y-65798568D01*
X118509357Y-65798564D01*
X118482270Y-65761283D01*
X117919495Y-66324057D01*
X117903381Y-66263919D01*
X117836502Y-66148080D01*
X117741920Y-66053498D01*
X117626081Y-65986619D01*
X117565938Y-65970504D01*
X118128714Y-65407729D01*
X118091425Y-65380637D01*
X117914440Y-65290459D01*
X117885805Y-65281155D01*
X117836305Y-65245191D01*
X117817398Y-65187000D01*
X117836305Y-65128809D01*
X117885805Y-65092845D01*
X117916398Y-65088000D01*
X118011569Y-65088000D01*
X119250500Y-65088000D01*
X119308691Y-65106907D01*
X119344655Y-65156407D01*
X119349500Y-65187000D01*
X119349500Y-68564069D01*
X119359612Y-68614902D01*
X119366162Y-68647831D01*
X119374499Y-68689745D01*
X119423533Y-68808124D01*
X119490670Y-68908604D01*
X119494723Y-68914669D01*
X120660331Y-70080277D01*
X120660334Y-70080279D01*
X120766875Y-70151467D01*
X120797024Y-70163954D01*
X120836221Y-70180189D01*
X120885256Y-70200501D01*
X121010931Y-70225500D01*
X121139069Y-70225500D01*
X121262681Y-70225500D01*
X121320872Y-70244407D01*
X121347895Y-70274106D01*
X121356919Y-70289365D01*
X121473135Y-70405581D01*
X121614602Y-70489244D01*
X121772431Y-70535098D01*
X121809306Y-70538000D01*
X121809311Y-70538000D01*
X123190689Y-70538000D01*
X123190694Y-70538000D01*
X123227569Y-70535098D01*
X123385398Y-70489244D01*
X123526865Y-70405581D01*
X123643081Y-70289365D01*
X123726744Y-70147898D01*
X123772598Y-69990069D01*
X123775500Y-69953194D01*
X123775500Y-69196806D01*
X123772598Y-69159931D01*
X123726744Y-69002102D01*
X123643081Y-68860635D01*
X123540757Y-68758311D01*
X123512982Y-68703797D01*
X123522553Y-68643365D01*
X123558791Y-68604049D01*
X123618340Y-68567319D01*
X123742319Y-68443340D01*
X123834356Y-68294124D01*
X123889506Y-68127693D01*
X123900000Y-68024987D01*
X123900000Y-67812501D01*
X123899999Y-67812500D01*
X121100002Y-67812500D01*
X121100001Y-67812501D01*
X121100001Y-68024986D01*
X121110492Y-68127687D01*
X121110495Y-68127699D01*
X121165643Y-68294124D01*
X121257680Y-68443340D01*
X121381659Y-68567319D01*
X121441208Y-68604049D01*
X121480810Y-68650690D01*
X121485433Y-68711700D01*
X121459240Y-68758314D01*
X121388754Y-68828800D01*
X121334237Y-68856577D01*
X121273805Y-68847006D01*
X121248746Y-68828800D01*
X120679496Y-68259550D01*
X120651719Y-68205033D01*
X120650500Y-68189546D01*
X120650500Y-67100010D01*
X121100000Y-67100010D01*
X121100000Y-67312499D01*
X121100001Y-67312500D01*
X122249999Y-67312500D01*
X122250000Y-67312499D01*
X122250000Y-66400001D01*
X122750000Y-66400001D01*
X122750000Y-67312499D01*
X122750001Y-67312500D01*
X123899998Y-67312500D01*
X123899999Y-67312499D01*
X123899999Y-67100013D01*
X123899998Y-67099999D01*
X123889507Y-66997312D01*
X123889504Y-66997300D01*
X123834356Y-66830875D01*
X123742319Y-66681659D01*
X123618340Y-66557680D01*
X123469124Y-66465643D01*
X123302693Y-66410493D01*
X123199987Y-66400000D01*
X122750001Y-66400000D01*
X122750000Y-66400001D01*
X122250000Y-66400001D01*
X122249999Y-66400000D01*
X121800013Y-66400000D01*
X121697312Y-66410492D01*
X121697300Y-66410495D01*
X121530875Y-66465643D01*
X121381659Y-66557680D01*
X121257680Y-66681659D01*
X121165643Y-66830875D01*
X121110493Y-66997306D01*
X121100001Y-67099999D01*
X121100000Y-67100010D01*
X120650500Y-67100010D01*
X120650500Y-65187000D01*
X120669407Y-65128809D01*
X120718907Y-65092845D01*
X120749500Y-65088000D01*
X121178541Y-65088000D01*
X121236732Y-65106907D01*
X121263754Y-65136605D01*
X121331916Y-65251861D01*
X121331917Y-65251862D01*
X121331919Y-65251865D01*
X121448135Y-65368081D01*
X121589602Y-65451744D01*
X121747431Y-65497598D01*
X121784306Y-65500500D01*
X121784311Y-65500500D01*
X123215689Y-65500500D01*
X123215694Y-65500500D01*
X123252569Y-65497598D01*
X123410398Y-65451744D01*
X123551865Y-65368081D01*
X123668081Y-65251865D01*
X123751744Y-65110398D01*
X123797598Y-64952569D01*
X123800500Y-64915694D01*
X123800500Y-63959306D01*
X123797598Y-63922431D01*
X123751744Y-63764602D01*
X123668081Y-63623135D01*
X123551865Y-63506919D01*
X123410398Y-63423256D01*
X123252569Y-63377402D01*
X123252566Y-63377401D01*
X123241731Y-63376549D01*
X123185203Y-63353133D01*
X123153235Y-63300963D01*
X123150500Y-63277854D01*
X123150500Y-60481729D01*
X123169407Y-60423538D01*
X123218907Y-60387574D01*
X123222740Y-60386607D01*
X123222712Y-60386509D01*
X123227569Y-60385098D01*
X123385398Y-60339244D01*
X123526865Y-60255581D01*
X123643081Y-60139365D01*
X123663903Y-60104154D01*
X123709796Y-60063692D01*
X123729800Y-60057451D01*
X123764744Y-60050501D01*
X123883127Y-60001465D01*
X123924417Y-59973876D01*
X123989669Y-59930277D01*
X125005277Y-58914669D01*
X125076466Y-58808126D01*
X125105189Y-58738779D01*
X125105190Y-58738779D01*
X125105190Y-58738775D01*
X125125501Y-58689744D01*
X125150500Y-58564069D01*
X125150500Y-55271953D01*
X125169407Y-55213762D01*
X125218907Y-55177798D01*
X125280093Y-55177798D01*
X125319504Y-55201949D01*
X126195504Y-56077949D01*
X126223281Y-56132466D01*
X126224500Y-56147953D01*
X126224500Y-56840688D01*
X126227401Y-56877565D01*
X126227401Y-56877568D01*
X126227402Y-56877569D01*
X126273256Y-57035398D01*
X126356919Y-57176865D01*
X126473135Y-57293081D01*
X126614602Y-57376744D01*
X126772431Y-57422598D01*
X126777288Y-57424009D01*
X126776979Y-57425074D01*
X126781093Y-57425074D01*
X126800709Y-57439326D01*
X126822058Y-57450815D01*
X126825036Y-57457001D01*
X126830593Y-57461038D01*
X126838086Y-57484099D01*
X126848604Y-57505942D01*
X126849500Y-57519229D01*
X126849500Y-57689546D01*
X126830593Y-57747737D01*
X126820504Y-57759550D01*
X124494720Y-60085334D01*
X124423534Y-60191873D01*
X124374500Y-60310252D01*
X124374499Y-60310255D01*
X124374499Y-60310256D01*
X124349500Y-60435931D01*
X124349500Y-73064069D01*
X124365423Y-73144115D01*
X124366693Y-73150500D01*
X124374499Y-73189745D01*
X124423533Y-73308124D01*
X124488650Y-73405581D01*
X124494723Y-73414669D01*
X126195505Y-75115451D01*
X126223281Y-75169966D01*
X126224500Y-75185453D01*
X126224500Y-75878188D01*
X126227401Y-75915065D01*
X126227401Y-75915068D01*
X126227402Y-75915069D01*
X126273256Y-76072898D01*
X126356919Y-76214365D01*
X126473135Y-76330581D01*
X126614602Y-76414244D01*
X126722329Y-76445542D01*
X126772933Y-76479932D01*
X126793659Y-76537500D01*
X126776589Y-76596256D01*
X126752907Y-76620697D01*
X126750503Y-76622443D01*
X126750499Y-76622447D01*
X126622447Y-76750499D01*
X126569225Y-76823752D01*
X126516002Y-76897008D01*
X126433788Y-77058362D01*
X126377828Y-77230593D01*
X126349500Y-77409450D01*
X126349500Y-77590549D01*
X126377828Y-77769406D01*
X126433788Y-77941637D01*
X126505647Y-78082669D01*
X126516004Y-78102994D01*
X126622447Y-78249501D01*
X126750499Y-78377553D01*
X126897006Y-78483996D01*
X127058361Y-78566211D01*
X127230591Y-78622171D01*
X127302136Y-78633502D01*
X127409451Y-78650500D01*
X127409454Y-78650500D01*
X127590549Y-78650500D01*
X127679977Y-78636335D01*
X127769409Y-78622171D01*
X127941639Y-78566211D01*
X128102994Y-78483996D01*
X128249501Y-78377553D01*
X128377553Y-78249501D01*
X128483996Y-78102994D01*
X128566211Y-77941639D01*
X128622171Y-77769409D01*
X128636335Y-77679977D01*
X128650500Y-77590549D01*
X128650500Y-77409450D01*
X128622171Y-77230593D01*
X128622171Y-77230591D01*
X128566211Y-77058361D01*
X128483996Y-76897006D01*
X128377553Y-76750499D01*
X128249501Y-76622447D01*
X128247098Y-76620701D01*
X128211136Y-76571201D01*
X128211137Y-76510016D01*
X128247102Y-76460516D01*
X128277666Y-76445543D01*
X128385398Y-76414244D01*
X128526865Y-76330581D01*
X128643081Y-76214365D01*
X128726744Y-76072898D01*
X128772598Y-75915069D01*
X128775500Y-75878194D01*
X128775500Y-75121806D01*
X128772598Y-75084931D01*
X128726744Y-74927102D01*
X128643081Y-74785635D01*
X128526865Y-74669419D01*
X128385398Y-74585756D01*
X128227569Y-74539902D01*
X128227568Y-74539901D01*
X128227565Y-74539901D01*
X128204140Y-74538058D01*
X128190694Y-74537000D01*
X128190689Y-74537000D01*
X127497954Y-74537000D01*
X127439763Y-74518093D01*
X127427950Y-74508004D01*
X126597721Y-73677775D01*
X126569944Y-73623258D01*
X126579515Y-73562826D01*
X126622780Y-73519561D01*
X126683212Y-73509990D01*
X126695338Y-73512700D01*
X126772431Y-73535098D01*
X126809306Y-73538000D01*
X126809311Y-73538000D01*
X128190689Y-73538000D01*
X128190694Y-73538000D01*
X128227569Y-73535098D01*
X128385398Y-73489244D01*
X128526865Y-73405581D01*
X128643081Y-73289365D01*
X128726744Y-73147898D01*
X128772598Y-72990069D01*
X128775500Y-72953194D01*
X128775500Y-72196806D01*
X128772598Y-72159931D01*
X128726744Y-72002102D01*
X128643081Y-71860635D01*
X128526865Y-71744419D01*
X128385398Y-71660756D01*
X128227569Y-71614902D01*
X128227568Y-71614901D01*
X128222712Y-71613491D01*
X128223386Y-71611167D01*
X128177863Y-71586601D01*
X128151380Y-71531443D01*
X128150500Y-71518270D01*
X128150500Y-70222145D01*
X128169407Y-70163954D01*
X128218907Y-70127990D01*
X128241733Y-70123450D01*
X128252569Y-70122598D01*
X128410398Y-70076744D01*
X128551865Y-69993081D01*
X128668081Y-69876865D01*
X128751744Y-69735398D01*
X128797598Y-69577569D01*
X128800500Y-69540694D01*
X128800500Y-69479500D01*
X128819407Y-69421309D01*
X128868907Y-69385345D01*
X128899500Y-69380500D01*
X131626749Y-69380500D01*
X131684940Y-69399407D01*
X131706839Y-69421306D01*
X131805917Y-69557675D01*
X131947325Y-69699083D01*
X132109113Y-69816629D01*
X132287297Y-69907419D01*
X132287305Y-69907421D01*
X132287306Y-69907422D01*
X132290005Y-69908541D01*
X132290749Y-69909177D01*
X132290763Y-69909184D01*
X132290761Y-69909187D01*
X132336525Y-69948284D01*
X132350801Y-70007781D01*
X132327378Y-70064306D01*
X132290005Y-70091459D01*
X132287306Y-70092577D01*
X132287300Y-70092579D01*
X132287297Y-70092581D01*
X132228390Y-70122596D01*
X132109115Y-70183369D01*
X131947326Y-70300916D01*
X131805916Y-70442326D01*
X131688369Y-70604115D01*
X131597578Y-70782303D01*
X131535783Y-70972492D01*
X131504500Y-71170005D01*
X131504500Y-71369994D01*
X131535783Y-71567507D01*
X131597578Y-71757696D01*
X131597580Y-71757699D01*
X131597581Y-71757703D01*
X131619588Y-71800894D01*
X131683894Y-71927102D01*
X131688371Y-71935887D01*
X131805917Y-72097675D01*
X131947325Y-72239083D01*
X132109113Y-72356629D01*
X132287297Y-72447419D01*
X132287305Y-72447421D01*
X132287306Y-72447422D01*
X132290005Y-72448541D01*
X132290749Y-72449177D01*
X132290763Y-72449184D01*
X132290761Y-72449187D01*
X132336525Y-72488284D01*
X132350801Y-72547781D01*
X132327378Y-72604306D01*
X132290005Y-72631459D01*
X132287306Y-72632577D01*
X132287300Y-72632579D01*
X132287297Y-72632581D01*
X132226547Y-72663535D01*
X132109115Y-72723369D01*
X131947326Y-72840916D01*
X131805916Y-72982326D01*
X131688369Y-73144115D01*
X131597578Y-73322303D01*
X131535783Y-73512492D01*
X131504500Y-73710005D01*
X131504500Y-73909994D01*
X131535783Y-74107507D01*
X131597578Y-74297696D01*
X131597580Y-74297699D01*
X131597581Y-74297703D01*
X131688371Y-74475887D01*
X131805917Y-74637675D01*
X131947325Y-74779083D01*
X132109113Y-74896629D01*
X132287297Y-74987419D01*
X132477490Y-75049216D01*
X132556497Y-75061729D01*
X132675006Y-75080500D01*
X132675009Y-75080500D01*
X133324994Y-75080500D01*
X133423750Y-75064858D01*
X133522510Y-75049216D01*
X133712703Y-74987419D01*
X133890887Y-74896629D01*
X134052675Y-74779083D01*
X134194083Y-74637675D01*
X134311629Y-74475887D01*
X134402419Y-74297703D01*
X134464216Y-74107510D01*
X134492039Y-73931843D01*
X134495500Y-73909994D01*
X134495500Y-73710005D01*
X134467797Y-73535098D01*
X134464216Y-73512490D01*
X134402419Y-73322297D01*
X134311629Y-73144113D01*
X134194083Y-72982325D01*
X134052675Y-72840917D01*
X133890887Y-72723371D01*
X133890886Y-72723370D01*
X133890884Y-72723369D01*
X133793748Y-72673876D01*
X133712703Y-72632581D01*
X133712697Y-72632579D01*
X133712695Y-72632578D01*
X133709999Y-72631461D01*
X133709254Y-72630824D01*
X133709237Y-72630816D01*
X133709239Y-72630811D01*
X133663476Y-72591721D01*
X133649198Y-72532225D01*
X133672617Y-72475699D01*
X133709999Y-72448539D01*
X133712688Y-72447423D01*
X133712703Y-72447419D01*
X133890887Y-72356629D01*
X134052675Y-72239083D01*
X134194083Y-72097675D01*
X134293159Y-71961307D01*
X134342658Y-71925345D01*
X134373251Y-71920500D01*
X136314068Y-71920500D01*
X136314069Y-71920500D01*
X136439744Y-71895501D01*
X136558127Y-71846465D01*
X136664669Y-71775277D01*
X138025276Y-70414669D01*
X138096465Y-70308127D01*
X138145501Y-70189744D01*
X138158280Y-70125500D01*
X138170500Y-70064069D01*
X138170500Y-55955931D01*
X138145501Y-55830256D01*
X138096465Y-55711873D01*
X138096463Y-55711871D01*
X138096462Y-55711867D01*
X138086310Y-55696675D01*
X138082329Y-55690717D01*
X138025277Y-55605331D01*
X136184669Y-53764723D01*
X136078127Y-53693535D01*
X136078128Y-53693535D01*
X136078126Y-53693534D01*
X135959747Y-53644500D01*
X135959745Y-53644499D01*
X135959744Y-53644499D01*
X135834069Y-53619500D01*
X134373251Y-53619500D01*
X134315060Y-53600593D01*
X134293160Y-53578693D01*
X134194083Y-53442325D01*
X134052675Y-53300917D01*
X133890887Y-53183371D01*
X133890886Y-53183370D01*
X133890884Y-53183369D01*
X133826800Y-53150717D01*
X133712703Y-53092581D01*
X133712697Y-53092579D01*
X133712695Y-53092578D01*
X133709999Y-53091461D01*
X133709254Y-53090824D01*
X133709237Y-53090816D01*
X133709239Y-53090811D01*
X133663476Y-53051721D01*
X133649198Y-52992225D01*
X133672617Y-52935699D01*
X133709999Y-52908539D01*
X133712688Y-52907423D01*
X133712703Y-52907419D01*
X133890887Y-52816629D01*
X134052675Y-52699083D01*
X134194083Y-52557675D01*
X134311629Y-52395887D01*
X134402419Y-52217703D01*
X134464216Y-52027510D01*
X134495500Y-51829991D01*
X134495500Y-51630009D01*
X134495500Y-51630005D01*
X134473675Y-51492214D01*
X134464216Y-51432490D01*
X134402419Y-51242297D01*
X134311629Y-51064113D01*
X134194083Y-50902325D01*
X134052675Y-50760917D01*
X134052671Y-50760914D01*
X134052669Y-50760912D01*
X133991681Y-50716601D01*
X133955717Y-50667101D01*
X133955718Y-50605916D01*
X133991682Y-50556416D01*
X134018732Y-50542534D01*
X134164124Y-50494356D01*
X134313340Y-50402319D01*
X134437319Y-50278340D01*
X134529356Y-50129124D01*
X134584506Y-49962693D01*
X134595000Y-49859987D01*
X134595000Y-49440001D01*
X134594999Y-49440000D01*
X133542709Y-49440000D01*
X133554452Y-49419661D01*
X133595000Y-49268333D01*
X133595000Y-49111667D01*
X133554452Y-48960339D01*
X133542709Y-48940000D01*
X134594998Y-48940000D01*
X134594999Y-48939999D01*
X134594999Y-48520013D01*
X134584507Y-48417312D01*
X134584504Y-48417300D01*
X134529356Y-48250875D01*
X134437319Y-48101659D01*
X134313340Y-47977680D01*
X134164124Y-47885643D01*
X133997693Y-47830493D01*
X133894987Y-47820000D01*
X133250001Y-47820000D01*
X133250000Y-47820001D01*
X133250000Y-48647290D01*
X133229661Y-48635548D01*
X133078333Y-48595000D01*
X132921667Y-48595000D01*
X132770339Y-48635548D01*
X132750000Y-48647290D01*
X132750000Y-47820001D01*
X132749999Y-47820000D01*
X132105013Y-47820000D01*
X132002312Y-47830492D01*
X132002300Y-47830495D01*
X131835875Y-47885643D01*
X131686659Y-47977680D01*
X131562680Y-48101659D01*
X131470643Y-48250875D01*
X131415493Y-48417306D01*
X131405000Y-48520012D01*
X131405000Y-48939999D01*
X131405001Y-48940000D01*
X132457291Y-48940000D01*
X132445548Y-48960339D01*
X132405000Y-49111667D01*
X132405000Y-49268333D01*
X132445548Y-49419661D01*
X132457291Y-49440000D01*
X131405002Y-49440000D01*
X131405001Y-49440001D01*
X131405001Y-49859986D01*
X131415492Y-49962687D01*
X131415495Y-49962699D01*
X131470643Y-50129124D01*
X131562680Y-50278340D01*
X131686659Y-50402319D01*
X131835875Y-50494356D01*
X131981267Y-50542534D01*
X132030557Y-50578785D01*
X132049125Y-50637085D01*
X132029880Y-50695165D01*
X132008319Y-50716601D01*
X131947327Y-50760915D01*
X131947325Y-50760917D01*
X131805917Y-50902325D01*
X131706840Y-51038692D01*
X131657342Y-51074655D01*
X131626749Y-51079500D01*
X128881246Y-51079500D01*
X128823055Y-51060593D01*
X128787091Y-51011093D01*
X128786177Y-51008121D01*
X128751744Y-50889602D01*
X128668081Y-50748135D01*
X128551865Y-50631919D01*
X128410398Y-50548256D01*
X128252569Y-50502402D01*
X128252568Y-50502401D01*
X128252565Y-50502401D01*
X128229140Y-50500558D01*
X128215694Y-50499500D01*
X126784306Y-50499500D01*
X126771773Y-50500486D01*
X126747434Y-50502401D01*
X126747427Y-50502403D01*
X126589602Y-50548256D01*
X126448136Y-50631918D01*
X126331915Y-50748139D01*
X126328101Y-50753057D01*
X126325805Y-50751276D01*
X126288769Y-50783893D01*
X126227852Y-50789618D01*
X126175204Y-50758444D01*
X126150934Y-50702278D01*
X126150500Y-50693014D01*
X126150500Y-49450168D01*
X126169407Y-49391977D01*
X126218907Y-49356013D01*
X126280093Y-49356013D01*
X126319504Y-49380164D01*
X126381659Y-49442319D01*
X126530875Y-49534356D01*
X126697306Y-49589506D01*
X126800012Y-49599999D01*
X127249998Y-49599999D01*
X127250000Y-49599998D01*
X127250000Y-48687501D01*
X127750000Y-48687501D01*
X127750000Y-49599998D01*
X127750001Y-49599999D01*
X128199986Y-49599999D01*
X128302687Y-49589507D01*
X128302699Y-49589504D01*
X128469124Y-49534356D01*
X128618340Y-49442319D01*
X128742319Y-49318340D01*
X128834356Y-49169124D01*
X128889506Y-49002693D01*
X128900000Y-48899987D01*
X128900000Y-48687501D01*
X128899999Y-48687500D01*
X127750001Y-48687500D01*
X127750000Y-48687501D01*
X127250000Y-48687501D01*
X127250000Y-47275001D01*
X127750000Y-47275001D01*
X127750000Y-48187499D01*
X127750001Y-48187500D01*
X128899998Y-48187500D01*
X128899999Y-48187499D01*
X128899999Y-47975013D01*
X128889507Y-47872312D01*
X128889504Y-47872300D01*
X128834356Y-47705875D01*
X128742319Y-47556659D01*
X128618340Y-47432680D01*
X128469124Y-47340643D01*
X128302693Y-47285493D01*
X128199987Y-47275000D01*
X127750001Y-47275000D01*
X127750000Y-47275001D01*
X127250000Y-47275001D01*
X127249999Y-47275000D01*
X126800013Y-47275000D01*
X126697312Y-47285492D01*
X126697300Y-47285495D01*
X126530875Y-47340643D01*
X126381659Y-47432680D01*
X126319504Y-47494836D01*
X126264987Y-47522613D01*
X126204555Y-47513042D01*
X126161290Y-47469777D01*
X126150500Y-47424832D01*
X126150500Y-45310453D01*
X126169407Y-45252262D01*
X126179496Y-45240449D01*
X127090449Y-44329496D01*
X127144966Y-44301719D01*
X127160453Y-44300500D01*
X128040689Y-44300500D01*
X128040694Y-44300500D01*
X128077569Y-44297598D01*
X128235398Y-44251744D01*
X128376865Y-44168081D01*
X128493081Y-44051865D01*
X128576744Y-43910398D01*
X128622598Y-43752569D01*
X128625500Y-43715694D01*
X128625500Y-42284306D01*
X128622598Y-42247431D01*
X128576744Y-42089602D01*
X128493081Y-41948135D01*
X128376865Y-41831919D01*
X128313576Y-41794490D01*
X128235395Y-41748254D01*
X128221877Y-41744327D01*
X128171273Y-41709934D01*
X128150549Y-41652365D01*
X128150500Y-41649259D01*
X128150500Y-40301038D01*
X128169407Y-40242847D01*
X128204553Y-40212830D01*
X128234022Y-40197815D01*
X128412365Y-40068242D01*
X128568242Y-39912365D01*
X128592694Y-39878710D01*
X133149500Y-39878710D01*
X133149500Y-40121289D01*
X133181161Y-40361781D01*
X133181161Y-40361786D01*
X133243944Y-40596092D01*
X133243948Y-40596105D01*
X133336772Y-40820204D01*
X133336774Y-40820208D01*
X133336776Y-40820212D01*
X133458064Y-41030289D01*
X133458066Y-41030292D01*
X133605729Y-41222731D01*
X133605731Y-41222733D01*
X133605735Y-41222738D01*
X133777262Y-41394265D01*
X133777266Y-41394268D01*
X133777268Y-41394270D01*
X133828055Y-41433240D01*
X133969711Y-41541936D01*
X134179788Y-41663224D01*
X134403900Y-41756054D01*
X134638211Y-41818838D01*
X134878712Y-41850500D01*
X134878713Y-41850500D01*
X135121287Y-41850500D01*
X135121288Y-41850500D01*
X135361789Y-41818838D01*
X135596100Y-41756054D01*
X135820212Y-41663224D01*
X136030289Y-41541936D01*
X136222738Y-41394265D01*
X136394265Y-41222738D01*
X136541936Y-41030289D01*
X136663224Y-40820212D01*
X136756054Y-40596100D01*
X136818838Y-40361789D01*
X136850500Y-40121288D01*
X136850500Y-39878712D01*
X136818838Y-39638211D01*
X136756054Y-39403900D01*
X136663224Y-39179788D01*
X136541936Y-38969711D01*
X136514668Y-38934174D01*
X136394270Y-38777268D01*
X136394268Y-38777266D01*
X136394265Y-38777262D01*
X136222738Y-38605735D01*
X136222733Y-38605731D01*
X136222731Y-38605729D01*
X136030292Y-38458066D01*
X135971645Y-38424206D01*
X135820212Y-38336776D01*
X135820208Y-38336774D01*
X135820204Y-38336772D01*
X135596105Y-38243948D01*
X135596104Y-38243947D01*
X135596100Y-38243946D01*
X135361789Y-38181162D01*
X135361786Y-38181161D01*
X135361784Y-38181161D01*
X135121289Y-38149500D01*
X135121288Y-38149500D01*
X134878712Y-38149500D01*
X134878710Y-38149500D01*
X134638218Y-38181161D01*
X134638213Y-38181161D01*
X134403907Y-38243944D01*
X134403894Y-38243948D01*
X134179795Y-38336772D01*
X133969707Y-38458066D01*
X133777268Y-38605729D01*
X133605729Y-38777268D01*
X133458066Y-38969707D01*
X133336772Y-39179795D01*
X133243948Y-39403894D01*
X133243944Y-39403907D01*
X133181161Y-39638213D01*
X133181161Y-39638218D01*
X133149500Y-39878710D01*
X128592694Y-39878710D01*
X128697815Y-39734022D01*
X128797895Y-39537606D01*
X128866015Y-39327951D01*
X128889482Y-39179788D01*
X128900500Y-39110225D01*
X128900500Y-38889774D01*
X128866015Y-38672051D01*
X128866015Y-38672049D01*
X128797895Y-38462394D01*
X128697815Y-38265978D01*
X128568242Y-38087635D01*
X128412365Y-37931758D01*
X128234022Y-37802185D01*
X128234021Y-37802184D01*
X128234019Y-37802183D01*
X128067011Y-37717088D01*
X128037606Y-37702105D01*
X128037602Y-37702104D01*
X128037599Y-37702102D01*
X127827948Y-37633984D01*
X127610225Y-37599500D01*
X127610222Y-37599500D01*
X127389778Y-37599500D01*
X127389775Y-37599500D01*
X127172051Y-37633984D01*
X126962400Y-37702102D01*
X126765980Y-37802183D01*
X126676806Y-37866971D01*
X126587635Y-37931758D01*
X126431758Y-38087635D01*
X126386811Y-38149500D01*
X126302183Y-38265980D01*
X126202102Y-38462400D01*
X126133984Y-38672051D01*
X126099500Y-38889774D01*
X126099500Y-39110225D01*
X126133984Y-39327948D01*
X126202102Y-39537599D01*
X126202104Y-39537602D01*
X126202105Y-39537606D01*
X126302185Y-39734022D01*
X126431758Y-39912365D01*
X126587635Y-40068242D01*
X126765978Y-40197815D01*
X126795445Y-40212829D01*
X126838708Y-40256090D01*
X126849500Y-40301038D01*
X126849500Y-41715503D01*
X126830593Y-41773694D01*
X126800895Y-41800716D01*
X126748138Y-41831916D01*
X126631918Y-41948136D01*
X126548256Y-42089602D01*
X126502403Y-42247427D01*
X126502401Y-42247434D01*
X126499500Y-42284311D01*
X126499500Y-43039546D01*
X126480593Y-43097737D01*
X126470504Y-43109550D01*
X125764905Y-43815149D01*
X125710388Y-43842926D01*
X125649956Y-43833355D01*
X125606691Y-43790090D01*
X125596414Y-43735082D01*
X125600000Y-43699986D01*
X125600000Y-43250001D01*
X125599999Y-43250000D01*
X124687501Y-43250000D01*
X124687500Y-43250001D01*
X124687500Y-44399998D01*
X124687501Y-44399999D01*
X124899985Y-44399999D01*
X124935084Y-44396413D01*
X124957220Y-44401185D01*
X124979848Y-44402181D01*
X124986537Y-44407506D01*
X124994895Y-44409308D01*
X125010001Y-44426183D01*
X125027719Y-44440287D01*
X125030000Y-44448524D01*
X125035704Y-44454896D01*
X125038005Y-44477428D01*
X125044050Y-44499252D01*
X125040953Y-44506285D01*
X125041922Y-44515764D01*
X125022603Y-44556555D01*
X125019106Y-44560947D01*
X124994723Y-44585331D01*
X124971010Y-44620821D01*
X124968727Y-44624237D01*
X124968722Y-44624244D01*
X124923534Y-44691873D01*
X124874500Y-44810252D01*
X124874499Y-44810257D01*
X124849500Y-44935930D01*
X124849500Y-51190546D01*
X124830593Y-51248737D01*
X124781093Y-51284701D01*
X124719907Y-51284701D01*
X124680496Y-51260550D01*
X124322271Y-50902325D01*
X123952169Y-50532223D01*
X123845627Y-50461035D01*
X123845626Y-50461034D01*
X123845624Y-50461033D01*
X123727243Y-50411998D01*
X123725586Y-50411496D01*
X123724936Y-50411043D01*
X123722751Y-50410138D01*
X123722949Y-50409658D01*
X123675391Y-50376510D01*
X123669113Y-50367154D01*
X123643082Y-50323137D01*
X123643081Y-50323135D01*
X123526865Y-50206919D01*
X123385398Y-50123256D01*
X123227569Y-50077402D01*
X123227568Y-50077401D01*
X123227565Y-50077401D01*
X123204140Y-50075558D01*
X123190694Y-50074500D01*
X123190689Y-50074500D01*
X122497954Y-50074500D01*
X122439763Y-50055593D01*
X122427950Y-50045504D01*
X121741996Y-49359550D01*
X121714219Y-49305033D01*
X121713000Y-49289546D01*
X121713000Y-44321458D01*
X121731907Y-44263267D01*
X121761600Y-44236247D01*
X121876865Y-44168081D01*
X121993081Y-44051865D01*
X122076744Y-43910398D01*
X122122598Y-43752569D01*
X122125500Y-43715694D01*
X122125500Y-43250001D01*
X123275001Y-43250001D01*
X123275001Y-43699986D01*
X123285492Y-43802687D01*
X123285495Y-43802699D01*
X123340643Y-43969124D01*
X123432680Y-44118340D01*
X123556659Y-44242319D01*
X123705875Y-44334356D01*
X123872306Y-44389506D01*
X123975013Y-44399999D01*
X124187498Y-44399999D01*
X124187500Y-44399998D01*
X124187500Y-43250001D01*
X124187499Y-43250000D01*
X123275002Y-43250000D01*
X123275001Y-43250001D01*
X122125500Y-43250001D01*
X122125500Y-42300012D01*
X123275000Y-42300012D01*
X123275000Y-42749999D01*
X123275001Y-42750000D01*
X124187499Y-42750000D01*
X124187500Y-42749999D01*
X124187500Y-41600001D01*
X124687500Y-41600001D01*
X124687500Y-42749999D01*
X124687501Y-42750000D01*
X125599998Y-42750000D01*
X125599999Y-42749999D01*
X125599999Y-42300013D01*
X125589507Y-42197312D01*
X125589504Y-42197300D01*
X125534356Y-42030875D01*
X125442319Y-41881659D01*
X125318340Y-41757680D01*
X125169124Y-41665643D01*
X125002693Y-41610493D01*
X124899987Y-41600000D01*
X124687501Y-41600000D01*
X124687500Y-41600001D01*
X124187500Y-41600001D01*
X124187499Y-41600000D01*
X123975013Y-41600000D01*
X123872312Y-41610492D01*
X123872300Y-41610495D01*
X123705875Y-41665643D01*
X123556659Y-41757680D01*
X123432680Y-41881659D01*
X123340643Y-42030875D01*
X123285493Y-42197306D01*
X123275000Y-42300012D01*
X122125500Y-42300012D01*
X122125500Y-42284306D01*
X122122598Y-42247431D01*
X122076744Y-42089602D01*
X121993081Y-41948135D01*
X121876865Y-41831919D01*
X121813576Y-41794490D01*
X121735395Y-41748254D01*
X121721877Y-41744327D01*
X121671273Y-41709934D01*
X121650549Y-41652365D01*
X121650500Y-41649259D01*
X121650500Y-40301038D01*
X121669407Y-40242847D01*
X121704553Y-40212830D01*
X121734022Y-40197815D01*
X121912365Y-40068242D01*
X122068242Y-39912365D01*
X122197815Y-39734022D01*
X122297895Y-39537606D01*
X122366015Y-39327951D01*
X122389482Y-39179788D01*
X122400500Y-39110225D01*
X122400500Y-38889774D01*
X122366015Y-38672051D01*
X122366015Y-38672049D01*
X122297895Y-38462394D01*
X122197815Y-38265978D01*
X122068242Y-38087635D01*
X121912365Y-37931758D01*
X121734022Y-37802185D01*
X121734021Y-37802184D01*
X121734019Y-37802183D01*
X121567011Y-37717088D01*
X121537606Y-37702105D01*
X121537602Y-37702104D01*
X121537599Y-37702102D01*
X121327948Y-37633984D01*
X121110225Y-37599500D01*
X121110222Y-37599500D01*
X120889778Y-37599500D01*
X120889775Y-37599500D01*
X120672051Y-37633984D01*
X120462400Y-37702102D01*
X120265980Y-37802183D01*
X120176806Y-37866971D01*
X120087635Y-37931758D01*
X119931758Y-38087635D01*
X119886811Y-38149500D01*
X119802183Y-38265980D01*
X119702102Y-38462400D01*
X119633984Y-38672051D01*
X119599500Y-38889774D01*
X119599500Y-39110225D01*
X119633984Y-39327948D01*
X119702102Y-39537599D01*
X119702104Y-39537602D01*
X119702105Y-39537606D01*
X119802185Y-39734022D01*
X119931758Y-39912365D01*
X120087635Y-40068242D01*
X120265978Y-40197815D01*
X120295445Y-40212829D01*
X120338708Y-40256090D01*
X120349500Y-40301038D01*
X120349500Y-41715503D01*
X120330593Y-41773694D01*
X120300895Y-41800716D01*
X120248138Y-41831916D01*
X120131918Y-41948136D01*
X120048256Y-42089602D01*
X120002403Y-42247427D01*
X120002401Y-42247434D01*
X119999500Y-42284311D01*
X119999500Y-43715688D01*
X120002401Y-43752565D01*
X120002401Y-43752568D01*
X120002402Y-43752569D01*
X120048256Y-43910398D01*
X120131919Y-44051865D01*
X120248135Y-44168081D01*
X120363397Y-44236246D01*
X120403857Y-44282140D01*
X120412000Y-44321458D01*
X120412000Y-49664069D01*
X120436055Y-49785000D01*
X120436999Y-49789742D01*
X120437000Y-49789747D01*
X120486034Y-49908126D01*
X120486035Y-49908127D01*
X120557223Y-50014669D01*
X121195505Y-50652951D01*
X121223281Y-50707466D01*
X121224500Y-50722953D01*
X121224500Y-51415688D01*
X121227401Y-51452565D01*
X121227401Y-51452568D01*
X121227402Y-51452569D01*
X121273256Y-51610398D01*
X121356919Y-51751865D01*
X121473135Y-51868081D01*
X121614602Y-51951744D01*
X121772431Y-51997598D01*
X121809306Y-52000500D01*
X121809311Y-52000500D01*
X123190689Y-52000500D01*
X123190694Y-52000500D01*
X123227569Y-51997598D01*
X123385398Y-51951744D01*
X123411293Y-51936429D01*
X123471002Y-51923081D01*
X123527156Y-51947379D01*
X123531692Y-51951638D01*
X123820504Y-52240450D01*
X123848281Y-52294967D01*
X123849500Y-52310454D01*
X123849500Y-53235287D01*
X123830593Y-53293478D01*
X123781093Y-53329442D01*
X123719907Y-53329442D01*
X123670407Y-53293478D01*
X123665287Y-53285683D01*
X123643082Y-53248137D01*
X123643081Y-53248135D01*
X123526865Y-53131919D01*
X123385398Y-53048256D01*
X123227569Y-53002402D01*
X123227568Y-53002401D01*
X123227565Y-53002401D01*
X123204140Y-53000558D01*
X123190694Y-52999500D01*
X121809306Y-52999500D01*
X121796773Y-53000486D01*
X121772434Y-53002401D01*
X121772427Y-53002403D01*
X121614600Y-53048256D01*
X121515441Y-53106898D01*
X121455729Y-53120245D01*
X121445733Y-53118782D01*
X121399071Y-53109500D01*
X121399069Y-53109500D01*
X118444756Y-53109500D01*
X118386565Y-53090593D01*
X118364663Y-53068690D01*
X118316710Y-53002687D01*
X118316708Y-53002685D01*
X118316706Y-53002682D01*
X118187318Y-52873294D01*
X118187314Y-52873291D01*
X118187312Y-52873289D01*
X118039286Y-52765742D01*
X118039282Y-52765740D01*
X117876245Y-52682669D01*
X117702214Y-52626122D01*
X117521494Y-52597500D01*
X117521491Y-52597500D01*
X117338509Y-52597500D01*
X117338506Y-52597500D01*
X117157785Y-52626122D01*
X116983754Y-52682669D01*
X116820717Y-52765740D01*
X116820713Y-52765742D01*
X116672687Y-52873289D01*
X116543289Y-53002687D01*
X116435742Y-53150713D01*
X116435740Y-53150717D01*
X116352669Y-53313754D01*
X116296122Y-53487785D01*
X116267500Y-53668505D01*
X116267500Y-53851494D01*
X116296122Y-54032214D01*
X116352669Y-54206245D01*
X116435740Y-54369282D01*
X116435742Y-54369286D01*
X116543289Y-54517312D01*
X116543291Y-54517314D01*
X116543294Y-54517318D01*
X116672682Y-54646706D01*
X116672685Y-54646708D01*
X116672687Y-54646710D01*
X116820713Y-54754257D01*
X116820717Y-54754259D01*
X116983755Y-54837331D01*
X117157781Y-54893876D01*
X117157782Y-54893876D01*
X117157785Y-54893877D01*
X117338506Y-54922500D01*
X117338509Y-54922500D01*
X117521494Y-54922500D01*
X117702214Y-54893877D01*
X117702215Y-54893876D01*
X117702219Y-54893876D01*
X117876245Y-54837331D01*
X118039283Y-54754259D01*
X118187318Y-54646706D01*
X118316706Y-54517318D01*
X118364663Y-54451309D01*
X118414162Y-54415346D01*
X118444756Y-54410500D01*
X121024546Y-54410500D01*
X121025843Y-54410921D01*
X121027152Y-54410534D01*
X121034906Y-54413866D01*
X121082737Y-54429407D01*
X121084825Y-54430967D01*
X121089970Y-54434916D01*
X121122830Y-54467776D01*
X121196976Y-54517318D01*
X121229373Y-54538965D01*
X121259771Y-54551556D01*
X121306296Y-54591291D01*
X121307099Y-54592625D01*
X121356916Y-54676861D01*
X121356917Y-54676862D01*
X121356919Y-54676865D01*
X121473135Y-54793081D01*
X121614602Y-54876744D01*
X121772431Y-54922598D01*
X121809306Y-54925500D01*
X121809311Y-54925500D01*
X123190689Y-54925500D01*
X123190694Y-54925500D01*
X123227569Y-54922598D01*
X123385398Y-54876744D01*
X123526865Y-54793081D01*
X123643081Y-54676865D01*
X123665287Y-54639315D01*
X123711182Y-54598855D01*
X123772096Y-54593096D01*
X123824761Y-54624242D01*
X123849061Y-54680395D01*
X123849500Y-54689712D01*
X123849500Y-55772787D01*
X123830593Y-55830978D01*
X123781093Y-55866942D01*
X123719907Y-55866942D01*
X123670407Y-55830978D01*
X123665287Y-55823183D01*
X123643082Y-55785637D01*
X123643081Y-55785635D01*
X123526865Y-55669419D01*
X123385398Y-55585756D01*
X123227569Y-55539902D01*
X123227568Y-55539901D01*
X123227565Y-55539901D01*
X123204140Y-55538058D01*
X123190694Y-55537000D01*
X121809306Y-55537000D01*
X121796773Y-55537986D01*
X121772434Y-55539901D01*
X121772427Y-55539903D01*
X121614602Y-55585756D01*
X121473136Y-55669418D01*
X121356917Y-55785637D01*
X121347895Y-55800894D01*
X121301999Y-55841357D01*
X121262681Y-55849500D01*
X118565831Y-55849500D01*
X118507640Y-55830593D01*
X118477621Y-55795445D01*
X118424259Y-55690717D01*
X118424257Y-55690713D01*
X118316710Y-55542687D01*
X118316708Y-55542685D01*
X118316706Y-55542682D01*
X118187318Y-55413294D01*
X118187314Y-55413291D01*
X118187312Y-55413289D01*
X118039286Y-55305742D01*
X118039282Y-55305740D01*
X117876245Y-55222669D01*
X117702214Y-55166122D01*
X117521494Y-55137500D01*
X117521491Y-55137500D01*
X117338509Y-55137500D01*
X117338506Y-55137500D01*
X117157785Y-55166122D01*
X116983754Y-55222669D01*
X116820717Y-55305740D01*
X116820713Y-55305742D01*
X116672687Y-55413289D01*
X116543289Y-55542687D01*
X116435742Y-55690713D01*
X116435740Y-55690717D01*
X116352669Y-55853754D01*
X116296122Y-56027785D01*
X116267500Y-56208505D01*
X116267500Y-56391494D01*
X116296122Y-56572214D01*
X116352669Y-56746245D01*
X116435740Y-56909282D01*
X116435742Y-56909286D01*
X116543289Y-57057312D01*
X116543291Y-57057314D01*
X116543294Y-57057318D01*
X116672682Y-57186706D01*
X116672685Y-57186708D01*
X116672687Y-57186710D01*
X116820713Y-57294257D01*
X116820717Y-57294259D01*
X116983755Y-57377331D01*
X117157781Y-57433876D01*
X117157782Y-57433876D01*
X117157785Y-57433877D01*
X117338506Y-57462500D01*
X117338509Y-57462500D01*
X117521494Y-57462500D01*
X117702214Y-57433877D01*
X117702215Y-57433876D01*
X117702219Y-57433876D01*
X117876245Y-57377331D01*
X118039283Y-57294259D01*
X118040905Y-57293081D01*
X118088628Y-57258408D01*
X118187318Y-57186706D01*
X118194529Y-57179494D01*
X118249044Y-57151719D01*
X118264531Y-57150500D01*
X121262681Y-57150500D01*
X121320872Y-57169407D01*
X121347895Y-57199106D01*
X121356919Y-57214365D01*
X121473135Y-57330581D01*
X121614602Y-57414244D01*
X121772431Y-57460098D01*
X121809306Y-57463000D01*
X121809311Y-57463000D01*
X123190689Y-57463000D01*
X123190694Y-57463000D01*
X123227569Y-57460098D01*
X123385398Y-57414244D01*
X123526865Y-57330581D01*
X123643081Y-57214365D01*
X123665287Y-57176815D01*
X123711182Y-57136355D01*
X123772096Y-57130596D01*
X123824761Y-57161742D01*
X123849061Y-57217895D01*
X123849500Y-57227212D01*
X123849500Y-58189546D01*
X123830593Y-58247737D01*
X123820503Y-58259550D01*
X123555255Y-58524797D01*
X123500739Y-58552574D01*
X123440307Y-58543003D01*
X123434868Y-58540013D01*
X123406716Y-58523363D01*
X123385397Y-58510755D01*
X123227572Y-58464903D01*
X123227569Y-58464902D01*
X123227568Y-58464901D01*
X123227565Y-58464901D01*
X123204140Y-58463058D01*
X123190694Y-58462000D01*
X121809306Y-58462000D01*
X121796773Y-58462986D01*
X121772434Y-58464901D01*
X121772427Y-58464903D01*
X121614602Y-58510756D01*
X121473136Y-58594418D01*
X121356918Y-58710636D01*
X121273256Y-58852102D01*
X121227403Y-59009927D01*
X121227401Y-59009934D01*
X121224500Y-59046811D01*
X121224500Y-59803188D01*
X121227401Y-59840065D01*
X121227401Y-59840068D01*
X121227402Y-59840069D01*
X121273256Y-59997898D01*
X121356919Y-60139365D01*
X121473135Y-60255581D01*
X121614602Y-60339244D01*
X121772431Y-60385098D01*
X121777288Y-60386509D01*
X121776606Y-60388855D01*
X121822058Y-60413315D01*
X121848604Y-60468442D01*
X121849500Y-60481729D01*
X121849500Y-63277854D01*
X121830593Y-63336045D01*
X121781093Y-63372009D01*
X121758269Y-63376549D01*
X121747433Y-63377401D01*
X121747427Y-63377403D01*
X121589602Y-63423256D01*
X121448136Y-63506918D01*
X121331916Y-63623138D01*
X121263754Y-63738395D01*
X121217859Y-63778858D01*
X121178541Y-63787000D01*
X118670480Y-63787000D01*
X118612289Y-63768093D01*
X118576325Y-63718593D01*
X118572699Y-63703486D01*
X118563876Y-63647781D01*
X118563875Y-63647775D01*
X118507334Y-63473761D01*
X118507332Y-63473758D01*
X118507331Y-63473757D01*
X118507331Y-63473755D01*
X118424259Y-63310717D01*
X118424257Y-63310713D01*
X118316710Y-63162687D01*
X118316708Y-63162685D01*
X118316706Y-63162682D01*
X118187318Y-63033294D01*
X118187314Y-63033291D01*
X118187312Y-63033289D01*
X118039286Y-62925742D01*
X118039282Y-62925740D01*
X117876245Y-62842669D01*
X117702214Y-62786122D01*
X117521494Y-62757500D01*
X117521491Y-62757500D01*
X117338509Y-62757500D01*
X117338506Y-62757500D01*
X117157785Y-62786122D01*
X116983754Y-62842669D01*
X116820717Y-62925740D01*
X116820713Y-62925742D01*
X116672687Y-63033289D01*
X116543289Y-63162687D01*
X116435742Y-63310713D01*
X116435740Y-63310717D01*
X116352669Y-63473754D01*
X116296122Y-63647785D01*
X116267500Y-63828505D01*
X116267500Y-64011494D01*
X116296122Y-64192214D01*
X116352669Y-64366245D01*
X116435740Y-64529282D01*
X116435742Y-64529286D01*
X116543289Y-64677312D01*
X116543291Y-64677314D01*
X116543294Y-64677318D01*
X116672682Y-64806706D01*
X116672685Y-64806708D01*
X116672687Y-64806710D01*
X116820713Y-64914257D01*
X116820717Y-64914259D01*
X116983755Y-64997331D01*
X116983757Y-64997331D01*
X116983758Y-64997332D01*
X116983761Y-64997334D01*
X117125955Y-65043536D01*
X117175455Y-65079500D01*
X117194362Y-65137690D01*
X117175454Y-65195881D01*
X117125955Y-65231845D01*
X116945559Y-65290459D01*
X116768567Y-65380641D01*
X116731283Y-65407728D01*
X117294059Y-65970504D01*
X117233919Y-65986619D01*
X117118080Y-66053498D01*
X117023498Y-66148080D01*
X116956619Y-66263919D01*
X116940504Y-66324059D01*
X116377728Y-65761283D01*
X116350641Y-65798567D01*
X116260459Y-65975559D01*
X116199073Y-66164485D01*
X116168000Y-66360674D01*
X116168000Y-66559325D01*
X116199073Y-66755514D01*
X116260459Y-66944440D01*
X116350637Y-67121425D01*
X116377729Y-67158714D01*
X116940504Y-66595938D01*
X116956619Y-66656081D01*
X117023498Y-66771920D01*
X117118080Y-66866502D01*
X117233919Y-66933381D01*
X117294057Y-66949495D01*
X116731283Y-67512270D01*
X116768564Y-67539357D01*
X116768568Y-67539359D01*
X116945561Y-67629541D01*
X117125954Y-67688154D01*
X117175454Y-67724118D01*
X117194362Y-67782309D01*
X117175455Y-67840499D01*
X117125956Y-67876463D01*
X116983758Y-67922667D01*
X116820717Y-68005740D01*
X116820713Y-68005742D01*
X116672687Y-68113289D01*
X116543289Y-68242687D01*
X116435742Y-68390713D01*
X116435740Y-68390717D01*
X116352669Y-68553754D01*
X116296122Y-68727785D01*
X116267500Y-68908505D01*
X116267500Y-69091495D01*
X116288724Y-69225503D01*
X116279152Y-69285935D01*
X116235888Y-69329199D01*
X116175455Y-69338770D01*
X116120939Y-69310993D01*
X108679496Y-61869550D01*
X108651719Y-61815033D01*
X108650500Y-61799546D01*
X108650500Y-61288505D01*
X116267500Y-61288505D01*
X116267500Y-61471494D01*
X116296122Y-61652214D01*
X116352669Y-61826245D01*
X116435740Y-61989282D01*
X116435742Y-61989286D01*
X116543289Y-62137312D01*
X116543291Y-62137314D01*
X116543294Y-62137318D01*
X116672682Y-62266706D01*
X116672685Y-62266708D01*
X116672687Y-62266710D01*
X116820713Y-62374257D01*
X116820717Y-62374259D01*
X116983755Y-62457331D01*
X117157781Y-62513876D01*
X117157782Y-62513876D01*
X117157785Y-62513877D01*
X117338506Y-62542500D01*
X117338509Y-62542500D01*
X117521494Y-62542500D01*
X117702214Y-62513877D01*
X117702215Y-62513876D01*
X117702219Y-62513876D01*
X117876245Y-62457331D01*
X118039283Y-62374259D01*
X118187318Y-62266706D01*
X118316706Y-62137318D01*
X118424259Y-61989283D01*
X118507331Y-61826245D01*
X118563876Y-61652219D01*
X118592500Y-61471491D01*
X118592500Y-61288509D01*
X118592500Y-61288505D01*
X118563877Y-61107785D01*
X118563876Y-61107781D01*
X118507331Y-60933755D01*
X118424259Y-60770717D01*
X118424257Y-60770713D01*
X118316710Y-60622687D01*
X118316708Y-60622685D01*
X118316706Y-60622682D01*
X118187318Y-60493294D01*
X118187314Y-60493291D01*
X118187312Y-60493289D01*
X118039286Y-60385742D01*
X118039282Y-60385740D01*
X117876245Y-60302669D01*
X117702214Y-60246122D01*
X117521494Y-60217500D01*
X117521491Y-60217500D01*
X117338509Y-60217500D01*
X117338506Y-60217500D01*
X117157785Y-60246122D01*
X116983754Y-60302669D01*
X116820717Y-60385740D01*
X116820713Y-60385742D01*
X116672687Y-60493289D01*
X116543289Y-60622687D01*
X116435742Y-60770713D01*
X116435740Y-60770717D01*
X116352669Y-60933754D01*
X116296122Y-61107785D01*
X116267500Y-61288505D01*
X108650500Y-61288505D01*
X108650500Y-58748505D01*
X116267500Y-58748505D01*
X116267500Y-58931494D01*
X116296122Y-59112214D01*
X116352669Y-59286245D01*
X116435740Y-59449282D01*
X116435742Y-59449286D01*
X116543289Y-59597312D01*
X116543291Y-59597314D01*
X116543294Y-59597318D01*
X116672682Y-59726706D01*
X116672685Y-59726708D01*
X116672687Y-59726710D01*
X116820713Y-59834257D01*
X116820717Y-59834259D01*
X116983755Y-59917331D01*
X117157781Y-59973876D01*
X117157782Y-59973876D01*
X117157785Y-59973877D01*
X117338506Y-60002500D01*
X117338509Y-60002500D01*
X117521494Y-60002500D01*
X117702214Y-59973877D01*
X117702215Y-59973876D01*
X117702219Y-59973876D01*
X117876245Y-59917331D01*
X118039283Y-59834259D01*
X118187318Y-59726706D01*
X118316706Y-59597318D01*
X118424259Y-59449283D01*
X118507331Y-59286245D01*
X118563876Y-59112219D01*
X118563877Y-59112214D01*
X118592500Y-58931494D01*
X118592500Y-58748505D01*
X118563877Y-58567785D01*
X118554851Y-58540006D01*
X118507331Y-58393755D01*
X118424259Y-58230717D01*
X118424257Y-58230713D01*
X118316710Y-58082687D01*
X118316708Y-58082685D01*
X118316706Y-58082682D01*
X118187318Y-57953294D01*
X118187314Y-57953291D01*
X118187312Y-57953289D01*
X118039286Y-57845742D01*
X118039282Y-57845740D01*
X117876245Y-57762669D01*
X117702214Y-57706122D01*
X117521494Y-57677500D01*
X117521491Y-57677500D01*
X117338509Y-57677500D01*
X117338506Y-57677500D01*
X117157785Y-57706122D01*
X116983754Y-57762669D01*
X116820717Y-57845740D01*
X116820713Y-57845742D01*
X116672687Y-57953289D01*
X116543289Y-58082687D01*
X116435742Y-58230713D01*
X116435740Y-58230717D01*
X116352669Y-58393754D01*
X116296122Y-58567785D01*
X116267500Y-58748505D01*
X108650500Y-58748505D01*
X108650500Y-51128505D01*
X116267500Y-51128505D01*
X116267500Y-51311494D01*
X116296122Y-51492214D01*
X116352669Y-51666245D01*
X116435740Y-51829282D01*
X116435742Y-51829286D01*
X116543289Y-51977312D01*
X116543291Y-51977314D01*
X116543294Y-51977318D01*
X116672682Y-52106706D01*
X116672685Y-52106708D01*
X116672687Y-52106710D01*
X116820713Y-52214257D01*
X116820717Y-52214259D01*
X116983755Y-52297331D01*
X117157781Y-52353876D01*
X117157782Y-52353876D01*
X117157785Y-52353877D01*
X117338506Y-52382500D01*
X117338509Y-52382500D01*
X117521494Y-52382500D01*
X117702214Y-52353877D01*
X117702215Y-52353876D01*
X117702219Y-52353876D01*
X117876245Y-52297331D01*
X118039283Y-52214259D01*
X118187318Y-52106706D01*
X118316706Y-51977318D01*
X118396071Y-51868081D01*
X118424257Y-51829286D01*
X118424259Y-51829283D01*
X118507331Y-51666245D01*
X118563876Y-51492219D01*
X118563877Y-51492214D01*
X118592500Y-51311494D01*
X118592500Y-51128505D01*
X118563877Y-50947785D01*
X118563876Y-50947781D01*
X118507331Y-50773755D01*
X118424259Y-50610717D01*
X118424257Y-50610713D01*
X118316710Y-50462687D01*
X118316708Y-50462685D01*
X118316706Y-50462682D01*
X118187318Y-50333294D01*
X118187314Y-50333291D01*
X118187312Y-50333289D01*
X118039286Y-50225742D01*
X118039282Y-50225740D01*
X117876245Y-50142669D01*
X117702214Y-50086122D01*
X117521494Y-50057500D01*
X117521491Y-50057500D01*
X117338509Y-50057500D01*
X117338506Y-50057500D01*
X117157785Y-50086122D01*
X116983754Y-50142669D01*
X116820717Y-50225740D01*
X116820713Y-50225742D01*
X116672687Y-50333289D01*
X116543289Y-50462687D01*
X116435742Y-50610713D01*
X116435740Y-50610717D01*
X116352669Y-50773754D01*
X116296122Y-50947785D01*
X116267500Y-51128505D01*
X108650500Y-51128505D01*
X108650500Y-43250001D01*
X116775001Y-43250001D01*
X116775001Y-43699986D01*
X116785492Y-43802687D01*
X116785495Y-43802699D01*
X116840643Y-43969124D01*
X116932680Y-44118340D01*
X117056659Y-44242319D01*
X117205875Y-44334356D01*
X117372306Y-44389506D01*
X117475013Y-44399999D01*
X117687498Y-44399999D01*
X117687500Y-44399998D01*
X117687500Y-43250001D01*
X118187500Y-43250001D01*
X118187500Y-44399998D01*
X118187501Y-44399999D01*
X118399986Y-44399999D01*
X118502687Y-44389507D01*
X118502699Y-44389504D01*
X118669124Y-44334356D01*
X118818340Y-44242319D01*
X118942319Y-44118340D01*
X119034356Y-43969124D01*
X119089506Y-43802693D01*
X119100000Y-43699987D01*
X119100000Y-43250001D01*
X119099999Y-43250000D01*
X118187501Y-43250000D01*
X118187500Y-43250001D01*
X117687500Y-43250001D01*
X117687499Y-43250000D01*
X116775002Y-43250000D01*
X116775001Y-43250001D01*
X108650500Y-43250001D01*
X108650500Y-42300012D01*
X116775000Y-42300012D01*
X116775000Y-42749999D01*
X116775001Y-42750000D01*
X117687499Y-42750000D01*
X117687500Y-42749999D01*
X117687500Y-41600001D01*
X118187500Y-41600001D01*
X118187500Y-42749999D01*
X118187501Y-42750000D01*
X119099998Y-42750000D01*
X119099999Y-42749999D01*
X119099999Y-42300013D01*
X119089507Y-42197312D01*
X119089504Y-42197300D01*
X119034356Y-42030875D01*
X118942319Y-41881659D01*
X118818340Y-41757680D01*
X118669124Y-41665643D01*
X118502693Y-41610493D01*
X118399987Y-41600000D01*
X118187501Y-41600000D01*
X118187500Y-41600001D01*
X117687500Y-41600001D01*
X117687499Y-41600000D01*
X117475013Y-41600000D01*
X117372312Y-41610492D01*
X117372300Y-41610495D01*
X117205875Y-41665643D01*
X117056659Y-41757680D01*
X116932680Y-41881659D01*
X116840643Y-42030875D01*
X116785493Y-42197306D01*
X116775000Y-42300012D01*
X108650500Y-42300012D01*
X108650500Y-40301038D01*
X108669407Y-40242847D01*
X108704553Y-40212830D01*
X108734022Y-40197815D01*
X108912365Y-40068242D01*
X109068242Y-39912365D01*
X109197815Y-39734022D01*
X109297895Y-39537606D01*
X109366015Y-39327951D01*
X109389482Y-39179788D01*
X109400500Y-39110225D01*
X109400500Y-38889774D01*
X109399260Y-38881943D01*
X113000000Y-38881943D01*
X113000000Y-39118056D01*
X113036934Y-39351252D01*
X113036935Y-39351256D01*
X113109892Y-39575793D01*
X113109894Y-39575796D01*
X113217084Y-39786169D01*
X113277339Y-39869105D01*
X114017036Y-39129407D01*
X114034075Y-39192993D01*
X114099901Y-39307007D01*
X114192993Y-39400099D01*
X114307007Y-39465925D01*
X114370590Y-39482962D01*
X113630893Y-40222659D01*
X113713825Y-40282913D01*
X113713829Y-40282915D01*
X113924203Y-40390105D01*
X113924206Y-40390107D01*
X114148743Y-40463064D01*
X114148747Y-40463065D01*
X114381944Y-40500000D01*
X114618056Y-40500000D01*
X114851252Y-40463065D01*
X114851256Y-40463064D01*
X115075793Y-40390107D01*
X115075796Y-40390105D01*
X115286170Y-40282915D01*
X115286176Y-40282911D01*
X115369105Y-40222659D01*
X115369105Y-40222658D01*
X114629409Y-39482962D01*
X114692993Y-39465925D01*
X114807007Y-39400099D01*
X114900099Y-39307007D01*
X114965925Y-39192993D01*
X114982962Y-39129409D01*
X115722658Y-39869105D01*
X115722659Y-39869105D01*
X115782911Y-39786176D01*
X115782915Y-39786170D01*
X115890105Y-39575796D01*
X115890107Y-39575793D01*
X115963064Y-39351256D01*
X115963065Y-39351252D01*
X116000000Y-39118056D01*
X116000000Y-38881943D01*
X115963065Y-38648747D01*
X115963064Y-38648743D01*
X115890107Y-38424206D01*
X115890105Y-38424203D01*
X115782915Y-38213829D01*
X115782913Y-38213825D01*
X115722659Y-38130893D01*
X114982962Y-38870590D01*
X114965925Y-38807007D01*
X114900099Y-38692993D01*
X114807007Y-38599901D01*
X114692993Y-38534075D01*
X114629407Y-38517036D01*
X115369105Y-37777339D01*
X115286169Y-37717084D01*
X115075796Y-37609894D01*
X115075793Y-37609892D01*
X114851256Y-37536935D01*
X114851252Y-37536934D01*
X114618056Y-37500000D01*
X114381944Y-37500000D01*
X114148747Y-37536934D01*
X114148743Y-37536935D01*
X113924206Y-37609892D01*
X113924203Y-37609894D01*
X113713823Y-37717088D01*
X113630893Y-37777339D01*
X114370591Y-38517037D01*
X114307007Y-38534075D01*
X114192993Y-38599901D01*
X114099901Y-38692993D01*
X114034075Y-38807007D01*
X114017037Y-38870591D01*
X113277339Y-38130893D01*
X113217088Y-38213823D01*
X113109894Y-38424203D01*
X113109892Y-38424206D01*
X113036935Y-38648743D01*
X113036934Y-38648747D01*
X113000000Y-38881943D01*
X109399260Y-38881943D01*
X109366015Y-38672051D01*
X109366015Y-38672049D01*
X109297895Y-38462394D01*
X109197815Y-38265978D01*
X109068242Y-38087635D01*
X108912365Y-37931758D01*
X108734022Y-37802185D01*
X108734021Y-37802184D01*
X108734019Y-37802183D01*
X108567011Y-37717088D01*
X108537606Y-37702105D01*
X108537602Y-37702104D01*
X108537599Y-37702102D01*
X108327948Y-37633984D01*
X108110225Y-37599500D01*
X108110222Y-37599500D01*
X107889778Y-37599500D01*
X107889775Y-37599500D01*
X107672051Y-37633984D01*
X107462400Y-37702102D01*
X107265980Y-37802183D01*
X107176806Y-37866971D01*
X107087635Y-37931758D01*
X106931758Y-38087635D01*
X106886811Y-38149500D01*
X106802183Y-38265980D01*
X106702102Y-38462400D01*
X106633984Y-38672051D01*
X106599500Y-38889774D01*
X86998804Y-38889774D01*
X86998804Y-38885893D01*
X86998653Y-35599505D01*
X87017558Y-35541313D01*
X87067056Y-35505347D01*
X87097653Y-35500500D01*
X139400500Y-35500500D01*
X139458691Y-35519407D01*
G37*
%TD.AperFunction*%
%TD*%
M02*
