%TF.GenerationSoftware,KiCad,Pcbnew,10.0.2*%
%TF.CreationDate,2026-08-06T14:37:57+02:00*%
%TF.ProjectId,pvboiler,7076626f-696c-4657-922e-6b696361645f,rev?*%
%TF.SameCoordinates,Original*%
%TF.FileFunction,Copper,L2,Bot*%
%TF.FilePolarity,Positive*%
%FSLAX46Y46*%
G04 Gerber Fmt 4.6, Leading zero omitted, Abs format (unit mm)*
G04 Created by KiCad (PCBNEW 10.0.2) date 2026-08-06 14:37:57*
%MOMM*%
%LPD*%
G01*
G04 APERTURE LIST*
G04 Aperture macros list*
%AMRoundRect*
0 Rectangle with rounded corners*
0 $1 Rounding radius*
0 $2 $3 $4 $5 $6 $7 $8 $9 X,Y pos of 4 corners*
0 Add a 4 corners polygon primitive as box body*
4,1,4,$2,$3,$4,$5,$6,$7,$8,$9,$2,$3,0*
0 Add four circle primitives for the rounded corners*
1,1,$1+$1,$2,$3*
1,1,$1+$1,$4,$5*
1,1,$1+$1,$6,$7*
1,1,$1+$1,$8,$9*
0 Add four rect primitives between the rounded corners*
20,1,$1+$1,$2,$3,$4,$5,0*
20,1,$1+$1,$4,$5,$6,$7,0*
20,1,$1+$1,$6,$7,$8,$9,0*
20,1,$1+$1,$8,$9,$2,$3,0*%
G04 Aperture macros list end*
%TA.AperFunction,ComponentPad*%
%ADD10C,2.000000*%
%TD*%
%TA.AperFunction,ComponentPad*%
%ADD11C,1.600000*%
%TD*%
%TA.AperFunction,ComponentPad*%
%ADD12C,1.524000*%
%TD*%
%TA.AperFunction,ComponentPad*%
%ADD13RoundRect,0.250000X-0.550000X-0.550000X0.550000X-0.550000X0.550000X0.550000X-0.550000X0.550000X0*%
%TD*%
%TA.AperFunction,ComponentPad*%
%ADD14RoundRect,0.250000X-1.050000X1.050000X-1.050000X-1.050000X1.050000X-1.050000X1.050000X1.050000X0*%
%TD*%
%TA.AperFunction,ComponentPad*%
%ADD15C,2.600000*%
%TD*%
%TA.AperFunction,ComponentPad*%
%ADD16RoundRect,0.250000X0.550000X0.550000X-0.550000X0.550000X-0.550000X-0.550000X0.550000X-0.550000X0*%
%TD*%
%TA.AperFunction,ComponentPad*%
%ADD17C,2.400000*%
%TD*%
%TA.AperFunction,ComponentPad*%
%ADD18C,3.000000*%
%TD*%
%TA.AperFunction,ComponentPad*%
%ADD19RoundRect,0.250000X-0.845000X0.620000X-0.845000X-0.620000X0.845000X-0.620000X0.845000X0.620000X0*%
%TD*%
%TA.AperFunction,ComponentPad*%
%ADD20O,2.190000X1.740000*%
%TD*%
%TA.AperFunction,ComponentPad*%
%ADD21R,2.000000X2.300000*%
%TD*%
%TA.AperFunction,ComponentPad*%
%ADD22C,2.300000*%
%TD*%
%TA.AperFunction,ViaPad*%
%ADD23C,1.500000*%
%TD*%
%TA.AperFunction,Conductor*%
%ADD24C,0.500000*%
%TD*%
%TA.AperFunction,Conductor*%
%ADD25C,2.000000*%
%TD*%
%TA.AperFunction,Conductor*%
%ADD26C,0.200000*%
%TD*%
%TA.AperFunction,Conductor*%
%ADD27C,3.000000*%
%TD*%
G04 APERTURE END LIST*
D10*
%TO.P,TP5,1,1_1*%
%TO.N,/AUX_GPIO*%
X108000000Y-39000000D03*
%TD*%
D11*
%TO.P,R11,1*%
%TO.N,Net-(U3-AC{slash}N)*%
X61420000Y-41000000D03*
%TO.P,R11,2*%
%TO.N,Net-(C8-Pad1)*%
X71580000Y-41000000D03*
%TD*%
%TO.P,R10,1*%
%TO.N,/TRIAC_G*%
X49620000Y-57000000D03*
%TO.P,R10,2*%
%TO.N,/230VAC_L*%
X39460000Y-57000000D03*
%TD*%
D12*
%TO.P,A1,1,A0_1*%
%TO.N,unconnected-(A1-A0-Pad1)*%
X94570000Y-51220000D03*
%TO.P,A1,2,RSV_2*%
%TO.N,unconnected-(A1-RSV-Pad2)*%
X94570000Y-53760000D03*
%TO.P,A1,3,RSV_3*%
%TO.N,unconnected-(A1-RSV-Pad3)*%
X94570000Y-56300000D03*
%TO.P,A1,4,S3_4*%
%TO.N,unconnected-(A1-S3-Pad4)*%
X94570000Y-58840000D03*
%TO.P,A1,5,S2_5*%
%TO.N,unconnected-(A1-S2-Pad5)*%
X94570000Y-61380000D03*
%TO.P,A1,6,S1_6*%
%TO.N,unconnected-(A1-S1-Pad6)*%
X94570000Y-63920000D03*
%TO.P,A1,7,SC_7*%
%TO.N,unconnected-(A1-SC-Pad7)*%
X94570000Y-66460000D03*
%TO.P,A1,8,S0_8*%
%TO.N,unconnected-(A1-S0-Pad8)*%
X94570000Y-69000000D03*
%TO.P,A1,9,SK_9*%
%TO.N,unconnected-(A1-SK-Pad9)*%
X94570000Y-71540000D03*
%TO.P,A1,10,GND_10*%
%TO.N,GND*%
X94570000Y-74080000D03*
%TO.P,A1,11,3.3V_11*%
%TO.N,unconnected-(A1-3.3V-Pad11)*%
X94570000Y-76620000D03*
%TO.P,A1,12,EN_12*%
%TO.N,unconnected-(A1-EN-Pad12)*%
X94570000Y-79160000D03*
%TO.P,A1,13,RST_13*%
%TO.N,unconnected-(A1-RST-Pad13)*%
X94570000Y-81700000D03*
%TO.P,A1,14,GND_14*%
%TO.N,GND*%
X94570000Y-84240000D03*
%TO.P,A1,15,VIN_15*%
%TO.N,+5V*%
X94570000Y-86780000D03*
%TO.P,A1,16,3.3V_16*%
%TO.N,+3.3V_2*%
X117430000Y-86780000D03*
%TO.P,A1,17,GND_17*%
%TO.N,GND*%
X117430000Y-84240000D03*
%TO.P,A1,18,TX_18*%
%TO.N,unconnected-(A1-TX-Pad18)*%
X117430000Y-81700000D03*
%TO.P,A1,19,RX_19*%
%TO.N,unconnected-(A1-RX-Pad19)*%
X117430000Y-79160000D03*
%TO.P,A1,20,D8_20*%
%TO.N,unconnected-(A1-D8-Pad20)*%
X117430000Y-76620000D03*
%TO.P,A1,21,D7_21*%
%TO.N,/GATE_DRIVE*%
X117430000Y-74080000D03*
%TO.P,A1,22,D6_22*%
%TO.N,/ONE_WIRE*%
X117430000Y-71540000D03*
%TO.P,A1,23,D5_23*%
%TO.N,/ZERO_CROSS*%
X117430000Y-69000000D03*
%TO.P,A1,24,GND_24*%
%TO.N,GND*%
X117430000Y-66460000D03*
%TO.P,A1,25,3.3V_25*%
%TO.N,+3.3V_1*%
X117430000Y-63920000D03*
%TO.P,A1,26,D4_26*%
%TO.N,unconnected-(A1-D4-Pad26)*%
X117430000Y-61380000D03*
%TO.P,A1,27,D3_27*%
%TO.N,unconnected-(A1-D3-Pad27)*%
X117430000Y-58840000D03*
%TO.P,A1,28,D2_28*%
%TO.N,/I2C_SDA*%
X117430000Y-56300000D03*
%TO.P,A1,29,D1_29*%
%TO.N,/I2C_SCL*%
X117430000Y-53760000D03*
%TO.P,A1,30,D0_30*%
%TO.N,/AUX_GPIO*%
X117430000Y-51220000D03*
%TD*%
D11*
%TO.P,R1,1*%
%TO.N,/230VAC_L*%
X61420000Y-48500000D03*
%TO.P,R1,2*%
%TO.N,Net-(C8-Pad2)*%
X71580000Y-48500000D03*
%TD*%
D13*
%TO.P,U2,1*%
%TO.N,Net-(C8-Pad1)*%
X81190000Y-42460000D03*
D11*
%TO.P,U2,2*%
%TO.N,Net-(C8-Pad2)*%
X81190000Y-45000000D03*
%TO.P,U2,3,NC_3*%
%TO.N,unconnected-(U2-NC-Pad3)*%
X81190000Y-47540000D03*
%TO.P,U2,4*%
%TO.N,GND*%
X88810000Y-47540000D03*
%TO.P,U2,5*%
%TO.N,/ZERO_CROSS*%
X88810000Y-45000000D03*
%TO.P,U2,6*%
%TO.N,unconnected-(U2-Pad6)*%
X88810000Y-42460000D03*
%TD*%
D10*
%TO.P,C8,1*%
%TO.N,Net-(C8-Pad1)*%
X76500000Y-41000000D03*
%TO.P,C8,2*%
%TO.N,Net-(C8-Pad2)*%
X76500000Y-48500000D03*
%TD*%
%TO.P,TP3,1,1_1*%
%TO.N,GND*%
X114500000Y-39000000D03*
%TD*%
D14*
%TO.P,J2,1,Pin_1_1*%
%TO.N,/230VAC_L*%
X23500000Y-65380000D03*
D15*
%TO.P,J2,2,Pin_2_2*%
%TO.N,/TRIAC_G*%
X23500000Y-70460000D03*
%TO.P,J2,3,Pin_3_3*%
%TO.N,/LOAD_L*%
X23500000Y-75540000D03*
%TO.P,J2,4,Pin_4_4*%
X23500000Y-80620000D03*
%TD*%
D16*
%TO.P,U1,1*%
%TO.N,Net-(R5-Pad1)*%
X73000000Y-87000000D03*
D11*
%TO.P,U1,2*%
%TO.N,GND*%
X73000000Y-84460000D03*
%TO.P,U1,3,NC_3*%
%TO.N,unconnected-(U1-NC-Pad3)*%
X73000000Y-81920000D03*
%TO.P,U1,4*%
%TO.N,/LOAD_L*%
X65380000Y-81920000D03*
%TO.P,U1,5,NC_5*%
%TO.N,unconnected-(U1-NC-Pad5)*%
X65380000Y-84460000D03*
%TO.P,U1,6*%
%TO.N,Net-(R2-Pad2)*%
X65380000Y-87000000D03*
%TD*%
D17*
%TO.P,R3,1*%
%TO.N,/LOAD_L*%
X34340000Y-75500000D03*
%TO.P,R3,2*%
%TO.N,Net-(C4-Pad1)*%
X49580000Y-75500000D03*
%TD*%
D14*
%TO.P,J4,1,Pin_1_1*%
%TO.N,/230VAC_N*%
X23500000Y-48085000D03*
D15*
%TO.P,J4,2,Pin_2_2*%
X23500000Y-53165000D03*
%TO.P,J4,3,Pin_3_3*%
%TO.N,/230VAC_L*%
X23500000Y-58245000D03*
%TD*%
D17*
%TO.P,C4,1*%
%TO.N,Net-(C4-Pad1)*%
X49500000Y-65500000D03*
%TO.P,C4,2*%
%TO.N,/230VAC_L*%
X34500000Y-65500000D03*
%TD*%
D18*
%TO.P,F1,1*%
%TO.N,/230VAC_N*%
X34500000Y-45000000D03*
%TO.P,F1,2*%
%TO.N,Net-(U3-AC{slash}N)*%
X57000000Y-45000000D03*
%TD*%
D19*
%TO.P,J1,1,Pin_1_1*%
%TO.N,GND*%
X132980000Y-73190000D03*
D20*
%TO.P,J1,2,Pin_2_2*%
%TO.N,Net-(J1-Pin_2)*%
X132980000Y-75730000D03*
%TO.P,J1,3,Pin_3_3*%
%TO.N,Net-(J1-Pin_3)*%
X132980000Y-78270000D03*
%TO.P,J1,4,Pin_4_4*%
%TO.N,Net-(J1-Pin_4)*%
X132980000Y-80810000D03*
%TD*%
D10*
%TO.P,TP1,1,1_1*%
%TO.N,+5V*%
X127500000Y-39000000D03*
%TD*%
D21*
%TO.P,U3,1,AC/L_1*%
%TO.N,/230VAC_L*%
X56535000Y-73330000D03*
D22*
%TO.P,U3,3,AC/N_3*%
%TO.N,Net-(U3-AC{slash}N)*%
X61615000Y-73330000D03*
%TO.P,U3,5,NC_5*%
%TO.N,unconnected-(U3-NC-Pad5)*%
X87015000Y-73330000D03*
%TO.P,U3,14,-Vo_14*%
%TO.N,GND*%
X87015000Y-55550000D03*
%TO.P,U3,16,+Vo_16*%
%TO.N,+5V*%
X81935000Y-55550000D03*
%TD*%
D10*
%TO.P,TP4,1,1_1*%
%TO.N,/ONE_WIRE*%
X101500000Y-39000000D03*
%TD*%
D19*
%TO.P,J3,1,Pin_1_1*%
%TO.N,GND*%
X133000000Y-49190000D03*
D20*
%TO.P,J3,2,Pin_2_2*%
%TO.N,Net-(J3-Pin_2)*%
X133000000Y-51730000D03*
%TO.P,J3,3,Pin_3_3*%
%TO.N,Net-(J3-Pin_3)*%
X133000000Y-54270000D03*
%TO.P,J3,4,Pin_4_4*%
%TO.N,Net-(J3-Pin_4)*%
X133000000Y-56810000D03*
%TD*%
D10*
%TO.P,TP2,1,1_1*%
%TO.N,+3.3V_1*%
X121000000Y-39000000D03*
%TD*%
D11*
%TO.P,R2,1*%
%TO.N,/TRIAC_G*%
X39880000Y-82500000D03*
%TO.P,R2,2*%
%TO.N,Net-(R2-Pad2)*%
X50040000Y-82500000D03*
%TD*%
D23*
%TO.N,+5V*%
X127500000Y-45500000D03*
X127500000Y-84500000D03*
X127000000Y-58500000D03*
%TO.N,/I2C_SDA*%
X125500000Y-62000000D03*
%TO.N,/I2C_SCL*%
X127500000Y-64000000D03*
%TD*%
%TO.N,/ZERO_CROSS*%
D24*
X110500000Y-65500000D02*
X110500000Y-59500000D01*
X110500000Y-59500000D02*
X96000000Y-45000000D01*
X117430000Y-69000000D02*
X114000000Y-69000000D01*
X114000000Y-69000000D02*
X110500000Y-65500000D01*
X96000000Y-45000000D02*
X88810000Y-45000000D01*
%TO.N,Net-(U3-AC{slash}N)*%
X57000000Y-45000000D02*
X61500000Y-45000000D01*
X57000000Y-45000000D02*
X64000000Y-45000000D01*
X66995000Y-47995000D02*
X66995000Y-67950000D01*
X61500000Y-45000000D02*
X61500000Y-41000000D01*
X64000000Y-45000000D02*
X66995000Y-47995000D01*
X66995000Y-67950000D02*
X61615000Y-73330000D01*
%TO.N,Net-(C8-Pad1)*%
X81190000Y-42460000D02*
X81150000Y-42500000D01*
X81150000Y-42500000D02*
X81000000Y-42500000D01*
X79500000Y-41000000D02*
X77000000Y-41000000D01*
X81000000Y-42500000D02*
X79500000Y-41000000D01*
X77000000Y-41000000D02*
X72155000Y-41000000D01*
%TO.N,+5V*%
X119500000Y-89000000D02*
X107500000Y-89000000D01*
X129500000Y-69000000D02*
X124000000Y-74500000D01*
X124000000Y-74500000D02*
X124000000Y-84500000D01*
X105280000Y-86780000D02*
X94570000Y-86780000D01*
X127000000Y-58500000D02*
X127000000Y-46000000D01*
X127000000Y-46000000D02*
X127500000Y-45500000D01*
X81935000Y-80435000D02*
X88250000Y-86750000D01*
X124000000Y-84500000D02*
X119500000Y-89000000D01*
X81935000Y-55550000D02*
X81935000Y-80435000D01*
X127500000Y-84500000D02*
X124000000Y-84500000D01*
X107500000Y-89000000D02*
X105280000Y-86780000D01*
X127000000Y-58500000D02*
X129500000Y-61000000D01*
X88250000Y-86750000D02*
X88220000Y-86780000D01*
X88220000Y-86780000D02*
X95000000Y-86780000D01*
X129500000Y-61000000D02*
X129500000Y-69000000D01*
%TO.N,/TRIAC_G*%
X39880000Y-82500000D02*
X39880000Y-70000000D01*
X23500000Y-70460000D02*
X23960000Y-70000000D01*
X23960000Y-70000000D02*
X39880000Y-70000000D01*
X49620000Y-60260000D02*
X49620000Y-57000000D01*
X39880000Y-70000000D02*
X49620000Y-60260000D01*
%TO.N,/230VAC_L*%
D25*
X23620000Y-65500000D02*
X23500000Y-65380000D01*
D24*
X55000000Y-53500000D02*
X56625000Y-53500000D01*
X23500000Y-59146220D02*
X24560660Y-59146220D01*
X56535000Y-53500000D02*
X56535000Y-73330000D01*
D26*
X23500000Y-58245000D02*
X23755000Y-58245000D01*
D24*
X37500000Y-57000000D02*
X39460000Y-57000000D01*
X61420000Y-48705000D02*
X61420000Y-48500000D01*
D27*
X23500000Y-58245000D02*
X23500000Y-65380000D01*
D25*
X34500000Y-65500000D02*
X23620000Y-65500000D01*
D24*
X27227817Y-59550000D02*
X27550000Y-59227817D01*
X55000000Y-53500000D02*
X56535000Y-53500000D01*
X56625000Y-53500000D02*
X61420000Y-48705000D01*
D26*
X23755000Y-58245000D02*
X24000000Y-58000000D01*
D24*
X24964440Y-59550000D02*
X25420076Y-59550000D01*
X35353780Y-59146220D02*
X37500000Y-57000000D01*
X55000000Y-53500000D02*
X42960000Y-53500000D01*
X25420076Y-59550000D02*
X27227817Y-59550000D01*
X27550000Y-59146220D02*
X35353780Y-59146220D01*
X27550000Y-59227817D02*
X27550000Y-59146220D01*
X42960000Y-53500000D02*
X39460000Y-57000000D01*
X24560660Y-59146220D02*
X24964440Y-59550000D01*
%TO.N,/I2C_SDA*%
X125500000Y-62000000D02*
X124500000Y-62000000D01*
X118800000Y-56300000D02*
X117430000Y-56300000D01*
X124500000Y-62000000D02*
X118800000Y-56300000D01*
%TO.N,/I2C_SCL*%
X119760000Y-53760000D02*
X117430000Y-53760000D01*
X127500000Y-64000000D02*
X127500000Y-61500000D01*
X127500000Y-61500000D02*
X119760000Y-53760000D01*
%TO.N,Net-(C8-Pad2)*%
X77000000Y-48500000D02*
X80500000Y-45000000D01*
X80500000Y-45000000D02*
X81190000Y-45000000D01*
X72155000Y-48500000D02*
X77000000Y-48500000D01*
%TO.N,/LOAD_L*%
D25*
X23540000Y-75500000D02*
X23500000Y-75540000D01*
D24*
X68000000Y-88000000D02*
X66000000Y-90000000D01*
D25*
X34340000Y-75500000D02*
X23540000Y-75500000D01*
D24*
X32880000Y-90000000D02*
X23500000Y-80620000D01*
X68000000Y-84540000D02*
X68000000Y-88000000D01*
X66000000Y-90000000D02*
X32880000Y-90000000D01*
X65380000Y-81920000D02*
X68000000Y-84540000D01*
D27*
X23500000Y-75540000D02*
X23500000Y-80620000D01*
%TO.N,Net-(R2-Pad2)*%
D24*
X64000000Y-87000000D02*
X59500000Y-82500000D01*
X59500000Y-82500000D02*
X50040000Y-82500000D01*
X65380000Y-87000000D02*
X64000000Y-87000000D01*
%TO.N,Net-(C4-Pad1)*%
D25*
X49500000Y-70340000D02*
X49580000Y-70420000D01*
X49500000Y-65500000D02*
X49500000Y-70340000D01*
X49580000Y-70420000D02*
X49580000Y-75500000D01*
%TO.N,/230VAC_N*%
D27*
X31415000Y-48085000D02*
X34500000Y-45000000D01*
X23500000Y-53165000D02*
X23500000Y-48085000D01*
X23500000Y-48085000D02*
X31415000Y-48085000D01*
%TO.N,Net-(J3-Pin_3)*%
D24*
X133000000Y-54270000D02*
X133000000Y-54000000D01*
%TD*%
M02*
