%TF.GenerationSoftware,KiCad,Pcbnew,10.0.6-10.0.6~ubuntu24.04.1*%
%TF.CreationDate,2026-09-21T18:59:36+02:00*%
%TF.ProjectId,pvboiler,7076626f-696c-4657-922e-6b696361645f,rev?*%
%TF.SameCoordinates,Original*%
%TF.FileFunction,Copper,L1,Top*%
%TF.FilePolarity,Positive*%
%FSLAX46Y46*%
G04 Gerber Fmt 4.6, Leading zero omitted, Abs format (unit mm)*
G04 Created by KiCad (PCBNEW 10.0.6-10.0.6~ubuntu24.04.1) date 2026-09-21 18:59:36*
%MOMM*%
%LPD*%
G01*
G04 APERTURE LIST*
G04 Aperture macros list*
%AMRoundRect*
0 Rectangle with rounded corners*
0 $1 Rounding radius*
0 $2 $3 $4 $5 $6 $7 $8 $9 X,Y pos of 4 corners*
0 Add a 4 corners polygon primitive as box body*
4,1,4,$2,$3,$4,$5,$6,$7,$8,$9,$2,$3,0*
0 Add four circle primitives for the rounded corners*
1,1,$1+$1,$2,$3*
1,1,$1+$1,$4,$5*
1,1,$1+$1,$6,$7*
1,1,$1+$1,$8,$9*
0 Add four rect primitives between the rounded corners*
20,1,$1+$1,$2,$3,$4,$5,0*
20,1,$1+$1,$4,$5,$6,$7,0*
20,1,$1+$1,$6,$7,$8,$9,0*
20,1,$1+$1,$8,$9,$2,$3,0*%
G04 Aperture macros list end*
%TA.AperFunction,SMDPad,CuDef*%
%ADD10RoundRect,0.250000X0.650000X-0.412500X0.650000X0.412500X-0.650000X0.412500X-0.650000X-0.412500X0*%
%TD*%
%TA.AperFunction,SMDPad,CuDef*%
%ADD11RoundRect,0.250000X-0.312500X-0.625000X0.312500X-0.625000X0.312500X0.625000X-0.312500X0.625000X0*%
%TD*%
%TA.AperFunction,ComponentPad*%
%ADD12C,1.600000*%
%TD*%
%TA.AperFunction,ComponentPad*%
%ADD13C,1.524000*%
%TD*%
%TA.AperFunction,ComponentPad*%
%ADD14RoundRect,0.250000X-0.550000X-0.550000X0.550000X-0.550000X0.550000X0.550000X-0.550000X0.550000X0*%
%TD*%
%TA.AperFunction,SMDPad,CuDef*%
%ADD15RoundRect,0.250000X0.312500X0.625000X-0.312500X0.625000X-0.312500X-0.625000X0.312500X-0.625000X0*%
%TD*%
%TA.AperFunction,SMDPad,CuDef*%
%ADD16RoundRect,0.250000X-0.650000X0.412500X-0.650000X-0.412500X0.650000X-0.412500X0.650000X0.412500X0*%
%TD*%
%TA.AperFunction,ComponentPad*%
%ADD17C,2.000000*%
%TD*%
%TA.AperFunction,SMDPad,CuDef*%
%ADD18RoundRect,0.250000X-0.625000X0.312500X-0.625000X-0.312500X0.625000X-0.312500X0.625000X0.312500X0*%
%TD*%
%TA.AperFunction,ComponentPad*%
%ADD19C,2.500000*%
%TD*%
%TA.AperFunction,ComponentPad*%
%ADD20RoundRect,0.250000X-1.050000X1.050000X-1.050000X-1.050000X1.050000X-1.050000X1.050000X1.050000X0*%
%TD*%
%TA.AperFunction,ComponentPad*%
%ADD21C,2.600000*%
%TD*%
%TA.AperFunction,ComponentPad*%
%ADD22RoundRect,0.250000X0.550000X0.550000X-0.550000X0.550000X-0.550000X-0.550000X0.550000X-0.550000X0*%
%TD*%
%TA.AperFunction,ComponentPad*%
%ADD23C,2.400000*%
%TD*%
%TA.AperFunction,ComponentPad*%
%ADD24C,3.000000*%
%TD*%
%TA.AperFunction,ComponentPad*%
%ADD25RoundRect,0.250000X-0.845000X0.620000X-0.845000X-0.620000X0.845000X-0.620000X0.845000X0.620000X0*%
%TD*%
%TA.AperFunction,ComponentPad*%
%ADD26O,2.190000X1.740000*%
%TD*%
%TA.AperFunction,SMDPad,CuDef*%
%ADD27RoundRect,0.250000X0.412500X0.650000X-0.412500X0.650000X-0.412500X-0.650000X0.412500X-0.650000X0*%
%TD*%
%TA.AperFunction,ComponentPad*%
%ADD28R,2.000000X2.300000*%
%TD*%
%TA.AperFunction,ComponentPad*%
%ADD29C,2.300000*%
%TD*%
%TA.AperFunction,SMDPad,CuDef*%
%ADD30RoundRect,0.250000X-0.545000X-0.445000X0.545000X-0.445000X0.545000X0.445000X-0.545000X0.445000X0*%
%TD*%
%TA.AperFunction,ViaPad*%
%ADD31C,1.500000*%
%TD*%
%TA.AperFunction,Conductor*%
%ADD32C,0.500000*%
%TD*%
G04 APERTURE END LIST*
D10*
%TO.P,C6,1*%
%TO.N,Net-(J1-Pin_2)*%
X127480000Y-76062500D03*
%TO.P,C6,2*%
%TO.N,GND*%
X127480000Y-72937500D03*
%TD*%
D11*
%TO.P,R4,1*%
%TO.N,/ZERO_CROSS*%
X121037500Y-70000000D03*
%TO.P,R4,2*%
%TO.N,+3.3V_1*%
X123962500Y-70000000D03*
%TD*%
D12*
%TO.P,R11,1*%
%TO.N,Net-(U3-AC{slash}N)*%
X61420000Y-41000000D03*
%TO.P,R11,2*%
%TO.N,Net-(C8-Pad1)*%
X71580000Y-41000000D03*
%TD*%
D10*
%TO.P,C2,1*%
%TO.N,+5V*%
X90500000Y-87062500D03*
%TO.P,C2,2*%
%TO.N,GND*%
X90500000Y-83937500D03*
%TD*%
D12*
%TO.P,R10,1*%
%TO.N,/TRIAC_G*%
X49620000Y-57000000D03*
%TO.P,R10,2*%
%TO.N,/230VAC_L*%
X39460000Y-57000000D03*
%TD*%
D13*
%TO.P,A1,1,A0_1*%
%TO.N,/CT1*%
X94570000Y-51220000D03*
%TO.P,A1,2,RSV_2*%
%TO.N,unconnected-(A1-RSV-Pad2)*%
X94570000Y-53760000D03*
%TO.P,A1,3,RSV_3*%
%TO.N,unconnected-(A1-RSV-Pad3)*%
X94570000Y-56300000D03*
%TO.P,A1,4,S3_4*%
%TO.N,unconnected-(A1-S3-Pad4)*%
X94570000Y-58840000D03*
%TO.P,A1,5,S2_5*%
%TO.N,unconnected-(A1-S2-Pad5)*%
X94570000Y-61380000D03*
%TO.P,A1,6,S1_6*%
%TO.N,unconnected-(A1-S1-Pad6)*%
X94570000Y-63920000D03*
%TO.P,A1,7,SC_7*%
%TO.N,unconnected-(A1-SC-Pad7)*%
X94570000Y-66460000D03*
%TO.P,A1,8,S0_8*%
%TO.N,unconnected-(A1-S0-Pad8)*%
X94570000Y-69000000D03*
%TO.P,A1,9,SK_9*%
%TO.N,unconnected-(A1-SK-Pad9)*%
X94570000Y-71540000D03*
%TO.P,A1,10,GND_10*%
%TO.N,GND*%
X94570000Y-74080000D03*
%TO.P,A1,11,3.3V_11*%
%TO.N,/+3.3V_3*%
X94570000Y-76620000D03*
%TO.P,A1,12,EN_12*%
%TO.N,unconnected-(A1-EN-Pad12)*%
X94570000Y-79160000D03*
%TO.P,A1,13,RST_13*%
%TO.N,unconnected-(A1-RST-Pad13)*%
X94570000Y-81700000D03*
%TO.P,A1,14,GND_14*%
%TO.N,GND*%
X94570000Y-84240000D03*
%TO.P,A1,15,VIN_15*%
%TO.N,+5V*%
X94570000Y-86780000D03*
%TO.P,A1,16,3.3V_16*%
%TO.N,+3.3V_2*%
X117430000Y-86780000D03*
%TO.P,A1,17,GND_17*%
%TO.N,GND*%
X117430000Y-84240000D03*
%TO.P,A1,18,TX_18*%
%TO.N,unconnected-(A1-TX-Pad18)*%
X117430000Y-81700000D03*
%TO.P,A1,19,RX_19*%
%TO.N,unconnected-(A1-RX-Pad19)*%
X117430000Y-79160000D03*
%TO.P,A1,20,D8_20*%
%TO.N,unconnected-(A1-D8-Pad20)*%
X117430000Y-76620000D03*
%TO.P,A1,21,D7_21*%
%TO.N,/GATE_DRIVE*%
X117430000Y-74080000D03*
%TO.P,A1,22,D6_22*%
%TO.N,/ONE_WIRE*%
X117430000Y-71540000D03*
%TO.P,A1,23,D5_23*%
%TO.N,/ZERO_CROSS*%
X117430000Y-69000000D03*
%TO.P,A1,24,GND_24*%
%TO.N,GND*%
X117430000Y-66460000D03*
%TO.P,A1,25,3.3V_25*%
%TO.N,+3.3V_1*%
X117430000Y-63920000D03*
%TO.P,A1,26,D4_26*%
%TO.N,unconnected-(A1-D4-Pad26)*%
X117430000Y-61380000D03*
%TO.P,A1,27,D3_27*%
%TO.N,unconnected-(A1-D3-Pad27)*%
X117430000Y-58840000D03*
%TO.P,A1,28,D2_28*%
%TO.N,/I2C_SDA*%
X117430000Y-56300000D03*
%TO.P,A1,29,D1_29*%
%TO.N,/I2C_SCL*%
X117430000Y-53760000D03*
%TO.P,A1,30,D0_30*%
%TO.N,/AUX_GPIO*%
X117430000Y-51220000D03*
%TD*%
D12*
%TO.P,R1,1*%
%TO.N,/230VAC_L*%
X61420000Y-48500000D03*
%TO.P,R1,2*%
%TO.N,Net-(C8-Pad2)*%
X71580000Y-48500000D03*
%TD*%
D14*
%TO.P,U2,1*%
%TO.N,Net-(C8-Pad1)*%
X81190000Y-42460000D03*
D12*
%TO.P,U2,2*%
%TO.N,Net-(C8-Pad2)*%
X81190000Y-45000000D03*
%TO.P,U2,3,NC_3*%
%TO.N,unconnected-(U2-NC-Pad3)*%
X81190000Y-47540000D03*
%TO.P,U2,4*%
%TO.N,GND*%
X88810000Y-47540000D03*
%TO.P,U2,5*%
%TO.N,/ZERO_CROSS*%
X88810000Y-45000000D03*
%TO.P,U2,6*%
%TO.N,unconnected-(U2-Pad6)*%
X88810000Y-42460000D03*
%TD*%
D15*
%TO.P,R18,1*%
%TO.N,/CT2*%
X95962500Y-43000000D03*
%TO.P,R18,2*%
%TO.N,/CT1*%
X93037500Y-43000000D03*
%TD*%
D16*
%TO.P,C9,1*%
%TO.N,Net-(C9-Pad1)*%
X125500000Y-42937500D03*
%TO.P,C9,2*%
%TO.N,GND*%
X125500000Y-46062500D03*
%TD*%
D15*
%TO.P,R14,1*%
%TO.N,Net-(J1-Pin_3)*%
X133962500Y-69500000D03*
%TO.P,R14,2*%
%TO.N,/I2C_SCL*%
X131037500Y-69500000D03*
%TD*%
D17*
%TO.P,C8,1*%
%TO.N,Net-(C8-Pad1)*%
X76500000Y-41000000D03*
%TO.P,C8,2*%
%TO.N,Net-(C8-Pad2)*%
X76500000Y-48500000D03*
%TD*%
D18*
%TO.P,R8,1*%
%TO.N,Net-(J3-Pin_2)*%
X127500000Y-53537500D03*
%TO.P,R8,2*%
%TO.N,+5V*%
X127500000Y-56462500D03*
%TD*%
D19*
%TO.P,TP3,1,1_1*%
%TO.N,GND*%
X114500000Y-39000000D03*
%TD*%
%TO.P,TP5,1,1_1*%
%TO.N,/AUX_GPIO*%
X108000000Y-39000000D03*
%TD*%
D20*
%TO.P,J2,1,Pin_1_1*%
%TO.N,/230VAC_L*%
X23500000Y-65380000D03*
D21*
%TO.P,J2,2,Pin_2_2*%
%TO.N,/TRIAC_G*%
X23500000Y-70460000D03*
%TO.P,J2,3,Pin_3_3*%
%TO.N,/LOAD_L*%
X23500000Y-75540000D03*
%TO.P,J2,4,Pin_4_4*%
X23500000Y-80620000D03*
%TD*%
D10*
%TO.P,C7,1*%
%TO.N,Net-(J3-Pin_2)*%
X127500000Y-51562500D03*
%TO.P,C7,2*%
%TO.N,GND*%
X127500000Y-48437500D03*
%TD*%
D22*
%TO.P,U1,1*%
%TO.N,Net-(R5-Pad1)*%
X73000000Y-87000000D03*
D12*
%TO.P,U1,2*%
%TO.N,GND*%
X73000000Y-84460000D03*
%TO.P,U1,3,NC_3*%
%TO.N,unconnected-(U1-NC-Pad3)*%
X73000000Y-81920000D03*
%TO.P,U1,4*%
%TO.N,/LOAD_L*%
X65380000Y-81920000D03*
%TO.P,U1,5,NC_5*%
%TO.N,unconnected-(U1-NC-Pad5)*%
X65380000Y-84460000D03*
%TO.P,U1,6*%
%TO.N,Net-(R2-Pad2)*%
X65380000Y-87000000D03*
%TD*%
D19*
%TO.P,TP7,1,1_1*%
%TO.N,/CT2*%
X95000000Y-39000000D03*
%TD*%
D15*
%TO.P,R15,1*%
%TO.N,Net-(J1-Pin_4)*%
X133962500Y-66500000D03*
%TO.P,R15,2*%
%TO.N,/I2C_SDA*%
X131037500Y-66500000D03*
%TD*%
D18*
%TO.P,R9,1*%
%TO.N,Net-(J1-Pin_2)*%
X127480000Y-79575000D03*
%TO.P,R9,2*%
%TO.N,+5V*%
X127480000Y-82500000D03*
%TD*%
D11*
%TO.P,R5,1*%
%TO.N,Net-(R5-Pad1)*%
X76537500Y-87000000D03*
%TO.P,R5,2*%
%TO.N,/GATE_DRIVE*%
X79462500Y-87000000D03*
%TD*%
D15*
%TO.P,R13,1*%
%TO.N,Net-(J3-Pin_4)*%
X133962500Y-60500000D03*
%TO.P,R13,2*%
%TO.N,/I2C_SDA*%
X131037500Y-60500000D03*
%TD*%
D23*
%TO.P,R3,1*%
%TO.N,/LOAD_L*%
X34340000Y-75500000D03*
%TO.P,R3,2*%
%TO.N,Net-(C4-Pad1)*%
X49580000Y-75500000D03*
%TD*%
D20*
%TO.P,J4,1,Pin_1_1*%
%TO.N,/230VAC_N*%
X23500000Y-48085000D03*
D21*
%TO.P,J4,2,Pin_2_2*%
X23500000Y-53165000D03*
%TO.P,J4,3,Pin_3_3*%
%TO.N,/230VAC_L*%
X23500000Y-58245000D03*
%TD*%
D19*
%TO.P,TP6,1,1_1*%
%TO.N,/CT1*%
X88500000Y-39000000D03*
%TD*%
D11*
%TO.P,R16,1*%
%TO.N,/AUX_GPIO*%
X121037500Y-51000000D03*
%TO.P,R16,2*%
%TO.N,+3.3V_1*%
X123962500Y-51000000D03*
%TD*%
D23*
%TO.P,C4,1*%
%TO.N,Net-(C4-Pad1)*%
X49500000Y-65500000D03*
%TO.P,C4,2*%
%TO.N,/230VAC_L*%
X34500000Y-65500000D03*
%TD*%
D15*
%TO.P,R19,1*%
%TO.N,/+3.3V_3*%
X90962500Y-78500000D03*
%TO.P,R19,2*%
%TO.N,/CT2*%
X88037500Y-78500000D03*
%TD*%
%TO.P,R12,1*%
%TO.N,Net-(J3-Pin_3)*%
X133962500Y-63500000D03*
%TO.P,R12,2*%
%TO.N,/I2C_SCL*%
X131037500Y-63500000D03*
%TD*%
D24*
%TO.P,F1,1*%
%TO.N,/230VAC_N*%
X34500000Y-45000000D03*
%TO.P,F1,2*%
%TO.N,Net-(U3-AC{slash}N)*%
X57000000Y-45000000D03*
%TD*%
D15*
%TO.P,R23,1*%
%TO.N,/ONE_WIRE*%
X108462500Y-43000000D03*
%TO.P,R23,2*%
%TO.N,Net-(R23-Pad2)*%
X105537500Y-43000000D03*
%TD*%
D25*
%TO.P,J1,1,Pin_1_1*%
%TO.N,GND*%
X132980000Y-73190000D03*
D26*
%TO.P,J1,2,Pin_2_2*%
%TO.N,Net-(J1-Pin_2)*%
X132980000Y-75730000D03*
%TO.P,J1,3,Pin_3_3*%
%TO.N,Net-(J1-Pin_3)*%
X132980000Y-78270000D03*
%TO.P,J1,4,Pin_4_4*%
%TO.N,Net-(J1-Pin_4)*%
X132980000Y-80810000D03*
%TD*%
D16*
%TO.P,C5,1*%
%TO.N,+3.3V_1*%
X122500000Y-64437500D03*
%TO.P,C5,2*%
%TO.N,GND*%
X122500000Y-67562500D03*
%TD*%
D27*
%TO.P,C10,1*%
%TO.N,Net-(C10-Pad1)*%
X117562500Y-43000000D03*
%TO.P,C10,2*%
%TO.N,GND*%
X114437500Y-43000000D03*
%TD*%
D19*
%TO.P,TP1,1,1_1*%
%TO.N,Net-(C9-Pad1)*%
X127500000Y-39000000D03*
%TD*%
D18*
%TO.P,R21,1*%
%TO.N,Net-(C9-Pad1)*%
X129500000Y-43037500D03*
%TO.P,R21,2*%
%TO.N,+5V*%
X129500000Y-45962500D03*
%TD*%
D28*
%TO.P,U3,1,AC/L_1*%
%TO.N,/230VAC_L*%
X56535000Y-73330000D03*
D29*
%TO.P,U3,3,AC/N_3*%
%TO.N,Net-(U3-AC{slash}N)*%
X61615000Y-73330000D03*
%TO.P,U3,5,NC_5*%
%TO.N,unconnected-(U3-NC-Pad5)*%
X87015000Y-73330000D03*
%TO.P,U3,14,-Vo_14*%
%TO.N,GND*%
X87015000Y-55550000D03*
%TO.P,U3,16,+Vo_16*%
%TO.N,+5V*%
X81935000Y-55550000D03*
%TD*%
D30*
%TO.P,C1,1*%
%TO.N,/CT2*%
X98560000Y-43000000D03*
%TO.P,C1,2*%
%TO.N,GND*%
X101440000Y-43000000D03*
%TD*%
D19*
%TO.P,TP4,1,1_1*%
%TO.N,Net-(R23-Pad2)*%
X101500000Y-39000000D03*
%TD*%
D18*
%TO.P,R22,1*%
%TO.N,Net-(C10-Pad1)*%
X121000000Y-43037500D03*
%TO.P,R22,2*%
%TO.N,+3.3V_1*%
X121000000Y-45962500D03*
%TD*%
D11*
%TO.P,R17,1*%
%TO.N,/ONE_WIRE*%
X121037500Y-72500000D03*
%TO.P,R17,2*%
%TO.N,+3.3V_1*%
X123962500Y-72500000D03*
%TD*%
%TO.P,R6,1*%
%TO.N,/I2C_SDA*%
X121037500Y-56500000D03*
%TO.P,R6,2*%
%TO.N,+3.3V_1*%
X123962500Y-56500000D03*
%TD*%
%TO.P,R7,1*%
%TO.N,/I2C_SCL*%
X121037500Y-53500000D03*
%TO.P,R7,2*%
%TO.N,+3.3V_1*%
X123962500Y-53500000D03*
%TD*%
D25*
%TO.P,J3,1,Pin_1_1*%
%TO.N,GND*%
X133000000Y-49190000D03*
D26*
%TO.P,J3,2,Pin_2_2*%
%TO.N,Net-(J3-Pin_2)*%
X133000000Y-51730000D03*
%TO.P,J3,3,Pin_3_3*%
%TO.N,Net-(J3-Pin_3)*%
X133000000Y-54270000D03*
%TO.P,J3,4,Pin_4_4*%
%TO.N,Net-(J3-Pin_4)*%
X133000000Y-56810000D03*
%TD*%
D19*
%TO.P,TP2,1,1_1*%
%TO.N,Net-(C10-Pad1)*%
X121000000Y-39000000D03*
%TD*%
D12*
%TO.P,R2,1*%
%TO.N,/TRIAC_G*%
X39880000Y-82500000D03*
%TO.P,R2,2*%
%TO.N,Net-(R2-Pad2)*%
X50040000Y-82500000D03*
%TD*%
D15*
%TO.P,R20,1*%
%TO.N,GND*%
X90962500Y-81500000D03*
%TO.P,R20,2*%
%TO.N,/CT2*%
X88037500Y-81500000D03*
%TD*%
D31*
%TO.N,+5V*%
X132000000Y-46000000D03*
X127500000Y-84500000D03*
X127000000Y-58500000D03*
%TO.N,/I2C_SDA*%
X125500000Y-62000000D03*
%TO.N,/I2C_SCL*%
X127500000Y-64000000D03*
%TO.N,/CT2*%
X92000000Y-73000000D03*
%TD*%
%TO.N,Net-(J1-Pin_2)*%
D32*
X127480000Y-79575000D02*
X127480000Y-76062500D01*
X132647500Y-76062500D02*
X132980000Y-75730000D01*
X127480000Y-76062500D02*
X132647500Y-76062500D01*
X132980000Y-75730000D02*
X132980000Y-75980000D01*
X132980000Y-75980000D02*
X133000000Y-76000000D01*
%TO.N,GND*%
X88540000Y-84460000D02*
X73000000Y-84460000D01*
X94570000Y-84240000D02*
X94330000Y-84000000D01*
X89000000Y-84000000D02*
X88540000Y-84460000D01*
X127482500Y-49100000D02*
X127582500Y-49000000D01*
X94330000Y-84000000D02*
X89000000Y-84000000D01*
%TO.N,/ZERO_CROSS*%
X118000000Y-69000000D02*
X117430000Y-69000000D01*
X121037500Y-70000000D02*
X118430000Y-70000000D01*
X118430000Y-70000000D02*
X117430000Y-69000000D01*
%TO.N,+3.3V_1*%
X123962500Y-70000000D02*
X125000000Y-70000000D01*
X117947500Y-64437500D02*
X117430000Y-63920000D01*
X125000000Y-66000000D02*
X125000000Y-70000000D01*
X123962500Y-59037500D02*
X122500000Y-60500000D01*
X122500000Y-64437500D02*
X123437500Y-64437500D01*
X121462500Y-45962500D02*
X122500000Y-47000000D01*
X125000000Y-70000000D02*
X125000000Y-71462500D01*
X123962500Y-51462500D02*
X123962500Y-59037500D01*
X122500000Y-47000000D02*
X122500000Y-50000000D01*
X122500000Y-50000000D02*
X123962500Y-51462500D01*
X123437500Y-64437500D02*
X125000000Y-66000000D01*
X122500000Y-64437500D02*
X120000000Y-64437500D01*
X120000000Y-64437500D02*
X117947500Y-64437500D01*
X122500000Y-60500000D02*
X122500000Y-64437500D01*
X125000000Y-71462500D02*
X123962500Y-72500000D01*
X121000000Y-45962500D02*
X121462500Y-45962500D01*
%TO.N,+5V*%
X129537500Y-46000000D02*
X129500000Y-45962500D01*
X127500000Y-58000000D02*
X127500000Y-56462500D01*
X90720000Y-86780000D02*
X95000000Y-86780000D01*
X127480000Y-84480000D02*
X127500000Y-84500000D01*
X127000000Y-58500000D02*
X127500000Y-58000000D01*
X90500000Y-87062500D02*
X90500000Y-87000000D01*
X90500000Y-87000000D02*
X90720000Y-86780000D01*
X132000000Y-46000000D02*
X129537500Y-46000000D01*
X127480000Y-82500000D02*
X127480000Y-84480000D01*
%TO.N,/CT1*%
X93037500Y-41037500D02*
X91000000Y-39000000D01*
X91000000Y-39000000D02*
X88500000Y-39000000D01*
X94570000Y-46570000D02*
X94570000Y-51220000D01*
X93037500Y-43000000D02*
X93037500Y-45037500D01*
X93037500Y-43000000D02*
X93037500Y-41037500D01*
X93037500Y-45037500D02*
X94570000Y-46570000D01*
%TO.N,/+3.3V_3*%
X92842500Y-76620000D02*
X90962500Y-78500000D01*
X94570000Y-76620000D02*
X92842500Y-76620000D01*
%TO.N,/GATE_DRIVE*%
X101500000Y-89500000D02*
X116920000Y-74080000D01*
X116920000Y-74080000D02*
X117430000Y-74080000D01*
X85000000Y-87000000D02*
X87500000Y-89500000D01*
X87500000Y-89500000D02*
X101500000Y-89500000D01*
X79462500Y-87000000D02*
X85000000Y-87000000D01*
%TO.N,/ONE_WIRE*%
X118540000Y-71540000D02*
X117430000Y-71540000D01*
X119500000Y-72500000D02*
X118540000Y-71540000D01*
X108000000Y-43462500D02*
X108462500Y-43000000D01*
X117430000Y-71540000D02*
X108000000Y-62110000D01*
X121037500Y-72500000D02*
X119500000Y-72500000D01*
X108000000Y-62110000D02*
X108000000Y-43462500D01*
%TO.N,/I2C_SDA*%
X128500000Y-60500000D02*
X131037500Y-60500000D01*
X132500000Y-65037500D02*
X131037500Y-66500000D01*
X132500000Y-62500000D02*
X132500000Y-65037500D01*
X125500000Y-62000000D02*
X127000000Y-62000000D01*
X131037500Y-61037500D02*
X132500000Y-62500000D01*
X131037500Y-60500000D02*
X131037500Y-61037500D01*
X127000000Y-62000000D02*
X128500000Y-60500000D01*
X121037500Y-56500000D02*
X117340000Y-56500000D01*
%TO.N,/I2C_SCL*%
X130000000Y-69500000D02*
X131037500Y-69500000D01*
X121037500Y-53500000D02*
X120777500Y-53760000D01*
X129000000Y-68500000D02*
X130000000Y-69500000D01*
X131037500Y-63500000D02*
X128000000Y-63500000D01*
X129000000Y-65500000D02*
X129000000Y-68500000D01*
X127500000Y-64000000D02*
X129000000Y-65500000D01*
X128000000Y-63500000D02*
X127500000Y-64000000D01*
X120777500Y-53760000D02*
X117540000Y-53760000D01*
%TO.N,/AUX_GPIO*%
X108000000Y-39000000D02*
X108000000Y-39500000D01*
X118537500Y-51000000D02*
X121037500Y-51000000D01*
X117430000Y-48930000D02*
X117430000Y-51220000D01*
X117430000Y-51220000D02*
X118317500Y-51220000D01*
X108000000Y-39500000D02*
X117430000Y-48930000D01*
X118317500Y-51220000D02*
X118537500Y-51000000D01*
%TO.N,/CT2*%
X98560000Y-43000000D02*
X95962500Y-43000000D01*
X88037500Y-76962500D02*
X92000000Y-73000000D01*
X95962500Y-39962500D02*
X95000000Y-39000000D01*
X95962500Y-43000000D02*
X95962500Y-39962500D01*
X88037500Y-78500000D02*
X88037500Y-76962500D01*
X88037500Y-78500000D02*
X88037500Y-81500000D01*
%TO.N,Net-(C9-Pad1)*%
X129500000Y-42037500D02*
X129500000Y-43037500D01*
X127500000Y-40037500D02*
X129500000Y-42037500D01*
X125600000Y-43037500D02*
X125500000Y-42937500D01*
X129500000Y-43037500D02*
X125600000Y-43037500D01*
X127500000Y-39000000D02*
X127500000Y-40037500D01*
%TO.N,Net-(J1-Pin_3)*%
X133962500Y-69500000D02*
X135500000Y-71037500D01*
X135500000Y-71037500D02*
X135500000Y-75750000D01*
X135500000Y-75750000D02*
X132980000Y-78270000D01*
%TO.N,Net-(J3-Pin_2)*%
X127712500Y-51730000D02*
X127482500Y-51500000D01*
X133000000Y-51730000D02*
X127712500Y-51730000D01*
X127500000Y-53537500D02*
X127500000Y-51562500D01*
%TO.N,Net-(R5-Pad1)*%
X76537500Y-87000000D02*
X73000000Y-87000000D01*
%TO.N,Net-(J1-Pin_4)*%
X137000000Y-69000000D02*
X134500000Y-66500000D01*
X132980000Y-80810000D02*
X134190000Y-80810000D01*
X137000000Y-78000000D02*
X137000000Y-69000000D01*
X132980000Y-80810000D02*
X132980000Y-80980000D01*
X134190000Y-80810000D02*
X137000000Y-78000000D01*
X132980000Y-80980000D02*
X133000000Y-81000000D01*
X134500000Y-66500000D02*
X133962500Y-66500000D01*
%TO.N,Net-(J3-Pin_4)*%
X133962500Y-60500000D02*
X133962500Y-57772500D01*
X133962500Y-57772500D02*
X133000000Y-56810000D01*
%TO.N,Net-(J3-Pin_3)*%
X135500000Y-55500000D02*
X134270000Y-54270000D01*
X135500000Y-63000000D02*
X135500000Y-55500000D01*
X134270000Y-54270000D02*
X133000000Y-54270000D01*
X135000000Y-63500000D02*
X135500000Y-63000000D01*
X133962500Y-63500000D02*
X135000000Y-63500000D01*
%TO.N,Net-(R23-Pad2)*%
X105500000Y-43000000D02*
X101500000Y-39000000D01*
X105537500Y-43000000D02*
X105500000Y-43000000D01*
%TO.N,Net-(C10-Pad1)*%
X117600000Y-43037500D02*
X117562500Y-43000000D01*
X121000000Y-39000000D02*
X121000000Y-43037500D01*
X121000000Y-43037500D02*
X117600000Y-43037500D01*
%TD*%
%TA.AperFunction,Conductor*%
%TO.N,GND*%
G36*
X109440058Y-41869836D02*
G01*
X109470744Y-41890690D01*
X116750504Y-49170450D01*
X116778281Y-49224967D01*
X116779500Y-49240454D01*
X116779500Y-50205242D01*
X116760593Y-50263433D01*
X116738692Y-50285334D01*
X116672684Y-50333292D01*
X116543289Y-50462687D01*
X116435742Y-50610713D01*
X116435740Y-50610717D01*
X116352669Y-50773754D01*
X116296122Y-50947785D01*
X116267500Y-51128505D01*
X116267500Y-51311494D01*
X116296122Y-51492214D01*
X116352669Y-51666245D01*
X116435740Y-51829282D01*
X116435742Y-51829286D01*
X116543289Y-51977312D01*
X116543291Y-51977314D01*
X116543294Y-51977318D01*
X116672682Y-52106706D01*
X116672685Y-52106708D01*
X116672687Y-52106710D01*
X116820713Y-52214257D01*
X116820717Y-52214259D01*
X116983755Y-52297331D01*
X117157781Y-52353876D01*
X117157782Y-52353876D01*
X117157785Y-52353877D01*
X117338506Y-52382500D01*
X117338509Y-52382500D01*
X117521494Y-52382500D01*
X117702214Y-52353877D01*
X117702215Y-52353876D01*
X117702219Y-52353876D01*
X117876245Y-52297331D01*
X118039283Y-52214259D01*
X118044207Y-52210682D01*
X118187312Y-52106710D01*
X118187318Y-52106706D01*
X118316706Y-51977318D01*
X118373691Y-51898883D01*
X118423189Y-51862920D01*
X118434460Y-51859978D01*
X118507244Y-51845501D01*
X118625627Y-51796465D01*
X118664298Y-51770626D01*
X118732169Y-51725277D01*
X118738539Y-51718907D01*
X118777951Y-51679496D01*
X118832468Y-51651719D01*
X118847954Y-51650500D01*
X119980770Y-51650500D01*
X120038961Y-51669407D01*
X120074925Y-51718907D01*
X120075893Y-51722740D01*
X120075991Y-51722712D01*
X120077401Y-51727568D01*
X120077402Y-51727569D01*
X120123256Y-51885398D01*
X120206919Y-52026865D01*
X120323135Y-52143081D01*
X120323137Y-52143082D01*
X120323138Y-52143083D01*
X120359837Y-52164787D01*
X120400300Y-52210682D01*
X120406058Y-52271596D01*
X120374912Y-52324261D01*
X120359837Y-52335213D01*
X120323138Y-52356916D01*
X120206918Y-52473136D01*
X120123256Y-52614602D01*
X120077403Y-52772427D01*
X120077401Y-52772434D01*
X120074500Y-52809311D01*
X120074500Y-53010500D01*
X120055593Y-53068691D01*
X120006093Y-53104655D01*
X119975500Y-53109500D01*
X118444756Y-53109500D01*
X118386565Y-53090593D01*
X118364663Y-53068690D01*
X118316710Y-53002687D01*
X118316708Y-53002685D01*
X118316706Y-53002682D01*
X118187318Y-52873294D01*
X118187314Y-52873291D01*
X118187312Y-52873289D01*
X118039286Y-52765742D01*
X118039282Y-52765740D01*
X117876245Y-52682669D01*
X117702214Y-52626122D01*
X117521494Y-52597500D01*
X117521491Y-52597500D01*
X117338509Y-52597500D01*
X117338506Y-52597500D01*
X117157785Y-52626122D01*
X116983754Y-52682669D01*
X116820717Y-52765740D01*
X116820713Y-52765742D01*
X116672687Y-52873289D01*
X116543289Y-53002687D01*
X116435742Y-53150713D01*
X116435740Y-53150717D01*
X116352669Y-53313754D01*
X116296122Y-53487785D01*
X116267500Y-53668505D01*
X116267500Y-53851494D01*
X116296122Y-54032214D01*
X116352669Y-54206245D01*
X116435740Y-54369282D01*
X116435742Y-54369286D01*
X116543289Y-54517312D01*
X116543291Y-54517314D01*
X116543294Y-54517318D01*
X116672682Y-54646706D01*
X116672685Y-54646708D01*
X116672687Y-54646710D01*
X116820713Y-54754257D01*
X116820717Y-54754259D01*
X116983755Y-54837331D01*
X117157781Y-54893876D01*
X117157782Y-54893876D01*
X117157785Y-54893877D01*
X117338506Y-54922500D01*
X117338509Y-54922500D01*
X117521494Y-54922500D01*
X117702214Y-54893877D01*
X117702215Y-54893876D01*
X117702219Y-54893876D01*
X117876245Y-54837331D01*
X118039283Y-54754259D01*
X118187318Y-54646706D01*
X118316706Y-54517318D01*
X118364663Y-54451309D01*
X118414162Y-54415346D01*
X118444756Y-54410500D01*
X120081633Y-54410500D01*
X120139824Y-54429407D01*
X120166843Y-54459101D01*
X120206919Y-54526865D01*
X120323135Y-54643081D01*
X120464602Y-54726744D01*
X120622431Y-54772598D01*
X120659306Y-54775500D01*
X120659311Y-54775500D01*
X121415689Y-54775500D01*
X121415694Y-54775500D01*
X121452569Y-54772598D01*
X121610398Y-54726744D01*
X121751865Y-54643081D01*
X121868081Y-54526865D01*
X121951744Y-54385398D01*
X121997598Y-54227569D01*
X122000500Y-54190694D01*
X122000500Y-52809306D01*
X121997598Y-52772431D01*
X121951744Y-52614602D01*
X121868081Y-52473135D01*
X121751865Y-52356919D01*
X121715162Y-52335213D01*
X121674700Y-52289319D01*
X121668941Y-52228405D01*
X121700086Y-52175740D01*
X121715162Y-52164787D01*
X121751865Y-52143081D01*
X121868081Y-52026865D01*
X121951744Y-51885398D01*
X121997598Y-51727569D01*
X122000500Y-51690694D01*
X122000500Y-50659454D01*
X122019407Y-50601263D01*
X122068907Y-50565299D01*
X122130093Y-50565299D01*
X122169504Y-50589450D01*
X122970504Y-51390450D01*
X122998281Y-51444967D01*
X122999500Y-51460454D01*
X122999500Y-51690688D01*
X123002401Y-51727565D01*
X123002401Y-51727568D01*
X123002402Y-51727569D01*
X123048256Y-51885398D01*
X123131919Y-52026865D01*
X123248135Y-52143081D01*
X123262661Y-52151671D01*
X123263394Y-52152105D01*
X123303857Y-52198001D01*
X123312000Y-52237319D01*
X123312000Y-52262680D01*
X123293093Y-52320871D01*
X123263396Y-52347893D01*
X123248138Y-52356916D01*
X123131918Y-52473136D01*
X123048256Y-52614602D01*
X123002403Y-52772427D01*
X123002401Y-52772434D01*
X122999500Y-52809311D01*
X122999500Y-54190688D01*
X123002401Y-54227565D01*
X123002401Y-54227568D01*
X123002402Y-54227569D01*
X123048256Y-54385398D01*
X123131919Y-54526865D01*
X123248135Y-54643081D01*
X123262661Y-54651671D01*
X123263394Y-54652105D01*
X123303857Y-54698001D01*
X123312000Y-54737319D01*
X123312000Y-55262680D01*
X123293093Y-55320871D01*
X123263396Y-55347893D01*
X123248138Y-55356916D01*
X123131918Y-55473136D01*
X123048256Y-55614602D01*
X123002403Y-55772427D01*
X123002401Y-55772434D01*
X123000628Y-55794967D01*
X122999500Y-55809306D01*
X122999500Y-57190694D01*
X123000683Y-57205732D01*
X123002401Y-57227565D01*
X123002401Y-57227568D01*
X123002402Y-57227569D01*
X123048256Y-57385398D01*
X123131919Y-57526865D01*
X123248135Y-57643081D01*
X123248137Y-57643082D01*
X123263394Y-57652105D01*
X123303857Y-57698001D01*
X123312000Y-57737319D01*
X123312000Y-58727046D01*
X123293093Y-58785237D01*
X123283004Y-58797050D01*
X121994720Y-60085334D01*
X121923534Y-60191873D01*
X121874500Y-60310252D01*
X121874499Y-60310257D01*
X121849500Y-60435930D01*
X121849500Y-63277854D01*
X121830593Y-63336045D01*
X121781093Y-63372009D01*
X121758269Y-63376549D01*
X121747433Y-63377401D01*
X121747427Y-63377403D01*
X121589602Y-63423256D01*
X121448136Y-63506918D01*
X121331916Y-63623138D01*
X121263754Y-63738395D01*
X121217859Y-63778858D01*
X121178541Y-63787000D01*
X118670480Y-63787000D01*
X118612289Y-63768093D01*
X118576325Y-63718593D01*
X118572699Y-63703486D01*
X118563876Y-63647781D01*
X118563875Y-63647775D01*
X118507334Y-63473761D01*
X118507332Y-63473758D01*
X118507331Y-63473757D01*
X118507331Y-63473755D01*
X118424259Y-63310717D01*
X118424257Y-63310713D01*
X118316710Y-63162687D01*
X118316708Y-63162685D01*
X118316706Y-63162682D01*
X118187318Y-63033294D01*
X118187314Y-63033291D01*
X118187312Y-63033289D01*
X118039286Y-62925742D01*
X118039282Y-62925740D01*
X117876245Y-62842669D01*
X117702214Y-62786122D01*
X117521494Y-62757500D01*
X117521491Y-62757500D01*
X117338509Y-62757500D01*
X117338506Y-62757500D01*
X117157785Y-62786122D01*
X116983754Y-62842669D01*
X116820717Y-62925740D01*
X116820713Y-62925742D01*
X116672687Y-63033289D01*
X116543289Y-63162687D01*
X116435742Y-63310713D01*
X116435740Y-63310717D01*
X116352669Y-63473754D01*
X116296122Y-63647785D01*
X116267500Y-63828505D01*
X116267500Y-64011494D01*
X116296122Y-64192214D01*
X116352669Y-64366245D01*
X116435740Y-64529282D01*
X116435742Y-64529286D01*
X116543289Y-64677312D01*
X116543291Y-64677314D01*
X116543294Y-64677318D01*
X116672682Y-64806706D01*
X116672685Y-64806708D01*
X116672687Y-64806710D01*
X116820713Y-64914257D01*
X116820717Y-64914259D01*
X116983755Y-64997331D01*
X116983757Y-64997331D01*
X116983758Y-64997332D01*
X116983761Y-64997334D01*
X117125955Y-65043536D01*
X117175455Y-65079500D01*
X117194362Y-65137690D01*
X117175454Y-65195881D01*
X117125955Y-65231845D01*
X116945559Y-65290459D01*
X116768567Y-65380641D01*
X116731283Y-65407728D01*
X117294059Y-65970504D01*
X117233919Y-65986619D01*
X117118080Y-66053498D01*
X117023498Y-66148080D01*
X116956619Y-66263919D01*
X116940504Y-66324059D01*
X116377728Y-65761283D01*
X116350641Y-65798567D01*
X116260459Y-65975559D01*
X116199073Y-66164485D01*
X116168000Y-66360674D01*
X116168000Y-66559325D01*
X116199073Y-66755514D01*
X116260459Y-66944440D01*
X116350637Y-67121425D01*
X116377729Y-67158714D01*
X116940504Y-66595938D01*
X116956619Y-66656081D01*
X117023498Y-66771920D01*
X117118080Y-66866502D01*
X117233919Y-66933381D01*
X117294057Y-66949495D01*
X116731283Y-67512270D01*
X116768564Y-67539357D01*
X116768568Y-67539359D01*
X116945561Y-67629541D01*
X117125954Y-67688154D01*
X117175454Y-67724118D01*
X117194362Y-67782309D01*
X117175455Y-67840499D01*
X117125956Y-67876463D01*
X116983758Y-67922667D01*
X116820717Y-68005740D01*
X116820713Y-68005742D01*
X116672687Y-68113289D01*
X116543289Y-68242687D01*
X116435742Y-68390713D01*
X116435740Y-68390717D01*
X116352669Y-68553754D01*
X116296122Y-68727785D01*
X116267500Y-68908505D01*
X116267500Y-69091495D01*
X116288724Y-69225503D01*
X116279152Y-69285935D01*
X116235888Y-69329199D01*
X116175455Y-69338770D01*
X116120939Y-69310993D01*
X108679496Y-61869550D01*
X108651719Y-61815033D01*
X108650500Y-61799546D01*
X108650500Y-61288505D01*
X116267500Y-61288505D01*
X116267500Y-61471494D01*
X116296122Y-61652214D01*
X116352669Y-61826245D01*
X116435740Y-61989282D01*
X116435742Y-61989286D01*
X116543289Y-62137312D01*
X116543291Y-62137314D01*
X116543294Y-62137318D01*
X116672682Y-62266706D01*
X116672685Y-62266708D01*
X116672687Y-62266710D01*
X116820713Y-62374257D01*
X116820717Y-62374259D01*
X116983755Y-62457331D01*
X117157781Y-62513876D01*
X117157782Y-62513876D01*
X117157785Y-62513877D01*
X117338506Y-62542500D01*
X117338509Y-62542500D01*
X117521494Y-62542500D01*
X117702214Y-62513877D01*
X117702215Y-62513876D01*
X117702219Y-62513876D01*
X117876245Y-62457331D01*
X118039283Y-62374259D01*
X118187318Y-62266706D01*
X118316706Y-62137318D01*
X118424259Y-61989283D01*
X118507331Y-61826245D01*
X118563876Y-61652219D01*
X118563877Y-61652214D01*
X118592500Y-61471494D01*
X118592500Y-61288505D01*
X118563877Y-61107785D01*
X118546737Y-61055033D01*
X118507331Y-60933755D01*
X118424259Y-60770717D01*
X118424257Y-60770713D01*
X118316710Y-60622687D01*
X118316708Y-60622685D01*
X118316706Y-60622682D01*
X118187318Y-60493294D01*
X118187314Y-60493291D01*
X118187312Y-60493289D01*
X118039286Y-60385742D01*
X118039282Y-60385740D01*
X117876245Y-60302669D01*
X117702214Y-60246122D01*
X117521494Y-60217500D01*
X117521491Y-60217500D01*
X117338509Y-60217500D01*
X117338506Y-60217500D01*
X117157785Y-60246122D01*
X116983754Y-60302669D01*
X116820717Y-60385740D01*
X116820713Y-60385742D01*
X116672687Y-60493289D01*
X116543289Y-60622687D01*
X116435742Y-60770713D01*
X116435740Y-60770717D01*
X116352669Y-60933754D01*
X116296122Y-61107785D01*
X116267500Y-61288505D01*
X108650500Y-61288505D01*
X108650500Y-58748505D01*
X116267500Y-58748505D01*
X116267500Y-58931494D01*
X116296122Y-59112214D01*
X116352669Y-59286245D01*
X116435740Y-59449282D01*
X116435742Y-59449286D01*
X116543289Y-59597312D01*
X116543291Y-59597314D01*
X116543294Y-59597318D01*
X116672682Y-59726706D01*
X116672685Y-59726708D01*
X116672687Y-59726710D01*
X116820713Y-59834257D01*
X116820717Y-59834259D01*
X116983755Y-59917331D01*
X117157781Y-59973876D01*
X117157782Y-59973876D01*
X117157785Y-59973877D01*
X117338506Y-60002500D01*
X117338509Y-60002500D01*
X117521494Y-60002500D01*
X117702214Y-59973877D01*
X117702215Y-59973876D01*
X117702219Y-59973876D01*
X117876245Y-59917331D01*
X118039283Y-59834259D01*
X118187318Y-59726706D01*
X118316706Y-59597318D01*
X118406930Y-59473135D01*
X118424257Y-59449286D01*
X118424259Y-59449283D01*
X118507331Y-59286245D01*
X118563876Y-59112219D01*
X118590893Y-58941639D01*
X118592500Y-58931494D01*
X118592500Y-58748505D01*
X118563877Y-58567785D01*
X118563876Y-58567781D01*
X118507331Y-58393755D01*
X118424259Y-58230717D01*
X118424257Y-58230713D01*
X118316710Y-58082687D01*
X118316708Y-58082685D01*
X118316706Y-58082682D01*
X118187318Y-57953294D01*
X118187314Y-57953291D01*
X118187312Y-57953289D01*
X118039286Y-57845742D01*
X118039282Y-57845740D01*
X117876245Y-57762669D01*
X117702214Y-57706122D01*
X117521494Y-57677500D01*
X117521491Y-57677500D01*
X117338509Y-57677500D01*
X117338506Y-57677500D01*
X117157785Y-57706122D01*
X116983754Y-57762669D01*
X116820717Y-57845740D01*
X116820713Y-57845742D01*
X116672687Y-57953289D01*
X116543289Y-58082687D01*
X116435742Y-58230713D01*
X116435740Y-58230717D01*
X116352669Y-58393754D01*
X116296122Y-58567785D01*
X116267500Y-58748505D01*
X108650500Y-58748505D01*
X108650500Y-56208505D01*
X116267500Y-56208505D01*
X116267500Y-56391494D01*
X116296122Y-56572214D01*
X116352669Y-56746245D01*
X116435740Y-56909282D01*
X116435742Y-56909286D01*
X116543289Y-57057312D01*
X116543291Y-57057314D01*
X116543294Y-57057318D01*
X116672682Y-57186706D01*
X116672685Y-57186708D01*
X116672687Y-57186710D01*
X116820713Y-57294257D01*
X116820717Y-57294259D01*
X116983755Y-57377331D01*
X117157781Y-57433876D01*
X117157782Y-57433876D01*
X117157785Y-57433877D01*
X117338506Y-57462500D01*
X117338509Y-57462500D01*
X117521494Y-57462500D01*
X117702214Y-57433877D01*
X117702215Y-57433876D01*
X117702219Y-57433876D01*
X117876245Y-57377331D01*
X118039283Y-57294259D01*
X118040905Y-57293081D01*
X118131070Y-57227572D01*
X118187318Y-57186706D01*
X118194529Y-57179494D01*
X118249044Y-57151719D01*
X118264531Y-57150500D01*
X119980770Y-57150500D01*
X120038961Y-57169407D01*
X120074925Y-57218907D01*
X120075893Y-57222740D01*
X120075991Y-57222712D01*
X120077401Y-57227568D01*
X120077402Y-57227569D01*
X120123256Y-57385398D01*
X120206919Y-57526865D01*
X120323135Y-57643081D01*
X120464602Y-57726744D01*
X120622431Y-57772598D01*
X120659306Y-57775500D01*
X120659311Y-57775500D01*
X121415689Y-57775500D01*
X121415694Y-57775500D01*
X121452569Y-57772598D01*
X121610398Y-57726744D01*
X121751865Y-57643081D01*
X121868081Y-57526865D01*
X121951744Y-57385398D01*
X121997598Y-57227569D01*
X122000500Y-57190694D01*
X122000500Y-55809306D01*
X121997598Y-55772431D01*
X121951744Y-55614602D01*
X121868081Y-55473135D01*
X121751865Y-55356919D01*
X121610398Y-55273256D01*
X121452569Y-55227402D01*
X121452568Y-55227401D01*
X121452565Y-55227401D01*
X121429140Y-55225558D01*
X121415694Y-55224500D01*
X120659306Y-55224500D01*
X120646773Y-55225486D01*
X120622434Y-55227401D01*
X120622427Y-55227403D01*
X120464602Y-55273256D01*
X120323136Y-55356918D01*
X120206918Y-55473136D01*
X120162493Y-55548256D01*
X120123256Y-55614602D01*
X120084461Y-55748136D01*
X120075991Y-55777288D01*
X120073667Y-55776613D01*
X120049101Y-55822137D01*
X119993943Y-55848620D01*
X119980770Y-55849500D01*
X118565831Y-55849500D01*
X118507640Y-55830593D01*
X118477621Y-55795445D01*
X118424259Y-55690717D01*
X118424257Y-55690713D01*
X118316710Y-55542687D01*
X118316708Y-55542685D01*
X118316706Y-55542682D01*
X118187318Y-55413294D01*
X118187314Y-55413291D01*
X118187312Y-55413289D01*
X118039286Y-55305742D01*
X118039282Y-55305740D01*
X117876245Y-55222669D01*
X117702214Y-55166122D01*
X117521494Y-55137500D01*
X117521491Y-55137500D01*
X117338509Y-55137500D01*
X117338506Y-55137500D01*
X117157785Y-55166122D01*
X116983754Y-55222669D01*
X116820717Y-55305740D01*
X116820713Y-55305742D01*
X116672687Y-55413289D01*
X116543289Y-55542687D01*
X116435742Y-55690713D01*
X116435740Y-55690717D01*
X116352669Y-55853754D01*
X116296122Y-56027785D01*
X116267500Y-56208505D01*
X108650500Y-56208505D01*
X108650500Y-44374500D01*
X108669407Y-44316309D01*
X108718907Y-44280345D01*
X108749500Y-44275500D01*
X108840689Y-44275500D01*
X108840694Y-44275500D01*
X108877569Y-44272598D01*
X109035398Y-44226744D01*
X109176865Y-44143081D01*
X109293081Y-44026865D01*
X109376744Y-43885398D01*
X109422598Y-43727569D01*
X109425500Y-43690694D01*
X109425500Y-42309306D01*
X109422598Y-42272431D01*
X109376744Y-42114602D01*
X109315527Y-42011089D01*
X109302179Y-41951377D01*
X109326479Y-41895224D01*
X109379144Y-41864078D01*
X109440058Y-41869836D01*
G37*
%TD.AperFunction*%
%TA.AperFunction,Conductor*%
G36*
X139458691Y-35519407D02*
G01*
X139494655Y-35568907D01*
X139499500Y-35599500D01*
X139499500Y-94400500D01*
X139480593Y-94458691D01*
X139431093Y-94494655D01*
X139400500Y-94499500D01*
X85100349Y-94499500D01*
X85042158Y-94480593D01*
X85006194Y-94431093D01*
X85001349Y-94400505D01*
X85001232Y-91850499D01*
X85001063Y-88160017D01*
X85019967Y-88101829D01*
X85069465Y-88065863D01*
X85130650Y-88065860D01*
X85170066Y-88090012D01*
X87085331Y-90005277D01*
X87191873Y-90076465D01*
X87310256Y-90125501D01*
X87435931Y-90150500D01*
X87435932Y-90150500D01*
X101564068Y-90150500D01*
X101564069Y-90150500D01*
X101689744Y-90125501D01*
X101808127Y-90076465D01*
X101914669Y-90005277D01*
X102041236Y-89878710D01*
X133149500Y-89878710D01*
X133149500Y-90121289D01*
X133181161Y-90361781D01*
X133181161Y-90361786D01*
X133243944Y-90596092D01*
X133243948Y-90596105D01*
X133336772Y-90820204D01*
X133336774Y-90820208D01*
X133336776Y-90820212D01*
X133458064Y-91030289D01*
X133458066Y-91030292D01*
X133605729Y-91222731D01*
X133605731Y-91222733D01*
X133605735Y-91222738D01*
X133777262Y-91394265D01*
X133777266Y-91394268D01*
X133777268Y-91394270D01*
X133969707Y-91541933D01*
X133969711Y-91541936D01*
X134179788Y-91663224D01*
X134403900Y-91756054D01*
X134638211Y-91818838D01*
X134878712Y-91850500D01*
X134878713Y-91850500D01*
X135121287Y-91850500D01*
X135121288Y-91850500D01*
X135361789Y-91818838D01*
X135596100Y-91756054D01*
X135820212Y-91663224D01*
X136030289Y-91541936D01*
X136222738Y-91394265D01*
X136394265Y-91222738D01*
X136541936Y-91030289D01*
X136663224Y-90820212D01*
X136756054Y-90596100D01*
X136818838Y-90361789D01*
X136850500Y-90121288D01*
X136850500Y-89878712D01*
X136818838Y-89638211D01*
X136756054Y-89403900D01*
X136663224Y-89179788D01*
X136541936Y-88969711D01*
X136448760Y-88848281D01*
X136394270Y-88777268D01*
X136394268Y-88777266D01*
X136394265Y-88777262D01*
X136222738Y-88605735D01*
X136222733Y-88605731D01*
X136222731Y-88605729D01*
X136030292Y-88458066D01*
X136030289Y-88458064D01*
X135820212Y-88336776D01*
X135820208Y-88336774D01*
X135820204Y-88336772D01*
X135596105Y-88243948D01*
X135596104Y-88243947D01*
X135596100Y-88243946D01*
X135361789Y-88181162D01*
X135361786Y-88181161D01*
X135361784Y-88181161D01*
X135121289Y-88149500D01*
X135121288Y-88149500D01*
X134878712Y-88149500D01*
X134878710Y-88149500D01*
X134638218Y-88181161D01*
X134638213Y-88181161D01*
X134403907Y-88243944D01*
X134403894Y-88243948D01*
X134179795Y-88336772D01*
X133969707Y-88458066D01*
X133777268Y-88605729D01*
X133605729Y-88777268D01*
X133458066Y-88969707D01*
X133336772Y-89179795D01*
X133243948Y-89403894D01*
X133243944Y-89403907D01*
X133181161Y-89638213D01*
X133181161Y-89638218D01*
X133149500Y-89878710D01*
X102041236Y-89878710D01*
X107779271Y-84140674D01*
X116168000Y-84140674D01*
X116168000Y-84339325D01*
X116199073Y-84535514D01*
X116260459Y-84724440D01*
X116350637Y-84901425D01*
X116377729Y-84938714D01*
X116940504Y-84375938D01*
X116956619Y-84436081D01*
X117023498Y-84551920D01*
X117118080Y-84646502D01*
X117233919Y-84713381D01*
X117294057Y-84729495D01*
X116731283Y-85292270D01*
X116768564Y-85319357D01*
X116768568Y-85319359D01*
X116945561Y-85409541D01*
X117125954Y-85468154D01*
X117175454Y-85504118D01*
X117194362Y-85562309D01*
X117175455Y-85620499D01*
X117125956Y-85656463D01*
X116983758Y-85702667D01*
X116820717Y-85785740D01*
X116820713Y-85785742D01*
X116672687Y-85893289D01*
X116543289Y-86022687D01*
X116435742Y-86170713D01*
X116435740Y-86170717D01*
X116352669Y-86333754D01*
X116296122Y-86507785D01*
X116267500Y-86688505D01*
X116267500Y-86871494D01*
X116296122Y-87052214D01*
X116352669Y-87226245D01*
X116435740Y-87389282D01*
X116435742Y-87389286D01*
X116543289Y-87537312D01*
X116543291Y-87537314D01*
X116543294Y-87537318D01*
X116672682Y-87666706D01*
X116672685Y-87666708D01*
X116672687Y-87666710D01*
X116820713Y-87774257D01*
X116820717Y-87774259D01*
X116983755Y-87857331D01*
X117157781Y-87913876D01*
X117157782Y-87913876D01*
X117157785Y-87913877D01*
X117338506Y-87942500D01*
X117338509Y-87942500D01*
X117521494Y-87942500D01*
X117702214Y-87913877D01*
X117702215Y-87913876D01*
X117702219Y-87913876D01*
X117876245Y-87857331D01*
X118039283Y-87774259D01*
X118187318Y-87666706D01*
X118316706Y-87537318D01*
X118424259Y-87389283D01*
X118507331Y-87226245D01*
X118563876Y-87052219D01*
X118592500Y-86871491D01*
X118592500Y-86688509D01*
X118592500Y-86688505D01*
X118563877Y-86507785D01*
X118559632Y-86494720D01*
X118507331Y-86333755D01*
X118424259Y-86170717D01*
X118424257Y-86170713D01*
X118316710Y-86022687D01*
X118316708Y-86022685D01*
X118316706Y-86022682D01*
X118187318Y-85893294D01*
X118187314Y-85893291D01*
X118187312Y-85893289D01*
X118039286Y-85785742D01*
X118039282Y-85785740D01*
X117876241Y-85702667D01*
X117876238Y-85702665D01*
X117734044Y-85656463D01*
X117684544Y-85620499D01*
X117665637Y-85562308D01*
X117684545Y-85504118D01*
X117734045Y-85468154D01*
X117914438Y-85409541D01*
X118091434Y-85319357D01*
X118128715Y-85292270D01*
X117565940Y-84729495D01*
X117626081Y-84713381D01*
X117741920Y-84646502D01*
X117836502Y-84551920D01*
X117903381Y-84436081D01*
X117919495Y-84375940D01*
X118482270Y-84938715D01*
X118509357Y-84901434D01*
X118599540Y-84724440D01*
X118660926Y-84535514D01*
X118692000Y-84339325D01*
X118692000Y-84140674D01*
X118660926Y-83944485D01*
X118599540Y-83755559D01*
X118509359Y-83578568D01*
X118509357Y-83578564D01*
X118482270Y-83541283D01*
X117919495Y-84104057D01*
X117903381Y-84043919D01*
X117836502Y-83928080D01*
X117741920Y-83833498D01*
X117626081Y-83766619D01*
X117565938Y-83750504D01*
X118128714Y-83187729D01*
X118091425Y-83160637D01*
X117914440Y-83070459D01*
X117734044Y-83011845D01*
X117684544Y-82975881D01*
X117665637Y-82917690D01*
X117684544Y-82859499D01*
X117734043Y-82823535D01*
X117876245Y-82777331D01*
X118039283Y-82694259D01*
X118187318Y-82586706D01*
X118316706Y-82457318D01*
X118424259Y-82309283D01*
X118507331Y-82146245D01*
X118507332Y-82146240D01*
X118507334Y-82146238D01*
X118515273Y-82121806D01*
X126204500Y-82121806D01*
X126204500Y-82878194D01*
X126205683Y-82893232D01*
X126207401Y-82915065D01*
X126207401Y-82915068D01*
X126207402Y-82915069D01*
X126253256Y-83072898D01*
X126336919Y-83214365D01*
X126453135Y-83330581D01*
X126594602Y-83414244D01*
X126716634Y-83449698D01*
X126767238Y-83484088D01*
X126787964Y-83541656D01*
X126770894Y-83600412D01*
X126753320Y-83620036D01*
X126750512Y-83622434D01*
X126750500Y-83622446D01*
X126750499Y-83622447D01*
X126622447Y-83750499D01*
X126569225Y-83823752D01*
X126516002Y-83897008D01*
X126433788Y-84058362D01*
X126377828Y-84230593D01*
X126349500Y-84409450D01*
X126349500Y-84590549D01*
X126377828Y-84769406D01*
X126433788Y-84941637D01*
X126514477Y-85099999D01*
X126516004Y-85102994D01*
X126622447Y-85249501D01*
X126750499Y-85377553D01*
X126897006Y-85483996D01*
X127058361Y-85566211D01*
X127230591Y-85622171D01*
X127302136Y-85633502D01*
X127409451Y-85650500D01*
X127409454Y-85650500D01*
X127590549Y-85650500D01*
X127679977Y-85636335D01*
X127769409Y-85622171D01*
X127941639Y-85566211D01*
X128102994Y-85483996D01*
X128249501Y-85377553D01*
X128377553Y-85249501D01*
X128483996Y-85102994D01*
X128566211Y-84941639D01*
X128622171Y-84769409D01*
X128638055Y-84669124D01*
X128650500Y-84590549D01*
X128650500Y-84409450D01*
X128622171Y-84230593D01*
X128622171Y-84230591D01*
X128566211Y-84058361D01*
X128483996Y-83897006D01*
X128377553Y-83750499D01*
X128249501Y-83622447D01*
X128241383Y-83616549D01*
X128205422Y-83567049D01*
X128205423Y-83505864D01*
X128241388Y-83456365D01*
X128271952Y-83441392D01*
X128365398Y-83414244D01*
X128506865Y-83330581D01*
X128623081Y-83214365D01*
X128706744Y-83072898D01*
X128752598Y-82915069D01*
X128755500Y-82878194D01*
X128755500Y-82121806D01*
X128752598Y-82084931D01*
X128706744Y-81927102D01*
X128623081Y-81785635D01*
X128506865Y-81669419D01*
X128365398Y-81585756D01*
X128207569Y-81539902D01*
X128207568Y-81539901D01*
X128207565Y-81539901D01*
X128184140Y-81538058D01*
X128170694Y-81537000D01*
X126789306Y-81537000D01*
X126776773Y-81537986D01*
X126752434Y-81539901D01*
X126752427Y-81539903D01*
X126594602Y-81585756D01*
X126453136Y-81669418D01*
X126336918Y-81785636D01*
X126253256Y-81927102D01*
X126207403Y-82084927D01*
X126207401Y-82084934D01*
X126207060Y-82089272D01*
X126204500Y-82121806D01*
X118515273Y-82121806D01*
X118525844Y-82089272D01*
X118525844Y-82089269D01*
X118538858Y-82049216D01*
X118563876Y-81972219D01*
X118592500Y-81791491D01*
X118592500Y-81608509D01*
X118592500Y-81608505D01*
X118563877Y-81427785D01*
X118563876Y-81427781D01*
X118507331Y-81253755D01*
X118424259Y-81090717D01*
X118424257Y-81090713D01*
X118316710Y-80942687D01*
X118316708Y-80942685D01*
X118316706Y-80942682D01*
X118187318Y-80813294D01*
X118187314Y-80813291D01*
X118187312Y-80813289D01*
X118039286Y-80705742D01*
X118039282Y-80705740D01*
X117876245Y-80622669D01*
X117702214Y-80566122D01*
X117521494Y-80537500D01*
X117521491Y-80537500D01*
X117338509Y-80537500D01*
X117338506Y-80537500D01*
X117157785Y-80566122D01*
X116983754Y-80622669D01*
X116820717Y-80705740D01*
X116820713Y-80705742D01*
X116672687Y-80813289D01*
X116543289Y-80942687D01*
X116435742Y-81090713D01*
X116435740Y-81090717D01*
X116352669Y-81253754D01*
X116296122Y-81427785D01*
X116267500Y-81608505D01*
X116267500Y-81791494D01*
X116296122Y-81972214D01*
X116352669Y-82146245D01*
X116435740Y-82309282D01*
X116435742Y-82309286D01*
X116543289Y-82457312D01*
X116543291Y-82457314D01*
X116543294Y-82457318D01*
X116672682Y-82586706D01*
X116672685Y-82586708D01*
X116672687Y-82586710D01*
X116820713Y-82694257D01*
X116820717Y-82694259D01*
X116983755Y-82777331D01*
X116983757Y-82777331D01*
X116983758Y-82777332D01*
X116983761Y-82777334D01*
X117125955Y-82823536D01*
X117175455Y-82859500D01*
X117194362Y-82917690D01*
X117175454Y-82975881D01*
X117125955Y-83011845D01*
X116945559Y-83070459D01*
X116768567Y-83160641D01*
X116731283Y-83187728D01*
X117294059Y-83750504D01*
X117233919Y-83766619D01*
X117118080Y-83833498D01*
X117023498Y-83928080D01*
X116956619Y-84043919D01*
X116940504Y-84104059D01*
X116377728Y-83541283D01*
X116350641Y-83578567D01*
X116260459Y-83755559D01*
X116199073Y-83944485D01*
X116168000Y-84140674D01*
X107779271Y-84140674D01*
X112851439Y-79068505D01*
X116267500Y-79068505D01*
X116267500Y-79251494D01*
X116296122Y-79432214D01*
X116352669Y-79606245D01*
X116435740Y-79769282D01*
X116435742Y-79769286D01*
X116543289Y-79917312D01*
X116543291Y-79917314D01*
X116543294Y-79917318D01*
X116672682Y-80046706D01*
X116672685Y-80046708D01*
X116672687Y-80046710D01*
X116820713Y-80154257D01*
X116820717Y-80154259D01*
X116983755Y-80237331D01*
X117157781Y-80293876D01*
X117157782Y-80293876D01*
X117157785Y-80293877D01*
X117338506Y-80322500D01*
X117338509Y-80322500D01*
X117521494Y-80322500D01*
X117702214Y-80293877D01*
X117702215Y-80293876D01*
X117702219Y-80293876D01*
X117876245Y-80237331D01*
X118039283Y-80154259D01*
X118187318Y-80046706D01*
X118316706Y-79917318D01*
X118424259Y-79769283D01*
X118507331Y-79606245D01*
X118563876Y-79432219D01*
X118592500Y-79251491D01*
X118592500Y-79068509D01*
X118592500Y-79068505D01*
X118563877Y-78887785D01*
X118555056Y-78860636D01*
X118507331Y-78713755D01*
X118424259Y-78550717D01*
X118424257Y-78550713D01*
X118316710Y-78402687D01*
X118316708Y-78402685D01*
X118316706Y-78402682D01*
X118187318Y-78273294D01*
X118187314Y-78273291D01*
X118187312Y-78273289D01*
X118039286Y-78165742D01*
X118039282Y-78165740D01*
X117876245Y-78082669D01*
X117702214Y-78026122D01*
X117521494Y-77997500D01*
X117521491Y-77997500D01*
X117338509Y-77997500D01*
X117338506Y-77997500D01*
X117157785Y-78026122D01*
X116983754Y-78082669D01*
X116820717Y-78165740D01*
X116820713Y-78165742D01*
X116672687Y-78273289D01*
X116543289Y-78402687D01*
X116435742Y-78550713D01*
X116435740Y-78550717D01*
X116352669Y-78713754D01*
X116296122Y-78887785D01*
X116267500Y-79068505D01*
X112851439Y-79068505D01*
X115391438Y-76528505D01*
X116267500Y-76528505D01*
X116267500Y-76711494D01*
X116296122Y-76892214D01*
X116352669Y-77066245D01*
X116435740Y-77229282D01*
X116435742Y-77229286D01*
X116543289Y-77377312D01*
X116543291Y-77377314D01*
X116543294Y-77377318D01*
X116672682Y-77506706D01*
X116672685Y-77506708D01*
X116672687Y-77506710D01*
X116820713Y-77614257D01*
X116820717Y-77614259D01*
X116983755Y-77697331D01*
X117157781Y-77753876D01*
X117157782Y-77753876D01*
X117157785Y-77753877D01*
X117338506Y-77782500D01*
X117338509Y-77782500D01*
X117521494Y-77782500D01*
X117702214Y-77753877D01*
X117702215Y-77753876D01*
X117702219Y-77753876D01*
X117876245Y-77697331D01*
X118039283Y-77614259D01*
X118187318Y-77506706D01*
X118316706Y-77377318D01*
X118424259Y-77229283D01*
X118507331Y-77066245D01*
X118563876Y-76892219D01*
X118566308Y-76876863D01*
X118592500Y-76711494D01*
X118592500Y-76528505D01*
X118563877Y-76347785D01*
X118563876Y-76347781D01*
X118507331Y-76173755D01*
X118424259Y-76010717D01*
X118424257Y-76010713D01*
X118316710Y-75862687D01*
X118316708Y-75862685D01*
X118316706Y-75862682D01*
X118187318Y-75733294D01*
X118187314Y-75733291D01*
X118187312Y-75733289D01*
X118039286Y-75625742D01*
X118039282Y-75625740D01*
X117876245Y-75542669D01*
X117702214Y-75486122D01*
X117521494Y-75457500D01*
X117521491Y-75457500D01*
X117338509Y-75457500D01*
X117338506Y-75457500D01*
X117157785Y-75486122D01*
X116983754Y-75542669D01*
X116820717Y-75625740D01*
X116820713Y-75625742D01*
X116672687Y-75733289D01*
X116543289Y-75862687D01*
X116435742Y-76010713D01*
X116435740Y-76010717D01*
X116352669Y-76173754D01*
X116296122Y-76347785D01*
X116267500Y-76528505D01*
X115391438Y-76528505D01*
X116786398Y-75133545D01*
X116840913Y-75105770D01*
X116901344Y-75115340D01*
X116983755Y-75157331D01*
X117157781Y-75213876D01*
X117157782Y-75213876D01*
X117157785Y-75213877D01*
X117338506Y-75242500D01*
X117338509Y-75242500D01*
X117521494Y-75242500D01*
X117702214Y-75213877D01*
X117702215Y-75213876D01*
X117702219Y-75213876D01*
X117876245Y-75157331D01*
X118039283Y-75074259D01*
X118187318Y-74966706D01*
X118316706Y-74837318D01*
X118388408Y-74738628D01*
X118424257Y-74689286D01*
X118424259Y-74689283D01*
X118507331Y-74526245D01*
X118563876Y-74352219D01*
X118565798Y-74340083D01*
X118592500Y-74171494D01*
X118592500Y-73988505D01*
X118563877Y-73807785D01*
X118556474Y-73785000D01*
X118507331Y-73633755D01*
X118424259Y-73470717D01*
X118424257Y-73470713D01*
X118316710Y-73322687D01*
X118316708Y-73322685D01*
X118316706Y-73322682D01*
X118187318Y-73193294D01*
X118187314Y-73193291D01*
X118187312Y-73193289D01*
X118039286Y-73085742D01*
X118039282Y-73085740D01*
X117876245Y-73002669D01*
X117702214Y-72946122D01*
X117521494Y-72917500D01*
X117521491Y-72917500D01*
X117338509Y-72917500D01*
X117338506Y-72917500D01*
X117157785Y-72946122D01*
X116983754Y-73002669D01*
X116820717Y-73085740D01*
X116820713Y-73085742D01*
X116672687Y-73193289D01*
X116543289Y-73322687D01*
X116435742Y-73470713D01*
X116435740Y-73470717D01*
X116419451Y-73502687D01*
X116352669Y-73633755D01*
X116352668Y-73633757D01*
X116352668Y-73633758D01*
X116314948Y-73749845D01*
X116290798Y-73789255D01*
X101259550Y-88820504D01*
X101205033Y-88848281D01*
X101189546Y-88849500D01*
X87810454Y-88849500D01*
X87752263Y-88830593D01*
X87740450Y-88820504D01*
X86694203Y-87774257D01*
X85504257Y-86584311D01*
X89199500Y-86584311D01*
X89199500Y-87540688D01*
X89202401Y-87577565D01*
X89202401Y-87577568D01*
X89202402Y-87577569D01*
X89248256Y-87735398D01*
X89331919Y-87876865D01*
X89448135Y-87993081D01*
X89589602Y-88076744D01*
X89747431Y-88122598D01*
X89784306Y-88125500D01*
X89784311Y-88125500D01*
X91215689Y-88125500D01*
X91215694Y-88125500D01*
X91252569Y-88122598D01*
X91410398Y-88076744D01*
X91551865Y-87993081D01*
X91668081Y-87876865D01*
X91751744Y-87735398D01*
X91797598Y-87577569D01*
X91800500Y-87540694D01*
X91800500Y-87529500D01*
X91819407Y-87471309D01*
X91868907Y-87435345D01*
X91899500Y-87430500D01*
X93555244Y-87430500D01*
X93613435Y-87449407D01*
X93635337Y-87471310D01*
X93683289Y-87537312D01*
X93683291Y-87537314D01*
X93683294Y-87537318D01*
X93812682Y-87666706D01*
X93812685Y-87666708D01*
X93812687Y-87666710D01*
X93960713Y-87774257D01*
X93960717Y-87774259D01*
X94123755Y-87857331D01*
X94297781Y-87913876D01*
X94297782Y-87913876D01*
X94297785Y-87913877D01*
X94478506Y-87942500D01*
X94478509Y-87942500D01*
X94661494Y-87942500D01*
X94842214Y-87913877D01*
X94842215Y-87913876D01*
X94842219Y-87913876D01*
X95016245Y-87857331D01*
X95179283Y-87774259D01*
X95327318Y-87666706D01*
X95456706Y-87537318D01*
X95564259Y-87389283D01*
X95647331Y-87226245D01*
X95703876Y-87052219D01*
X95732500Y-86871491D01*
X95732500Y-86688509D01*
X95732500Y-86688505D01*
X95703877Y-86507785D01*
X95699632Y-86494720D01*
X95647331Y-86333755D01*
X95564259Y-86170717D01*
X95564257Y-86170713D01*
X95456710Y-86022687D01*
X95456708Y-86022685D01*
X95456706Y-86022682D01*
X95327318Y-85893294D01*
X95327314Y-85893291D01*
X95327312Y-85893289D01*
X95179286Y-85785742D01*
X95179282Y-85785740D01*
X95016241Y-85702667D01*
X95016238Y-85702665D01*
X94874044Y-85656463D01*
X94824544Y-85620499D01*
X94805637Y-85562308D01*
X94824545Y-85504118D01*
X94874045Y-85468154D01*
X95054438Y-85409541D01*
X95231434Y-85319357D01*
X95268715Y-85292270D01*
X94705940Y-84729495D01*
X94766081Y-84713381D01*
X94881920Y-84646502D01*
X94976502Y-84551920D01*
X95043381Y-84436081D01*
X95059495Y-84375940D01*
X95622270Y-84938715D01*
X95649357Y-84901434D01*
X95739540Y-84724440D01*
X95800926Y-84535514D01*
X95832000Y-84339325D01*
X95832000Y-84140674D01*
X95800926Y-83944485D01*
X95739540Y-83755559D01*
X95649359Y-83578568D01*
X95649357Y-83578564D01*
X95622270Y-83541283D01*
X95059495Y-84104057D01*
X95043381Y-84043919D01*
X94976502Y-83928080D01*
X94881920Y-83833498D01*
X94766081Y-83766619D01*
X94705938Y-83750504D01*
X95268714Y-83187729D01*
X95231425Y-83160637D01*
X95054440Y-83070459D01*
X94874044Y-83011845D01*
X94824544Y-82975881D01*
X94805637Y-82917690D01*
X94824544Y-82859499D01*
X94874043Y-82823535D01*
X95016245Y-82777331D01*
X95179283Y-82694259D01*
X95327318Y-82586706D01*
X95456706Y-82457318D01*
X95564259Y-82309283D01*
X95647331Y-82146245D01*
X95703876Y-81972219D01*
X95732500Y-81791491D01*
X95732500Y-81608509D01*
X95732500Y-81608505D01*
X95703877Y-81427785D01*
X95703876Y-81427781D01*
X95647331Y-81253755D01*
X95564259Y-81090717D01*
X95564257Y-81090713D01*
X95456710Y-80942687D01*
X95456708Y-80942685D01*
X95456706Y-80942682D01*
X95327318Y-80813294D01*
X95327314Y-80813291D01*
X95327312Y-80813289D01*
X95179286Y-80705742D01*
X95179282Y-80705740D01*
X95016245Y-80622669D01*
X94842214Y-80566122D01*
X94661494Y-80537500D01*
X94661491Y-80537500D01*
X94478509Y-80537500D01*
X94478506Y-80537500D01*
X94297785Y-80566122D01*
X94123754Y-80622669D01*
X93960717Y-80705740D01*
X93960713Y-80705742D01*
X93812687Y-80813289D01*
X93683289Y-80942687D01*
X93575742Y-81090713D01*
X93575740Y-81090717D01*
X93492669Y-81253754D01*
X93436122Y-81427785D01*
X93407500Y-81608505D01*
X93407500Y-81791494D01*
X93436122Y-81972214D01*
X93492669Y-82146245D01*
X93575740Y-82309282D01*
X93575742Y-82309286D01*
X93683289Y-82457312D01*
X93683291Y-82457314D01*
X93683294Y-82457318D01*
X93812682Y-82586706D01*
X93812685Y-82586708D01*
X93812687Y-82586710D01*
X93960713Y-82694257D01*
X93960717Y-82694259D01*
X94123755Y-82777331D01*
X94123757Y-82777331D01*
X94123758Y-82777332D01*
X94123761Y-82777334D01*
X94265955Y-82823536D01*
X94315455Y-82859500D01*
X94334362Y-82917690D01*
X94315454Y-82975881D01*
X94265955Y-83011845D01*
X94085559Y-83070459D01*
X93908567Y-83160641D01*
X93871283Y-83187728D01*
X94434059Y-83750504D01*
X94373919Y-83766619D01*
X94258080Y-83833498D01*
X94163498Y-83928080D01*
X94096619Y-84043919D01*
X94080504Y-84104059D01*
X93517728Y-83541283D01*
X93490641Y-83578567D01*
X93400459Y-83755559D01*
X93339073Y-83944485D01*
X93308000Y-84140674D01*
X93308000Y-84339325D01*
X93339073Y-84535514D01*
X93400459Y-84724440D01*
X93490637Y-84901425D01*
X93517729Y-84938714D01*
X94080504Y-84375938D01*
X94096619Y-84436081D01*
X94163498Y-84551920D01*
X94258080Y-84646502D01*
X94373919Y-84713381D01*
X94434057Y-84729495D01*
X93871283Y-85292270D01*
X93908564Y-85319357D01*
X93908568Y-85319359D01*
X94085561Y-85409541D01*
X94265954Y-85468154D01*
X94315454Y-85504118D01*
X94334362Y-85562309D01*
X94315455Y-85620499D01*
X94265956Y-85656463D01*
X94123758Y-85702667D01*
X93960717Y-85785740D01*
X93960713Y-85785742D01*
X93812687Y-85893289D01*
X93683289Y-86022687D01*
X93635337Y-86088690D01*
X93585838Y-86124654D01*
X93555244Y-86129500D01*
X91574859Y-86129500D01*
X91524464Y-86115714D01*
X91523852Y-86115352D01*
X91410398Y-86048256D01*
X91252569Y-86002402D01*
X91252568Y-86002401D01*
X91252565Y-86002401D01*
X91229140Y-86000558D01*
X91215694Y-85999500D01*
X89784306Y-85999500D01*
X89771773Y-86000486D01*
X89747434Y-86002401D01*
X89747427Y-86002403D01*
X89589602Y-86048256D01*
X89448136Y-86131918D01*
X89331918Y-86248136D01*
X89248256Y-86389602D01*
X89202403Y-86547427D01*
X89202401Y-86547434D01*
X89199500Y-86584311D01*
X85504257Y-86584311D01*
X85414669Y-86494723D01*
X85308127Y-86423535D01*
X85308128Y-86423535D01*
X85308126Y-86423534D01*
X85189747Y-86374500D01*
X85189745Y-86374499D01*
X85189744Y-86374499D01*
X85122332Y-86361089D01*
X85080660Y-86352800D01*
X85027276Y-86322903D01*
X85001661Y-86267337D01*
X85000975Y-86255719D01*
X85000881Y-84187501D01*
X89100001Y-84187501D01*
X89100001Y-84399986D01*
X89110492Y-84502687D01*
X89110495Y-84502699D01*
X89165643Y-84669124D01*
X89257680Y-84818340D01*
X89381659Y-84942319D01*
X89530875Y-85034356D01*
X89697306Y-85089506D01*
X89800012Y-85099999D01*
X90249998Y-85099999D01*
X90250000Y-85099998D01*
X90250000Y-84187501D01*
X90750000Y-84187501D01*
X90750000Y-85099998D01*
X90750001Y-85099999D01*
X91199986Y-85099999D01*
X91302687Y-85089507D01*
X91302699Y-85089504D01*
X91469124Y-85034356D01*
X91618340Y-84942319D01*
X91742319Y-84818340D01*
X91834356Y-84669124D01*
X91889506Y-84502693D01*
X91900000Y-84399987D01*
X91900000Y-84187501D01*
X91899999Y-84187500D01*
X90750001Y-84187500D01*
X90750000Y-84187501D01*
X90250000Y-84187501D01*
X90249999Y-84187500D01*
X89100002Y-84187500D01*
X89100001Y-84187501D01*
X85000881Y-84187501D01*
X85000848Y-83475012D01*
X89100000Y-83475012D01*
X89100000Y-83687499D01*
X89100001Y-83687500D01*
X91899998Y-83687500D01*
X91899999Y-83687499D01*
X91899999Y-83475013D01*
X91889507Y-83372312D01*
X91889504Y-83372300D01*
X91834356Y-83205875D01*
X91742319Y-83056659D01*
X91621360Y-82935700D01*
X91593583Y-82881183D01*
X91603154Y-82820751D01*
X91639392Y-82781435D01*
X91743340Y-82717319D01*
X91867319Y-82593340D01*
X91959356Y-82444124D01*
X92014506Y-82277693D01*
X92025000Y-82174987D01*
X92025000Y-81750001D01*
X92024999Y-81750000D01*
X89900002Y-81750000D01*
X89900001Y-81750001D01*
X89900001Y-82174986D01*
X89910492Y-82277687D01*
X89910495Y-82277699D01*
X89965643Y-82444124D01*
X90057680Y-82593340D01*
X90070336Y-82605996D01*
X90098113Y-82660513D01*
X90088542Y-82720945D01*
X90045277Y-82764210D01*
X90000332Y-82775000D01*
X89800013Y-82775000D01*
X89697312Y-82785492D01*
X89697300Y-82785495D01*
X89530875Y-82840643D01*
X89381659Y-82932680D01*
X89257680Y-83056659D01*
X89165643Y-83205875D01*
X89110493Y-83372306D01*
X89100000Y-83475012D01*
X85000848Y-83475012D01*
X85000588Y-77809306D01*
X87074500Y-77809306D01*
X87074500Y-79190694D01*
X87075683Y-79205732D01*
X87077401Y-79227565D01*
X87077401Y-79227568D01*
X87077402Y-79227569D01*
X87123256Y-79385398D01*
X87206919Y-79526865D01*
X87323135Y-79643081D01*
X87323137Y-79643082D01*
X87338394Y-79652105D01*
X87378857Y-79698001D01*
X87387000Y-79737319D01*
X87387000Y-80262680D01*
X87368093Y-80320871D01*
X87338396Y-80347893D01*
X87323138Y-80356916D01*
X87206918Y-80473136D01*
X87123256Y-80614602D01*
X87077403Y-80772427D01*
X87077401Y-80772434D01*
X87074500Y-80809311D01*
X87074500Y-82190688D01*
X87077401Y-82227565D01*
X87077401Y-82227568D01*
X87077402Y-82227569D01*
X87123256Y-82385398D01*
X87206919Y-82526865D01*
X87323135Y-82643081D01*
X87464602Y-82726744D01*
X87622431Y-82772598D01*
X87659306Y-82775500D01*
X87659311Y-82775500D01*
X88415689Y-82775500D01*
X88415694Y-82775500D01*
X88452569Y-82772598D01*
X88610398Y-82726744D01*
X88751865Y-82643081D01*
X88868081Y-82526865D01*
X88951744Y-82385398D01*
X88997598Y-82227569D01*
X89000500Y-82190694D01*
X89000500Y-80825012D01*
X89900000Y-80825012D01*
X89900000Y-81249999D01*
X89900001Y-81250000D01*
X90712499Y-81250000D01*
X90712500Y-81249999D01*
X90712500Y-80125001D01*
X91212500Y-80125001D01*
X91212500Y-81249999D01*
X91212501Y-81250000D01*
X92024998Y-81250000D01*
X92024999Y-81249999D01*
X92024999Y-80825013D01*
X92014507Y-80722312D01*
X92014504Y-80722300D01*
X91959356Y-80555875D01*
X91867319Y-80406659D01*
X91743340Y-80282680D01*
X91594124Y-80190643D01*
X91427693Y-80135493D01*
X91324987Y-80125000D01*
X91212501Y-80125000D01*
X91212500Y-80125001D01*
X90712500Y-80125001D01*
X90712499Y-80125000D01*
X90600013Y-80125000D01*
X90600013Y-80125001D01*
X90497312Y-80135492D01*
X90497300Y-80135495D01*
X90330875Y-80190643D01*
X90181659Y-80282680D01*
X90057680Y-80406659D01*
X89965643Y-80555875D01*
X89910493Y-80722306D01*
X89900000Y-80825012D01*
X89000500Y-80825012D01*
X89000500Y-80809306D01*
X88997598Y-80772431D01*
X88951744Y-80614602D01*
X88868081Y-80473135D01*
X88751865Y-80356919D01*
X88751862Y-80356917D01*
X88751861Y-80356916D01*
X88736604Y-80347893D01*
X88696142Y-80301997D01*
X88688000Y-80262680D01*
X88688000Y-79737319D01*
X88706907Y-79679128D01*
X88736606Y-79652105D01*
X88736785Y-79651998D01*
X88751865Y-79643081D01*
X88868081Y-79526865D01*
X88951744Y-79385398D01*
X88997598Y-79227569D01*
X89000500Y-79190694D01*
X89000500Y-77809306D01*
X89999500Y-77809306D01*
X89999500Y-79190694D01*
X90000683Y-79205732D01*
X90002401Y-79227565D01*
X90002401Y-79227568D01*
X90002402Y-79227569D01*
X90048256Y-79385398D01*
X90131919Y-79526865D01*
X90248135Y-79643081D01*
X90389602Y-79726744D01*
X90547431Y-79772598D01*
X90584306Y-79775500D01*
X90584311Y-79775500D01*
X91340689Y-79775500D01*
X91340694Y-79775500D01*
X91377569Y-79772598D01*
X91535398Y-79726744D01*
X91676865Y-79643081D01*
X91793081Y-79526865D01*
X91876744Y-79385398D01*
X91922598Y-79227569D01*
X91925500Y-79190694D01*
X91925500Y-79068505D01*
X93407500Y-79068505D01*
X93407500Y-79251494D01*
X93436122Y-79432214D01*
X93492669Y-79606245D01*
X93575740Y-79769282D01*
X93575742Y-79769286D01*
X93683289Y-79917312D01*
X93683291Y-79917314D01*
X93683294Y-79917318D01*
X93812682Y-80046706D01*
X93812685Y-80046708D01*
X93812687Y-80046710D01*
X93960713Y-80154257D01*
X93960717Y-80154259D01*
X94123755Y-80237331D01*
X94297781Y-80293876D01*
X94297782Y-80293876D01*
X94297785Y-80293877D01*
X94478506Y-80322500D01*
X94478509Y-80322500D01*
X94661494Y-80322500D01*
X94842214Y-80293877D01*
X94842215Y-80293876D01*
X94842219Y-80293876D01*
X95016245Y-80237331D01*
X95179283Y-80154259D01*
X95327318Y-80046706D01*
X95456706Y-79917318D01*
X95564259Y-79769283D01*
X95647331Y-79606245D01*
X95703876Y-79432219D01*
X95732500Y-79251491D01*
X95732500Y-79068509D01*
X95732500Y-79068505D01*
X95703877Y-78887785D01*
X95695056Y-78860636D01*
X95647331Y-78713755D01*
X95564259Y-78550717D01*
X95564257Y-78550713D01*
X95456710Y-78402687D01*
X95456708Y-78402685D01*
X95456706Y-78402682D01*
X95327318Y-78273294D01*
X95327314Y-78273291D01*
X95327312Y-78273289D01*
X95179286Y-78165742D01*
X95179282Y-78165740D01*
X95016245Y-78082669D01*
X94842214Y-78026122D01*
X94661494Y-77997500D01*
X94661491Y-77997500D01*
X94478509Y-77997500D01*
X94478506Y-77997500D01*
X94297785Y-78026122D01*
X94123754Y-78082669D01*
X93960717Y-78165740D01*
X93960713Y-78165742D01*
X93812687Y-78273289D01*
X93683289Y-78402687D01*
X93575742Y-78550713D01*
X93575740Y-78550717D01*
X93492669Y-78713754D01*
X93436122Y-78887785D01*
X93407500Y-79068505D01*
X91925500Y-79068505D01*
X91925500Y-78497954D01*
X91944407Y-78439763D01*
X91954496Y-78427950D01*
X93082950Y-77299496D01*
X93137467Y-77271719D01*
X93152954Y-77270500D01*
X93555244Y-77270500D01*
X93613435Y-77289407D01*
X93635337Y-77311310D01*
X93683289Y-77377312D01*
X93683291Y-77377314D01*
X93683294Y-77377318D01*
X93812682Y-77506706D01*
X93812685Y-77506708D01*
X93812687Y-77506710D01*
X93960713Y-77614257D01*
X93960717Y-77614259D01*
X94123755Y-77697331D01*
X94297781Y-77753876D01*
X94297782Y-77753876D01*
X94297785Y-77753877D01*
X94478506Y-77782500D01*
X94478509Y-77782500D01*
X94661494Y-77782500D01*
X94842214Y-77753877D01*
X94842215Y-77753876D01*
X94842219Y-77753876D01*
X95016245Y-77697331D01*
X95179283Y-77614259D01*
X95327318Y-77506706D01*
X95456706Y-77377318D01*
X95564259Y-77229283D01*
X95647331Y-77066245D01*
X95703876Y-76892219D01*
X95706308Y-76876863D01*
X95732500Y-76711494D01*
X95732500Y-76528505D01*
X95703877Y-76347785D01*
X95703876Y-76347781D01*
X95647331Y-76173755D01*
X95564259Y-76010717D01*
X95564257Y-76010713D01*
X95456710Y-75862687D01*
X95456708Y-75862685D01*
X95456706Y-75862682D01*
X95327318Y-75733294D01*
X95327314Y-75733291D01*
X95327312Y-75733289D01*
X95179286Y-75625742D01*
X95179282Y-75625740D01*
X95016241Y-75542667D01*
X95016238Y-75542665D01*
X94874044Y-75496463D01*
X94824544Y-75460499D01*
X94805637Y-75402308D01*
X94824545Y-75344118D01*
X94874045Y-75308154D01*
X95054438Y-75249541D01*
X95231434Y-75159357D01*
X95268715Y-75132270D01*
X94705940Y-74569495D01*
X94766081Y-74553381D01*
X94881920Y-74486502D01*
X94976502Y-74391920D01*
X95043381Y-74276081D01*
X95059495Y-74215940D01*
X95622270Y-74778715D01*
X95649357Y-74741434D01*
X95739540Y-74564440D01*
X95800926Y-74375514D01*
X95832000Y-74179325D01*
X95832000Y-73980674D01*
X95800926Y-73784485D01*
X95739540Y-73595559D01*
X95649359Y-73418568D01*
X95649357Y-73418564D01*
X95622270Y-73381283D01*
X95059495Y-73944057D01*
X95043381Y-73883919D01*
X94976502Y-73768080D01*
X94881920Y-73673498D01*
X94766081Y-73606619D01*
X94705938Y-73590504D01*
X95268714Y-73027729D01*
X95231425Y-73000637D01*
X95054440Y-72910459D01*
X94874044Y-72851845D01*
X94824544Y-72815881D01*
X94805637Y-72757690D01*
X94824544Y-72699499D01*
X94874043Y-72663535D01*
X95016245Y-72617331D01*
X95179283Y-72534259D01*
X95198893Y-72520012D01*
X95285696Y-72456946D01*
X95327318Y-72426706D01*
X95456706Y-72297318D01*
X95564259Y-72149283D01*
X95647331Y-71986245D01*
X95703876Y-71812219D01*
X95704337Y-71809311D01*
X95732500Y-71631494D01*
X95732500Y-71448505D01*
X95703877Y-71267785D01*
X95703876Y-71267781D01*
X95647331Y-71093755D01*
X95564259Y-70930717D01*
X95564257Y-70930713D01*
X95456710Y-70782687D01*
X95456708Y-70782685D01*
X95456706Y-70782682D01*
X95327318Y-70653294D01*
X95327314Y-70653291D01*
X95327312Y-70653289D01*
X95179286Y-70545742D01*
X95179282Y-70545740D01*
X95016245Y-70462669D01*
X94842214Y-70406122D01*
X94661494Y-70377500D01*
X94661491Y-70377500D01*
X94478509Y-70377500D01*
X94478506Y-70377500D01*
X94297785Y-70406122D01*
X94123754Y-70462669D01*
X93960717Y-70545740D01*
X93960713Y-70545742D01*
X93812687Y-70653289D01*
X93683289Y-70782687D01*
X93575742Y-70930713D01*
X93575740Y-70930717D01*
X93492669Y-71093754D01*
X93436122Y-71267785D01*
X93407500Y-71448505D01*
X93407500Y-71631494D01*
X93436122Y-71812214D01*
X93492669Y-71986245D01*
X93575740Y-72149282D01*
X93575742Y-72149286D01*
X93683289Y-72297312D01*
X93683291Y-72297314D01*
X93683294Y-72297318D01*
X93812682Y-72426706D01*
X93812685Y-72426708D01*
X93812687Y-72426710D01*
X93960713Y-72534257D01*
X93960717Y-72534259D01*
X94123755Y-72617331D01*
X94123757Y-72617331D01*
X94123758Y-72617332D01*
X94123761Y-72617334D01*
X94265955Y-72663536D01*
X94315455Y-72699500D01*
X94334362Y-72757690D01*
X94315454Y-72815881D01*
X94265955Y-72851845D01*
X94085559Y-72910459D01*
X93908567Y-73000641D01*
X93871283Y-73027728D01*
X94434059Y-73590504D01*
X94373919Y-73606619D01*
X94258080Y-73673498D01*
X94163498Y-73768080D01*
X94096619Y-73883919D01*
X94080504Y-73944059D01*
X93517728Y-73381283D01*
X93490641Y-73418567D01*
X93400459Y-73595559D01*
X93339073Y-73784485D01*
X93308000Y-73980674D01*
X93308000Y-74179325D01*
X93339073Y-74375514D01*
X93400459Y-74564440D01*
X93490637Y-74741425D01*
X93517729Y-74778714D01*
X94080504Y-74215938D01*
X94096619Y-74276081D01*
X94163498Y-74391920D01*
X94258080Y-74486502D01*
X94373919Y-74553381D01*
X94434057Y-74569495D01*
X93871283Y-75132270D01*
X93908564Y-75159357D01*
X93908568Y-75159359D01*
X94085561Y-75249541D01*
X94265954Y-75308154D01*
X94315454Y-75344118D01*
X94334362Y-75402309D01*
X94315455Y-75460499D01*
X94265956Y-75496463D01*
X94123758Y-75542667D01*
X93960717Y-75625740D01*
X93960713Y-75625742D01*
X93812687Y-75733289D01*
X93683289Y-75862687D01*
X93635337Y-75928690D01*
X93585838Y-75964654D01*
X93555244Y-75969500D01*
X92778430Y-75969500D01*
X92715593Y-75981999D01*
X92652756Y-75994499D01*
X92652755Y-75994499D01*
X92652752Y-75994500D01*
X92534373Y-76043534D01*
X92427833Y-76114721D01*
X91347050Y-77195504D01*
X91292533Y-77223281D01*
X91277046Y-77224500D01*
X90584306Y-77224500D01*
X90571773Y-77225486D01*
X90547434Y-77227401D01*
X90547427Y-77227403D01*
X90389602Y-77273256D01*
X90248136Y-77356918D01*
X90131918Y-77473136D01*
X90048256Y-77614602D01*
X90002403Y-77772427D01*
X90002401Y-77772434D01*
X90001589Y-77782756D01*
X89999500Y-77809306D01*
X89000500Y-77809306D01*
X88997598Y-77772431D01*
X88951744Y-77614602D01*
X88868081Y-77473135D01*
X88751865Y-77356919D01*
X88751862Y-77356917D01*
X88751861Y-77356916D01*
X88743061Y-77351712D01*
X88702598Y-77305817D01*
X88696839Y-77244904D01*
X88723449Y-77196496D01*
X91752922Y-74167022D01*
X91807437Y-74139247D01*
X91838409Y-74139247D01*
X91886599Y-74146880D01*
X91909452Y-74150500D01*
X91909454Y-74150500D01*
X92090549Y-74150500D01*
X92179977Y-74136335D01*
X92269409Y-74122171D01*
X92441639Y-74066211D01*
X92602994Y-73983996D01*
X92749501Y-73877553D01*
X92877553Y-73749501D01*
X92983996Y-73602994D01*
X93066211Y-73441639D01*
X93122171Y-73269409D01*
X93141004Y-73150500D01*
X93150500Y-73090549D01*
X93150500Y-72909450D01*
X93122171Y-72730593D01*
X93122171Y-72730591D01*
X93066211Y-72558361D01*
X92983996Y-72397006D01*
X92877553Y-72250499D01*
X92749501Y-72122447D01*
X92602994Y-72016004D01*
X92602993Y-72016003D01*
X92602991Y-72016002D01*
X92441637Y-71933788D01*
X92269406Y-71877828D01*
X92090549Y-71849500D01*
X92090546Y-71849500D01*
X91909454Y-71849500D01*
X91909451Y-71849500D01*
X91730593Y-71877828D01*
X91558362Y-71933788D01*
X91397008Y-72016002D01*
X91341049Y-72056659D01*
X91250499Y-72122447D01*
X91122447Y-72250499D01*
X91072837Y-72318782D01*
X91016002Y-72397008D01*
X90933788Y-72558362D01*
X90877828Y-72730593D01*
X90849500Y-72909450D01*
X90849500Y-73090549D01*
X90860751Y-73161587D01*
X90851179Y-73222019D01*
X90832974Y-73247078D01*
X87532220Y-76547834D01*
X87461034Y-76654373D01*
X87412000Y-76772752D01*
X87411999Y-76772757D01*
X87387000Y-76898430D01*
X87387000Y-77262680D01*
X87368093Y-77320871D01*
X87338396Y-77347893D01*
X87323138Y-77356916D01*
X87206918Y-77473136D01*
X87123256Y-77614602D01*
X87077403Y-77772427D01*
X87077401Y-77772434D01*
X87076589Y-77782756D01*
X87074500Y-77809306D01*
X85000588Y-77809306D01*
X85000377Y-73207969D01*
X85464500Y-73207969D01*
X85464500Y-73452030D01*
X85502677Y-73693071D01*
X85578096Y-73925185D01*
X85688892Y-74142637D01*
X85767348Y-74250623D01*
X85832345Y-74340083D01*
X86004917Y-74512655D01*
X86108621Y-74588000D01*
X86202362Y-74656107D01*
X86279019Y-74695165D01*
X86419815Y-74766904D01*
X86651924Y-74842321D01*
X86651925Y-74842321D01*
X86651928Y-74842322D01*
X86892970Y-74880500D01*
X86892973Y-74880500D01*
X87137030Y-74880500D01*
X87378071Y-74842322D01*
X87378072Y-74842321D01*
X87378076Y-74842321D01*
X87610185Y-74766904D01*
X87827639Y-74656106D01*
X88025083Y-74512655D01*
X88197655Y-74340083D01*
X88341106Y-74142639D01*
X88451904Y-73925185D01*
X88527321Y-73693076D01*
X88541589Y-73602994D01*
X88565500Y-73452030D01*
X88565500Y-73207969D01*
X88527322Y-72966928D01*
X88525181Y-72960339D01*
X88451904Y-72734815D01*
X88361997Y-72558362D01*
X88341107Y-72517362D01*
X88284727Y-72439762D01*
X88197655Y-72319917D01*
X88025083Y-72147345D01*
X87900264Y-72056659D01*
X87827637Y-72003892D01*
X87610185Y-71893096D01*
X87378071Y-71817677D01*
X87137030Y-71779500D01*
X87137027Y-71779500D01*
X86892973Y-71779500D01*
X86892970Y-71779500D01*
X86651928Y-71817677D01*
X86419814Y-71893096D01*
X86202362Y-72003892D01*
X86004918Y-72147344D01*
X85832344Y-72319918D01*
X85688892Y-72517362D01*
X85578096Y-72734814D01*
X85502677Y-72966928D01*
X85464500Y-73207969D01*
X85000377Y-73207969D01*
X85000180Y-68908505D01*
X93407500Y-68908505D01*
X93407500Y-69091494D01*
X93436122Y-69272214D01*
X93492669Y-69446245D01*
X93575740Y-69609282D01*
X93575742Y-69609286D01*
X93683289Y-69757312D01*
X93683291Y-69757314D01*
X93683294Y-69757318D01*
X93812682Y-69886706D01*
X93812685Y-69886708D01*
X93812687Y-69886710D01*
X93960713Y-69994257D01*
X93960717Y-69994259D01*
X94123755Y-70077331D01*
X94297781Y-70133876D01*
X94297782Y-70133876D01*
X94297785Y-70133877D01*
X94478506Y-70162500D01*
X94478509Y-70162500D01*
X94661494Y-70162500D01*
X94842214Y-70133877D01*
X94842215Y-70133876D01*
X94842219Y-70133876D01*
X95016245Y-70077331D01*
X95179283Y-69994259D01*
X95327318Y-69886706D01*
X95456706Y-69757318D01*
X95564259Y-69609283D01*
X95647331Y-69446245D01*
X95703876Y-69272219D01*
X95704315Y-69269446D01*
X95732500Y-69091494D01*
X95732500Y-68908505D01*
X95703877Y-68727785D01*
X95703753Y-68727402D01*
X95647331Y-68553755D01*
X95564259Y-68390717D01*
X95564257Y-68390713D01*
X95456710Y-68242687D01*
X95456708Y-68242685D01*
X95456706Y-68242682D01*
X95327318Y-68113294D01*
X95327314Y-68113291D01*
X95327312Y-68113289D01*
X95179286Y-68005742D01*
X95179282Y-68005740D01*
X95016245Y-67922669D01*
X94842214Y-67866122D01*
X94661494Y-67837500D01*
X94661491Y-67837500D01*
X94478509Y-67837500D01*
X94478506Y-67837500D01*
X94297785Y-67866122D01*
X94123754Y-67922669D01*
X93960717Y-68005740D01*
X93960713Y-68005742D01*
X93812687Y-68113289D01*
X93683289Y-68242687D01*
X93575742Y-68390713D01*
X93575740Y-68390717D01*
X93492669Y-68553754D01*
X93436122Y-68727785D01*
X93407500Y-68908505D01*
X85000180Y-68908505D01*
X85000063Y-66368505D01*
X93407500Y-66368505D01*
X93407500Y-66551494D01*
X93436122Y-66732214D01*
X93492669Y-66906245D01*
X93575740Y-67069282D01*
X93575742Y-67069286D01*
X93683289Y-67217312D01*
X93683291Y-67217314D01*
X93683294Y-67217318D01*
X93812682Y-67346706D01*
X93812685Y-67346708D01*
X93812687Y-67346710D01*
X93960713Y-67454257D01*
X93960717Y-67454259D01*
X94123755Y-67537331D01*
X94297781Y-67593876D01*
X94297782Y-67593876D01*
X94297785Y-67593877D01*
X94478506Y-67622500D01*
X94478509Y-67622500D01*
X94661494Y-67622500D01*
X94842214Y-67593877D01*
X94842215Y-67593876D01*
X94842219Y-67593876D01*
X95016245Y-67537331D01*
X95179283Y-67454259D01*
X95327318Y-67346706D01*
X95456706Y-67217318D01*
X95528408Y-67118628D01*
X95564257Y-67069286D01*
X95564259Y-67069283D01*
X95647331Y-66906245D01*
X95703876Y-66732219D01*
X95715935Y-66656081D01*
X95732500Y-66551494D01*
X95732500Y-66368505D01*
X95703877Y-66187785D01*
X95703876Y-66187781D01*
X95647331Y-66013755D01*
X95564259Y-65850717D01*
X95564257Y-65850713D01*
X95456710Y-65702687D01*
X95456708Y-65702685D01*
X95456706Y-65702682D01*
X95327318Y-65573294D01*
X95327314Y-65573291D01*
X95327312Y-65573289D01*
X95179286Y-65465742D01*
X95179282Y-65465740D01*
X95016245Y-65382669D01*
X94842214Y-65326122D01*
X94661494Y-65297500D01*
X94661491Y-65297500D01*
X94478509Y-65297500D01*
X94478506Y-65297500D01*
X94297785Y-65326122D01*
X94123754Y-65382669D01*
X93960717Y-65465740D01*
X93960713Y-65465742D01*
X93812687Y-65573289D01*
X93683289Y-65702687D01*
X93575742Y-65850713D01*
X93575740Y-65850717D01*
X93492669Y-66013754D01*
X93436122Y-66187785D01*
X93407500Y-66368505D01*
X85000063Y-66368505D01*
X84999947Y-63828505D01*
X93407500Y-63828505D01*
X93407500Y-64011494D01*
X93436122Y-64192214D01*
X93492669Y-64366245D01*
X93575740Y-64529282D01*
X93575742Y-64529286D01*
X93683289Y-64677312D01*
X93683291Y-64677314D01*
X93683294Y-64677318D01*
X93812682Y-64806706D01*
X93812685Y-64806708D01*
X93812687Y-64806710D01*
X93960713Y-64914257D01*
X93960717Y-64914259D01*
X94123755Y-64997331D01*
X94297781Y-65053876D01*
X94297782Y-65053876D01*
X94297785Y-65053877D01*
X94478506Y-65082500D01*
X94478509Y-65082500D01*
X94661494Y-65082500D01*
X94842214Y-65053877D01*
X94842215Y-65053876D01*
X94842219Y-65053876D01*
X95016245Y-64997331D01*
X95179283Y-64914259D01*
X95327318Y-64806706D01*
X95456706Y-64677318D01*
X95564259Y-64529283D01*
X95647331Y-64366245D01*
X95703876Y-64192219D01*
X95714443Y-64125500D01*
X95732500Y-64011494D01*
X95732500Y-63828505D01*
X95703877Y-63647785D01*
X95695868Y-63623135D01*
X95647331Y-63473755D01*
X95564259Y-63310717D01*
X95564257Y-63310713D01*
X95456710Y-63162687D01*
X95456708Y-63162685D01*
X95456706Y-63162682D01*
X95327318Y-63033294D01*
X95327314Y-63033291D01*
X95327312Y-63033289D01*
X95179286Y-62925742D01*
X95179282Y-62925740D01*
X95016245Y-62842669D01*
X94842214Y-62786122D01*
X94661494Y-62757500D01*
X94661491Y-62757500D01*
X94478509Y-62757500D01*
X94478506Y-62757500D01*
X94297785Y-62786122D01*
X94123754Y-62842669D01*
X93960717Y-62925740D01*
X93960713Y-62925742D01*
X93812687Y-63033289D01*
X93683289Y-63162687D01*
X93575742Y-63310713D01*
X93575740Y-63310717D01*
X93492669Y-63473754D01*
X93436122Y-63647785D01*
X93407500Y-63828505D01*
X84999947Y-63828505D01*
X84999830Y-61288505D01*
X93407500Y-61288505D01*
X93407500Y-61471494D01*
X93436122Y-61652214D01*
X93492669Y-61826245D01*
X93575740Y-61989282D01*
X93575742Y-61989286D01*
X93683289Y-62137312D01*
X93683291Y-62137314D01*
X93683294Y-62137318D01*
X93812682Y-62266706D01*
X93812685Y-62266708D01*
X93812687Y-62266710D01*
X93960713Y-62374257D01*
X93960717Y-62374259D01*
X94123755Y-62457331D01*
X94297781Y-62513876D01*
X94297782Y-62513876D01*
X94297785Y-62513877D01*
X94478506Y-62542500D01*
X94478509Y-62542500D01*
X94661494Y-62542500D01*
X94842214Y-62513877D01*
X94842215Y-62513876D01*
X94842219Y-62513876D01*
X95016245Y-62457331D01*
X95179283Y-62374259D01*
X95327318Y-62266706D01*
X95456706Y-62137318D01*
X95564259Y-61989283D01*
X95647331Y-61826245D01*
X95703876Y-61652219D01*
X95703877Y-61652214D01*
X95732500Y-61471494D01*
X95732500Y-61288505D01*
X95703877Y-61107785D01*
X95686737Y-61055033D01*
X95647331Y-60933755D01*
X95564259Y-60770717D01*
X95564257Y-60770713D01*
X95456710Y-60622687D01*
X95456708Y-60622685D01*
X95456706Y-60622682D01*
X95327318Y-60493294D01*
X95327314Y-60493291D01*
X95327312Y-60493289D01*
X95179286Y-60385742D01*
X95179282Y-60385740D01*
X95016245Y-60302669D01*
X94842214Y-60246122D01*
X94661494Y-60217500D01*
X94661491Y-60217500D01*
X94478509Y-60217500D01*
X94478506Y-60217500D01*
X94297785Y-60246122D01*
X94123754Y-60302669D01*
X93960717Y-60385740D01*
X93960713Y-60385742D01*
X93812687Y-60493289D01*
X93683289Y-60622687D01*
X93575742Y-60770713D01*
X93575740Y-60770717D01*
X93492669Y-60933754D01*
X93436122Y-61107785D01*
X93407500Y-61288505D01*
X84999830Y-61288505D01*
X84999714Y-58748505D01*
X93407500Y-58748505D01*
X93407500Y-58931494D01*
X93436122Y-59112214D01*
X93492669Y-59286245D01*
X93575740Y-59449282D01*
X93575742Y-59449286D01*
X93683289Y-59597312D01*
X93683291Y-59597314D01*
X93683294Y-59597318D01*
X93812682Y-59726706D01*
X93812685Y-59726708D01*
X93812687Y-59726710D01*
X93960713Y-59834257D01*
X93960717Y-59834259D01*
X94123755Y-59917331D01*
X94297781Y-59973876D01*
X94297782Y-59973876D01*
X94297785Y-59973877D01*
X94478506Y-60002500D01*
X94478509Y-60002500D01*
X94661494Y-60002500D01*
X94842214Y-59973877D01*
X94842215Y-59973876D01*
X94842219Y-59973876D01*
X95016245Y-59917331D01*
X95179283Y-59834259D01*
X95327318Y-59726706D01*
X95456706Y-59597318D01*
X95546930Y-59473135D01*
X95564257Y-59449286D01*
X95564259Y-59449283D01*
X95647331Y-59286245D01*
X95703876Y-59112219D01*
X95730893Y-58941639D01*
X95732500Y-58931494D01*
X95732500Y-58748505D01*
X95703877Y-58567785D01*
X95703876Y-58567781D01*
X95647331Y-58393755D01*
X95564259Y-58230717D01*
X95564257Y-58230713D01*
X95456710Y-58082687D01*
X95456708Y-58082685D01*
X95456706Y-58082682D01*
X95327318Y-57953294D01*
X95327314Y-57953291D01*
X95327312Y-57953289D01*
X95179286Y-57845742D01*
X95179282Y-57845740D01*
X95016245Y-57762669D01*
X94842214Y-57706122D01*
X94661494Y-57677500D01*
X94661491Y-57677500D01*
X94478509Y-57677500D01*
X94478506Y-57677500D01*
X94297785Y-57706122D01*
X94123754Y-57762669D01*
X93960717Y-57845740D01*
X93960713Y-57845742D01*
X93812687Y-57953289D01*
X93683289Y-58082687D01*
X93575742Y-58230713D01*
X93575740Y-58230717D01*
X93492669Y-58393754D01*
X93436122Y-58567785D01*
X93407500Y-58748505D01*
X84999714Y-58748505D01*
X84999562Y-55420138D01*
X85365000Y-55420138D01*
X85365000Y-55679861D01*
X85405628Y-55936373D01*
X85485882Y-56183373D01*
X85603793Y-56414787D01*
X85603795Y-56414791D01*
X85684951Y-56526493D01*
X86635000Y-55576444D01*
X86635000Y-55600028D01*
X86660896Y-55696675D01*
X86710924Y-55783325D01*
X86781675Y-55854076D01*
X86868325Y-55904104D01*
X86964972Y-55930000D01*
X86988552Y-55930000D01*
X86038505Y-56880047D01*
X86150208Y-56961204D01*
X86150212Y-56961206D01*
X86381626Y-57079117D01*
X86628626Y-57159371D01*
X86885139Y-57200000D01*
X87144861Y-57200000D01*
X87401373Y-57159371D01*
X87648373Y-57079117D01*
X87879785Y-56961207D01*
X87991492Y-56880046D01*
X87041446Y-55930000D01*
X87065028Y-55930000D01*
X87161675Y-55904104D01*
X87248325Y-55854076D01*
X87319076Y-55783325D01*
X87369104Y-55696675D01*
X87395000Y-55600028D01*
X87395000Y-55576446D01*
X88345046Y-56526492D01*
X88426207Y-56414785D01*
X88531312Y-56208505D01*
X93407500Y-56208505D01*
X93407500Y-56391494D01*
X93436122Y-56572214D01*
X93492669Y-56746245D01*
X93575740Y-56909282D01*
X93575742Y-56909286D01*
X93683289Y-57057312D01*
X93683291Y-57057314D01*
X93683294Y-57057318D01*
X93812682Y-57186706D01*
X93812685Y-57186708D01*
X93812687Y-57186710D01*
X93960713Y-57294257D01*
X93960717Y-57294259D01*
X94123755Y-57377331D01*
X94297781Y-57433876D01*
X94297782Y-57433876D01*
X94297785Y-57433877D01*
X94478506Y-57462500D01*
X94478509Y-57462500D01*
X94661494Y-57462500D01*
X94842214Y-57433877D01*
X94842215Y-57433876D01*
X94842219Y-57433876D01*
X95016245Y-57377331D01*
X95179283Y-57294259D01*
X95180905Y-57293081D01*
X95271070Y-57227572D01*
X95327318Y-57186706D01*
X95456706Y-57057318D01*
X95528408Y-56958628D01*
X95564257Y-56909286D01*
X95564259Y-56909283D01*
X95647331Y-56746245D01*
X95703876Y-56572219D01*
X95711118Y-56526493D01*
X95732500Y-56391494D01*
X95732500Y-56208505D01*
X95703877Y-56027785D01*
X95703876Y-56027781D01*
X95647331Y-55853755D01*
X95564259Y-55690717D01*
X95564257Y-55690713D01*
X95456710Y-55542687D01*
X95456708Y-55542685D01*
X95456706Y-55542682D01*
X95327318Y-55413294D01*
X95327314Y-55413291D01*
X95327312Y-55413289D01*
X95179286Y-55305742D01*
X95179282Y-55305740D01*
X95016245Y-55222669D01*
X94842214Y-55166122D01*
X94661494Y-55137500D01*
X94661491Y-55137500D01*
X94478509Y-55137500D01*
X94478506Y-55137500D01*
X94297785Y-55166122D01*
X94123754Y-55222669D01*
X93960717Y-55305740D01*
X93960713Y-55305742D01*
X93812687Y-55413289D01*
X93683289Y-55542687D01*
X93575742Y-55690713D01*
X93575740Y-55690717D01*
X93492669Y-55853754D01*
X93436122Y-56027785D01*
X93407500Y-56208505D01*
X88531312Y-56208505D01*
X88544117Y-56183373D01*
X88547154Y-56174027D01*
X88547154Y-56174026D01*
X88624372Y-55936371D01*
X88665000Y-55679861D01*
X88665000Y-55420138D01*
X88624371Y-55163626D01*
X88544117Y-54916626D01*
X88426206Y-54685212D01*
X88426204Y-54685208D01*
X88345047Y-54573505D01*
X87395000Y-55523552D01*
X87395000Y-55499972D01*
X87369104Y-55403325D01*
X87319076Y-55316675D01*
X87248325Y-55245924D01*
X87161675Y-55195896D01*
X87065028Y-55170000D01*
X87041444Y-55170000D01*
X87991493Y-54219951D01*
X87879791Y-54138795D01*
X87879787Y-54138793D01*
X87648373Y-54020882D01*
X87401373Y-53940628D01*
X87144861Y-53900000D01*
X86885139Y-53900000D01*
X86628626Y-53940628D01*
X86381626Y-54020882D01*
X86150213Y-54138793D01*
X86038505Y-54219951D01*
X86988554Y-55170000D01*
X86964972Y-55170000D01*
X86868325Y-55195896D01*
X86781675Y-55245924D01*
X86710924Y-55316675D01*
X86660896Y-55403325D01*
X86635000Y-55499972D01*
X86635000Y-55523554D01*
X85684951Y-54573505D01*
X85603793Y-54685213D01*
X85485882Y-54916626D01*
X85405628Y-55163626D01*
X85365000Y-55420138D01*
X84999562Y-55420138D01*
X84999482Y-53668505D01*
X93407500Y-53668505D01*
X93407500Y-53851494D01*
X93436122Y-54032214D01*
X93492669Y-54206245D01*
X93575740Y-54369282D01*
X93575742Y-54369286D01*
X93683289Y-54517312D01*
X93683291Y-54517314D01*
X93683294Y-54517318D01*
X93812682Y-54646706D01*
X93812685Y-54646708D01*
X93812687Y-54646710D01*
X93960713Y-54754257D01*
X93960717Y-54754259D01*
X94123755Y-54837331D01*
X94297781Y-54893876D01*
X94297782Y-54893876D01*
X94297785Y-54893877D01*
X94478506Y-54922500D01*
X94478509Y-54922500D01*
X94661494Y-54922500D01*
X94842214Y-54893877D01*
X94842215Y-54893876D01*
X94842219Y-54893876D01*
X95016245Y-54837331D01*
X95179283Y-54754259D01*
X95327318Y-54646706D01*
X95456706Y-54517318D01*
X95528408Y-54418628D01*
X95564257Y-54369286D01*
X95564259Y-54369283D01*
X95647331Y-54206245D01*
X95703876Y-54032219D01*
X95716492Y-53952565D01*
X95732500Y-53851494D01*
X95732500Y-53668505D01*
X95703877Y-53487785D01*
X95703876Y-53487781D01*
X95647331Y-53313755D01*
X95564259Y-53150717D01*
X95564257Y-53150713D01*
X95456710Y-53002687D01*
X95456708Y-53002685D01*
X95456706Y-53002682D01*
X95327318Y-52873294D01*
X95327314Y-52873291D01*
X95327312Y-52873289D01*
X95179286Y-52765742D01*
X95179282Y-52765740D01*
X95016245Y-52682669D01*
X94842214Y-52626122D01*
X94661494Y-52597500D01*
X94661491Y-52597500D01*
X94478509Y-52597500D01*
X94478506Y-52597500D01*
X94297785Y-52626122D01*
X94123754Y-52682669D01*
X93960717Y-52765740D01*
X93960713Y-52765742D01*
X93812687Y-52873289D01*
X93683289Y-53002687D01*
X93575742Y-53150713D01*
X93575740Y-53150717D01*
X93492669Y-53313754D01*
X93436122Y-53487785D01*
X93407500Y-53668505D01*
X84999482Y-53668505D01*
X84999326Y-50276613D01*
X84999248Y-48581748D01*
X84999214Y-47844412D01*
X84999195Y-47437684D01*
X87510000Y-47437684D01*
X87510000Y-47642315D01*
X87542008Y-47844412D01*
X87605243Y-48039027D01*
X87698139Y-48221348D01*
X87698143Y-48221353D01*
X87730523Y-48265920D01*
X87730524Y-48265920D01*
X88410000Y-47586444D01*
X88410000Y-47592661D01*
X88437259Y-47694394D01*
X88489920Y-47785606D01*
X88564394Y-47860080D01*
X88655606Y-47912741D01*
X88757339Y-47940000D01*
X88763553Y-47940000D01*
X88084078Y-48619475D01*
X88128647Y-48651858D01*
X88310972Y-48744756D01*
X88505587Y-48807991D01*
X88707685Y-48840000D01*
X88912315Y-48840000D01*
X89114412Y-48807991D01*
X89309027Y-48744756D01*
X89491342Y-48651863D01*
X89491350Y-48651858D01*
X89535920Y-48619475D01*
X88856445Y-47940000D01*
X88862661Y-47940000D01*
X88964394Y-47912741D01*
X89055606Y-47860080D01*
X89130080Y-47785606D01*
X89182741Y-47694394D01*
X89210000Y-47592661D01*
X89210000Y-47586445D01*
X89889475Y-48265920D01*
X89921858Y-48221350D01*
X89921863Y-48221342D01*
X90014756Y-48039027D01*
X90077991Y-47844412D01*
X90110000Y-47642315D01*
X90110000Y-47437684D01*
X90077991Y-47235587D01*
X90014756Y-47040972D01*
X89921858Y-46858647D01*
X89889475Y-46814078D01*
X89210000Y-47493553D01*
X89210000Y-47487339D01*
X89182741Y-47385606D01*
X89130080Y-47294394D01*
X89055606Y-47219920D01*
X88964394Y-47167259D01*
X88862661Y-47140000D01*
X88856445Y-47140000D01*
X89535920Y-46460524D01*
X89535920Y-46460523D01*
X89491353Y-46428143D01*
X89491348Y-46428139D01*
X89309023Y-46335241D01*
X89309020Y-46335239D01*
X89237014Y-46311843D01*
X89187514Y-46275879D01*
X89168607Y-46217688D01*
X89187515Y-46159498D01*
X89237012Y-46123535D01*
X89270832Y-46112547D01*
X89439199Y-46026760D01*
X89592073Y-45915690D01*
X89725690Y-45782073D01*
X89836760Y-45629199D01*
X89922547Y-45460832D01*
X89980940Y-45281118D01*
X89986164Y-45248135D01*
X90010500Y-45094484D01*
X90010500Y-44905515D01*
X89980941Y-44718886D01*
X89980940Y-44718882D01*
X89922547Y-44539168D01*
X89836760Y-44370801D01*
X89725690Y-44217927D01*
X89592073Y-44084310D01*
X89439199Y-43973240D01*
X89439198Y-43973239D01*
X89439196Y-43973238D01*
X89270832Y-43887453D01*
X89091113Y-43829058D01*
X89083046Y-43827781D01*
X89028529Y-43800004D01*
X89000751Y-43745488D01*
X89010322Y-43685056D01*
X89053586Y-43641791D01*
X89083046Y-43632219D01*
X89091113Y-43630941D01*
X89091114Y-43630940D01*
X89091118Y-43630940D01*
X89270832Y-43572547D01*
X89439199Y-43486760D01*
X89592073Y-43375690D01*
X89725690Y-43242073D01*
X89836760Y-43089199D01*
X89922547Y-42920832D01*
X89980940Y-42741118D01*
X89993898Y-42659306D01*
X90010500Y-42554484D01*
X90010500Y-42365515D01*
X89980941Y-42178886D01*
X89977792Y-42169194D01*
X89922547Y-41999168D01*
X89836760Y-41830801D01*
X89725690Y-41677927D01*
X89592073Y-41544310D01*
X89439199Y-41433240D01*
X89439198Y-41433239D01*
X89439196Y-41433238D01*
X89270832Y-41347453D01*
X89091113Y-41289058D01*
X88904484Y-41259500D01*
X88904481Y-41259500D01*
X88715519Y-41259500D01*
X88715516Y-41259500D01*
X88528886Y-41289058D01*
X88349167Y-41347453D01*
X88180803Y-41433238D01*
X88027928Y-41544309D01*
X87894309Y-41677928D01*
X87783238Y-41830803D01*
X87697453Y-41999167D01*
X87639058Y-42178886D01*
X87609500Y-42365515D01*
X87609500Y-42554484D01*
X87639058Y-42741113D01*
X87697453Y-42920832D01*
X87755855Y-43035454D01*
X87783240Y-43089199D01*
X87894310Y-43242073D01*
X88027927Y-43375690D01*
X88180801Y-43486760D01*
X88349168Y-43572547D01*
X88528882Y-43630940D01*
X88528883Y-43630940D01*
X88528886Y-43630941D01*
X88536954Y-43632219D01*
X88591471Y-43659996D01*
X88619248Y-43714513D01*
X88609677Y-43774945D01*
X88566412Y-43818210D01*
X88536954Y-43827781D01*
X88528886Y-43829058D01*
X88349167Y-43887453D01*
X88180803Y-43973238D01*
X88027928Y-44084309D01*
X87894309Y-44217928D01*
X87783238Y-44370803D01*
X87697453Y-44539167D01*
X87639058Y-44718886D01*
X87609500Y-44905515D01*
X87609500Y-45094484D01*
X87639058Y-45281113D01*
X87697453Y-45460832D01*
X87768371Y-45600018D01*
X87783240Y-45629199D01*
X87894310Y-45782073D01*
X88027927Y-45915690D01*
X88180801Y-46026760D01*
X88349168Y-46112547D01*
X88349171Y-46112548D01*
X88349169Y-46112548D01*
X88374352Y-46120730D01*
X88382983Y-46123534D01*
X88432484Y-46159497D01*
X88451392Y-46217687D01*
X88432486Y-46275878D01*
X88382986Y-46311843D01*
X88310976Y-46335241D01*
X88128651Y-46428139D01*
X88128647Y-46428141D01*
X88084078Y-46460523D01*
X88763555Y-47140000D01*
X88757339Y-47140000D01*
X88655606Y-47167259D01*
X88564394Y-47219920D01*
X88489920Y-47294394D01*
X88437259Y-47385606D01*
X88410000Y-47487339D01*
X88410000Y-47493555D01*
X87730523Y-46814078D01*
X87698141Y-46858647D01*
X87698139Y-46858651D01*
X87605243Y-47040972D01*
X87542008Y-47235587D01*
X87510000Y-47437684D01*
X84999195Y-47437684D01*
X84999052Y-44300500D01*
X84998963Y-42361634D01*
X84998803Y-38870099D01*
X86849500Y-38870099D01*
X86849500Y-39129900D01*
X86890138Y-39386488D01*
X86960775Y-39603884D01*
X86970421Y-39633572D01*
X86987083Y-39666273D01*
X87088363Y-39865047D01*
X87088366Y-39865051D01*
X87241069Y-40075229D01*
X87424771Y-40258931D01*
X87634949Y-40411634D01*
X87866428Y-40529579D01*
X88113507Y-40609860D01*
X88113508Y-40609860D01*
X88113511Y-40609861D01*
X88370100Y-40650500D01*
X88370103Y-40650500D01*
X88629900Y-40650500D01*
X88886488Y-40609861D01*
X88886489Y-40609860D01*
X88886493Y-40609860D01*
X89133572Y-40529579D01*
X89365051Y-40411634D01*
X89575229Y-40258931D01*
X89758931Y-40075229D01*
X89911634Y-39865051D01*
X89993411Y-39704554D01*
X90036676Y-39661290D01*
X90081621Y-39650500D01*
X90689546Y-39650500D01*
X90747737Y-39669407D01*
X90759550Y-39679496D01*
X92358004Y-41277949D01*
X92385781Y-41332466D01*
X92387000Y-41347953D01*
X92387000Y-41762680D01*
X92368093Y-41820871D01*
X92338396Y-41847893D01*
X92323138Y-41856916D01*
X92206918Y-41973136D01*
X92123256Y-42114602D01*
X92077403Y-42272427D01*
X92077401Y-42272434D01*
X92075829Y-42292417D01*
X92074500Y-42309306D01*
X92074500Y-43690694D01*
X92075235Y-43700037D01*
X92077401Y-43727565D01*
X92077401Y-43727568D01*
X92077402Y-43727569D01*
X92123256Y-43885398D01*
X92206919Y-44026865D01*
X92323135Y-44143081D01*
X92323137Y-44143082D01*
X92338394Y-44152105D01*
X92378857Y-44198001D01*
X92387000Y-44237319D01*
X92387000Y-45101569D01*
X92411453Y-45224500D01*
X92411454Y-45224503D01*
X92411999Y-45227246D01*
X92461034Y-45345626D01*
X92495366Y-45397008D01*
X92532223Y-45452169D01*
X93890505Y-46810451D01*
X93918281Y-46864966D01*
X93919500Y-46880453D01*
X93919500Y-50205242D01*
X93900593Y-50263433D01*
X93878692Y-50285334D01*
X93812684Y-50333292D01*
X93683289Y-50462687D01*
X93575742Y-50610713D01*
X93575740Y-50610717D01*
X93492669Y-50773754D01*
X93436122Y-50947785D01*
X93407500Y-51128505D01*
X93407500Y-51311494D01*
X93436122Y-51492214D01*
X93492669Y-51666245D01*
X93575740Y-51829282D01*
X93575742Y-51829286D01*
X93683289Y-51977312D01*
X93683291Y-51977314D01*
X93683294Y-51977318D01*
X93812682Y-52106706D01*
X93812685Y-52106708D01*
X93812687Y-52106710D01*
X93960713Y-52214257D01*
X93960717Y-52214259D01*
X94123755Y-52297331D01*
X94297781Y-52353876D01*
X94297782Y-52353876D01*
X94297785Y-52353877D01*
X94478506Y-52382500D01*
X94478509Y-52382500D01*
X94661494Y-52382500D01*
X94842214Y-52353877D01*
X94842215Y-52353876D01*
X94842219Y-52353876D01*
X95016245Y-52297331D01*
X95179283Y-52214259D01*
X95184207Y-52210682D01*
X95327312Y-52106710D01*
X95327318Y-52106706D01*
X95456706Y-51977318D01*
X95536467Y-51867536D01*
X95564257Y-51829286D01*
X95564259Y-51829283D01*
X95647331Y-51666245D01*
X95703876Y-51492219D01*
X95715402Y-51419446D01*
X95732500Y-51311494D01*
X95732500Y-51128505D01*
X95703877Y-50947785D01*
X95703876Y-50947781D01*
X95647331Y-50773755D01*
X95564259Y-50610717D01*
X95564257Y-50610713D01*
X95456710Y-50462687D01*
X95456708Y-50462685D01*
X95456706Y-50462682D01*
X95327318Y-50333294D01*
X95311962Y-50322137D01*
X95261308Y-50285334D01*
X95225345Y-50235834D01*
X95220500Y-50205242D01*
X95220500Y-46505932D01*
X95220500Y-46505931D01*
X95195501Y-46380256D01*
X95146465Y-46261873D01*
X95075276Y-46155330D01*
X93716996Y-44797050D01*
X93689219Y-44742533D01*
X93688000Y-44727046D01*
X93688000Y-44237319D01*
X93706907Y-44179128D01*
X93736606Y-44152105D01*
X93736785Y-44151998D01*
X93751865Y-44143081D01*
X93868081Y-44026865D01*
X93951744Y-43885398D01*
X93997598Y-43727569D01*
X94000500Y-43690694D01*
X94000500Y-42309306D01*
X93997598Y-42272431D01*
X93951744Y-42114602D01*
X93868081Y-41973135D01*
X93751865Y-41856919D01*
X93751862Y-41856917D01*
X93751861Y-41856916D01*
X93736604Y-41847893D01*
X93696142Y-41801997D01*
X93688000Y-41762680D01*
X93688000Y-40973432D01*
X93688000Y-40973431D01*
X93663001Y-40847756D01*
X93613965Y-40729373D01*
X93613963Y-40729370D01*
X93613961Y-40729366D01*
X93575900Y-40672405D01*
X93542776Y-40622831D01*
X93452169Y-40532224D01*
X91790045Y-38870099D01*
X93349500Y-38870099D01*
X93349500Y-39129900D01*
X93390138Y-39386488D01*
X93460775Y-39603884D01*
X93470421Y-39633572D01*
X93487083Y-39666273D01*
X93588363Y-39865047D01*
X93588366Y-39865051D01*
X93741069Y-40075229D01*
X93924771Y-40258931D01*
X94134949Y-40411634D01*
X94366428Y-40529579D01*
X94613507Y-40609860D01*
X94613508Y-40609860D01*
X94613511Y-40609861D01*
X94870100Y-40650500D01*
X94870103Y-40650500D01*
X95129900Y-40650500D01*
X95197513Y-40639791D01*
X95257945Y-40649362D01*
X95301210Y-40692627D01*
X95312000Y-40737572D01*
X95312000Y-41762680D01*
X95293093Y-41820871D01*
X95263396Y-41847893D01*
X95248138Y-41856916D01*
X95131918Y-41973136D01*
X95048256Y-42114602D01*
X95002403Y-42272427D01*
X95002401Y-42272434D01*
X95000829Y-42292417D01*
X94999500Y-42309306D01*
X94999500Y-43690694D01*
X95000235Y-43700037D01*
X95002401Y-43727565D01*
X95002401Y-43727568D01*
X95002402Y-43727569D01*
X95048256Y-43885398D01*
X95131919Y-44026865D01*
X95248135Y-44143081D01*
X95389602Y-44226744D01*
X95547431Y-44272598D01*
X95584306Y-44275500D01*
X95584311Y-44275500D01*
X96340689Y-44275500D01*
X96340694Y-44275500D01*
X96377569Y-44272598D01*
X96535398Y-44226744D01*
X96676865Y-44143081D01*
X96793081Y-44026865D01*
X96876744Y-43885398D01*
X96922598Y-43727569D01*
X96922598Y-43727568D01*
X96924009Y-43722712D01*
X96926332Y-43723386D01*
X96950899Y-43677863D01*
X97006057Y-43651380D01*
X97019230Y-43650500D01*
X97324469Y-43650500D01*
X97382660Y-43669407D01*
X97408122Y-43701198D01*
X97410086Y-43700037D01*
X97413255Y-43705396D01*
X97413256Y-43705398D01*
X97496919Y-43846865D01*
X97613135Y-43963081D01*
X97754602Y-44046744D01*
X97912431Y-44092598D01*
X97949306Y-44095500D01*
X97949311Y-44095500D01*
X99170689Y-44095500D01*
X99170694Y-44095500D01*
X99207569Y-44092598D01*
X99365398Y-44046744D01*
X99506865Y-43963081D01*
X99623081Y-43846865D01*
X99706744Y-43705398D01*
X99752598Y-43547569D01*
X99755500Y-43510694D01*
X99755500Y-43250001D01*
X100145001Y-43250001D01*
X100145001Y-43494986D01*
X100155492Y-43597687D01*
X100155495Y-43597699D01*
X100210643Y-43764124D01*
X100302680Y-43913340D01*
X100426659Y-44037319D01*
X100575875Y-44129356D01*
X100742306Y-44184506D01*
X100845013Y-44194999D01*
X101189998Y-44194999D01*
X101190000Y-44194998D01*
X101190000Y-43250001D01*
X101690000Y-43250001D01*
X101690000Y-44194998D01*
X101690001Y-44194999D01*
X102034986Y-44194999D01*
X102137687Y-44184507D01*
X102137699Y-44184504D01*
X102304124Y-44129356D01*
X102453340Y-44037319D01*
X102577319Y-43913340D01*
X102669356Y-43764124D01*
X102724506Y-43597693D01*
X102735000Y-43494987D01*
X102735000Y-43250001D01*
X102734999Y-43250000D01*
X101690001Y-43250000D01*
X101690000Y-43250001D01*
X101190000Y-43250001D01*
X101189999Y-43250000D01*
X100145002Y-43250000D01*
X100145001Y-43250001D01*
X99755500Y-43250001D01*
X99755500Y-42505012D01*
X100145000Y-42505012D01*
X100145000Y-42749999D01*
X100145001Y-42750000D01*
X101189999Y-42750000D01*
X101190000Y-42749999D01*
X101190000Y-41805001D01*
X101690000Y-41805001D01*
X101690000Y-42749999D01*
X101690001Y-42750000D01*
X102734998Y-42750000D01*
X102734999Y-42749999D01*
X102734999Y-42505013D01*
X102724507Y-42402312D01*
X102724504Y-42402300D01*
X102669356Y-42235875D01*
X102577319Y-42086659D01*
X102453340Y-41962680D01*
X102304124Y-41870643D01*
X102137693Y-41815493D01*
X102034987Y-41805000D01*
X101690001Y-41805000D01*
X101690000Y-41805001D01*
X101190000Y-41805001D01*
X101189999Y-41805000D01*
X100845013Y-41805000D01*
X100742312Y-41815492D01*
X100742300Y-41815495D01*
X100575875Y-41870643D01*
X100426659Y-41962680D01*
X100302680Y-42086659D01*
X100210643Y-42235875D01*
X100155493Y-42402306D01*
X100145000Y-42505012D01*
X99755500Y-42505012D01*
X99755500Y-42489306D01*
X99752598Y-42452431D01*
X99706744Y-42294602D01*
X99623081Y-42153135D01*
X99506865Y-42036919D01*
X99365398Y-41953256D01*
X99207569Y-41907402D01*
X99207568Y-41907401D01*
X99207565Y-41907401D01*
X99184140Y-41905558D01*
X99170694Y-41904500D01*
X97949306Y-41904500D01*
X97936773Y-41905486D01*
X97912434Y-41907401D01*
X97912427Y-41907403D01*
X97754602Y-41953256D01*
X97613136Y-42036918D01*
X97496918Y-42153136D01*
X97481692Y-42178882D01*
X97414549Y-42292417D01*
X97410086Y-42299963D01*
X97407646Y-42298520D01*
X97374888Y-42335699D01*
X97324469Y-42349500D01*
X97019230Y-42349500D01*
X96961039Y-42330593D01*
X96925075Y-42281093D01*
X96924106Y-42277259D01*
X96924009Y-42277288D01*
X96920323Y-42264601D01*
X96876744Y-42114602D01*
X96793081Y-41973135D01*
X96676865Y-41856919D01*
X96676862Y-41856917D01*
X96676861Y-41856916D01*
X96661604Y-41847893D01*
X96621142Y-41801997D01*
X96613000Y-41762680D01*
X96613000Y-39898432D01*
X96613000Y-39898431D01*
X96588001Y-39772756D01*
X96553616Y-39689744D01*
X96543893Y-39666271D01*
X96539093Y-39605276D01*
X96541204Y-39597794D01*
X96609860Y-39386494D01*
X96650500Y-39129900D01*
X96650500Y-38870099D01*
X99849500Y-38870099D01*
X99849500Y-39129900D01*
X99890138Y-39386488D01*
X99960775Y-39603884D01*
X99970421Y-39633572D01*
X99987083Y-39666273D01*
X100088363Y-39865047D01*
X100088366Y-39865051D01*
X100241069Y-40075229D01*
X100424771Y-40258931D01*
X100634949Y-40411634D01*
X100866428Y-40529579D01*
X101113507Y-40609860D01*
X101113508Y-40609860D01*
X101113511Y-40609861D01*
X101370100Y-40650500D01*
X101370103Y-40650500D01*
X101629900Y-40650500D01*
X101886494Y-40609860D01*
X102057803Y-40554197D01*
X102118989Y-40554196D01*
X102158401Y-40578347D01*
X104545504Y-42965450D01*
X104573281Y-43019967D01*
X104574500Y-43035454D01*
X104574500Y-43690694D01*
X104575235Y-43700037D01*
X104577401Y-43727565D01*
X104577401Y-43727568D01*
X104577402Y-43727569D01*
X104623256Y-43885398D01*
X104706919Y-44026865D01*
X104823135Y-44143081D01*
X104964602Y-44226744D01*
X105122431Y-44272598D01*
X105159306Y-44275500D01*
X105159311Y-44275500D01*
X105915689Y-44275500D01*
X105915694Y-44275500D01*
X105952569Y-44272598D01*
X106110398Y-44226744D01*
X106251865Y-44143081D01*
X106368081Y-44026865D01*
X106451744Y-43885398D01*
X106497598Y-43727569D01*
X106500500Y-43690694D01*
X106500500Y-42309306D01*
X106497598Y-42272431D01*
X106451744Y-42114602D01*
X106368081Y-41973135D01*
X106251865Y-41856919D01*
X106110398Y-41773256D01*
X105952569Y-41727402D01*
X105952568Y-41727401D01*
X105952565Y-41727401D01*
X105929140Y-41725558D01*
X105915694Y-41724500D01*
X105185454Y-41724500D01*
X105127263Y-41705593D01*
X105115450Y-41695504D01*
X103078347Y-39658401D01*
X103050570Y-39603884D01*
X103054197Y-39557803D01*
X103109860Y-39386494D01*
X103150500Y-39129900D01*
X103150500Y-38870099D01*
X106349500Y-38870099D01*
X106349500Y-39129900D01*
X106390138Y-39386488D01*
X106460775Y-39603884D01*
X106470421Y-39633572D01*
X106487083Y-39666273D01*
X106588363Y-39865047D01*
X106588366Y-39865051D01*
X106741069Y-40075229D01*
X106924771Y-40258931D01*
X107134949Y-40411634D01*
X107366428Y-40529579D01*
X107613507Y-40609860D01*
X107613508Y-40609860D01*
X107613511Y-40609861D01*
X107870100Y-40650500D01*
X107870103Y-40650500D01*
X108129897Y-40650500D01*
X108166968Y-40644628D01*
X108227398Y-40654198D01*
X108252459Y-40672405D01*
X109259309Y-41679255D01*
X109287086Y-41733772D01*
X109277515Y-41794204D01*
X109234250Y-41837469D01*
X109173818Y-41847040D01*
X109138911Y-41834473D01*
X109035398Y-41773256D01*
X108877569Y-41727402D01*
X108877568Y-41727401D01*
X108877565Y-41727401D01*
X108854140Y-41725558D01*
X108840694Y-41724500D01*
X108084306Y-41724500D01*
X108071773Y-41725486D01*
X108047434Y-41727401D01*
X108047427Y-41727403D01*
X107889602Y-41773256D01*
X107748136Y-41856918D01*
X107631918Y-41973136D01*
X107548256Y-42114602D01*
X107502403Y-42272427D01*
X107502401Y-42272434D01*
X107500829Y-42292417D01*
X107500232Y-42300012D01*
X107499500Y-42309311D01*
X107499500Y-43010650D01*
X107482816Y-43065650D01*
X107458817Y-43101568D01*
X107458817Y-43101569D01*
X107423534Y-43154373D01*
X107374500Y-43272752D01*
X107374499Y-43272757D01*
X107349500Y-43398430D01*
X107349500Y-62174075D01*
X107353041Y-62191871D01*
X107353041Y-62191873D01*
X107353042Y-62191873D01*
X107368464Y-62269406D01*
X107374499Y-62299743D01*
X107374499Y-62299745D01*
X107423533Y-62418124D01*
X107460289Y-62473135D01*
X107494723Y-62524669D01*
X111876299Y-66906245D01*
X116252486Y-71282432D01*
X116280263Y-71336949D01*
X116280263Y-71367923D01*
X116267500Y-71448505D01*
X116267500Y-71631494D01*
X116296122Y-71812214D01*
X116352669Y-71986245D01*
X116435740Y-72149282D01*
X116435742Y-72149286D01*
X116543289Y-72297312D01*
X116543291Y-72297314D01*
X116543294Y-72297318D01*
X116672682Y-72426706D01*
X116672685Y-72426708D01*
X116672687Y-72426710D01*
X116820713Y-72534257D01*
X116820717Y-72534259D01*
X116983755Y-72617331D01*
X117157781Y-72673876D01*
X117157782Y-72673876D01*
X117157785Y-72673877D01*
X117338506Y-72702500D01*
X117338509Y-72702500D01*
X117521494Y-72702500D01*
X117702214Y-72673877D01*
X117702215Y-72673876D01*
X117702219Y-72673876D01*
X117876245Y-72617331D01*
X118039283Y-72534259D01*
X118058893Y-72520012D01*
X118110570Y-72482466D01*
X118187318Y-72426706D01*
X118277036Y-72336987D01*
X118331550Y-72309211D01*
X118391983Y-72318782D01*
X118417042Y-72336988D01*
X119085331Y-73005277D01*
X119173321Y-73064069D01*
X119191873Y-73076465D01*
X119310256Y-73125501D01*
X119435931Y-73150500D01*
X119980770Y-73150500D01*
X120038961Y-73169407D01*
X120074925Y-73218907D01*
X120075893Y-73222740D01*
X120075991Y-73222712D01*
X120077401Y-73227568D01*
X120077402Y-73227569D01*
X120123256Y-73385398D01*
X120206919Y-73526865D01*
X120323135Y-73643081D01*
X120464602Y-73726744D01*
X120622431Y-73772598D01*
X120659306Y-73775500D01*
X120659311Y-73775500D01*
X121415689Y-73775500D01*
X121415694Y-73775500D01*
X121452569Y-73772598D01*
X121610398Y-73726744D01*
X121751865Y-73643081D01*
X121868081Y-73526865D01*
X121951744Y-73385398D01*
X121997598Y-73227569D01*
X122000500Y-73190694D01*
X122000500Y-71809306D01*
X121997598Y-71772431D01*
X121951744Y-71614602D01*
X121868081Y-71473135D01*
X121751865Y-71356919D01*
X121715162Y-71335213D01*
X121674700Y-71289319D01*
X121668941Y-71228405D01*
X121700086Y-71175740D01*
X121715162Y-71164787D01*
X121751865Y-71143081D01*
X121868081Y-71026865D01*
X121951744Y-70885398D01*
X121997598Y-70727569D01*
X122000500Y-70690694D01*
X122000500Y-69309306D01*
X121997598Y-69272431D01*
X121951744Y-69114602D01*
X121868081Y-68973135D01*
X121788946Y-68894000D01*
X121761171Y-68839486D01*
X121770742Y-68779054D01*
X121814007Y-68735789D01*
X121858952Y-68724999D01*
X122249999Y-68724999D01*
X122250000Y-68724998D01*
X122250000Y-67812501D01*
X122249999Y-67812500D01*
X121100002Y-67812500D01*
X121100001Y-67812501D01*
X121100001Y-68024986D01*
X121110492Y-68127687D01*
X121110495Y-68127699D01*
X121165643Y-68294124D01*
X121257680Y-68443340D01*
X121369836Y-68555496D01*
X121397613Y-68610013D01*
X121388042Y-68670445D01*
X121344777Y-68713710D01*
X121299832Y-68724500D01*
X120659306Y-68724500D01*
X120646773Y-68725486D01*
X120622434Y-68727401D01*
X120622427Y-68727403D01*
X120464602Y-68773256D01*
X120323136Y-68856918D01*
X120323135Y-68856919D01*
X120206919Y-68973135D01*
X120123256Y-69114602D01*
X120086694Y-69240450D01*
X120075991Y-69277288D01*
X120073667Y-69276613D01*
X120049101Y-69322137D01*
X119993943Y-69348620D01*
X119980770Y-69349500D01*
X118740454Y-69349500D01*
X118682263Y-69330593D01*
X118670450Y-69320504D01*
X118647142Y-69297196D01*
X118619365Y-69242679D01*
X118625047Y-69194685D01*
X118624090Y-69194395D01*
X118625500Y-69189746D01*
X118625499Y-69189746D01*
X118625501Y-69189744D01*
X118650500Y-69064069D01*
X118650500Y-68935931D01*
X118625501Y-68810256D01*
X118576465Y-68691873D01*
X118536853Y-68632590D01*
X118525015Y-68608183D01*
X118524535Y-68606707D01*
X118510682Y-68564069D01*
X118507332Y-68553757D01*
X118424259Y-68390717D01*
X118424257Y-68390713D01*
X118316710Y-68242687D01*
X118316708Y-68242685D01*
X118316706Y-68242682D01*
X118187318Y-68113294D01*
X118187314Y-68113291D01*
X118187312Y-68113289D01*
X118039286Y-68005742D01*
X118039282Y-68005740D01*
X117876241Y-67922667D01*
X117876238Y-67922665D01*
X117734044Y-67876463D01*
X117684544Y-67840499D01*
X117665637Y-67782308D01*
X117684545Y-67724118D01*
X117734045Y-67688154D01*
X117914438Y-67629541D01*
X118091434Y-67539357D01*
X118128715Y-67512270D01*
X117565940Y-66949495D01*
X117626081Y-66933381D01*
X117741920Y-66866502D01*
X117836502Y-66771920D01*
X117903381Y-66656081D01*
X117919495Y-66595940D01*
X118482270Y-67158715D01*
X118509357Y-67121434D01*
X118520272Y-67100012D01*
X121100000Y-67100012D01*
X121100000Y-67312499D01*
X121100001Y-67312500D01*
X122249999Y-67312500D01*
X122250000Y-67312499D01*
X122250000Y-66400001D01*
X122750000Y-66400001D01*
X122750000Y-67312499D01*
X122750001Y-67312500D01*
X123899998Y-67312500D01*
X123899999Y-67312499D01*
X123899999Y-67100013D01*
X123889507Y-66997312D01*
X123889504Y-66997300D01*
X123834356Y-66830875D01*
X123742319Y-66681659D01*
X123618340Y-66557680D01*
X123469124Y-66465643D01*
X123302693Y-66410493D01*
X123199987Y-66400000D01*
X122750001Y-66400000D01*
X122750000Y-66400001D01*
X122250000Y-66400001D01*
X122249999Y-66400000D01*
X121800013Y-66400000D01*
X121697312Y-66410492D01*
X121697300Y-66410495D01*
X121530875Y-66465643D01*
X121381659Y-66557680D01*
X121257680Y-66681659D01*
X121165643Y-66830875D01*
X121110493Y-66997306D01*
X121100000Y-67100012D01*
X118520272Y-67100012D01*
X118544453Y-67052556D01*
X118599540Y-66944440D01*
X118660926Y-66755514D01*
X118692000Y-66559325D01*
X118692000Y-66360674D01*
X118660926Y-66164485D01*
X118599540Y-65975559D01*
X118509359Y-65798568D01*
X118509357Y-65798564D01*
X118482270Y-65761283D01*
X117919495Y-66324057D01*
X117903381Y-66263919D01*
X117836502Y-66148080D01*
X117741920Y-66053498D01*
X117626081Y-65986619D01*
X117565938Y-65970504D01*
X118128714Y-65407729D01*
X118091425Y-65380637D01*
X117914440Y-65290459D01*
X117885805Y-65281155D01*
X117836305Y-65245191D01*
X117817398Y-65187000D01*
X117836305Y-65128809D01*
X117885805Y-65092845D01*
X117916398Y-65088000D01*
X118011569Y-65088000D01*
X119935931Y-65088000D01*
X121178541Y-65088000D01*
X121236732Y-65106907D01*
X121263754Y-65136605D01*
X121331916Y-65251861D01*
X121331917Y-65251862D01*
X121331919Y-65251865D01*
X121448135Y-65368081D01*
X121589602Y-65451744D01*
X121747431Y-65497598D01*
X121784306Y-65500500D01*
X121784311Y-65500500D01*
X123215689Y-65500500D01*
X123215694Y-65500500D01*
X123252569Y-65497598D01*
X123410398Y-65451744D01*
X123420582Y-65445720D01*
X123480293Y-65432372D01*
X123536447Y-65456670D01*
X123540983Y-65460929D01*
X124320504Y-66240450D01*
X124348281Y-66294967D01*
X124349500Y-66310454D01*
X124349500Y-68625500D01*
X124330593Y-68683691D01*
X124281093Y-68719655D01*
X124250500Y-68724500D01*
X123700168Y-68724500D01*
X123641977Y-68705593D01*
X123606013Y-68656093D01*
X123606013Y-68594907D01*
X123630164Y-68555496D01*
X123742319Y-68443340D01*
X123834356Y-68294124D01*
X123889506Y-68127693D01*
X123900000Y-68024987D01*
X123900000Y-67812501D01*
X123899999Y-67812500D01*
X122750001Y-67812500D01*
X122750000Y-67812501D01*
X122750000Y-68724998D01*
X122750001Y-68724999D01*
X123141048Y-68724999D01*
X123199239Y-68743906D01*
X123235203Y-68793406D01*
X123235203Y-68854592D01*
X123211053Y-68894000D01*
X123169124Y-68935930D01*
X123131918Y-68973136D01*
X123048256Y-69114602D01*
X123002403Y-69272427D01*
X123002401Y-69272434D01*
X123001339Y-69285935D01*
X122999500Y-69309306D01*
X122999500Y-70690694D01*
X123000683Y-70705732D01*
X123002401Y-70727565D01*
X123002401Y-70727568D01*
X123002402Y-70727569D01*
X123048256Y-70885398D01*
X123131919Y-71026865D01*
X123248135Y-71143081D01*
X123248137Y-71143082D01*
X123248138Y-71143083D01*
X123284837Y-71164787D01*
X123325300Y-71210682D01*
X123331058Y-71271596D01*
X123299912Y-71324261D01*
X123284837Y-71335213D01*
X123248138Y-71356916D01*
X123131918Y-71473136D01*
X123048256Y-71614602D01*
X123002403Y-71772427D01*
X123002401Y-71772434D01*
X123001374Y-71785492D01*
X122999500Y-71809306D01*
X122999500Y-73190694D01*
X122999705Y-73193294D01*
X123002401Y-73227565D01*
X123002401Y-73227568D01*
X123002402Y-73227569D01*
X123048256Y-73385398D01*
X123131919Y-73526865D01*
X123248135Y-73643081D01*
X123389602Y-73726744D01*
X123547431Y-73772598D01*
X123584306Y-73775500D01*
X123584311Y-73775500D01*
X124340689Y-73775500D01*
X124340694Y-73775500D01*
X124377569Y-73772598D01*
X124535398Y-73726744D01*
X124676865Y-73643081D01*
X124793081Y-73526865D01*
X124876744Y-73385398D01*
X124922598Y-73227569D01*
X124925500Y-73190694D01*
X124925500Y-73187501D01*
X126080001Y-73187501D01*
X126080001Y-73399986D01*
X126090492Y-73502687D01*
X126090495Y-73502699D01*
X126145643Y-73669124D01*
X126237680Y-73818340D01*
X126361659Y-73942319D01*
X126510875Y-74034356D01*
X126677306Y-74089506D01*
X126780012Y-74099999D01*
X127229998Y-74099999D01*
X127230000Y-74099998D01*
X127230000Y-73187501D01*
X127730000Y-73187501D01*
X127730000Y-74099998D01*
X127730001Y-74099999D01*
X128179986Y-74099999D01*
X128282687Y-74089507D01*
X128282699Y-74089504D01*
X128449124Y-74034356D01*
X128598340Y-73942319D01*
X128722319Y-73818340D01*
X128814356Y-73669124D01*
X128869506Y-73502693D01*
X128880000Y-73399987D01*
X128880000Y-73187501D01*
X128879999Y-73187500D01*
X127730001Y-73187500D01*
X127730000Y-73187501D01*
X127230000Y-73187501D01*
X127229999Y-73187500D01*
X126080002Y-73187500D01*
X126080001Y-73187501D01*
X124925500Y-73187501D01*
X124925500Y-72497953D01*
X124927968Y-72490355D01*
X124926719Y-72482466D01*
X124930517Y-72475012D01*
X126080000Y-72475012D01*
X126080000Y-72687499D01*
X126080001Y-72687500D01*
X127229999Y-72687500D01*
X127230000Y-72687499D01*
X127230000Y-71775001D01*
X127730000Y-71775001D01*
X127730000Y-72687499D01*
X127730001Y-72687500D01*
X128879998Y-72687500D01*
X128879999Y-72687499D01*
X128879999Y-72475013D01*
X128869507Y-72372312D01*
X128869504Y-72372300D01*
X128814356Y-72205875D01*
X128722319Y-72056659D01*
X128598340Y-71932680D01*
X128449124Y-71840643D01*
X128282693Y-71785493D01*
X128179987Y-71775000D01*
X127730001Y-71775000D01*
X127730000Y-71775001D01*
X127230000Y-71775001D01*
X127229999Y-71775000D01*
X126780013Y-71775000D01*
X126677312Y-71785492D01*
X126677300Y-71785495D01*
X126510875Y-71840643D01*
X126361659Y-71932680D01*
X126237680Y-72056659D01*
X126145643Y-72205875D01*
X126090493Y-72372306D01*
X126080000Y-72475012D01*
X124930517Y-72475012D01*
X124937243Y-72461810D01*
X124944407Y-72439762D01*
X124954490Y-72427955D01*
X125505277Y-71877169D01*
X125576466Y-71770626D01*
X125625501Y-71652243D01*
X125650500Y-71526569D01*
X125650500Y-71398431D01*
X125650500Y-69935931D01*
X125650500Y-65935931D01*
X125625501Y-65810256D01*
X125625110Y-65809311D01*
X125576467Y-65691876D01*
X125573877Y-65688000D01*
X125573875Y-65687997D01*
X125505279Y-65585334D01*
X125505277Y-65585331D01*
X123852169Y-63932223D01*
X123852165Y-63932220D01*
X123852164Y-63932219D01*
X123817982Y-63909379D01*
X123780103Y-63861329D01*
X123777915Y-63854684D01*
X123751744Y-63764602D01*
X123668081Y-63623135D01*
X123551865Y-63506919D01*
X123410398Y-63423256D01*
X123252569Y-63377402D01*
X123252566Y-63377401D01*
X123241731Y-63376549D01*
X123185203Y-63353133D01*
X123153235Y-63300963D01*
X123150500Y-63277854D01*
X123150500Y-61909450D01*
X124349500Y-61909450D01*
X124349500Y-62090546D01*
X124377828Y-62269406D01*
X124433788Y-62441637D01*
X124502486Y-62576465D01*
X124516004Y-62602994D01*
X124622447Y-62749501D01*
X124750499Y-62877553D01*
X124897006Y-62983996D01*
X125058361Y-63066211D01*
X125230591Y-63122171D01*
X125302136Y-63133502D01*
X125409451Y-63150500D01*
X125409454Y-63150500D01*
X125590549Y-63150500D01*
X125679977Y-63136335D01*
X125769409Y-63122171D01*
X125941639Y-63066211D01*
X126102994Y-62983996D01*
X126249501Y-62877553D01*
X126377553Y-62749501D01*
X126419832Y-62691309D01*
X126469332Y-62655345D01*
X126499924Y-62650500D01*
X127064068Y-62650500D01*
X127064069Y-62650500D01*
X127189744Y-62625501D01*
X127308127Y-62576465D01*
X127326679Y-62564069D01*
X127414669Y-62505277D01*
X128740450Y-61179496D01*
X128794967Y-61151719D01*
X128810454Y-61150500D01*
X129980770Y-61150500D01*
X130038961Y-61169407D01*
X130074925Y-61218907D01*
X130075893Y-61222740D01*
X130075991Y-61222712D01*
X130077401Y-61227568D01*
X130077402Y-61227569D01*
X130123256Y-61385398D01*
X130206919Y-61526865D01*
X130323135Y-61643081D01*
X130464602Y-61726744D01*
X130622431Y-61772598D01*
X130659306Y-61775500D01*
X130814546Y-61775500D01*
X130872737Y-61794407D01*
X130884550Y-61804496D01*
X131135550Y-62055496D01*
X131163327Y-62110013D01*
X131153756Y-62170445D01*
X131110491Y-62213710D01*
X131065546Y-62224500D01*
X130659306Y-62224500D01*
X130646773Y-62225486D01*
X130622434Y-62227401D01*
X130622427Y-62227403D01*
X130464602Y-62273256D01*
X130323136Y-62356918D01*
X130206918Y-62473136D01*
X130123256Y-62614602D01*
X130075991Y-62777288D01*
X130073667Y-62776613D01*
X130049101Y-62822137D01*
X129993943Y-62848620D01*
X129980770Y-62849500D01*
X127935930Y-62849500D01*
X127901727Y-62856303D01*
X127810256Y-62874499D01*
X127810253Y-62874500D01*
X127805488Y-62875448D01*
X127805341Y-62874711D01*
X127766571Y-62877379D01*
X127590549Y-62849500D01*
X127590546Y-62849500D01*
X127409454Y-62849500D01*
X127409451Y-62849500D01*
X127230593Y-62877828D01*
X127058362Y-62933788D01*
X126897008Y-63016002D01*
X126873215Y-63033289D01*
X126750499Y-63122447D01*
X126622447Y-63250499D01*
X126602573Y-63277854D01*
X126516002Y-63397008D01*
X126433788Y-63558362D01*
X126377828Y-63730593D01*
X126349500Y-63909450D01*
X126349500Y-64090549D01*
X126377828Y-64269406D01*
X126433788Y-64441637D01*
X126486681Y-64545446D01*
X126516004Y-64602994D01*
X126622447Y-64749501D01*
X126750499Y-64877553D01*
X126897006Y-64983996D01*
X127058361Y-65066211D01*
X127230591Y-65122171D01*
X127288583Y-65131356D01*
X127409451Y-65150500D01*
X127409454Y-65150500D01*
X127590547Y-65150500D01*
X127601171Y-65148817D01*
X127661587Y-65139247D01*
X127722017Y-65148817D01*
X127747078Y-65167024D01*
X128320504Y-65740450D01*
X128348281Y-65794967D01*
X128349500Y-65810454D01*
X128349500Y-68564069D01*
X128374498Y-68689740D01*
X128374499Y-68689742D01*
X128374499Y-68689744D01*
X128423534Y-68808126D01*
X128490604Y-68908505D01*
X128494723Y-68914669D01*
X129585331Y-70005277D01*
X129585334Y-70005279D01*
X129691875Y-70076467D01*
X129748584Y-70099954D01*
X129761221Y-70105189D01*
X129810256Y-70125501D01*
X129935931Y-70150500D01*
X129980770Y-70150500D01*
X130038961Y-70169407D01*
X130074925Y-70218907D01*
X130075893Y-70222740D01*
X130075991Y-70222712D01*
X130077401Y-70227568D01*
X130077402Y-70227569D01*
X130123256Y-70385398D01*
X130206919Y-70526865D01*
X130323135Y-70643081D01*
X130464602Y-70726744D01*
X130622431Y-70772598D01*
X130659306Y-70775500D01*
X130659311Y-70775500D01*
X131415689Y-70775500D01*
X131415694Y-70775500D01*
X131452569Y-70772598D01*
X131610398Y-70726744D01*
X131751865Y-70643081D01*
X131868081Y-70526865D01*
X131951744Y-70385398D01*
X131997598Y-70227569D01*
X132000500Y-70190694D01*
X132000500Y-68809306D01*
X131997598Y-68772431D01*
X131951744Y-68614602D01*
X131868081Y-68473135D01*
X131751865Y-68356919D01*
X131610398Y-68273256D01*
X131452569Y-68227402D01*
X131452568Y-68227401D01*
X131452565Y-68227401D01*
X131429140Y-68225558D01*
X131415694Y-68224500D01*
X130659306Y-68224500D01*
X130646773Y-68225486D01*
X130622434Y-68227401D01*
X130622427Y-68227403D01*
X130464602Y-68273256D01*
X130323136Y-68356918D01*
X130206917Y-68473137D01*
X130155258Y-68560487D01*
X130109362Y-68600949D01*
X130048448Y-68606707D01*
X130000041Y-68580095D01*
X129679496Y-68259550D01*
X129651719Y-68205033D01*
X129650500Y-68189546D01*
X129650500Y-65435932D01*
X129650500Y-65435931D01*
X129625501Y-65310256D01*
X129576465Y-65191873D01*
X129505276Y-65085330D01*
X128739450Y-64319504D01*
X128711673Y-64264987D01*
X128721244Y-64204555D01*
X128764509Y-64161290D01*
X128809454Y-64150500D01*
X129980770Y-64150500D01*
X130038961Y-64169407D01*
X130074925Y-64218907D01*
X130075893Y-64222740D01*
X130075991Y-64222712D01*
X130077401Y-64227568D01*
X130077402Y-64227569D01*
X130123256Y-64385398D01*
X130206919Y-64526865D01*
X130323135Y-64643081D01*
X130464602Y-64726744D01*
X130622431Y-64772598D01*
X130659306Y-64775500D01*
X130659311Y-64775500D01*
X131415689Y-64775500D01*
X131415694Y-64775500D01*
X131452569Y-64772598D01*
X131610398Y-64726744D01*
X131622134Y-64719803D01*
X131681842Y-64706455D01*
X131737996Y-64730753D01*
X131769144Y-64783416D01*
X131763388Y-64844330D01*
X131742533Y-64875019D01*
X131422050Y-65195503D01*
X131367533Y-65223281D01*
X131352046Y-65224500D01*
X130659306Y-65224500D01*
X130646773Y-65225486D01*
X130622434Y-65227401D01*
X130622427Y-65227403D01*
X130464602Y-65273256D01*
X130323136Y-65356918D01*
X130206918Y-65473136D01*
X130123256Y-65614602D01*
X130077403Y-65772427D01*
X130077401Y-65772434D01*
X130074500Y-65809311D01*
X130074500Y-67190688D01*
X130077401Y-67227565D01*
X130077401Y-67227568D01*
X130077402Y-67227569D01*
X130123256Y-67385398D01*
X130206919Y-67526865D01*
X130323135Y-67643081D01*
X130464602Y-67726744D01*
X130622431Y-67772598D01*
X130659306Y-67775500D01*
X130659311Y-67775500D01*
X131415689Y-67775500D01*
X131415694Y-67775500D01*
X131452569Y-67772598D01*
X131610398Y-67726744D01*
X131751865Y-67643081D01*
X131868081Y-67526865D01*
X131951744Y-67385398D01*
X131997598Y-67227569D01*
X132000500Y-67190694D01*
X132000500Y-66497953D01*
X132019407Y-66439762D01*
X132029490Y-66427955D01*
X132859729Y-65597716D01*
X132914242Y-65569942D01*
X132974674Y-65579513D01*
X133017939Y-65622778D01*
X133027510Y-65683210D01*
X133024798Y-65695343D01*
X133002403Y-65772427D01*
X133002401Y-65772434D01*
X132999500Y-65809311D01*
X132999500Y-67190688D01*
X133002401Y-67227565D01*
X133002401Y-67227568D01*
X133002402Y-67227569D01*
X133048256Y-67385398D01*
X133131919Y-67526865D01*
X133248135Y-67643081D01*
X133389602Y-67726744D01*
X133547431Y-67772598D01*
X133584306Y-67775500D01*
X133584311Y-67775500D01*
X134340689Y-67775500D01*
X134340694Y-67775500D01*
X134377569Y-67772598D01*
X134535398Y-67726744D01*
X134639841Y-67664977D01*
X134699553Y-67651629D01*
X134755706Y-67675929D01*
X134760240Y-67680186D01*
X136320504Y-69240450D01*
X136348281Y-69294967D01*
X136349500Y-69310454D01*
X136349500Y-77689546D01*
X136330593Y-77747737D01*
X136320504Y-77759550D01*
X134205909Y-79874144D01*
X134151392Y-79901921D01*
X134090960Y-79892350D01*
X134065904Y-79874146D01*
X134032675Y-79840917D01*
X133870887Y-79723371D01*
X133870886Y-79723370D01*
X133870884Y-79723369D01*
X133787435Y-79680850D01*
X133692703Y-79632581D01*
X133692697Y-79632579D01*
X133692695Y-79632578D01*
X133689999Y-79631461D01*
X133689254Y-79630824D01*
X133689237Y-79630816D01*
X133689239Y-79630811D01*
X133643476Y-79591721D01*
X133629198Y-79532225D01*
X133652617Y-79475699D01*
X133689999Y-79448539D01*
X133692688Y-79447423D01*
X133692703Y-79447419D01*
X133870887Y-79356629D01*
X134032675Y-79239083D01*
X134174083Y-79097675D01*
X134291629Y-78935887D01*
X134382419Y-78757703D01*
X134444216Y-78567510D01*
X134468424Y-78414669D01*
X134475500Y-78369994D01*
X134475500Y-78170005D01*
X134444217Y-77972494D01*
X134402448Y-77843942D01*
X134402448Y-77782756D01*
X134426597Y-77743347D01*
X136005276Y-76164669D01*
X136076465Y-76058127D01*
X136125501Y-75939744D01*
X136138826Y-75872756D01*
X136150500Y-75814069D01*
X136150500Y-70973431D01*
X136125501Y-70847756D01*
X136076465Y-70729373D01*
X136018807Y-70643081D01*
X136005276Y-70622830D01*
X134954496Y-69572050D01*
X134926719Y-69517533D01*
X134925500Y-69502046D01*
X134925500Y-68809311D01*
X134924248Y-68793406D01*
X134922598Y-68772431D01*
X134876744Y-68614602D01*
X134793081Y-68473135D01*
X134676865Y-68356919D01*
X134535398Y-68273256D01*
X134377569Y-68227402D01*
X134377568Y-68227401D01*
X134377565Y-68227401D01*
X134354140Y-68225558D01*
X134340694Y-68224500D01*
X133584306Y-68224500D01*
X133571773Y-68225486D01*
X133547434Y-68227401D01*
X133547427Y-68227403D01*
X133389602Y-68273256D01*
X133248136Y-68356918D01*
X133131918Y-68473136D01*
X133048256Y-68614602D01*
X133002403Y-68772427D01*
X133002401Y-68772434D01*
X132999500Y-68809311D01*
X132999500Y-70190688D01*
X133002401Y-70227565D01*
X133002401Y-70227568D01*
X133002402Y-70227569D01*
X133048256Y-70385398D01*
X133131919Y-70526865D01*
X133248135Y-70643081D01*
X133389602Y-70726744D01*
X133547431Y-70772598D01*
X133584306Y-70775500D01*
X134277046Y-70775500D01*
X134335237Y-70794407D01*
X134347050Y-70804496D01*
X134820504Y-71277950D01*
X134848281Y-71332467D01*
X134849500Y-71347954D01*
X134849500Y-75439546D01*
X134830593Y-75497737D01*
X134820503Y-75509550D01*
X134643591Y-75686461D01*
X134589075Y-75714238D01*
X134528643Y-75704667D01*
X134485378Y-75661402D01*
X134475807Y-75631944D01*
X134452710Y-75486122D01*
X134444216Y-75432490D01*
X134382419Y-75242297D01*
X134291629Y-75064113D01*
X134174083Y-74902325D01*
X134032675Y-74760917D01*
X134032671Y-74760914D01*
X134032669Y-74760912D01*
X133971681Y-74716601D01*
X133935717Y-74667101D01*
X133935718Y-74605916D01*
X133971682Y-74556416D01*
X133998732Y-74542534D01*
X134144124Y-74494356D01*
X134293340Y-74402319D01*
X134417319Y-74278340D01*
X134509356Y-74129124D01*
X134564506Y-73962693D01*
X134575000Y-73859987D01*
X134575000Y-73440001D01*
X134574999Y-73440000D01*
X133522709Y-73440000D01*
X133534452Y-73419661D01*
X133575000Y-73268333D01*
X133575000Y-73111667D01*
X133534452Y-72960339D01*
X133522709Y-72940000D01*
X134574998Y-72940000D01*
X134574999Y-72939999D01*
X134574999Y-72520013D01*
X134564507Y-72417312D01*
X134564504Y-72417300D01*
X134509356Y-72250875D01*
X134417319Y-72101659D01*
X134293340Y-71977680D01*
X134144124Y-71885643D01*
X133977693Y-71830493D01*
X133874987Y-71820000D01*
X133230001Y-71820000D01*
X133230000Y-71820001D01*
X133230000Y-72647290D01*
X133209661Y-72635548D01*
X133058333Y-72595000D01*
X132901667Y-72595000D01*
X132750339Y-72635548D01*
X132730000Y-72647290D01*
X132730000Y-71820001D01*
X132729999Y-71820000D01*
X132085013Y-71820000D01*
X131982312Y-71830492D01*
X131982300Y-71830495D01*
X131815875Y-71885643D01*
X131666659Y-71977680D01*
X131542680Y-72101659D01*
X131450643Y-72250875D01*
X131395493Y-72417306D01*
X131385000Y-72520012D01*
X131385000Y-72939999D01*
X131385001Y-72940000D01*
X132437291Y-72940000D01*
X132425548Y-72960339D01*
X132385000Y-73111667D01*
X132385000Y-73268333D01*
X132425548Y-73419661D01*
X132437291Y-73440000D01*
X131385002Y-73440000D01*
X131385001Y-73440001D01*
X131385001Y-73859986D01*
X131395492Y-73962687D01*
X131395495Y-73962699D01*
X131450643Y-74129124D01*
X131542680Y-74278340D01*
X131666659Y-74402319D01*
X131815875Y-74494356D01*
X131961267Y-74542534D01*
X132010557Y-74578785D01*
X132029125Y-74637085D01*
X132009880Y-74695165D01*
X131988319Y-74716601D01*
X131927327Y-74760915D01*
X131785916Y-74902326D01*
X131668369Y-75064115D01*
X131577578Y-75242303D01*
X131544669Y-75343592D01*
X131508705Y-75393092D01*
X131450515Y-75412000D01*
X128801459Y-75412000D01*
X128743268Y-75393093D01*
X128716246Y-75363395D01*
X128648083Y-75248138D01*
X128648082Y-75248137D01*
X128648081Y-75248135D01*
X128531865Y-75131919D01*
X128390398Y-75048256D01*
X128232569Y-75002402D01*
X128232568Y-75002401D01*
X128232565Y-75002401D01*
X128209140Y-75000558D01*
X128195694Y-74999500D01*
X126764306Y-74999500D01*
X126751773Y-75000486D01*
X126727434Y-75002401D01*
X126727427Y-75002403D01*
X126569602Y-75048256D01*
X126428136Y-75131918D01*
X126311918Y-75248136D01*
X126228256Y-75389602D01*
X126182403Y-75547427D01*
X126182401Y-75547434D01*
X126179500Y-75584311D01*
X126179500Y-76540688D01*
X126182401Y-76577565D01*
X126182401Y-76577568D01*
X126182402Y-76577569D01*
X126228256Y-76735398D01*
X126311919Y-76876865D01*
X126428135Y-76993081D01*
X126569602Y-77076744D01*
X126727431Y-77122598D01*
X126738264Y-77123450D01*
X126794792Y-77146862D01*
X126826764Y-77199030D01*
X126829500Y-77222145D01*
X126829500Y-78518270D01*
X126810593Y-78576461D01*
X126761093Y-78612425D01*
X126757259Y-78613393D01*
X126757288Y-78613491D01*
X126594602Y-78660756D01*
X126453136Y-78744418D01*
X126336918Y-78860636D01*
X126253256Y-79002102D01*
X126207403Y-79159927D01*
X126207401Y-79159934D01*
X126205486Y-79184273D01*
X126204982Y-79190688D01*
X126204500Y-79196811D01*
X126204500Y-79953188D01*
X126207401Y-79990065D01*
X126207401Y-79990068D01*
X126207402Y-79990069D01*
X126253256Y-80147898D01*
X126336919Y-80289365D01*
X126453135Y-80405581D01*
X126594602Y-80489244D01*
X126752431Y-80535098D01*
X126789306Y-80538000D01*
X126789311Y-80538000D01*
X128170689Y-80538000D01*
X128170694Y-80538000D01*
X128207569Y-80535098D01*
X128365398Y-80489244D01*
X128506865Y-80405581D01*
X128623081Y-80289365D01*
X128706744Y-80147898D01*
X128752598Y-79990069D01*
X128755500Y-79953194D01*
X128755500Y-79196806D01*
X128752598Y-79159931D01*
X128706744Y-79002102D01*
X128623081Y-78860635D01*
X128506865Y-78744419D01*
X128365398Y-78660756D01*
X128207569Y-78614902D01*
X128207568Y-78614901D01*
X128202712Y-78613491D01*
X128203386Y-78611167D01*
X128157863Y-78586601D01*
X128131380Y-78531443D01*
X128130500Y-78518270D01*
X128130500Y-77222145D01*
X128149407Y-77163954D01*
X128198907Y-77127990D01*
X128221733Y-77123450D01*
X128232569Y-77122598D01*
X128390398Y-77076744D01*
X128531865Y-76993081D01*
X128648081Y-76876865D01*
X128671215Y-76837746D01*
X128716246Y-76761605D01*
X128762141Y-76721142D01*
X128801459Y-76713000D01*
X131914312Y-76713000D01*
X131972502Y-76731907D01*
X132089109Y-76816627D01*
X132089113Y-76816629D01*
X132267297Y-76907419D01*
X132267305Y-76907421D01*
X132267306Y-76907422D01*
X132270005Y-76908541D01*
X132270749Y-76909177D01*
X132270763Y-76909184D01*
X132270761Y-76909187D01*
X132316525Y-76948284D01*
X132330801Y-77007781D01*
X132307378Y-77064306D01*
X132270005Y-77091459D01*
X132267306Y-77092577D01*
X132267300Y-77092579D01*
X132267297Y-77092581D01*
X132208390Y-77122596D01*
X132089115Y-77183369D01*
X131927326Y-77300916D01*
X131785916Y-77442326D01*
X131668369Y-77604115D01*
X131577578Y-77782303D01*
X131515783Y-77972492D01*
X131484500Y-78170005D01*
X131484500Y-78369994D01*
X131515783Y-78567507D01*
X131577578Y-78757696D01*
X131577580Y-78757699D01*
X131577581Y-78757703D01*
X131627140Y-78854968D01*
X131643861Y-78887785D01*
X131668371Y-78935887D01*
X131785917Y-79097675D01*
X131927325Y-79239083D01*
X132089113Y-79356629D01*
X132267297Y-79447419D01*
X132267305Y-79447421D01*
X132267306Y-79447422D01*
X132270005Y-79448541D01*
X132270749Y-79449177D01*
X132270763Y-79449184D01*
X132270761Y-79449187D01*
X132316525Y-79488284D01*
X132330801Y-79547781D01*
X132307378Y-79604306D01*
X132270005Y-79631459D01*
X132267306Y-79632577D01*
X132267300Y-79632579D01*
X132267297Y-79632581D01*
X132200683Y-79666522D01*
X132089115Y-79723369D01*
X131927326Y-79840916D01*
X131785916Y-79982326D01*
X131668369Y-80144115D01*
X131577578Y-80322303D01*
X131515783Y-80512492D01*
X131484500Y-80710005D01*
X131484500Y-80909994D01*
X131515783Y-81107507D01*
X131577578Y-81297696D01*
X131577580Y-81297699D01*
X131577581Y-81297703D01*
X131622808Y-81386465D01*
X131647792Y-81435500D01*
X131668371Y-81475887D01*
X131785917Y-81637675D01*
X131927325Y-81779083D01*
X132089113Y-81896629D01*
X132267297Y-81987419D01*
X132457490Y-82049216D01*
X132536497Y-82061729D01*
X132655006Y-82080500D01*
X132655009Y-82080500D01*
X133304994Y-82080500D01*
X133403750Y-82064858D01*
X133502510Y-82049216D01*
X133692703Y-81987419D01*
X133870887Y-81896629D01*
X134032675Y-81779083D01*
X134174083Y-81637675D01*
X134288268Y-81480512D01*
X134337766Y-81444550D01*
X134349044Y-81441607D01*
X134379744Y-81435501D01*
X134498127Y-81386465D01*
X134604669Y-81315277D01*
X137505277Y-78414669D01*
X137576465Y-78308127D01*
X137625501Y-78189744D01*
X137629040Y-78171952D01*
X137650500Y-78064069D01*
X137650500Y-68935931D01*
X137625501Y-68810256D01*
X137576465Y-68691873D01*
X137575053Y-68689761D01*
X137575047Y-68689740D01*
X137575042Y-68689744D01*
X137505277Y-68585331D01*
X134954496Y-66034550D01*
X134926719Y-65980033D01*
X134925500Y-65964546D01*
X134925500Y-65809311D01*
X134924654Y-65798564D01*
X134922598Y-65772431D01*
X134876744Y-65614602D01*
X134793081Y-65473135D01*
X134676865Y-65356919D01*
X134535398Y-65273256D01*
X134377569Y-65227402D01*
X134377568Y-65227401D01*
X134377565Y-65227401D01*
X134354140Y-65225558D01*
X134340694Y-65224500D01*
X133584306Y-65224500D01*
X133571773Y-65225486D01*
X133547434Y-65227401D01*
X133547427Y-65227403D01*
X133389600Y-65273256D01*
X133269738Y-65344142D01*
X133210027Y-65357489D01*
X133153874Y-65333189D01*
X133122728Y-65280523D01*
X133124610Y-65230180D01*
X133125497Y-65227253D01*
X133125501Y-65227244D01*
X133132537Y-65191873D01*
X133150500Y-65101569D01*
X133150500Y-64758905D01*
X133169407Y-64700714D01*
X133218907Y-64664750D01*
X133280093Y-64664750D01*
X133299895Y-64673692D01*
X133345587Y-64700714D01*
X133389602Y-64726744D01*
X133547431Y-64772598D01*
X133584306Y-64775500D01*
X133584311Y-64775500D01*
X134340689Y-64775500D01*
X134340694Y-64775500D01*
X134377569Y-64772598D01*
X134535398Y-64726744D01*
X134676865Y-64643081D01*
X134793081Y-64526865D01*
X134876744Y-64385398D01*
X134922598Y-64227569D01*
X134922598Y-64227568D01*
X134924009Y-64222712D01*
X134926332Y-64223386D01*
X134950899Y-64177863D01*
X135006057Y-64151380D01*
X135019230Y-64150500D01*
X135064068Y-64150500D01*
X135064069Y-64150500D01*
X135189744Y-64125501D01*
X135308127Y-64076465D01*
X135326679Y-64064069D01*
X135414669Y-64005277D01*
X136005277Y-63414669D01*
X136076465Y-63308127D01*
X136100335Y-63250499D01*
X136125501Y-63189744D01*
X136150500Y-63064069D01*
X136150500Y-55435931D01*
X136125501Y-55310256D01*
X136076465Y-55191873D01*
X136076463Y-55191870D01*
X136076460Y-55191864D01*
X136049958Y-55152203D01*
X136049957Y-55152200D01*
X136005281Y-55085336D01*
X136005279Y-55085334D01*
X136005277Y-55085331D01*
X134684669Y-53764723D01*
X134578127Y-53693535D01*
X134578128Y-53693535D01*
X134578126Y-53693534D01*
X134459747Y-53644500D01*
X134459745Y-53644499D01*
X134459744Y-53644499D01*
X134358907Y-53624440D01*
X134305525Y-53594544D01*
X134298134Y-53585539D01*
X134194083Y-53442325D01*
X134052675Y-53300917D01*
X133890887Y-53183371D01*
X133890886Y-53183370D01*
X133890884Y-53183369D01*
X133826800Y-53150717D01*
X133712703Y-53092581D01*
X133712697Y-53092579D01*
X133712695Y-53092578D01*
X133709999Y-53091461D01*
X133709254Y-53090824D01*
X133709237Y-53090816D01*
X133709239Y-53090811D01*
X133663476Y-53051721D01*
X133649198Y-52992225D01*
X133672617Y-52935699D01*
X133709999Y-52908539D01*
X133712688Y-52907423D01*
X133712703Y-52907419D01*
X133890887Y-52816629D01*
X134052675Y-52699083D01*
X134194083Y-52557675D01*
X134311629Y-52395887D01*
X134402419Y-52217703D01*
X134464216Y-52027510D01*
X134484588Y-51898885D01*
X134495500Y-51829994D01*
X134495500Y-51630005D01*
X134464216Y-51432492D01*
X134464216Y-51432490D01*
X134402419Y-51242297D01*
X134311629Y-51064113D01*
X134194083Y-50902325D01*
X134052675Y-50760917D01*
X134052671Y-50760914D01*
X134052669Y-50760912D01*
X133991681Y-50716601D01*
X133955717Y-50667101D01*
X133955718Y-50605916D01*
X133991682Y-50556416D01*
X134018732Y-50542534D01*
X134164124Y-50494356D01*
X134313340Y-50402319D01*
X134437319Y-50278340D01*
X134529356Y-50129124D01*
X134584506Y-49962693D01*
X134595000Y-49859987D01*
X134595000Y-49440001D01*
X134594999Y-49440000D01*
X133542709Y-49440000D01*
X133554452Y-49419661D01*
X133595000Y-49268333D01*
X133595000Y-49111667D01*
X133554452Y-48960339D01*
X133542709Y-48940000D01*
X134594998Y-48940000D01*
X134594999Y-48939999D01*
X134594999Y-48520013D01*
X134584507Y-48417312D01*
X134584504Y-48417300D01*
X134529356Y-48250875D01*
X134437319Y-48101659D01*
X134313340Y-47977680D01*
X134164124Y-47885643D01*
X133997693Y-47830493D01*
X133894987Y-47820000D01*
X133250001Y-47820000D01*
X133250000Y-47820001D01*
X133250000Y-48647290D01*
X133229661Y-48635548D01*
X133078333Y-48595000D01*
X132921667Y-48595000D01*
X132770339Y-48635548D01*
X132750000Y-48647290D01*
X132750000Y-47820001D01*
X132749999Y-47820000D01*
X132105013Y-47820000D01*
X132002312Y-47830492D01*
X132002300Y-47830495D01*
X131835875Y-47885643D01*
X131686659Y-47977680D01*
X131562680Y-48101659D01*
X131470643Y-48250875D01*
X131415493Y-48417306D01*
X131405000Y-48520012D01*
X131405000Y-48939999D01*
X131405001Y-48940000D01*
X132457291Y-48940000D01*
X132445548Y-48960339D01*
X132405000Y-49111667D01*
X132405000Y-49268333D01*
X132445548Y-49419661D01*
X132457291Y-49440000D01*
X131405002Y-49440000D01*
X131405001Y-49440001D01*
X131405001Y-49859986D01*
X131415492Y-49962687D01*
X131415495Y-49962699D01*
X131470643Y-50129124D01*
X131562680Y-50278340D01*
X131686659Y-50402319D01*
X131835875Y-50494356D01*
X131981267Y-50542534D01*
X132030557Y-50578785D01*
X132049125Y-50637085D01*
X132029880Y-50695165D01*
X132008319Y-50716601D01*
X131947327Y-50760915D01*
X131947325Y-50760917D01*
X131805917Y-50902325D01*
X131706840Y-51038692D01*
X131657342Y-51074655D01*
X131626749Y-51079500D01*
X128881246Y-51079500D01*
X128823055Y-51060593D01*
X128787091Y-51011093D01*
X128786177Y-51008121D01*
X128751744Y-50889602D01*
X128668081Y-50748135D01*
X128551865Y-50631919D01*
X128410398Y-50548256D01*
X128252569Y-50502402D01*
X128252568Y-50502401D01*
X128252565Y-50502401D01*
X128229140Y-50500558D01*
X128215694Y-50499500D01*
X126784306Y-50499500D01*
X126771773Y-50500486D01*
X126747434Y-50502401D01*
X126747427Y-50502403D01*
X126589602Y-50548256D01*
X126448136Y-50631918D01*
X126331918Y-50748136D01*
X126248256Y-50889602D01*
X126202403Y-51047427D01*
X126202401Y-51047434D01*
X126199500Y-51084311D01*
X126199500Y-52040688D01*
X126202401Y-52077565D01*
X126202401Y-52077568D01*
X126202402Y-52077569D01*
X126248256Y-52235398D01*
X126331919Y-52376865D01*
X126448135Y-52493081D01*
X126497338Y-52522179D01*
X126537799Y-52568074D01*
X126543558Y-52628988D01*
X126512412Y-52681653D01*
X126497338Y-52692605D01*
X126473137Y-52706917D01*
X126356918Y-52823136D01*
X126273256Y-52964602D01*
X126227403Y-53122427D01*
X126227401Y-53122434D01*
X126224500Y-53159311D01*
X126224500Y-53915688D01*
X126227401Y-53952565D01*
X126227401Y-53952568D01*
X126227402Y-53952569D01*
X126273256Y-54110398D01*
X126356919Y-54251865D01*
X126473135Y-54368081D01*
X126614602Y-54451744D01*
X126772431Y-54497598D01*
X126809306Y-54500500D01*
X126809311Y-54500500D01*
X128190689Y-54500500D01*
X128190694Y-54500500D01*
X128227569Y-54497598D01*
X128385398Y-54451744D01*
X128526865Y-54368081D01*
X128643081Y-54251865D01*
X128726744Y-54110398D01*
X128772598Y-53952569D01*
X128775500Y-53915694D01*
X128775500Y-53159306D01*
X128772598Y-53122431D01*
X128726744Y-52964602D01*
X128643081Y-52823135D01*
X128526865Y-52706919D01*
X128502660Y-52692604D01*
X128462199Y-52646710D01*
X128456441Y-52585796D01*
X128487587Y-52533131D01*
X128489416Y-52531557D01*
X128495646Y-52526328D01*
X128551865Y-52493081D01*
X128638504Y-52406441D01*
X128641813Y-52403665D01*
X128666373Y-52393740D01*
X128689968Y-52381719D01*
X128697613Y-52381117D01*
X128698542Y-52380742D01*
X128699463Y-52380971D01*
X128705454Y-52380500D01*
X131626749Y-52380500D01*
X131684940Y-52399407D01*
X131706839Y-52421306D01*
X131805917Y-52557675D01*
X131947325Y-52699083D01*
X132109113Y-52816629D01*
X132287297Y-52907419D01*
X132287305Y-52907421D01*
X132287306Y-52907422D01*
X132290005Y-52908541D01*
X132290749Y-52909177D01*
X132290763Y-52909184D01*
X132290761Y-52909187D01*
X132336525Y-52948284D01*
X132350801Y-53007781D01*
X132327378Y-53064306D01*
X132290005Y-53091459D01*
X132287306Y-53092577D01*
X132287300Y-53092579D01*
X132287297Y-53092581D01*
X132228714Y-53122431D01*
X132109115Y-53183369D01*
X131947326Y-53300916D01*
X131805916Y-53442326D01*
X131688369Y-53604115D01*
X131597578Y-53782303D01*
X131535783Y-53972492D01*
X131504500Y-54170005D01*
X131504500Y-54369994D01*
X131535783Y-54567507D01*
X131597578Y-54757696D01*
X131597580Y-54757699D01*
X131597581Y-54757703D01*
X131638153Y-54837330D01*
X131666965Y-54893877D01*
X131688371Y-54935887D01*
X131805917Y-55097675D01*
X131947325Y-55239083D01*
X132109113Y-55356629D01*
X132287297Y-55447419D01*
X132287305Y-55447421D01*
X132287306Y-55447422D01*
X132290005Y-55448541D01*
X132290749Y-55449177D01*
X132290763Y-55449184D01*
X132290761Y-55449187D01*
X132336525Y-55488284D01*
X132350801Y-55547781D01*
X132327378Y-55604306D01*
X132290005Y-55631459D01*
X132287306Y-55632577D01*
X132287300Y-55632579D01*
X132287297Y-55632581D01*
X132220683Y-55666522D01*
X132109115Y-55723369D01*
X131947326Y-55840916D01*
X131805916Y-55982326D01*
X131688369Y-56144115D01*
X131597578Y-56322303D01*
X131535783Y-56512492D01*
X131504500Y-56710005D01*
X131504500Y-56909994D01*
X131535783Y-57107507D01*
X131597578Y-57297696D01*
X131597580Y-57297699D01*
X131597581Y-57297703D01*
X131628218Y-57357831D01*
X131682504Y-57464374D01*
X131688371Y-57475887D01*
X131805917Y-57637675D01*
X131947325Y-57779083D01*
X132109113Y-57896629D01*
X132287297Y-57987419D01*
X132477490Y-58049216D01*
X132556497Y-58061729D01*
X132675006Y-58080500D01*
X132675009Y-58080500D01*
X133213000Y-58080500D01*
X133271191Y-58099407D01*
X133307155Y-58148907D01*
X133312000Y-58179500D01*
X133312000Y-59262680D01*
X133293093Y-59320871D01*
X133263396Y-59347893D01*
X133248138Y-59356916D01*
X133131918Y-59473136D01*
X133048256Y-59614602D01*
X133002403Y-59772427D01*
X133002401Y-59772434D01*
X132999500Y-59809311D01*
X132999500Y-61190688D01*
X133002401Y-61227565D01*
X133002401Y-61227568D01*
X133002402Y-61227569D01*
X133048256Y-61385398D01*
X133131919Y-61526865D01*
X133248135Y-61643081D01*
X133389602Y-61726744D01*
X133547431Y-61772598D01*
X133584306Y-61775500D01*
X133584311Y-61775500D01*
X134340689Y-61775500D01*
X134340694Y-61775500D01*
X134377569Y-61772598D01*
X134535398Y-61726744D01*
X134676865Y-61643081D01*
X134680498Y-61639447D01*
X134735013Y-61611672D01*
X134795445Y-61621243D01*
X134838710Y-61664508D01*
X134849500Y-61709453D01*
X134849500Y-62290547D01*
X134830593Y-62348738D01*
X134781093Y-62384702D01*
X134719907Y-62384702D01*
X134680498Y-62360552D01*
X134676865Y-62356919D01*
X134535398Y-62273256D01*
X134377569Y-62227402D01*
X134377568Y-62227401D01*
X134377565Y-62227401D01*
X134354140Y-62225558D01*
X134340694Y-62224500D01*
X133584306Y-62224500D01*
X133571773Y-62225486D01*
X133547434Y-62227401D01*
X133547427Y-62227403D01*
X133389602Y-62273256D01*
X133263356Y-62347917D01*
X133203644Y-62361264D01*
X133147491Y-62336964D01*
X133121497Y-62300589D01*
X133076464Y-62191871D01*
X133008761Y-62090546D01*
X133008759Y-62090542D01*
X133005281Y-62085337D01*
X133005278Y-62085333D01*
X133005276Y-62085330D01*
X132029496Y-61109550D01*
X132001719Y-61055033D01*
X132000500Y-61039546D01*
X132000500Y-59809311D01*
X131997598Y-59772434D01*
X131997598Y-59772431D01*
X131951744Y-59614602D01*
X131868081Y-59473135D01*
X131751865Y-59356919D01*
X131610398Y-59273256D01*
X131452569Y-59227402D01*
X131452568Y-59227401D01*
X131452565Y-59227401D01*
X131429140Y-59225558D01*
X131415694Y-59224500D01*
X130659306Y-59224500D01*
X130646773Y-59225486D01*
X130622434Y-59227401D01*
X130622427Y-59227403D01*
X130464602Y-59273256D01*
X130323136Y-59356918D01*
X130206918Y-59473136D01*
X130200495Y-59483997D01*
X130123256Y-59614602D01*
X130090687Y-59726706D01*
X130075991Y-59777288D01*
X130073667Y-59776613D01*
X130049101Y-59822137D01*
X129993943Y-59848620D01*
X129980770Y-59849500D01*
X128435930Y-59849500D01*
X128373093Y-59861999D01*
X128310256Y-59874499D01*
X128310255Y-59874499D01*
X128310252Y-59874500D01*
X128191873Y-59923534D01*
X128085333Y-59994721D01*
X126759550Y-61320504D01*
X126705033Y-61348281D01*
X126689546Y-61349500D01*
X126499924Y-61349500D01*
X126441733Y-61330593D01*
X126419832Y-61308691D01*
X126377555Y-61250502D01*
X126377553Y-61250499D01*
X126249501Y-61122447D01*
X126102994Y-61016004D01*
X126102993Y-61016003D01*
X126102991Y-61016002D01*
X125941637Y-60933788D01*
X125769406Y-60877828D01*
X125590549Y-60849500D01*
X125590546Y-60849500D01*
X125409454Y-60849500D01*
X125409451Y-60849500D01*
X125230593Y-60877828D01*
X125058362Y-60933788D01*
X124897008Y-61016002D01*
X124864603Y-61039546D01*
X124750499Y-61122447D01*
X124622447Y-61250499D01*
X124580168Y-61308691D01*
X124516002Y-61397008D01*
X124433788Y-61558362D01*
X124377828Y-61730593D01*
X124349500Y-61909450D01*
X123150500Y-61909450D01*
X123150500Y-60810453D01*
X123169407Y-60752262D01*
X123179490Y-60740455D01*
X124467776Y-59452170D01*
X124538965Y-59345627D01*
X124588001Y-59227244D01*
X124588547Y-59224500D01*
X124613000Y-59101569D01*
X124613000Y-58409450D01*
X125849500Y-58409450D01*
X125849500Y-58590549D01*
X125877828Y-58769406D01*
X125933788Y-58941637D01*
X126015277Y-59101569D01*
X126016004Y-59102994D01*
X126122447Y-59249501D01*
X126250499Y-59377553D01*
X126397006Y-59483996D01*
X126558361Y-59566211D01*
X126730591Y-59622171D01*
X126802136Y-59633502D01*
X126909451Y-59650500D01*
X126909454Y-59650500D01*
X127090549Y-59650500D01*
X127179977Y-59636335D01*
X127269409Y-59622171D01*
X127441639Y-59566211D01*
X127602994Y-59483996D01*
X127749501Y-59377553D01*
X127877553Y-59249501D01*
X127983996Y-59102994D01*
X128066211Y-58941639D01*
X128122171Y-58769409D01*
X128150500Y-58590546D01*
X128150500Y-58409454D01*
X128150500Y-58409450D01*
X128122621Y-58233429D01*
X128125290Y-58194660D01*
X128124552Y-58194514D01*
X128125501Y-58189744D01*
X128150500Y-58064069D01*
X128150500Y-57519229D01*
X128169407Y-57461038D01*
X128218907Y-57425074D01*
X128222740Y-57424107D01*
X128222712Y-57424009D01*
X128227569Y-57422598D01*
X128385398Y-57376744D01*
X128526865Y-57293081D01*
X128643081Y-57176865D01*
X128726744Y-57035398D01*
X128772598Y-56877569D01*
X128775500Y-56840694D01*
X128775500Y-56084306D01*
X128772598Y-56047431D01*
X128726744Y-55889602D01*
X128643081Y-55748135D01*
X128526865Y-55631919D01*
X128385398Y-55548256D01*
X128227569Y-55502402D01*
X128227568Y-55502401D01*
X128227565Y-55502401D01*
X128204140Y-55500558D01*
X128190694Y-55499500D01*
X126809306Y-55499500D01*
X126796773Y-55500486D01*
X126772434Y-55502401D01*
X126772427Y-55502403D01*
X126614602Y-55548256D01*
X126473136Y-55631918D01*
X126356918Y-55748136D01*
X126273256Y-55889602D01*
X126227403Y-56047427D01*
X126227401Y-56047434D01*
X126224500Y-56084311D01*
X126224500Y-56840688D01*
X126227401Y-56877565D01*
X126227401Y-56877568D01*
X126227402Y-56877569D01*
X126273256Y-57035398D01*
X126356919Y-57176865D01*
X126473135Y-57293081D01*
X126485386Y-57300326D01*
X126525848Y-57346221D01*
X126531606Y-57407135D01*
X126500460Y-57459800D01*
X126479936Y-57473748D01*
X126397011Y-57516000D01*
X126397009Y-57516001D01*
X126309101Y-57579869D01*
X126250499Y-57622447D01*
X126122447Y-57750499D01*
X126104283Y-57775500D01*
X126016002Y-57897008D01*
X125933788Y-58058362D01*
X125877828Y-58230593D01*
X125849500Y-58409450D01*
X124613000Y-58409450D01*
X124613000Y-57737319D01*
X124631907Y-57679128D01*
X124661606Y-57652105D01*
X124661785Y-57651998D01*
X124676865Y-57643081D01*
X124793081Y-57526865D01*
X124876744Y-57385398D01*
X124922598Y-57227569D01*
X124925500Y-57190694D01*
X124925500Y-55809306D01*
X124922598Y-55772431D01*
X124876744Y-55614602D01*
X124793081Y-55473135D01*
X124676865Y-55356919D01*
X124676862Y-55356917D01*
X124676861Y-55356916D01*
X124661604Y-55347893D01*
X124621142Y-55301997D01*
X124613000Y-55262680D01*
X124613000Y-54737319D01*
X124631907Y-54679128D01*
X124661606Y-54652105D01*
X124661785Y-54651998D01*
X124676865Y-54643081D01*
X124793081Y-54526865D01*
X124876744Y-54385398D01*
X124922598Y-54227569D01*
X124925500Y-54190694D01*
X124925500Y-52809306D01*
X124922598Y-52772431D01*
X124876744Y-52614602D01*
X124793081Y-52473135D01*
X124676865Y-52356919D01*
X124676862Y-52356917D01*
X124676861Y-52356916D01*
X124661604Y-52347893D01*
X124621142Y-52301997D01*
X124613000Y-52262680D01*
X124613000Y-52237319D01*
X124631907Y-52179128D01*
X124661606Y-52152105D01*
X124661785Y-52151998D01*
X124676865Y-52143081D01*
X124793081Y-52026865D01*
X124876744Y-51885398D01*
X124922598Y-51727569D01*
X124925500Y-51690694D01*
X124925500Y-50309306D01*
X124922598Y-50272431D01*
X124876744Y-50114602D01*
X124793081Y-49973135D01*
X124676865Y-49856919D01*
X124535398Y-49773256D01*
X124377569Y-49727402D01*
X124377568Y-49727401D01*
X124377565Y-49727401D01*
X124354140Y-49725558D01*
X124340694Y-49724500D01*
X123584306Y-49724500D01*
X123571773Y-49725486D01*
X123547434Y-49727401D01*
X123547427Y-49727403D01*
X123389601Y-49773256D01*
X123332284Y-49807152D01*
X123272572Y-49820497D01*
X123216419Y-49796196D01*
X123211887Y-49791941D01*
X123179496Y-49759550D01*
X123151719Y-49705033D01*
X123150500Y-49689546D01*
X123150500Y-48687501D01*
X126100001Y-48687501D01*
X126100001Y-48899986D01*
X126110492Y-49002687D01*
X126110495Y-49002699D01*
X126165643Y-49169124D01*
X126257680Y-49318340D01*
X126381659Y-49442319D01*
X126530875Y-49534356D01*
X126697306Y-49589506D01*
X126800012Y-49599999D01*
X127249998Y-49599999D01*
X127250000Y-49599998D01*
X127250000Y-48687501D01*
X127750000Y-48687501D01*
X127750000Y-49599998D01*
X127750001Y-49599999D01*
X128199986Y-49599999D01*
X128302687Y-49589507D01*
X128302699Y-49589504D01*
X128469124Y-49534356D01*
X128618340Y-49442319D01*
X128742319Y-49318340D01*
X128834356Y-49169124D01*
X128889506Y-49002693D01*
X128900000Y-48899987D01*
X128900000Y-48687501D01*
X128899999Y-48687500D01*
X127750001Y-48687500D01*
X127750000Y-48687501D01*
X127250000Y-48687501D01*
X127249999Y-48687500D01*
X126100002Y-48687500D01*
X126100001Y-48687501D01*
X123150500Y-48687501D01*
X123150500Y-47975012D01*
X126100000Y-47975012D01*
X126100000Y-48187499D01*
X126100001Y-48187500D01*
X127249999Y-48187500D01*
X127250000Y-48187499D01*
X127250000Y-47275001D01*
X127750000Y-47275001D01*
X127750000Y-48187499D01*
X127750001Y-48187500D01*
X128899998Y-48187500D01*
X128899999Y-48187499D01*
X128899999Y-47975013D01*
X128889507Y-47872312D01*
X128889504Y-47872300D01*
X128834356Y-47705875D01*
X128742319Y-47556659D01*
X128618340Y-47432680D01*
X128469124Y-47340643D01*
X128302693Y-47285493D01*
X128199987Y-47275000D01*
X127750001Y-47275000D01*
X127750000Y-47275001D01*
X127250000Y-47275001D01*
X127249999Y-47275000D01*
X126800013Y-47275000D01*
X126697312Y-47285492D01*
X126697300Y-47285495D01*
X126570341Y-47327564D01*
X126510524Y-47353195D01*
X126381657Y-47432682D01*
X126257680Y-47556659D01*
X126165643Y-47705875D01*
X126110493Y-47872306D01*
X126100000Y-47975012D01*
X123150500Y-47975012D01*
X123150500Y-46935932D01*
X123150500Y-46935931D01*
X123125501Y-46810256D01*
X123098760Y-46745698D01*
X123076466Y-46691874D01*
X123076088Y-46691309D01*
X123005279Y-46585334D01*
X123005277Y-46585331D01*
X122732447Y-46312501D01*
X124100001Y-46312501D01*
X124100001Y-46524986D01*
X124110492Y-46627687D01*
X124110495Y-46627699D01*
X124165643Y-46794124D01*
X124257680Y-46943340D01*
X124381659Y-47067319D01*
X124530875Y-47159356D01*
X124697306Y-47214506D01*
X124800012Y-47224999D01*
X125249998Y-47224999D01*
X125250000Y-47224998D01*
X125250000Y-46312501D01*
X125750000Y-46312501D01*
X125750000Y-47224998D01*
X125750001Y-47224999D01*
X126199986Y-47224999D01*
X126302687Y-47214507D01*
X126302699Y-47214504D01*
X126429657Y-47172434D01*
X126489477Y-47146801D01*
X126618340Y-47067319D01*
X126742319Y-46943340D01*
X126834356Y-46794124D01*
X126889506Y-46627693D01*
X126900000Y-46524987D01*
X126900000Y-46312501D01*
X126899999Y-46312500D01*
X125750001Y-46312500D01*
X125750000Y-46312501D01*
X125250000Y-46312501D01*
X125249999Y-46312500D01*
X124100002Y-46312500D01*
X124100001Y-46312501D01*
X122732447Y-46312501D01*
X122543480Y-46123534D01*
X122304496Y-45884549D01*
X122276719Y-45830033D01*
X122275500Y-45814546D01*
X122275500Y-45600012D01*
X124100000Y-45600012D01*
X124100000Y-45812499D01*
X124100001Y-45812500D01*
X125249999Y-45812500D01*
X125250000Y-45812499D01*
X125250000Y-44900001D01*
X125750000Y-44900001D01*
X125750000Y-45812499D01*
X125750001Y-45812500D01*
X126899998Y-45812500D01*
X126899999Y-45812499D01*
X126899999Y-45600018D01*
X126899223Y-45592419D01*
X126899223Y-45592417D01*
X126898394Y-45584306D01*
X128224500Y-45584306D01*
X128224500Y-46340694D01*
X128225683Y-46355732D01*
X128227401Y-46377565D01*
X128227401Y-46377568D01*
X128227402Y-46377569D01*
X128273256Y-46535398D01*
X128356919Y-46676865D01*
X128473135Y-46793081D01*
X128614602Y-46876744D01*
X128772431Y-46922598D01*
X128809306Y-46925500D01*
X128809311Y-46925500D01*
X130190689Y-46925500D01*
X130190694Y-46925500D01*
X130227569Y-46922598D01*
X130385398Y-46876744D01*
X130526865Y-46793081D01*
X130640451Y-46679494D01*
X130694966Y-46651719D01*
X130710453Y-46650500D01*
X131000076Y-46650500D01*
X131058267Y-46669407D01*
X131080168Y-46691309D01*
X131080582Y-46691879D01*
X131122447Y-46749501D01*
X131250499Y-46877553D01*
X131397006Y-46983996D01*
X131558361Y-47066211D01*
X131730591Y-47122171D01*
X131802136Y-47133502D01*
X131909451Y-47150500D01*
X131909454Y-47150500D01*
X132090549Y-47150500D01*
X132179977Y-47136335D01*
X132269409Y-47122171D01*
X132441639Y-47066211D01*
X132602994Y-46983996D01*
X132749501Y-46877553D01*
X132877553Y-46749501D01*
X132983996Y-46602994D01*
X133066211Y-46441639D01*
X133122171Y-46269409D01*
X133140239Y-46155330D01*
X133150500Y-46090549D01*
X133150500Y-45909450D01*
X133122171Y-45730593D01*
X133122171Y-45730591D01*
X133066211Y-45558361D01*
X132983996Y-45397006D01*
X132877553Y-45250499D01*
X132749501Y-45122447D01*
X132602994Y-45016004D01*
X132602993Y-45016003D01*
X132602991Y-45016002D01*
X132441637Y-44933788D01*
X132269406Y-44877828D01*
X132090549Y-44849500D01*
X132090546Y-44849500D01*
X131909454Y-44849500D01*
X131909451Y-44849500D01*
X131730593Y-44877828D01*
X131558362Y-44933788D01*
X131397008Y-45016002D01*
X131323752Y-45069225D01*
X131250499Y-45122447D01*
X131250497Y-45122449D01*
X131122444Y-45250502D01*
X131080168Y-45308691D01*
X131030668Y-45344655D01*
X131000076Y-45349500D01*
X130759496Y-45349500D01*
X130701305Y-45330593D01*
X130674283Y-45300895D01*
X130643081Y-45248135D01*
X130526865Y-45131919D01*
X130385398Y-45048256D01*
X130227569Y-45002402D01*
X130227568Y-45002401D01*
X130227565Y-45002401D01*
X130204140Y-45000558D01*
X130190694Y-44999500D01*
X128809306Y-44999500D01*
X128796773Y-45000486D01*
X128772434Y-45002401D01*
X128772427Y-45002403D01*
X128614602Y-45048256D01*
X128473136Y-45131918D01*
X128356918Y-45248136D01*
X128273256Y-45389602D01*
X128227403Y-45547427D01*
X128227401Y-45547434D01*
X128225486Y-45571773D01*
X128224500Y-45584306D01*
X126898394Y-45584306D01*
X126889506Y-45497311D01*
X126889504Y-45497300D01*
X126834356Y-45330875D01*
X126742319Y-45181659D01*
X126618340Y-45057680D01*
X126469124Y-44965643D01*
X126302693Y-44910493D01*
X126199987Y-44900000D01*
X125750001Y-44900000D01*
X125750000Y-44900001D01*
X125250000Y-44900001D01*
X125249999Y-44900000D01*
X124800013Y-44900000D01*
X124697312Y-44910492D01*
X124697300Y-44910495D01*
X124530875Y-44965643D01*
X124381659Y-45057680D01*
X124257680Y-45181659D01*
X124165643Y-45330875D01*
X124110493Y-45497306D01*
X124100000Y-45600012D01*
X122275500Y-45600012D01*
X122275500Y-45584311D01*
X122272598Y-45547434D01*
X122272598Y-45547431D01*
X122226744Y-45389602D01*
X122143081Y-45248135D01*
X122026865Y-45131919D01*
X121885398Y-45048256D01*
X121727569Y-45002402D01*
X121727568Y-45002401D01*
X121727565Y-45002401D01*
X121704140Y-45000558D01*
X121690694Y-44999500D01*
X120309306Y-44999500D01*
X120296773Y-45000486D01*
X120272434Y-45002401D01*
X120272427Y-45002403D01*
X120114602Y-45048256D01*
X119973136Y-45131918D01*
X119856918Y-45248136D01*
X119773256Y-45389602D01*
X119727403Y-45547427D01*
X119727401Y-45547434D01*
X119725486Y-45571773D01*
X119724500Y-45584306D01*
X119724500Y-46340694D01*
X119725683Y-46355732D01*
X119727401Y-46377565D01*
X119727401Y-46377568D01*
X119727402Y-46377569D01*
X119773256Y-46535398D01*
X119856919Y-46676865D01*
X119973135Y-46793081D01*
X120114602Y-46876744D01*
X120272431Y-46922598D01*
X120309306Y-46925500D01*
X121464546Y-46925500D01*
X121522737Y-46944407D01*
X121534550Y-46954496D01*
X121820504Y-47240450D01*
X121848281Y-47294967D01*
X121849500Y-47310454D01*
X121849500Y-49741094D01*
X121830593Y-49799285D01*
X121781093Y-49835249D01*
X121719907Y-49835249D01*
X121700106Y-49826308D01*
X121610399Y-49773256D01*
X121452572Y-49727403D01*
X121452569Y-49727402D01*
X121452568Y-49727401D01*
X121452565Y-49727401D01*
X121429140Y-49725558D01*
X121415694Y-49724500D01*
X120659306Y-49724500D01*
X120646773Y-49725486D01*
X120622434Y-49727401D01*
X120622427Y-49727403D01*
X120464602Y-49773256D01*
X120323136Y-49856918D01*
X120206918Y-49973136D01*
X120123256Y-50114602D01*
X120075991Y-50277288D01*
X120073667Y-50276613D01*
X120049101Y-50322137D01*
X119993943Y-50348620D01*
X119980770Y-50349500D01*
X118473430Y-50349500D01*
X118407338Y-50362647D01*
X118347756Y-50374499D01*
X118324557Y-50384108D01*
X118263561Y-50388907D01*
X118216672Y-50362648D01*
X118187318Y-50333294D01*
X118171962Y-50322137D01*
X118121308Y-50285334D01*
X118085345Y-50235834D01*
X118080500Y-50205242D01*
X118080500Y-48865932D01*
X118080500Y-48865931D01*
X118055501Y-48740256D01*
X118006465Y-48621873D01*
X117935277Y-48515331D01*
X113988949Y-44569003D01*
X113961172Y-44514486D01*
X113970743Y-44454054D01*
X114014008Y-44410789D01*
X114058953Y-44399999D01*
X114187499Y-44399999D01*
X114187500Y-44399998D01*
X114187500Y-43250001D01*
X114687500Y-43250001D01*
X114687500Y-44399998D01*
X114687501Y-44399999D01*
X114899986Y-44399999D01*
X115002687Y-44389507D01*
X115002699Y-44389504D01*
X115169124Y-44334356D01*
X115318340Y-44242319D01*
X115442319Y-44118340D01*
X115534356Y-43969124D01*
X115589506Y-43802693D01*
X115600000Y-43699987D01*
X115600000Y-43250001D01*
X115599999Y-43250000D01*
X114687501Y-43250000D01*
X114687500Y-43250001D01*
X114187500Y-43250001D01*
X114187499Y-43250000D01*
X113275002Y-43250000D01*
X113275001Y-43250001D01*
X113275001Y-43616047D01*
X113256094Y-43674238D01*
X113206594Y-43710202D01*
X113145408Y-43710202D01*
X113105997Y-43686051D01*
X111719958Y-42300012D01*
X113275000Y-42300012D01*
X113275000Y-42749999D01*
X113275001Y-42750000D01*
X114187499Y-42750000D01*
X114187500Y-42749999D01*
X114187500Y-41600001D01*
X114687500Y-41600001D01*
X114687500Y-42749999D01*
X114687501Y-42750000D01*
X115599998Y-42750000D01*
X115599999Y-42749999D01*
X115599999Y-42300018D01*
X115599223Y-42292419D01*
X115599223Y-42292417D01*
X115598394Y-42284306D01*
X116499500Y-42284306D01*
X116499500Y-43715694D01*
X116500434Y-43727565D01*
X116502401Y-43752565D01*
X116502401Y-43752568D01*
X116502402Y-43752569D01*
X116548256Y-43910398D01*
X116631919Y-44051865D01*
X116748135Y-44168081D01*
X116889602Y-44251744D01*
X117047431Y-44297598D01*
X117084306Y-44300500D01*
X117084311Y-44300500D01*
X118040689Y-44300500D01*
X118040694Y-44300500D01*
X118077569Y-44297598D01*
X118235398Y-44251744D01*
X118376865Y-44168081D01*
X118493081Y-44051865D01*
X118576744Y-43910398D01*
X118620619Y-43759379D01*
X118655010Y-43708774D01*
X118712579Y-43688049D01*
X118715688Y-43688000D01*
X119762681Y-43688000D01*
X119820872Y-43706907D01*
X119847895Y-43736606D01*
X119856919Y-43751865D01*
X119973135Y-43868081D01*
X120114602Y-43951744D01*
X120272431Y-43997598D01*
X120309306Y-44000500D01*
X120309311Y-44000500D01*
X121690689Y-44000500D01*
X121690694Y-44000500D01*
X121727569Y-43997598D01*
X121885398Y-43951744D01*
X122026865Y-43868081D01*
X122143081Y-43751865D01*
X122226744Y-43610398D01*
X122272598Y-43452569D01*
X122275500Y-43415694D01*
X122275500Y-42659306D01*
X122272598Y-42622431D01*
X122226744Y-42464602D01*
X122223615Y-42459311D01*
X124199500Y-42459311D01*
X124199500Y-43415688D01*
X124202401Y-43452565D01*
X124202401Y-43452568D01*
X124202402Y-43452569D01*
X124248256Y-43610398D01*
X124331919Y-43751865D01*
X124448135Y-43868081D01*
X124589602Y-43951744D01*
X124747431Y-43997598D01*
X124784306Y-44000500D01*
X124784311Y-44000500D01*
X126215689Y-44000500D01*
X126215694Y-44000500D01*
X126252569Y-43997598D01*
X126410398Y-43951744D01*
X126551865Y-43868081D01*
X126668081Y-43751865D01*
X126677105Y-43736606D01*
X126723001Y-43696143D01*
X126762319Y-43688000D01*
X128262681Y-43688000D01*
X128320872Y-43706907D01*
X128347895Y-43736606D01*
X128356919Y-43751865D01*
X128473135Y-43868081D01*
X128614602Y-43951744D01*
X128772431Y-43997598D01*
X128809306Y-44000500D01*
X128809311Y-44000500D01*
X130190689Y-44000500D01*
X130190694Y-44000500D01*
X130227569Y-43997598D01*
X130385398Y-43951744D01*
X130526865Y-43868081D01*
X130643081Y-43751865D01*
X130726744Y-43610398D01*
X130772598Y-43452569D01*
X130775500Y-43415694D01*
X130775500Y-42659306D01*
X130772598Y-42622431D01*
X130726744Y-42464602D01*
X130643081Y-42323135D01*
X130526865Y-42206919D01*
X130385398Y-42123256D01*
X130227569Y-42077402D01*
X130227568Y-42077401D01*
X130222712Y-42075991D01*
X130223386Y-42073667D01*
X130177863Y-42049101D01*
X130151380Y-41993943D01*
X130150500Y-41980770D01*
X130150500Y-41973432D01*
X130150500Y-41973431D01*
X130125501Y-41847756D01*
X130076465Y-41729373D01*
X130076463Y-41729370D01*
X130076461Y-41729366D01*
X130042977Y-41679255D01*
X130005276Y-41622831D01*
X129914669Y-41532224D01*
X128678305Y-40295860D01*
X128650528Y-40241343D01*
X128660099Y-40180911D01*
X128678302Y-40155857D01*
X128758931Y-40075229D01*
X128901710Y-39878710D01*
X133149500Y-39878710D01*
X133149500Y-40121289D01*
X133181161Y-40361781D01*
X133181161Y-40361786D01*
X133181162Y-40361789D01*
X133227694Y-40535449D01*
X133243944Y-40596092D01*
X133243948Y-40596105D01*
X133336772Y-40820204D01*
X133336774Y-40820208D01*
X133336776Y-40820212D01*
X133425237Y-40973431D01*
X133458066Y-41030292D01*
X133605729Y-41222731D01*
X133605731Y-41222733D01*
X133605735Y-41222738D01*
X133777262Y-41394265D01*
X133777266Y-41394268D01*
X133777268Y-41394270D01*
X133828055Y-41433240D01*
X133969711Y-41541936D01*
X134179788Y-41663224D01*
X134403900Y-41756054D01*
X134638211Y-41818838D01*
X134878712Y-41850500D01*
X134878713Y-41850500D01*
X135121287Y-41850500D01*
X135121288Y-41850500D01*
X135361789Y-41818838D01*
X135596100Y-41756054D01*
X135820212Y-41663224D01*
X136030289Y-41541936D01*
X136222738Y-41394265D01*
X136394265Y-41222738D01*
X136541936Y-41030289D01*
X136663224Y-40820212D01*
X136756054Y-40596100D01*
X136818838Y-40361789D01*
X136850500Y-40121288D01*
X136850500Y-39878712D01*
X136818838Y-39638211D01*
X136756054Y-39403900D01*
X136663224Y-39179788D01*
X136541936Y-38969711D01*
X136504566Y-38921009D01*
X136394270Y-38777268D01*
X136394268Y-38777266D01*
X136394265Y-38777262D01*
X136222738Y-38605735D01*
X136222733Y-38605731D01*
X136222731Y-38605729D01*
X136030292Y-38458066D01*
X136030289Y-38458064D01*
X135820212Y-38336776D01*
X135820208Y-38336774D01*
X135820204Y-38336772D01*
X135596105Y-38243948D01*
X135596104Y-38243947D01*
X135596100Y-38243946D01*
X135361789Y-38181162D01*
X135361786Y-38181161D01*
X135361784Y-38181161D01*
X135121289Y-38149500D01*
X135121288Y-38149500D01*
X134878712Y-38149500D01*
X134878710Y-38149500D01*
X134638218Y-38181161D01*
X134638213Y-38181161D01*
X134403907Y-38243944D01*
X134403894Y-38243948D01*
X134179795Y-38336772D01*
X133969707Y-38458066D01*
X133777268Y-38605729D01*
X133605729Y-38777268D01*
X133458066Y-38969707D01*
X133336772Y-39179795D01*
X133243948Y-39403894D01*
X133243944Y-39403907D01*
X133181161Y-39638213D01*
X133181161Y-39638218D01*
X133149500Y-39878710D01*
X128901710Y-39878710D01*
X128911634Y-39865051D01*
X129029579Y-39633572D01*
X129109860Y-39386493D01*
X129109861Y-39386488D01*
X129150500Y-39129900D01*
X129150500Y-38870099D01*
X129109861Y-38613511D01*
X129107335Y-38605735D01*
X129029579Y-38366428D01*
X128911634Y-38134949D01*
X128758931Y-37924771D01*
X128575229Y-37741069D01*
X128365051Y-37588366D01*
X128365050Y-37588365D01*
X128365048Y-37588364D01*
X128257964Y-37533802D01*
X128133572Y-37470421D01*
X128133569Y-37470420D01*
X128133567Y-37470419D01*
X127886488Y-37390138D01*
X127629900Y-37349500D01*
X127629897Y-37349500D01*
X127370103Y-37349500D01*
X127370100Y-37349500D01*
X127113511Y-37390138D01*
X126866432Y-37470419D01*
X126634951Y-37588364D01*
X126424772Y-37741068D01*
X126241068Y-37924772D01*
X126088364Y-38134951D01*
X125970419Y-38366432D01*
X125890138Y-38613511D01*
X125849500Y-38870099D01*
X125849500Y-39129900D01*
X125890138Y-39386488D01*
X125960775Y-39603884D01*
X125970421Y-39633572D01*
X125987083Y-39666273D01*
X126088363Y-39865047D01*
X126088366Y-39865051D01*
X126241069Y-40075229D01*
X126424771Y-40258931D01*
X126634949Y-40411634D01*
X126866428Y-40529579D01*
X127113507Y-40609860D01*
X127127959Y-40612148D01*
X127182476Y-40639923D01*
X127182480Y-40639926D01*
X127890507Y-41347953D01*
X128556532Y-42013977D01*
X128584309Y-42068494D01*
X128574738Y-42128926D01*
X128536923Y-42169194D01*
X128473138Y-42206916D01*
X128356917Y-42323137D01*
X128347895Y-42338394D01*
X128301999Y-42378857D01*
X128262681Y-42387000D01*
X126861635Y-42387000D01*
X126803444Y-42368093D01*
X126767480Y-42318593D01*
X126766566Y-42315621D01*
X126764733Y-42309311D01*
X126751744Y-42264602D01*
X126668081Y-42123135D01*
X126551865Y-42006919D01*
X126410398Y-41923256D01*
X126252569Y-41877402D01*
X126252568Y-41877401D01*
X126252565Y-41877401D01*
X126229140Y-41875558D01*
X126215694Y-41874500D01*
X124784306Y-41874500D01*
X124771773Y-41875486D01*
X124747434Y-41877401D01*
X124747427Y-41877403D01*
X124589602Y-41923256D01*
X124448136Y-42006918D01*
X124331918Y-42123136D01*
X124248256Y-42264602D01*
X124202403Y-42422427D01*
X124202401Y-42422434D01*
X124200486Y-42446773D01*
X124200042Y-42452427D01*
X124199500Y-42459311D01*
X122223615Y-42459311D01*
X122143081Y-42323135D01*
X122026865Y-42206919D01*
X121885398Y-42123256D01*
X121727569Y-42077402D01*
X121727568Y-42077401D01*
X121722712Y-42075991D01*
X121723386Y-42073667D01*
X121677863Y-42049101D01*
X121651380Y-41993943D01*
X121650500Y-41980770D01*
X121650500Y-40581620D01*
X121669407Y-40523429D01*
X121704553Y-40493411D01*
X121865051Y-40411634D01*
X122075229Y-40258931D01*
X122258931Y-40075229D01*
X122411634Y-39865051D01*
X122529579Y-39633572D01*
X122609860Y-39386493D01*
X122609861Y-39386488D01*
X122650500Y-39129900D01*
X122650500Y-38870099D01*
X122609861Y-38613511D01*
X122607335Y-38605735D01*
X122529579Y-38366428D01*
X122411634Y-38134949D01*
X122258931Y-37924771D01*
X122075229Y-37741069D01*
X121865051Y-37588366D01*
X121865050Y-37588365D01*
X121865048Y-37588364D01*
X121757964Y-37533802D01*
X121633572Y-37470421D01*
X121633569Y-37470420D01*
X121633567Y-37470419D01*
X121386488Y-37390138D01*
X121129900Y-37349500D01*
X121129897Y-37349500D01*
X120870103Y-37349500D01*
X120870100Y-37349500D01*
X120613511Y-37390138D01*
X120366432Y-37470419D01*
X120134951Y-37588364D01*
X119924772Y-37741068D01*
X119741068Y-37924772D01*
X119588364Y-38134951D01*
X119470419Y-38366432D01*
X119390138Y-38613511D01*
X119349500Y-38870099D01*
X119349500Y-39129900D01*
X119390138Y-39386488D01*
X119460775Y-39603884D01*
X119470421Y-39633572D01*
X119487083Y-39666273D01*
X119588363Y-39865047D01*
X119588366Y-39865051D01*
X119741069Y-40075229D01*
X119924771Y-40258931D01*
X120134949Y-40411634D01*
X120295446Y-40493411D01*
X120338709Y-40536675D01*
X120349500Y-40581620D01*
X120349500Y-41980770D01*
X120330593Y-42038961D01*
X120281093Y-42074925D01*
X120277259Y-42075893D01*
X120277288Y-42075991D01*
X120114602Y-42123256D01*
X119973136Y-42206918D01*
X119856917Y-42323137D01*
X119847895Y-42338394D01*
X119801999Y-42378857D01*
X119762681Y-42387000D01*
X118724500Y-42387000D01*
X118666309Y-42368093D01*
X118630345Y-42318593D01*
X118625500Y-42288000D01*
X118625500Y-42284311D01*
X118624947Y-42277288D01*
X118622598Y-42247431D01*
X118576744Y-42089602D01*
X118493081Y-41948135D01*
X118376865Y-41831919D01*
X118235398Y-41748256D01*
X118077569Y-41702402D01*
X118077568Y-41702401D01*
X118077565Y-41702401D01*
X118054140Y-41700558D01*
X118040694Y-41699500D01*
X117084306Y-41699500D01*
X117071773Y-41700486D01*
X117047434Y-41702401D01*
X117047427Y-41702403D01*
X116889602Y-41748256D01*
X116748136Y-41831918D01*
X116631918Y-41948136D01*
X116548256Y-42089602D01*
X116502403Y-42247427D01*
X116502401Y-42247434D01*
X116500486Y-42271773D01*
X116499500Y-42284306D01*
X115598394Y-42284306D01*
X115589506Y-42197311D01*
X115589504Y-42197300D01*
X115534356Y-42030875D01*
X115442319Y-41881659D01*
X115318340Y-41757680D01*
X115169124Y-41665643D01*
X115002693Y-41610493D01*
X114899987Y-41600000D01*
X114687501Y-41600000D01*
X114687500Y-41600001D01*
X114187500Y-41600001D01*
X114187499Y-41600000D01*
X113975013Y-41600000D01*
X113872312Y-41610492D01*
X113872300Y-41610495D01*
X113705875Y-41665643D01*
X113556659Y-41757680D01*
X113432680Y-41881659D01*
X113340643Y-42030875D01*
X113285493Y-42197306D01*
X113275000Y-42300012D01*
X111719958Y-42300012D01*
X109418132Y-39998186D01*
X109390355Y-39943669D01*
X109399926Y-39883237D01*
X109408042Y-39869994D01*
X109411634Y-39865051D01*
X109529579Y-39633572D01*
X109609860Y-39386493D01*
X109609861Y-39386488D01*
X109650500Y-39129900D01*
X109650500Y-38885297D01*
X112750000Y-38885297D01*
X112750000Y-39114702D01*
X112779942Y-39342133D01*
X112779942Y-39342138D01*
X112839315Y-39563718D01*
X112839319Y-39563731D01*
X112927101Y-39775658D01*
X113041805Y-39974332D01*
X113098381Y-40048062D01*
X113935386Y-39211056D01*
X113940889Y-39231591D01*
X114019881Y-39368408D01*
X114131592Y-39480119D01*
X114268409Y-39559111D01*
X114288941Y-39564612D01*
X113451935Y-40401618D01*
X113525667Y-40458194D01*
X113724341Y-40572898D01*
X113936268Y-40660680D01*
X113936281Y-40660684D01*
X114157863Y-40720057D01*
X114385297Y-40749999D01*
X114385300Y-40750000D01*
X114614700Y-40750000D01*
X114614702Y-40749999D01*
X114842133Y-40720057D01*
X114842138Y-40720057D01*
X115063718Y-40660684D01*
X115063731Y-40660680D01*
X115275658Y-40572898D01*
X115474336Y-40458191D01*
X115548064Y-40401618D01*
X114711058Y-39564612D01*
X114731591Y-39559111D01*
X114868408Y-39480119D01*
X114980119Y-39368408D01*
X115059111Y-39231591D01*
X115064612Y-39211058D01*
X115901618Y-40048064D01*
X115958191Y-39974336D01*
X116072898Y-39775658D01*
X116160680Y-39563731D01*
X116160684Y-39563718D01*
X116220057Y-39342138D01*
X116220057Y-39342133D01*
X116249999Y-39114702D01*
X116250000Y-39114700D01*
X116250000Y-38885300D01*
X116249999Y-38885297D01*
X116220057Y-38657866D01*
X116220057Y-38657861D01*
X116160684Y-38436281D01*
X116160680Y-38436268D01*
X116072898Y-38224341D01*
X115958194Y-38025667D01*
X115901617Y-37951935D01*
X115064612Y-38788941D01*
X115059111Y-38768409D01*
X114980119Y-38631592D01*
X114868408Y-38519881D01*
X114731591Y-38440889D01*
X114711056Y-38435386D01*
X115548062Y-37598381D01*
X115474332Y-37541805D01*
X115275658Y-37427101D01*
X115063731Y-37339319D01*
X115063718Y-37339315D01*
X114842136Y-37279942D01*
X114614702Y-37250000D01*
X114385297Y-37250000D01*
X114157866Y-37279942D01*
X114157861Y-37279942D01*
X113936281Y-37339315D01*
X113936268Y-37339319D01*
X113724341Y-37427101D01*
X113525662Y-37541808D01*
X113451935Y-37598380D01*
X114288942Y-38435387D01*
X114268409Y-38440889D01*
X114131592Y-38519881D01*
X114019881Y-38631592D01*
X113940889Y-38768409D01*
X113935387Y-38788942D01*
X113098380Y-37951935D01*
X113041808Y-38025662D01*
X112927101Y-38224341D01*
X112839319Y-38436268D01*
X112839315Y-38436281D01*
X112779942Y-38657861D01*
X112779942Y-38657866D01*
X112750000Y-38885297D01*
X109650500Y-38885297D01*
X109650500Y-38870099D01*
X109609861Y-38613511D01*
X109607335Y-38605735D01*
X109529579Y-38366428D01*
X109411634Y-38134949D01*
X109258931Y-37924771D01*
X109075229Y-37741069D01*
X109075225Y-37741066D01*
X109075224Y-37741065D01*
X109041769Y-37716759D01*
X108865051Y-37588366D01*
X108865050Y-37588365D01*
X108865048Y-37588364D01*
X108757964Y-37533802D01*
X108633572Y-37470421D01*
X108633569Y-37470420D01*
X108633567Y-37470419D01*
X108386488Y-37390138D01*
X108129900Y-37349500D01*
X108129897Y-37349500D01*
X107870103Y-37349500D01*
X107870100Y-37349500D01*
X107613511Y-37390138D01*
X107366432Y-37470419D01*
X107134951Y-37588364D01*
X106924772Y-37741068D01*
X106741068Y-37924772D01*
X106588364Y-38134951D01*
X106470419Y-38366432D01*
X106390138Y-38613511D01*
X106349500Y-38870099D01*
X103150500Y-38870099D01*
X103109861Y-38613511D01*
X103107335Y-38605735D01*
X103029579Y-38366428D01*
X102911634Y-38134949D01*
X102758931Y-37924771D01*
X102575229Y-37741069D01*
X102365051Y-37588366D01*
X102365050Y-37588365D01*
X102365048Y-37588364D01*
X102257964Y-37533802D01*
X102133572Y-37470421D01*
X102133569Y-37470420D01*
X102133567Y-37470419D01*
X101886488Y-37390138D01*
X101629900Y-37349500D01*
X101629897Y-37349500D01*
X101370103Y-37349500D01*
X101370100Y-37349500D01*
X101113511Y-37390138D01*
X100866432Y-37470419D01*
X100634951Y-37588364D01*
X100424772Y-37741068D01*
X100241068Y-37924772D01*
X100088364Y-38134951D01*
X99970419Y-38366432D01*
X99890138Y-38613511D01*
X99849500Y-38870099D01*
X96650500Y-38870099D01*
X96609861Y-38613511D01*
X96607335Y-38605735D01*
X96529579Y-38366428D01*
X96411634Y-38134949D01*
X96258931Y-37924771D01*
X96075229Y-37741069D01*
X95865051Y-37588366D01*
X95865050Y-37588365D01*
X95865048Y-37588364D01*
X95757964Y-37533802D01*
X95633572Y-37470421D01*
X95633569Y-37470420D01*
X95633567Y-37470419D01*
X95386488Y-37390138D01*
X95129900Y-37349500D01*
X95129897Y-37349500D01*
X94870103Y-37349500D01*
X94870100Y-37349500D01*
X94613511Y-37390138D01*
X94366432Y-37470419D01*
X94134951Y-37588364D01*
X93924772Y-37741068D01*
X93741068Y-37924772D01*
X93588364Y-38134951D01*
X93470419Y-38366432D01*
X93390138Y-38613511D01*
X93349500Y-38870099D01*
X91790045Y-38870099D01*
X91414669Y-38494723D01*
X91414665Y-38494720D01*
X91308126Y-38423534D01*
X91189747Y-38374500D01*
X91189745Y-38374499D01*
X91189744Y-38374499D01*
X91064069Y-38349500D01*
X90081621Y-38349500D01*
X90023430Y-38330593D01*
X89993411Y-38295445D01*
X89911635Y-38134951D01*
X89832232Y-38025662D01*
X89758931Y-37924771D01*
X89575229Y-37741069D01*
X89365051Y-37588366D01*
X89365050Y-37588365D01*
X89365048Y-37588364D01*
X89257964Y-37533802D01*
X89133572Y-37470421D01*
X89133569Y-37470420D01*
X89133567Y-37470419D01*
X88886488Y-37390138D01*
X88629900Y-37349500D01*
X88629897Y-37349500D01*
X88370103Y-37349500D01*
X88370100Y-37349500D01*
X88113511Y-37390138D01*
X87866432Y-37470419D01*
X87634951Y-37588364D01*
X87424772Y-37741068D01*
X87241068Y-37924772D01*
X87088364Y-38134951D01*
X86970419Y-38366432D01*
X86890138Y-38613511D01*
X86849500Y-38870099D01*
X84998803Y-38870099D01*
X84998803Y-38866218D01*
X84998653Y-35599505D01*
X85017558Y-35541313D01*
X85067056Y-35505347D01*
X85097653Y-35500500D01*
X139400500Y-35500500D01*
X139458691Y-35519407D01*
G37*
%TD.AperFunction*%
%TD*%
M02*
